<svg height="512" viewBox="0 0 508.595 508.595" width="512" xmlns="http://www.w3.org/2000/svg"><path d="M150.266 242.048h-46.449V28.913h18.011c15.706 0 28.438 12.732 28.438 28.438z" fill="#bed9fd"/><path d="M225.042 259.314h146.433v71.533H225.042z" fill="#9ec8fc"/><path d="M341.475 259.314h30v71.533h-30z" fill="#80b6fc"/><path d="M390.677 240.904v-1.382c0-10.167-8.242-18.41-18.41-18.41h-219.2v38.201h219.2c10.168.001 18.41-8.242 18.41-18.409zM434.557 330.847H194.495v38.201h240.061c10.167 0 18.41-8.242 18.41-18.409v-1.382c0-10.168-8.242-18.41-18.409-18.41z" fill="#e3e0e4"/><path d="M434.557 330.847h-30c10.167 0 18.41 8.242 18.41 18.41v1.382c0 10.167-8.242 18.409-18.41 18.409h30c10.167 0 18.41-8.242 18.41-18.409v-1.382c-.001-10.168-8.243-18.41-18.41-18.41zM360.677 239.522v1.382c0 10.167-8.242 18.41-18.41 18.41h30c10.167 0 18.41-8.242 18.41-18.41v-1.382c0-10.167-8.242-18.41-18.41-18.41h-30c10.168.001 18.41 8.243 18.41 18.41z" fill="#d4cfd5"/><ellipse cx="152.535" cy="361.104" fill="#a59da7" rx="140.737" ry="139.991"/><ellipse cx="152.535" cy="361.104" fill="#d4cfd5" rx="108.907" ry="108.33"/><path d="M152.535 221.113c-4.807 0-9.557.242-14.24.71 71.039 7.1 126.498 66.748 126.498 139.282s-55.458 132.181-126.498 139.282c4.683.468 9.433.71 14.24.71 77.727 0 140.737-62.676 140.737-139.991s-63.01-139.993-140.737-139.993z" fill="#968d97"/><path d="M152.535 252.774c-4.913 0-9.747.329-14.488.956 53.298 7.048 94.419 52.431 94.419 107.374 0 54.942-41.122 100.326-94.419 107.374 4.74.627 9.575.956 14.488.956 60.148 0 108.907-48.501 108.907-108.33s-48.759-108.33-108.907-108.33z" fill="#c5bec6"/><ellipse cx="152.535" cy="361.104" fill="#b5adb7" rx="68.141" ry="67.78"/><path d="M152.535 293.324c-5.156 0-10.172.588-15 1.668 30.413 6.799 53.141 33.807 53.141 66.112s-22.728 59.312-53.141 66.112a68.627 68.627 0 0015 1.668c37.633 0 68.141-30.346 68.141-67.78s-30.508-67.78-68.141-67.78z" fill="#a59da7"/><ellipse cx="152.535" cy="361.104" fill="#877f87" rx="28.688" ry="28.536"/><ellipse cx="413.491" cy="461.829" fill="#a59da7" rx="39.475" ry="39.266"/><path d="M413.491 422.563c-4.117 0-8.086.629-11.818 1.792 16.028 4.996 27.658 19.883 27.658 37.474s-11.63 32.478-27.658 37.474a39.659 39.659 0 0011.818 1.792c21.802 0 39.475-17.58 39.475-39.266s-17.674-39.266-39.475-39.266z" fill="#968d97"/><path d="M152.535 245.274c-64.187 0-116.407 51.961-116.407 115.83s52.22 115.83 116.407 115.83 116.407-51.961 116.407-115.83-52.22-115.83-116.407-115.83zm0 216.66c-55.916 0-101.407-45.232-101.407-100.83s45.491-100.83 101.407-100.83 101.407 45.232 101.407 100.83-45.491 100.83-101.407 100.83z"/><path d="M152.535 285.824c-41.708 0-75.641 33.77-75.641 75.28 0 41.509 33.933 75.28 75.641 75.28s75.641-33.77 75.641-75.28c0-41.509-33.933-75.28-75.641-75.28zm0 135.56c-33.437 0-60.641-27.041-60.641-60.28 0-33.238 27.204-60.28 60.641-60.28s60.641 27.042 60.641 60.28c0 33.239-27.204 60.28-60.641 60.28z"/><path d="M152.535 325.068c-19.955 0-36.188 16.166-36.188 36.036s16.234 36.036 36.188 36.036 36.189-16.166 36.189-36.036-16.234-36.036-36.189-36.036zm0 57.072c-11.684 0-21.188-9.437-21.188-21.036s9.505-21.036 21.188-21.036c11.684 0 21.189 9.437 21.189 21.036s-9.505 21.036-21.189 21.036z"/><path d="M496.798 454.329h-36.944c-3.221-19.801-18.969-35.471-38.863-38.663v-39.119h13.565c14.287 0 25.91-11.623 25.91-25.909v-1.382c0-14.287-11.623-25.91-25.91-25.91h-55.581v-57.418c11.045-2.964 19.202-13.057 19.202-25.024v-1.382c0-14.286-11.623-25.909-25.91-25.909h-14.921v-5.027c0-18.215-14.819-33.035-33.035-33.035H157.765v-118.2c0-19.816-16.122-35.938-35.938-35.938h-11.503C107.013 9.096 95.753 0 82.404 0H54.436a7.5 7.5 0 000 15h27.968c7.672 0 13.914 6.241 13.914 13.913v81.438a7.5 7.5 0 0015 0V36.413h10.51c11.545 0 20.938 9.393 20.938 20.938v156.59a148.056 148.056 0 00-31.448 5.479v-79.069a7.5 7.5 0 00-15 0v84.289c-53.941 22.079-92.02 74.926-92.02 136.464 0 81.327 66.499 147.491 148.237 147.491 76.497 0 139.642-57.952 147.426-132.048h26.514a7.5 7.5 0 000-15h-25.709c0-.148.006-.295.006-.443 0-7.738-.606-15.338-1.766-22.758h135.55c6.016 0 10.91 4.894 10.91 10.91v1.382c0 6.015-4.894 10.909-10.91 10.909h-78.081a7.5 7.5 0 000 15h49.516v39.119c-22.349 3.586-39.476 22.918-39.476 46.163 0 25.787 21.073 46.766 46.976 46.766 23.338 0 42.747-17.033 46.363-39.266h36.944a7.5 7.5 0 000-15zm-113.62-214.807v1.382c0 6.016-4.894 10.91-10.91 10.91H253.022c-.33 0-.652.029-.97.07a148.868 148.868 0 00-34.432-23.271h154.647c6.016 0 10.911 4.894 10.911 10.909zm-58.866-48.971c9.944 0 18.035 8.09 18.035 18.035v5.027H157.765v-23.062zM152.535 493.595c-73.467 0-133.237-59.435-133.237-132.491s59.77-132.491 133.237-132.491 133.237 59.435 133.237 132.491-59.77 132.491-133.237 132.491zm113.897-226.781h97.543v56.533h-68.134c-5.607-21.05-15.783-40.268-29.409-56.533zm147.059 226.781c-17.631 0-31.976-14.25-31.976-31.766s14.344-31.766 31.976-31.766c17.631 0 31.975 14.25 31.975 31.766s-14.344 31.766-31.975 31.766z"/></svg>