<svg style="margin-top:4px" aria-hidden="true" class="icon" height="40" width="40" viewBox="0 0 160 150" xmlns="http://www.w3.org/2000/svg" fill-rule="evenodd" clip-rule="evenodd" stroke-linejoin="round" stroke-miterlimit="1.414"><path fill="none" d="M0 0h159.17v149.966H0z"/><path fill="#9b8579" d="M52.002 5.333h50.245v17.49H52.002z"/><path fill="#c6c6c8" d="M46.783 24.092h61.391v7.34h-61.39z"/><path fill="#b0b0b3" d="M42.36 35.148h71.033v7.34H42.36z"/><path fill="#9f9ea1" d="M37.937 46.205h80.587v7.34H37.937z"/><path fill="#8e8e90" d="M33.603 57.17h90.14v7.34h-90.14z"/><path fill="#7f7f81" d="M29.18 68.226h99.694v7.341H29.18z"/><path fill="#717173" d="M24.757 79.283h109.247v7.34H24.757z"/><path fill="#636567" d="M20.422 90.339h118.802v7.34H20.422z"/><path fill="#414142" d="M31.214 100.127h96.51v28.003h-96.51z"/><path fill="#fff" d="M11.045 128.674h138.351v3.806H11.046zM21.926 99.13h2.477v29.272h-2.477zm19.019 0h2.477v29.272h-2.477zm18.93 0h2.477v29.272h-2.477zm19.107 0h2.477v29.272h-2.477zm18.842 0h2.477v29.272h-2.477zm19.019 0h2.477v29.272h-2.477zm18.931 0h2.477v29.272h-2.477z"/><path fill="#bab5b1" d="M13.876 133.114h134.37V143.9H13.877z"/></svg>