<svg aria-hidden="true" class="icon" height="40" width="40" viewBox="0 0 40 40" xmlns="http://www.w3.org/2000/svg" fill-rule="evenodd" clip-rule="evenodd" stroke-linejoin="round" stroke-miterlimit="2"><path d="M18.32 12.171h-1.28v3.975a7.073 7.073 0 01-5.764 2.943c-3.894 0-7.045-3.094-7.045-6.918 0-3.823 3.15-6.918 7.045-6.918 3.894 0 7.044 3.095 7.044 6.918zm-3.842 0c0-1.735-1.435-3.144-3.202-3.144-1.768 0-3.202 1.409-3.202 3.144 0 1.736 1.434 3.145 3.202 3.145 1.767 0 3.202-1.409 3.202-3.145z" fill="#fcd770" fill-rule="nonzero"/><path d="M22.163 10.285v1.654c-.877.157-1.774.232-2.67.232H18.32c0-3.823-3.15-6.918-7.044-6.918-3.894 0-7.045 3.095-7.045 6.918 0 3.824 3.15 6.918 7.045 6.918a7.073 7.073 0 005.764-2.943v3.12c0 .502.025 1.006.076 1.496l-.87-.528a9.48 9.48 0 01-2.678 1.088l-.371 1.54H9.354l-.371-1.54a9.48 9.48 0 01-2.677-1.088l-1.37.83-2.716-2.667.845-1.345a9.124 9.124 0 01-1.108-2.63l-1.569-.364v-3.773l1.57-.365A9.124 9.124 0 013.064 7.29L2.22 5.945 4.935 3.28l1.371.83A9.48 9.48 0 018.983 3.02l.371-1.541h3.843l.371 1.54a9.48 9.48 0 012.677 1.089l1.371-.83 2.715 2.666-.845 1.346c.5.805.877 1.692 1.108 2.629l1.569.365z" fill="#ffc729" fill-rule="nonzero"/><path d="M35.612 28.523l1.921 6.918-2.561-.63-1.922 3.145-1.921-5.66-.032-.056a14.974 14.974 0 004.464-3.761l.051.044zM24.757 32.24l-.032.056-1.922 5.66-1.92-3.144-2.563.629 1.922-6.918.051-.044a14.974 14.974 0 004.464 3.76z" fill="#fc6e51" fill-rule="nonzero"/><path d="M38.814 12.171v7.094a14.69 14.69 0 01-3.253 9.214 14.974 14.974 0 01-4.464 3.76 15.11 15.11 0 01-3.17 1.315 15.11 15.11 0 01-3.17-1.314 14.974 14.974 0 01-4.464-3.761 14.708 14.708 0 01-3.253-9.214v-7.094h2.452c.897 0 1.794-.075 2.671-.232a15.268 15.268 0 005.745-2.27l.019-.013.02.012a15.333 15.333 0 008.414 2.503h2.453z" fill="#b4dd7f" fill-rule="nonzero"/><path d="M36.252 14.687v4.578c0 5.201-3.387 9.887-8.325 11.641-4.938-1.754-8.326-6.44-8.326-11.64v-4.58a17.938 17.938 0 008.326-2.093 17.938 17.938 0 008.325 2.094z" fill="#e6e9ed" fill-rule="nonzero"/><path d="M33.69 19.09l-7.044 6.917-3.202-3.144 1.921-1.887 1.281 1.258 5.123-5.031 1.922 1.886z" fill="#ff826e" fill-rule="nonzero"/><path d="M26.84 16.526l-.449-1.178c-.401.148-.809.284-1.21.403l.37 1.204c.428-.127.862-.271 1.29-.429zM22.803 19.265v-1.69c.476-.075.953-.167 1.426-.274l-.289-1.225c-.617.14-1.243.251-1.86.33l-.557.073v2.787c0 .168.003.336.012.504l1.28-.064a8.38 8.38 0 01-.012-.44zM11.276 8.398c-2.12 0-3.843 1.692-3.843 3.773 0 2.081 1.724 3.774 3.843 3.774 2.119 0 3.842-1.693 3.842-3.774 0-2.08-1.723-3.773-3.842-3.773zm0 6.289c-1.413 0-2.562-1.128-2.562-2.516 0-1.387 1.149-2.515 2.562-2.515 1.413 0 2.561 1.128 2.561 2.515 0 1.388-1.148 2.516-2.561 2.516z" fill-rule="nonzero"/><path d="M28.233 12.038l-.305-.163-.306.163a17.364 17.364 0 01-8.025 2.02l-.636.003v5.204c0 5.457 3.515 10.374 8.747 12.234l.219.078.218-.078c5.233-1.86 8.748-6.777 8.748-12.234v-5.204l-.637-.004a17.37 17.37 0 01-8.023-2.02zm7.379 7.227c0 4.854-3.079 9.234-7.685 10.972-4.607-1.739-7.685-6.12-7.685-10.972V15.3a18.677 18.677 0 007.686-1.998 18.68 18.68 0 007.684 1.998v3.965z" fill-rule="nonzero"/><path d="M25.365 20.087l-2.827 2.776 4.108 4.033 7.95-7.807-2.827-2.776-5.123 5.031-1.28-1.257zm7.42-.998l-6.139 6.029-2.297-2.255 1.016-.998 1.281 1.258 5.123-5.031 1.016.997z" fill-rule="nonzero"/><path d="M39.755 11.542h-3.093c-2.878 0-5.664-.828-8.083-2.412l-.376-.215-.353.231a14.615 14.615 0 01-4.746 2.018V9.786l-1.688-.39a9.897 9.897 0 00-.884-2.095l.913-1.448L18.01 2.48l-1.474.897a10.284 10.284 0 00-2.134-.869L14.005.851H9.148L8.75 2.508c-.742.209-1.457.5-2.133.869L5.142 2.48 1.707 5.853 2.62 7.3a9.897 9.897 0 00-.884 2.096l-1.688.39v4.77l1.688.389c.212.729.509 1.43.884 2.096l-.913 1.448 3.435 3.373 1.475-.897c.676.368 1.391.66 2.133.868l.398 1.658h4.857l.397-1.658c.742-.208 1.457-.5 2.134-.868l.295.18a15.408 15.408 0 003.039 7.408l-2.155 7.757 3.163-.777 2.393 3.918 2.147-6.326c.835.414 1.71.765 2.629 1.03l.18.053.18-.052a15.76 15.76 0 002.63-1.03l2.146 6.325 2.394-3.917 3.162.777-2.154-7.758c2.002-2.627 3.17-5.869 3.17-9.289v-7.723zM16.55 19.495l-.335.2a8.98 8.98 0 01-2.5 1.017l-.382.092-.343 1.43h-2.828l-.343-1.43-.381-.092a8.98 8.98 0 01-2.5-1.017l-.335-.2-1.272.773-2-1.964.787-1.249-.203-.329a8.643 8.643 0 01-1.036-2.454l-.094-.375-1.456-.337v-2.777l1.456-.337.093-.375a8.643 8.643 0 011.036-2.454l.204-.33-.788-1.249 2-1.964 1.272.773.335-.2a8.98 8.98 0 012.5-1.017l.382-.092.343-1.43h2.828l.343 1.43.381.092a8.98 8.98 0 012.5 1.017l.335.2 1.272-.773 2 1.964-.787 1.25.203.328c.472.764.82 1.59 1.036 2.455l.094.375 1.456.337v.617c-.67.092-1.347.142-2.03.142h-.564c-.328-3.867-3.631-6.918-7.653-6.918-4.238 0-7.685 3.386-7.685 7.547 0 4.162 3.447 7.547 7.685 7.547a7.774 7.774 0 005.123-1.93v1.478c0 .11.012.22.015.33l-.164-.1zm.15-7.953v4.39a6.452 6.452 0 01-5.124 2.528c-3.531 0-6.404-2.821-6.404-6.289 0-3.467 2.873-6.289 6.404-6.289 3.315 0 6.05 2.487 6.372 5.66h-1.249zm6.237 24.918l-1.45-2.371-1.96.48 1.344-4.84a15.808 15.808 0 003.41 2.772l-1.344 3.96zm13.991-1.89l-1.961-.481-1.45 2.371-1.343-3.959a15.808 15.808 0 003.41-2.773l1.344 4.842zm1.546-15.305c0 6.223-4.204 11.802-10.247 13.632-6.043-1.83-10.247-7.41-10.247-13.632V12.8h1.812c2.993 0 5.894-.823 8.435-2.395a15.961 15.961 0 008.435 2.395h1.812v6.465z" fill-rule="nonzero"/></svg>