<svg aria-hidden="true" class="icon" height="40" width="40" viewBox="0 0 40 40" xmlns="http://www.w3.org/2000/svg" fill-rule="evenodd" clip-rule="evenodd" stroke-linejoin="round" stroke-miterlimit="2"><path d="M28.729 19.219h-8.623v-4.11h-1.15v4.11h-7.472c-.946 0-1.725.795-1.725 1.761v4.11h1.15v-4.11c0-.322.26-.587.575-.587h17.245c.315 0 .575.265.575.587v4.11h1.15v-4.11c0-.966-.779-1.761-1.725-1.761z" fill="#a7a9ac" fill-rule="nonzero"/><path d="M27.004 3.956c0-.644-.519-1.174-1.15-1.174H13.209c-.63 0-1.15.53-1.15 1.174V5.13h14.946V3.956z" fill="#004fac" fill-rule="nonzero"/><path d="M12.058 5.13v9.393c0 .644.52 1.174 1.15 1.174h12.647c.63 0 1.15-.53 1.15-1.174V5.13H12.057z" fill="#ffdaaa" fill-rule="nonzero"/><path d="M2.861 26.263v9.393c0 .644.519 1.174 1.15 1.174h12.646c.63 0 1.15-.53 1.15-1.174v-9.393H2.86z" fill="#ffeb99" fill-rule="nonzero"/><path d="M2.861 25.09v1.173h14.946V25.09c0-.644-.52-1.174-1.15-1.174H4.011c-.631 0-1.15.53-1.15 1.174zM35.627 23.915H22.981c-.631 0-1.15.53-1.15 1.174v1.174h14.946V25.09c0-.644-.52-1.174-1.15-1.174z" fill="#004fac" fill-rule="nonzero"/><path d="M21.83 26.263v9.393c0 .644.52 1.174 1.15 1.174h12.647c.63 0 1.15-.53 1.15-1.174v-9.393H21.83z" fill="#ffeb99" fill-rule="nonzero"/><path d="M12.058 8.652v5.87c0 .645.52 1.175 1.15 1.175h6.898c-4.448 0-8.048-3.151-8.048-7.045z" fill="#ffc477" fill-rule="nonzero"/><path d="M21.83 29.786v5.87c0 .644.52 1.174 1.15 1.174h6.899c-4.449 0-8.048-3.15-8.048-7.044zM2.861 29.786v5.87c0 .644.519 1.174 1.15 1.174h6.898c-4.448 0-8.048-3.15-8.048-7.044z" fill="#ffde55" fill-rule="nonzero"/><path d="M27.41 29.37a.57.57 0 00-.812 0l-1.725 1.762a.599.599 0 000 .83l1.725 1.761c.107.106.25.165.4.165a.584.584 0 00.574-.587.594.594 0 00-.161-.408l-1.318-1.346L27.41 30.2a.599.599 0 000-.83zM32.01 29.37a.569.569 0 00-.4-.164.584.584 0 00-.575.587c0 .152.058.298.162.408l1.318 1.346-1.318 1.346a.593.593 0 00-.176.422c0 .322.26.587.575.587a.57.57 0 00.414-.179l1.724-1.761a.599.599 0 000-.83L32.01 29.37zM30.018 28.63a.577.577 0 00-.697.426l-1.15 4.696a.59.59 0 00.418.712.579.579 0 00.697-.427l1.15-4.696a.59.59 0 00-.418-.712z" fill="#ffcd00" fill-rule="nonzero"/><path d="M17.638 8.237a.57.57 0 00-.812 0L15.1 9.998a.599.599 0 000 .83l1.725 1.761c.107.106.25.165.399.165a.584.584 0 00.575-.587.594.594 0 00-.162-.408l-1.318-1.346 1.318-1.346a.599.599 0 000-.83zM22.237 8.237a.569.569 0 00-.4-.165.584.584 0 00-.574.587c0 .153.058.299.161.408l1.319 1.346-1.319 1.346a.593.593 0 00-.175.423c0 .322.26.587.575.587a.57.57 0 00.413-.18l1.725-1.76a.599.599 0 000-.83l-1.725-1.762zM20.246 7.496a.577.577 0 00-.697.427l-1.15 4.696a.59.59 0 00.418.712.579.579 0 00.697-.427l1.15-4.696a.59.59 0 00-.418-.712z" fill="#ff9811" fill-rule="nonzero"/><path d="M8.441 29.37a.57.57 0 00-.813 0l-1.724 1.762a.599.599 0 000 .83l1.724 1.761c.107.106.25.165.4.165a.584.584 0 00.574-.587.594.594 0 00-.161-.408l-1.318-1.346L8.44 30.2a.599.599 0 000-.83zM13.04 29.37a.569.569 0 00-.4-.164.584.584 0 00-.574.587c0 .152.057.298.16.408l1.319 1.346-1.318 1.346a.593.593 0 00-.176.422c0 .322.26.587.575.587a.57.57 0 00.414-.179l1.724-1.761a.599.599 0 000-.83L13.04 29.37zM11.048 28.63a.577.577 0 00-.697.426l-1.15 4.696a.59.59 0 00.418.712.579.579 0 00.697-.427l1.15-4.696a.59.59 0 00-.418-.712z" fill="#ffcd00" fill-rule="nonzero"/></svg>