 <svg aria-hidden="true" class="icon" height="40" width="40" viewBox="0 0 512 512" xmlns="http://www.w3.org/2000/svg" fill-rule="evenodd" clip-rule="evenodd" stroke-linejoin="round" stroke-miterlimit="1.414"><path d="M472.949 95.458h-34.712l-26.034-60.746H281.071L256 0l-25.071 34.712H99.797L73.763 95.458H39.051L4.339 199.593h17.356v277.695h468.61V199.593h17.356L472.949 95.458z" fill="#8c4f53" fill-rule="nonzero"></path><path fill="#652b2f" d="M4.339 477.288h503.322V512H4.339z"></path><path d="M368.814 477.288H143.186V156.203L256 0l112.814 156.203v321.085z" fill="#dcac4b" fill-rule="nonzero"></path><g fill-rule="nonzero"><path d="M368.814 156.203v43.39h138.847L472.949 95.458H324.938l43.876 60.745z" fill="#843f41"></path><path d="M143.186 156.203l43.876-60.745H39.051L4.339 199.593h138.847v-43.39z" fill="#893e40"></path></g><path fill="#f7bc8b" d="M21.695 199.593h121.492v277.695H21.695z"></path><path fill="#f7b88b" d="M368.814 199.593h121.492v277.695H368.814z"></path><circle cx="256" cy="164.881" r="52.068" fill="#fff"></circle><g fill="#7383bf" fill-rule="nonzero"><path d="M256 173.559c-4.79 0-8.678-3.888-8.678-8.678v-17.356c0-4.79 3.888-8.678 8.678-8.678 4.79 0 8.678 3.888 8.678 8.678v17.356a8.68 8.68 0 0 1-8.678 8.678z"></path><path d="M273.356 173.559H256c-4.79 0-8.678-3.888-8.678-8.678 0-4.79 3.888-8.678 8.678-8.678h17.356c4.79 0 8.678 3.888 8.678 8.678 0 4.79-3.888 8.678-8.678 8.678z"></path></g><g fill="#d3e3f9"><path d="M177.898 251.661h52.068v78.102h-52.068zM177.898 364.475h52.068v78.102h-52.068zM56.407 251.661h52.068v78.102H56.407zM56.407 364.475h52.068v78.102H56.407zM403.525 251.661h52.068v78.102h-52.068zM403.525 364.475h52.068v78.102h-52.068zM282.034 251.661h52.068v78.102h-52.068zM282.034 364.475h52.068v78.102h-52.068z"></path></g><g fill-rule="nonzero"><path d="M73.763 95.458h113.291l43.875-60.746H99.797L73.763 95.458z" fill="#5c2a2d"></path><path d="M438.237 95.458H324.946l-43.875-60.746h131.132l26.034 60.746z" fill="#5b282b"></path></g></svg>