<svg aria-hidden="true" class="icon" height="40" width="40" viewBox="0 0 40 40" xmlns="http://www.w3.org/2000/svg" fill-rule="evenodd" clip-rule="evenodd" stroke-linejoin="round" stroke-miterlimit="2"><path d="M22.778 4.797h10.875c.62.03 1.102.571 1.078 1.213v24.28c.024.641-.457 1.183-1.078 1.213H4.552c-.621-.03-1.102-.572-1.078-1.213V6.01c-.024-.642.457-1.183 1.078-1.213h18.226z" fill="#547580" fill-rule="nonzero"/><path d="M34.73 6.01v22.155h-8.622V4.797h7.545c.62.03 1.102.571 1.078 1.213z" fill="#5d4c72" fill-rule="nonzero"/><path d="M23.414 31.503l1.616 3.338H13.174l1.617-3.338h8.623z" fill="#7f8c8d" fill-rule="nonzero"/><path d="M28.264 35.954c0-.614-.499-1.113-1.113-1.113H11.054a1.113 1.113 0 000 2.226H27.15c.614 0 1.113-.499 1.113-1.113z" fill="#95a5a5"/><path d="M23.953 16.48h-2.695c0-3.687-2.895-6.676-6.467-6.676V7.022a8.943 8.943 0 016.251 2.548l1.385 1.67a9.6 9.6 0 011.526 5.24z" fill="#f29c1f" fill-rule="nonzero"/><path d="M23.953 16.48c0 5.224-4.102 9.459-9.162 9.459-5.06 0-9.161-4.235-9.161-9.458 0-5.224 4.101-9.459 9.161-9.459v2.782c-2.354-.001-4.522 1.318-5.662 3.444a6.863 6.863 0 00.181 6.782l1.423 1.67a6.303 6.303 0 006.858.82c2.248-1.115 3.675-3.465 3.667-6.04h2.695z" fill="#f0c419" fill-rule="nonzero"/><path d="M21.258 16.48c.001 2.572-1.428 4.916-3.674 6.026a6.303 6.303 0 01-6.85-.823l-1.424-1.67a6.859 6.859 0 01.097-7.232l2.242 1.546a3.993 3.993 0 00.355 4.776c1.165 1.32 3.05 1.654 4.573.809 1.524-.845 2.296-2.65 1.874-4.382-.422-1.731-1.93-2.945-3.66-2.944V9.804c3.572 0 6.467 2.99 6.467 6.677z" fill="#e57e25" fill-rule="nonzero"/><path d="M14.791 9.804v2.782c-1.263 0-2.442.65-3.142 1.736l-2.247-1.547c1.201-1.86 3.224-2.974 5.39-2.971z" fill="#f29c1f" fill-rule="nonzero"/><path d="M32.575 9.178a2.157 2.157 0 00-4.311 0v3.478a2.157 2.157 0 004.311 0V9.178z" fill="#2fa8cc"/><g fill="#ecf0f1" fill-rule="nonzero"><path d="M28.803 17.593h-.54a.548.548 0 01-.538-.556c0-.307.241-.556.539-.556h.539c.297 0 .539.249.539.556a.548.548 0 01-.54.556zM32.575 17.593h-1.617a.548.548 0 01-.539-.556c0-.307.242-.556.54-.556h1.616c.298 0 .539.249.539.556a.548.548 0 01-.539.556zM28.803 19.262h-.54a.548.548 0 01-.538-.556c0-.307.241-.556.539-.556h.539c.297 0 .539.249.539.556a.548.548 0 01-.54.556zM32.575 19.262h-1.617a.548.548 0 01-.539-.556c0-.307.242-.556.54-.556h1.616c.298 0 .539.249.539.556a.548.548 0 01-.539.556zM28.803 20.932h-.54a.548.548 0 01-.538-.557c0-.307.241-.556.539-.556h.539c.297 0 .539.249.539.556a.548.548 0 01-.54.557zM32.575 20.932h-1.617a.548.548 0 01-.539-.557c0-.307.242-.556.54-.556h1.616c.298 0 .539.249.539.556a.548.548 0 01-.539.557z"/></g><path d="M32.575 22.044a.548.548 0 00-.539.557v2.782h-1.078v-1.67a.548.548 0 00-.539-.556.548.548 0 00-.539.557v1.669h-1.077v-.557a.548.548 0 00-.54-.556.548.548 0 00-.538.556v1.113c0 .307.241.556.539.556h4.311c.298 0 .539-.249.539-.556v-3.338a.548.548 0 00-.539-.557z" fill="#f0c419" fill-rule="nonzero"/><circle cx="308.966" cy="88.276" r="17.655" fill="#f9eab0" transform="matrix(.06105 0 0 .06303 2.935 4.797)"/><circle cx="114.759" cy="256" r="17.655" fill="#f9eab0" transform="matrix(.06105 0 0 .06303 2.935 4.797)"/><path fill="#67b9cc" fill-rule="nonzero" d="M28.264 9.248h4.311v3.338h-4.311z"/><path d="M34.73 28.165v2.125c.025.641-.456 1.183-1.077 1.213H4.552c-.621-.03-1.102-.572-1.078-1.213v-2.125h31.257z" fill="#95a5a5" fill-rule="nonzero"/><path d="M18.563 16.48c0 2.152-1.689 3.895-3.772 3.895-2.083 0-3.772-1.743-3.772-3.894s1.689-3.895 3.772-3.895c2.083 0 3.772 1.744 3.772 3.895z" fill="#d25627" fill-rule="nonzero"/></svg>