<svg style="margin-top:4px" aria-hidden="true" class="icon" height="40" width="40" viewBox="0 0 40 40" xmlns="http://www.w3.org/2000/svg" fill-rule="evenodd" clip-rule="evenodd" stroke-linejoin="round" stroke-miterlimit="2"><path d="M.14 27.142h36.155v2.572a2.352 2.352 0 01-2.351 2.351H2.49A2.352 2.352 0 01.14 29.714v-2.572z" fill="#72d8ff" fill-rule="nonzero"/><path d="M.14 8.108A2.352 2.352 0 012.49 5.757h31.453a2.352 2.352 0 012.352 2.351v19.034H.14V8.108z" fill="#fff" fill-rule="nonzero"/><path d="M11.017 39.426h14.408v-1.094a2.039 2.039 0 00-2.039-2.038h-10.33a2.039 2.039 0 00-2.039 2.038v1.094z" fill="#72d8ff" fill-rule="nonzero"/><path fill="#c9f3ff" d="M15.715 32.065h5.012v4.229h-5.012z"/><g transform="matrix(.0783 0 0 .0783 -.643 .12)"><path d="M502 151.463v-42.926l-.001-.001h-23.13a98.58 98.58 0 00-13.188-31.865l16.348-16.348v-.001l-30.353-30.353h-.001l-16.348 16.348a98.54 98.54 0 00-31.865-13.188V9.999l-.001-.001h-42.926l-.001.001v23.157a98.564 98.564 0 00-31.817 13.209L312.322 29.97h-.001l-30.353 30.353v.001l16.424 16.424a98.569 98.569 0 00-13.141 31.788h-23.254l.003.001v42.926l.001.001h23.281a98.566 98.566 0 0013.161 31.741l-16.472 16.472v.001l30.353 30.353h.001l16.472-16.472.003-.001a98.56 98.56 0 0031.738 13.162v23.282h42.926l.001-.001v-23.254a98.537 98.537 0 0031.788-13.141l16.424 16.424h.001l30.353-30.353v-.001l-16.395-16.395a98.564 98.564 0 0013.209-31.817l23.155-.001z" fill="#72d8ff" fill-rule="nonzero"/><circle cx="382" cy="130" r="52" fill="#fff"/></g><g fill-rule="nonzero"><path d="M16.402 15.562c0-.297-.03-.586-.089-.865l1.214-.7-1.322-2.29-1.215.7a4.227 4.227 0 00-1.496-.865v-1.4H10.85v1.4a4.225 4.225 0 00-1.497.866l-1.215-.701-1.322 2.29 1.214.7a4.246 4.246 0 000 1.73l-1.214.7 1.322 2.29 1.215-.701c.429.384.937.681 1.497.865v1.401h2.644v-1.4a4.225 4.225 0 001.496-.866l1.215.7 1.322-2.289-1.214-.7c.058-.28.089-.569.089-.865z" fill="#fff"/><path d="M16.402 15.562c0-.297-.03-.586-.089-.865l1.214-.7-1.322-2.29-1.215.7a4.227 4.227 0 00-1.496-.865v-1.4H10.85v1.4a4.225 4.225 0 00-1.497.866l-1.215-.701-1.322 2.29 1.214.7a4.246 4.246 0 000 1.73l-1.214.7 1.322 2.29 1.215-.701c.429.384.937.681 1.497.865v1.401h2.644v-1.4a4.225 4.225 0 001.496-.866l1.215.7 1.322-2.289-1.214-.7c.058-.28.089-.569.089-.865z" fill="#a0e557"/><path d="M18.221 28.698a.789.789 0 00-.553.23.788.788 0 00-.23.553c0 .206.084.408.23.553.145.146.347.23.553.23a.789.789 0 00.554-.23.79.79 0 00.23-.553.787.787 0 00-.784-.783zM33.164 26.359a.789.789 0 00-.555.23.787.787 0 000 1.106.79.79 0 00.555.23.79.79 0 00.553-.23.79.79 0 00.23-.553.789.789 0 00-.23-.554.79.79 0 00-.553-.23zM10 22.591a.788.788 0 00-.553.23.789.789 0 00-.23.553.789.789 0 00.783.783.789.789 0 00.554-.23.789.789 0 00.23-.553.789.789 0 00-.23-.553.79.79 0 00-.554-.23z"/><path d="M39.446 8.618a.783.783 0 00-.783-.783h-1.206a8.46 8.46 0 00-.657-1.586l.853-.853a.783.783 0 000-1.107l-2.377-2.377a.783.783 0 00-1.107 0l-.853.853a8.465 8.465 0 00-1.586-.657V.902a.783.783 0 00-.783-.783h-3.36a.783.783 0 00-.784.783v1.209a8.462 8.462 0 00-1.582.657l-.856-.856a.783.783 0 00-1.107 0L20.88 4.29a.782.782 0 00-.218.685H2.491A3.138 3.138 0 00-.643 8.108v21.606a3.138 3.138 0 003.134 3.134h12.441v2.663h-1.876a2.825 2.825 0 00-2.822 2.821v1.094c0 .432.351.783.783.783h14.408c.432 0 .783-.351.783-.783v-1.094a2.825 2.825 0 00-2.822-2.821H21.51v-2.663h12.434a3.138 3.138 0 003.134-3.134V16.882l.575-.575a.783.783 0 000-1.107l-.856-.856a8.464 8.464 0 00.657-1.582h1.209a.783.783 0 00.783-.783V8.618zM24.642 38.332v.31H11.8v-.31c0-.692.564-1.255 1.256-1.255h10.33c.692 0 1.256.563 1.256 1.255zm-4.698-2.821h-3.446v-2.663h3.446v2.663zm15.569-5.797a1.57 1.57 0 01-1.57 1.568H2.492a1.57 1.57 0 01-1.569-1.568v-1.79h29.11a.783.783 0 000-1.565H.922v-2.202H6.9a.783.783 0 000-1.566H.922V8.108a1.57 1.57 0 011.57-1.568h19.102c-.204.417-.374.85-.508 1.295h-1.215a.783.783 0 00-.783.783v3.36c0 .433.35.784.783.784h1.218a8.47 8.47 0 00.654 1.576l-.862.862a.783.783 0 000 1.107l2.377 2.377a.783.783 0 001.107 0l.862-.862c.503.27 1.03.49 1.576.654v1.218c0 .432.351.783.783.783h3.361c.433 0 .783-.35.783-.783v-1.215a8.462 8.462 0 001.58-.654l.859.859a.783.783 0 001.107 0l.237-.236v11.266zm2.367-18.518h-1.03a.783.783 0 00-.765.613 6.918 6.918 0 01-.929 2.238.784.784 0 00.106.977l.73.73-1.27 1.27-.732-.733a.784.784 0 00-.975-.107c-.688.438-1.44.75-2.236.925a.783.783 0 00-.615.764v1.038H28.37v-1.04a.783.783 0 00-.613-.764 6.92 6.92 0 01-2.234-.926.783.783 0 00-.975.106l-.736.736-1.269-1.27.736-.735a.784.784 0 00.106-.977 6.917 6.917 0 01-.926-2.232.783.783 0 00-.764-.613h-1.04V9.4h1.038a.783.783 0 00.764-.615 6.917 6.917 0 01.924-2.235.784.784 0 00-.106-.976l-.732-.732 1.27-1.27.73.73a.784.784 0 00.987.099 6.915 6.915 0 012.227-.922.783.783 0 00.613-.764v-1.03h1.796v1.027c0 .368.255.686.614.765a6.918 6.918 0 012.242.928.787.787 0 00.975-.106l.726-.727 1.27 1.27-.727.726a.78.78 0 00-.105.977c.44.689.752 1.442.927 2.24a.783.783 0 00.765.614h1.028v1.796z"/><path d="M29.267 5.444a4.86 4.86 0 00-4.855 4.854 4.86 4.86 0 004.855 4.855 4.86 4.86 0 004.854-4.855 4.86 4.86 0 00-4.854-4.854zm0 8.143a3.292 3.292 0 01-3.289-3.289 3.292 3.292 0 013.289-3.288 3.292 3.292 0 013.288 3.288 3.292 3.292 0 01-3.288 3.289zM12.172 14.778a.787.787 0 00-.783.784.786.786 0 00.783.782.788.788 0 00.553-.228.79.79 0 00.23-.554.79.79 0 00-.23-.554.789.789 0 00-.553-.23z"/><path d="M18.283 14.2a.783.783 0 00-.078-.595l-1.322-2.29a.783.783 0 00-1.07-.286l-.753.435a4.952 4.952 0 00-.783-.454v-.868a.783.783 0 00-.783-.783h-2.645a.783.783 0 00-.783.783v.868a4.958 4.958 0 00-.783.454l-.753-.435a.784.784 0 00-1.07.286l-1.322 2.29a.783.783 0 00.287 1.07l.753.435a5.065 5.065 0 000 .904l-.753.435a.783.783 0 00-.287 1.07l1.322 2.29a.783.783 0 001.07.286l.753-.435c.247.175.509.326.783.453v.869c0 .432.351.783.783.783h2.645c.432 0 .783-.35.783-.783v-.869c.274-.127.536-.278.783-.453l.753.435a.783.783 0 001.07-.287l1.322-2.29a.783.783 0 00-.287-1.07l-.753-.434a5.038 5.038 0 000-.904l.753-.435a.784.784 0 00.365-.476zm-2.736.656a3.48 3.48 0 010 1.411.783.783 0 00.375.838l.535.309-.54.933-.535-.31a.783.783 0 00-.914.095c-.357.32-.767.557-1.22.706a.783.783 0 00-.538.743v.618h-1.078v-.618a.783.783 0 00-.538-.743 3.423 3.423 0 01-1.22-.706.783.783 0 00-.913-.094l-.536.31-.54-.934.536-.31a.783.783 0 00.375-.837 3.483 3.483 0 010-1.41.783.783 0 00-.375-.838l-.535-.309.539-.934.536.31c.293.169.661.13.913-.095.357-.319.768-.556 1.22-.705a.783.783 0 00.538-.744v-.617h1.078v.617c0 .339.218.639.539.744.452.149.862.386 1.22.705.251.226.62.264.913.095l.536-.31.539.934-.535.309a.783.783 0 00-.375.837z"/></g></svg>