<svg aria-hidden="true" class="icon" height="40" width="40" viewBox="0 0 512 512" xmlns="http://www.w3.org/2000/svg" fill-rule="evenodd" clip-rule="evenodd" stroke-linejoin="round" stroke-miterlimit="1.414"><path d="M121.984 82.27c-50.07 0-90.66 40.59-90.66 90.66 0 50.07 40.59 90.661 90.66 90.661 50.07 0 90.66-40.59 90.66-90.66 0-50.07-40.59-90.661-90.66-90.661zm46.466 32.83l-22.189 22.19a43.029 43.029 0 00-15.828-6.295V99.242c13.975 1.581 27.078 7.044 38.017 15.858zm-54.505-15.912v31.983a43.097 43.097 0 00-15.374 6.41l-22.72-22.722a73.508 73.508 0 0138.094-15.671zm-49.79 27.282l22.72 22.72a42.951 42.951 0 00-6.554 15.296H48.302a73.518 73.518 0 0115.852-38.016zm-15.913 54.498H80a43.002 43.002 0 006.137 15.877l-22.218 22.219c-8.778-10.995-14.182-24.127-15.677-38.096zm27.276 49.791l21.975-21.975a42.922 42.922 0 0016.046 7.105v30.724a73.47 73.47 0 01-38.021-15.854zm54.504 15.92v-30.456c5.858-1.012 11.552-3.21 16.67-6.64l21.424 21.425c-10.999 8.765-24.125 14.168-38.094 15.671zm49.791-27.283l-21.424-21.424a43.015 43.015 0 006.826-16.598h30.456c-1.574 13.98-7.038 27.082-15.858 38.022zm15.92-54.497h-30.687a43.007 43.007 0 00-6.96-16.119l21.976-21.975c8.765 10.993 14.168 24.12 15.67 38.094z" fill="#c1d3d8" fill-rule="nonzero"/><circle cx="159.898" cy="171.474" r="24.177" fill="#fdc00f" transform="translate(-67.042 -29.065) scale(1.18308)"/><path d="M122.1 145.2v57.205c15.797 0 28.602-12.806 28.602-28.604 0-15.797-12.805-28.602-28.603-28.602z" fill="#f29a00" fill-rule="nonzero"/><circle cx="160.307" cy="171.29" r="11.428" fill="#0f303f" transform="translate(-67.042 -29.065) scale(1.18308)"/><path d="M376.119 53.616c-60.059-8.453-115.597 33.393-124.051 93.452-8.454 60.059 33.393 115.597 93.452 124.051 60.058 8.453 115.597-33.393 124.051-93.452 8.453-60.059-33.394-115.599-93.452-124.051zm50.196 47.225l-30.364 22.871a52.161 52.161 0 00-17.926-10.221l5.357-38.09c16.503 4.256 31.295 13.017 42.933 25.44zm-62.693-28.286l-5.4 38.368a52.179 52.179 0 00-19.518 5.092l-23.422-31.09c14.675-8.666 31.331-12.928 48.34-12.37zm-64.33 24.324l23.422 31.09a52.067 52.067 0 00-10.442 17.243l-38.412-5.4c4.242-16.51 13.01-31.303 25.432-42.933zm-28.294 62.686l38.09 5.357a52.11 52.11 0 004.682 20.076l-30.4 22.901a89.092 89.092 0 01-12.372-48.334zm24.325 64.33l30.07-22.651c5.298 5.04 11.446 8.82 18.05 11.234l-5.188 36.857c-16.502-4.25-31.294-13.018-42.932-25.44zm62.694 28.294l5.136-36.534c7.199-.22 14.396-1.9 21.118-5.15l22.086 29.313c-14.669 8.665-31.332 12.928-48.34 12.37zm64.33-24.325l-22.087-29.313a52.082 52.082 0 0010.985-18.756l36.534 5.137a88.996 88.996 0 01-25.433 42.932zm28.292-62.685l-36.813-5.181a52.18 52.18 0 00-5.628-20.517l30.07-22.65c8.667 14.675 12.929 31.33 12.371 48.348z" fill="#c7d8dc" fill-rule="nonzero"/><circle cx="327.05" cy="171.479" r="24.177" fill="#fdc00f" transform="translate(-107.897 -82.322) scale(1.43314)"/><path d="M365.64 129.12l-9.657 68.622c18.946 2.665 36.468-10.536 39.14-29.482 2.663-18.946-10.537-36.468-29.483-39.14z" fill="#f29a00" fill-rule="nonzero"/><circle cx="327.521" cy="171.356" r="11.428" fill="#0f303f" transform="translate(-107.897 -82.322) scale(1.43314)"/><path fill="#a6dae8" d="M398.257 343.146h30.928v60.463h-30.928z"/><path fill="#95c2d8" d="M398.257 373.348h30.928v30.23h-30.928z"/><path d="M475.815 431.727l-46.623-28.118v-60.463l46.623-28.118v116.699z" fill="#fc611f" fill-rule="nonzero"/><path d="M429.192 373.377v30.239l46.623 28.11v-58.35h-46.623z" fill="#e64500" fill-rule="nonzero"/><path d="M344.89 305.387c-13.032-1.402-23.312-12.387-23.312-25.778v-63.603c0-14.33-11.726-26.056-26.056-26.056H186.219c-14.33 0-26.056 11.726-26.056 26.056v63.603c0 14.33-11.726 26.056-26.056 26.056H109.54c-14.33 0-26.055 11.726-26.055 26.056v127.918c0 14.33 11.725 26.056 26.055 26.056h288.715V305.378H344.89v.009z" fill="#6db0b6" fill-rule="nonzero"/><path d="M344.89 305.387c-13.032-1.402-23.312-12.387-23.312-25.778v-63.603c0-14.33-11.726-26.056-26.056-26.056h-54.659v295.746H398.25V305.38h-53.36v.007z" fill="#6ddef0" fill-rule="nonzero"/><path fill="#fdc00f" d="M113.04 337.833h258.58v121.71H113.04z"/><path fill="#f29a00" d="M240.87 337.833h130.714v121.71H240.871z"/><path fill="#a6dae8" d="M69.308 346.125h14.198v38.655H69.308z"/><path fill="#95c2d8" d="M69.308 365.423h14.198v19.327H69.308z"/><path fill="#fc611f" d="M55.073 335.206H69.27v60.433H55.073z"/><path fill="#e64500" d="M55.073 366.45H69.27v29.212H55.073z"/></svg>