<svg aria-hidden="true" class="icon" height="40" width="40" viewBox="0 0 503 503" xmlns="http://www.w3.org/2000/svg" fill-rule="evenodd" clip-rule="evenodd" stroke-linejoin="round" stroke-miterlimit="1.414"><path d="M447.72 435.407c0 4.916-1.639 9.014-4.916 12.292-3.279 2.459-6.556 4.097-11.474 4.097H70.743c-4.097 0-8.195-1.639-11.474-4.097-3.278-3.278-4.916-7.376-4.916-12.292v-240.12H447.72v240.12z" fill="#ffd15c" fill-rule="nonzero"/><path d="M442.804 447.7c-3.279 2.458-6.556 4.096-11.474 4.096H70.743c-4.097 0-8.195-1.639-11.474-4.097l191.767-164.722 191.768 164.722z" fill="#f8b64c" fill-rule="nonzero"/><path d="M447.72 195.288l-55.727 40.156-130.303 93.425a18.44 18.44 0 01-22.127 0L110.08 235.444l-55.727-40.156 55.727-40.157 121.288-86.868 9.015-6.556a18.44 18.44 0 0122.127 0l9.014 6.556 58.186 41.795 28.683 20.488 33.6 24.585 55.727 40.157z" fill="#87a0b2" fill-rule="nonzero"/><path d="M391.993 119.073v116.37L261.69 328.87a18.44 18.44 0 01-22.127 0L110.08 235.444V84.653c0-9.015 7.375-16.39 16.39-16.39h213.893l51.63 50.81z" fill="#f2f2f2" fill-rule="nonzero"/><path d="M341.183 105.961c0 7.376 5.736 13.112 13.112 13.112h37.698l-50.81-50.81v37.698z" fill="#cdd6e0" fill-rule="nonzero"/><path d="M299.388 232.986H312.5c-4.097 9.015-10.654 15.57-19.668 20.487-9.835 5.737-22.127 8.196-36.878 8.196-13.932 0-26.225-2.46-36.06-7.376-9.834-4.917-18.029-11.473-22.946-21.307-4.917-9.015-7.375-19.669-7.375-30.322 0-12.292 2.458-22.946 8.195-33.6 5.736-10.654 13.112-18.03 22.946-22.947 9.835-4.916 21.307-7.375 33.6-7.375 10.654 0 20.488 2.459 28.683 6.556 8.195 4.097 14.751 9.834 18.85 18.03 4.097 7.375 6.555 16.39 6.555 25.404 0 10.654-3.278 20.488-9.834 29.503-8.195 11.473-18.85 16.39-31.961 16.39-3.279 0-6.556-.82-8.195-1.64-1.64-1.638-3.279-3.277-3.279-5.735-4.917 4.916-10.654 7.375-17.21 7.375-7.375 0-13.112-2.459-17.21-7.375-4.916-4.917-7.375-11.474-7.375-19.67 0-9.834 2.459-18.848 8.195-27.863 6.556-9.835 15.57-14.751 26.225-14.751 7.375 0 13.112 3.278 17.21 9.014l1.639-7.375h17.21l-9.835 45.893c-.82 3.278-.82 4.916-.82 5.736 0 .82 0 1.64.82 2.459.82.82.82.82 1.64.82 1.639 0 4.916-1.64 8.195-4.098 4.097-3.278 8.195-7.375 10.654-13.112 2.459-5.736 4.097-11.473 4.097-17.21 0-10.654-4.097-19.669-11.474-26.225-7.375-7.375-18.03-10.653-31.96-10.653-11.474 0-21.308 2.458-29.503 7.375s-13.932 11.474-18.03 19.669c-4.098 8.195-5.736 17.21-5.736 27.044 0 9.015 2.459 17.21 6.556 24.586 4.917 7.375 10.654 13.112 18.85 16.39 8.194 3.278 17.21 4.917 27.863 4.917 9.834 0 18.85-1.64 26.225-4.097 7.375-3.28 13.112-7.377 18.03-13.113zm-69.66-26.225c0 5.737.82 9.015 3.28 12.293 2.458 2.458 4.916 4.097 8.194 4.097 2.46 0 4.917-.82 6.556-1.64 1.64-.819 3.279-2.458 4.917-4.097 2.46-2.458 4.098-6.556 5.737-11.473 1.639-4.917 2.458-9.835 2.458-13.932 0-4.917-.82-8.195-3.278-11.473-2.459-2.46-4.917-4.098-8.195-4.098-3.278 0-7.376 1.64-9.834 4.098-3.279 2.458-5.737 6.556-7.376 12.292-1.638 4.918-2.458 9.835-2.458 13.933z" fill="#ff7058" fill-rule="nonzero"/></svg>