<svg aria-hidden="true" class="icon" height="40" width="40" viewBox="0 0 512 512" xmlns="http://www.w3.org/2000/svg" fill-rule="evenodd" clip-rule="evenodd" stroke-linejoin="round" stroke-miterlimit="1.414"><path d="M453.579 108.853H256l-17.646 309.7 215.225-17.646V108.853z" fill="#9abadb" fill-rule="nonzero"/><path d="M58.421 108.853v292.054l197.58 17.647v-309.7H58.42z" fill="#d1e8ff" fill-rule="nonzero"/><path d="M481.697 400.907H256l-17.646 28.119L256 457.144h225.697v-56.237z" fill="#d1e8ff" fill-rule="nonzero"/><path fill="#f5f5ff" d="M30.303 400.913H256v56.239H30.303z"/><path d="M427.13 135.301H256l-17.646 119.58L256 374.457h171.13V135.3z" fill="#294b6e" fill-rule="nonzero"/><path fill="#6283a3" d="M84.876 135.301H256v239.152H84.876z"/><path d="M187.963 324.947l-70.066-70.067 70.066-70.066 18.702 18.702L155.3 254.88l51.365 51.365-18.702 18.702z" fill="#f5f5ff" fill-rule="nonzero"/><g fill="#d1e8ff"><path d="M324.037 324.947l-18.701-18.702L356.7 254.88l-51.364-51.364 18.701-18.702 70.067 70.066-70.067 70.067z" fill-rule="nonzero"/><path d="M252.658 339.46l-25.942-5.16 32.617-163.968 25.942 5.16z"/></g></svg>