<svg style="margin-top:4px" aria-hidden="true" class="icon" height="40" width="40" viewBox="0 0 512 512" xmlns="http://www.w3.org/2000/svg" fill-rule="evenodd" clip-rule="evenodd" stroke-linejoin="round" stroke-miterlimit="1.414"><path fill="#fff" d="M113.454 77.473h273.829V424.66h-273.83z"/><path d="M65.287 25.376c-4.194 0-7.32 3.567-6.947 7.926L93.7 447.207c.373 4.36 3.983 8.885 8.027 10.056l150.052 43.478c4.043 1.172 10.655 1.172 14.699.003l150.509-43.55c4.042-1.17 7.656-5.694 8.028-10.053l35.42-413.84c.375-4.358-2.754-7.925-6.949-7.925H65.287zm319.842 94.927c-.334 3.888-.912 10.639-1.284 14.998l-.932 10.86-1.19 13.85c-.281 3.259-.548 5.926-.597 5.926H195.559c-4.194 0-7.32 3.567-6.947 7.926l3.269 38.127c.372 4.358 4.11 7.926 8.304 7.926h169.623c3.735 0 6.517 3.182 6.179 7.07a7937.45 7937.45 0 00-1.294 14.999l-10.51 122.922c-.375 4.36-.85 9.928-1.053 12.377-.209 2.446-3.685 5.405-7.727 6.575l-88.666 25.656c-4.042 1.168-7.4 2.136-7.463 2.15-.063.014-3.42-.932-7.464-2.102l-88.76-25.702c-4.042-1.17-7.654-5.695-8.025-10.054l-5.714-66.922c-.373-4.36 2.756-7.926 6.95-7.926h35.433c4.194 0 7.929 3.567 8.304 7.926l2.241 26.198c.373 4.36 3.989 8.859 8.04 10l41.517 11.7a1555.16 1555.16 0 007.395 2.076c.019 0 3.345-.936 7.394-2.077l41.593-11.729c4.048-1.141 7.668-5.642 8.043-10l4.51-52.487c.375-4.36-2.75-7.927-6.944-7.927H154c-4.194 0-7.929-3.568-8.302-7.926l-11.067-129.41c-.372-4.36-.95-11.109-1.284-14.999-.33-3.888 2.827-7.07 7.022-7.07h237.739c4.194-.002 7.354 3.18 7.021 7.07z" fill="#f32128" fill-rule="nonzero"/></svg>