<svg class="icon" height="40" width="40" viewBox="0 0 512 512" xmlns="http://www.w3.org/2000/svg" fill-rule="evenodd" clip-rule="evenodd" stroke-linejoin="round" stroke-miterlimit="1.414"><path d="M99.179 487.67V62.618h231.054l88.276 88.276v336.778H99.18z" fill="#b7d742" fill-rule="nonzero"/><path d="M328.83 65.99l86.306 86.306v332.001H102.552V65.99H328.83m2.793-6.747H95.806v431.801h326.077v-341.54l-90.26-90.26z" fill="#a3b141" fill-rule="nonzero"/><path d="M421.883 149.503h-90.274v-90.26l90.274 90.26z" fill="#999" fill-rule="nonzero"/><path d="M389.538 415.899H64.433v-131.47h394.625l-69.52 131.47z" fill="#333" fill-rule="nonzero"/><path d="M95.806 447.257v-31.36H64.433l31.373 31.36z" fill="#999" fill-rule="nonzero"/><path d="M230.107 301.066v63.122c0 11.739-1.94 19.519-5.82 23.36-3.88 3.84-11.798 5.761-23.712 5.761-12.68 0-20.91-1.862-24.693-5.546-3.762-3.704-5.663-11.836-5.663-24.32l.215-6.76h16.54c.275 3.39.412 5.937.412 7.623 0 1.607.078 3.566.215 5.84.275 5.526 4.664 8.309 13.19 8.309 5.094 0 8.367-1 9.817-2.98 1.45-1.978 2.175-6.446 2.175-13.423v-60.986h17.324zm83.933 26.672h-16.95c-.079-.863-.138-1.49-.138-1.882-.411-5.154-1.528-8.367-3.41-9.68-1.88-1.313-6.29-2-13.267-2-8.23 0-13.58.765-16.108 2.293-2.528 1.51-3.783 4.704-3.783 9.564 0 5.761 1.04 9.23 3.077 10.367 2.058 1.175 8.838 2.057 20.361 2.684 13.62.765 22.439 2.724 26.437 5.84 3.997 3.116 5.996 9.622 5.996 19.5 0 12.13-2.332 19.988-7.015 23.535-4.684 3.547-15.031 5.31-31.022 5.31-14.365 0-23.928-1.743-28.631-5.231-4.704-3.489-7.055-10.544-7.055-21.165l-.079-3.351h16.873l.079 1.96c0 6.368 1.117 10.268 3.35 11.718 2.215 1.431 8.33 2.137 18.285 2.137 7.76 0 12.718-.824 14.874-2.49 2.136-1.645 3.214-5.447 3.214-11.444 0-4.429-.804-7.349-2.45-8.799-1.627-1.45-5.134-2.332-10.543-2.646l-9.603-.568c-14.462-.843-23.712-2.861-27.73-6.036-4.017-3.174-6.035-9.975-6.035-20.42 0-10.68 2.41-17.794 7.25-21.34 4.86-3.568 14.522-5.331 29.043-5.331 13.738 0 23.027 1.646 27.789 4.899 4.781 3.253 7.172 9.622 7.172 19.107v3.469h.02z" fill="#fff" fill-rule="nonzero"/></svg>