<svg aria-hidden="true" class="icon" height="40" width="40" xmlns="http://www.w3.org/2000/svg" fill-rule="evenodd" clip-rule="evenodd" stroke-linejoin="round" stroke-miterlimit="1.414" viewBox="0 0 500 500" style="margin-top:3px"><path d="M488 28H24C10.768 28 0 38.768 0 52v320c0 13.232 10.768 24 24 24h464c13.232 0 24-10.768 24-24V52c0-13.232-10.768-24-24-24z" fill="#ecd6dc" fill-rule="nonzero"/><path d="M184 460h160c8.808 0 16 7.12 16 16v8H152v-8c0-8.88 7.128-16 16-16h16z" fill="#e6e9ed" fill-rule="nonzero"/><path d="M312 396l16 64H184l16-64h112z" fill="#ccd1d9" fill-rule="nonzero"/><path d="M256.24 388c-4.424 0-8.04-3.576-8.04-8 0-4.424 3.536-8 7.952-8h.088c4.416 0 8 3.576 8 8 0 4.424-3.584 8-8 8z" fill="#656d78" fill-rule="nonzero"/><path d="M16 348h480V52c0-4.408-3.584-8-8-8H24c-4.416 0-8 3.592-8 8v296z" fill="#bddd80" fill-rule="nonzero"/><path d="M488 44h-16v304h24V52c0-4.408-3.584-8-8-8z" fill="#8cc152" fill-rule="nonzero"/><path d="M208 140l-24 16.16V132c0-35.44 28.64-64 64-64h48v32c17.68 0 32 14.32 32 32v24.16L304 140s-16.08 8-44 8-52-8-52-8z" fill="#656d78" fill-rule="nonzero"/><path d="M296 100V68h-32v48c17.68 0 32 6.32 32 24v2.952c5.144-1.592 8-2.952 8-2.952l24 16.16V132c0-17.68-14.32-32-32-32z" fill="#434a54" fill-rule="nonzero"/><path d="M328 156.16V180c0 28.24-16.32 52.72-40 64.488-9.6 4.8-20.56 7.512-32 7.512-11.44 0-22.4-2.72-32-7.512-23.6-11.688-39.84-36-40-64.08V156.16L208 140s24.08 8 52 8 44-8 44-8l24 16.16z" fill="#eac6bb" fill-rule="nonzero"/><path d="M304 140s-2.856 1.36-8 2.952V180c0 28.24-16.32 52.72-40 64.488-5 2.504-10.384 4.4-16 5.68 5.168 1.176 10.52 1.832 16 1.832 11.44 0 22.4-2.72 32-7.512 23.68-11.768 40-36.24 40-64.488v-23.84L304 140z" fill="#d3b1a9" fill-rule="nonzero"/><path d="M256 252c11.44 0 22.4-2.72 32-7.512V276l-16 8-16-8-16 8-16-8v-31.512c9.6 4.792 20.56 7.512 32 7.512z" fill="#fff" fill-rule="nonzero"/><path d="M272 284l16-8h24c22.16 0 40 17.92 40 40v32H160v-32c0-22.16 17.92-40 40-40h24l16 8 16-8 16 8z" fill="#bcc4d1" fill-rule="nonzero"/><path d="M312 276h-24l-1.344.672C305.608 279.848 320 296.192 320 316v32h32v-32c0-22.08-17.84-40-40-40z" fill="#e6e9ed" fill-rule="nonzero"/><path d="M48 188c-4.424 0-8-3.576-8-8v-32c0-4.424 3.576-8 8-8 4.424 0 8 3.576 8 8v32c0 4.424-3.576 8-8 8zm96 0c-4.424 0-8-3.576-8-8v-32c0-4.424 3.576-8 8-8 4.424 0 8 3.576 8 8v32c0 4.424-3.576 8-8 8zm-48 0c-13.232 0-24-10.768-24-24s10.768-24 24-24 24 10.768 24 24-10.768 24-24 24zm0-32c-4.416 0-8 3.592-8 8 0 4.408 3.584 8 8 8s8-3.592 8-8c0-4.408-3.584-8-8-8zm0-40c-4.424 0-8-3.576-8-8V76c0-4.424 3.576-8 8-8 4.424 0 8 3.576 8 8v32c0 4.424-3.576 8-8 8zm0 144c-4.424 0-8-3.576-8-8v-32c0-4.424 3.576-8 8-8 4.424 0 8 3.576 8 8v32c0 4.424-3.576 8-8 8zm-48 0c-13.232 0-24-10.768-24-24s10.768-24 24-24 24 10.768 24 24-10.768 24-24 24zm0-32c-4.416 0-8 3.592-8 8 0 4.408 3.584 8 8 8s8-3.592 8-8c0-4.408-3.584-8-8-8zm96 32c-13.232 0-24-10.768-24-24s10.768-24 24-24 24 10.768 24 24-10.768 24-24 24zm0-32c-4.416 0-8 3.592-8 8 0 4.408 3.584 8 8 8s8-3.592 8-8c0-4.408-3.584-8-8-8zM48 116c-13.232 0-24-10.768-24-24s10.768-24 24-24 24 10.768 24 24-10.768 24-24 24zm0-32c-4.416 0-8 3.592-8 8 0 4.408 3.584 8 8 8s8-3.592 8-8c0-4.408-3.584-8-8-8zm96 32c-13.232 0-24-10.768-24-24s10.768-24 24-24 24 10.768 24 24-10.768 24-24 24zm0-32c-4.416 0-8 3.592-8 8 0 4.408 3.584 8 8 8s8-3.592 8-8c0-4.408-3.584-8-8-8zM48 332c-4.424 0-8-3.576-8-8v-32c0-4.424 3.576-8 8-8 4.424 0 8 3.576 8 8v32c0 4.424-3.576 8-8 8zm48 0c-13.232 0-24-10.768-24-24s10.768-24 24-24 24 10.768 24 24-10.768 24-24 24zm0-32c-4.416 0-8 3.584-8 8s3.584 8 8 8 8-3.584 8-8-3.584-8-8-8zm368-112c-4.424 0-8-3.576-8-8v-32c0-4.424 3.576-8 8-8 4.424 0 8 3.576 8 8v32c0 4.424-3.576 8-8 8zm-96 0c-4.424 0-8-3.576-8-8v-32c0-4.424 3.576-8 8-8 4.424 0 8 3.576 8 8v32c0 4.424-3.576 8-8 8zm48 0c-13.232 0-24-10.768-24-24s10.768-24 24-24 24 10.768 24 24-10.768 24-24 24zm0-32c-4.416 0-8 3.592-8 8 0 4.408 3.584 8 8 8s8-3.592 8-8c0-4.408-3.584-8-8-8zm0-40c-4.424 0-8-3.576-8-8V76c0-4.424 3.576-8 8-8 4.424 0 8 3.576 8 8v32c0 4.424-3.576 8-8 8zm0 144c-4.424 0-8-3.576-8-8v-32c0-4.424 3.576-8 8-8 4.424 0 8 3.576 8 8v32c0 4.424-3.576 8-8 8zm48 0c-13.232 0-24-10.768-24-24s10.768-24 24-24 24 10.768 24 24-10.768 24-24 24zm0-32c-4.416 0-8 3.592-8 8 0 4.408 3.584 8 8 8s8-3.592 8-8c0-4.408-3.584-8-8-8zm-96 32c-13.232 0-24-10.768-24-24s10.768-24 24-24 24 10.768 24 24-10.768 24-24 24zm0-32c-4.416 0-8 3.592-8 8 0 4.408 3.584 8 8 8s8-3.592 8-8c0-4.408-3.584-8-8-8zm96-112c-13.232 0-24-10.768-24-24s10.768-24 24-24 24 10.768 24 24-10.768 24-24 24zm0-32c-4.416 0-8 3.592-8 8 0 4.408 3.584 8 8 8s8-3.592 8-8c0-4.408-3.584-8-8-8zm-96 32c-13.232 0-24-10.768-24-24s10.768-24 24-24 24 10.768 24 24-10.768 24-24 24zm0-32c-4.416 0-8 3.592-8 8 0 4.408 3.584 8 8 8s8-3.592 8-8c0-4.408-3.584-8-8-8zm96 248c-4.424 0-8-3.576-8-8v-32c0-4.424 3.576-8 8-8 4.424 0 8 3.576 8 8v32c0 4.424-3.576 8-8 8zm-48 0c-13.232 0-24-10.768-24-24s10.768-24 24-24 24 10.768 24 24-10.768 24-24 24zm0-32c-4.416 0-8 3.584-8 8s3.584 8 8 8 8-3.584 8-8-3.584-8-8-8z" fill="#8cc152" fill-rule="nonzero"/></svg>