<svg aria-hidden="true" class="icon" height="40" width="40" viewBox="0 0 480 480" xmlns="http://www.w3.org/2000/svg" fill-rule="evenodd" clip-rule="evenodd" stroke-linejoin="round" stroke-miterlimit="1.414"><path d="M297.42 308.032l-38.553-101.896h-43.952l-11.882 33.821 4.557 2.806-14.651 153.832-29.858-42.927-43.395 123.506h241.736l-28.642-75.7-66.587-48.831 31.228-44.611z" fill="#fff89b" fill-rule="nonzero"/><path d="M207.59 242.763l-4.557-2.806-39.952 113.711 29.858 42.927 14.65-153.832z" fill="#ffbf41" fill-rule="nonzero"/><path d="M297.42 308.032l35.36 93.442 43.293 31.748 52.105-208.436-58.976-20.166-71.781 103.412zm-94.387-68.075l-92.116-55.211-37.484 39.25 89.648 129.672 39.952-113.711z" fill="#fff89b" fill-rule="nonzero"/><path d="M266.193 352.643l66.587 48.83-35.36-93.441-31.227 44.61z" fill="#ffbf41" fill-rule="nonzero"/><path d="M449.326 103.58h-26.268l21.976-21.975h4.292a7.326 7.326 0 000-14.65H24.456a7.326 7.326 0 000 14.65H58.05L36.074 103.58H24.456a7.326 7.326 0 000 14.65h21.925l-.33 43.894a7.326 7.326 0 007.267 7.384h.058a7.326 7.326 0 007.326-7.267l.33-44.01h168.534v29.301a7.326 7.326 0 0014.65 0v-29.301h175.809v51.277a7.326 7.326 0 0014.65 0v-51.277h14.651a7.326 7.326 0 000-14.651zm-246.029 0l18.943-18.942 18.944 18.943h-37.887zm-146.507 0l18.943-18.942 18.944 18.943H56.79zm111.14 0h-37.886l18.943-18.942 18.943 18.943zm-1.26-21.975h37.887l-18.943 18.943-18.944-18.943zm73.254 0h37.887l-18.944 18.943-18.943-18.943zm55.57 3.033l18.943 18.943h-37.886l18.943-18.943zm17.683-3.033h37.887l-18.943 18.943-18.944-18.943zm55.57 3.033l18.944 18.943h-37.887l18.943-18.943zm36.627 15.91l-18.943-18.943h37.887l-18.944 18.943zm-274.07-18.943l-18.944 18.943-18.943-18.943h37.887z" fill="#5a6570" fill-rule="nonzero"/><path d="M273.518 206.136v-41.337c0-13.581-11.01-24.591-24.591-24.591h-24.071c-13.582 0-24.592 11.01-24.592 24.59v41.338h73.254zm159.165-49.483l-22.774-7.787c-12.846-4.395-26.823 2.456-31.218 15.303l-.003.007-13.383 39.11 3.897 1.334 58.976 20.166 6.44 2.198 13.375-39.11c4.395-12.846-2.456-26.823-15.303-31.218l-.007-.003zm-342.893-9.64c-9.823-9.377-25.387-9.017-34.765.806l-16.65 17.405c-9.378 9.823-9.017 25.388.805 34.766l29.887 28.569 4.344-4.542 37.484-39.271 8.79-9.179-29.894-28.554z" fill="#364e5e" fill-rule="nonzero"/></svg>