  <svg aria-hidden="true" class="icon" height="40" width="40" viewBox="0 0 512 512" xmlns="http://www.w3.org/2000/svg" fill-rule="evenodd" clip-rule="evenodd" stroke-linejoin="round" stroke-miterlimit="1.414"><path d="M427.023 435.574H153.386c-14.168 0-25.653-11.485-25.653-25.653V33.67c0-14.168 11.485-25.653 25.653-25.653h273.637c14.168 0 25.653 11.485 25.653 25.653v376.251c0 14.168-11.485 25.653-25.653 25.653z" fill="#e4eaf8" fill-rule="nonzero"></path><path d="M452.676 264.551H127.733V33.67c0-14.168 11.485-25.653 25.653-25.653h273.637c14.168 0 25.653 11.485 25.653 25.653v230.881z" fill="#f09725" fill-rule="nonzero"></path><path d="M392.818 469.779H119.182c-14.168 0-25.653-11.485-25.653-25.653V67.875c0-14.168 11.485-25.653 25.653-25.653h273.637c14.168 0 25.653 11.485 25.653 25.653v376.251c0 14.167-11.485 25.653-25.654 25.653z" fill="#fff" fill-rule="nonzero"></path><path d="M418.472 298.756H93.528V67.875c0-14.168 11.485-25.653 25.653-25.653h273.637c14.168 0 25.653 11.485 25.653 25.653v230.881h.001z" fill="#fff" fill-rule="nonzero"></path><path d="M358.614 503.983H84.977c-14.168 0-25.653-11.485-25.653-25.653V102.079c0-14.168 11.485-25.653 25.653-25.653h273.637c14.168 0 25.653 11.485 25.653 25.653V478.33c0 14.168-11.485 25.653-25.653 25.653z" fill="#fff" fill-rule="nonzero"></path><path d="M384.267 332.96H59.324V102.079c0-14.168 11.485-25.653 25.653-25.653h273.637c14.168 0 25.653 11.485 25.653 25.653V332.96z" fill="#c8d520" fill-rule="nonzero"></path><g fill="#fff" fill-rule="nonzero"><path d="M99.934 289.378a8.018 8.018 0 0 0 9.87-5.579l10.245-36.885h92.327l10.245 36.884a8.021 8.021 0 0 0 9.871 5.58 8.017 8.017 0 0 0 5.579-9.87l-39.276-141.395c-3.008-10.832-12.96-18.397-24.202-18.397h-16.757c-11.242 0-21.194 7.565-24.203 18.396L94.354 279.508a8.018 8.018 0 0 0 5.58 9.87zm49.147-146.975a9.113 9.113 0 0 1 8.754-6.654h16.757a9.11 9.11 0 0 1 8.753 6.654l24.577 88.478h-83.42l24.579-88.478zM294.48 289.67c11.959 0 22.875-4.541 31.122-11.986 1.995 6.911 8.365 11.986 15.909 11.986a8.017 8.017 0 0 0 0-16.034.534.534 0 0 1-.534-.534v-76.96a8.017 8.017 0 0 0-16.034 0v3.398c-8.166-7.101-18.818-11.415-30.463-11.415-25.638 0-46.497 20.858-46.497 46.497v8.551c0 25.639 20.859 46.497 46.497 46.497zm-30.463-55.048c0-16.798 13.666-30.463 30.463-30.463 16.798 0 30.463 13.666 30.463 30.463v8.551c0 16.798-13.666 30.463-30.463 30.463-16.798 0-30.463-13.666-30.463-30.463v-8.551z"></path></g><g fill-rule="nonzero"><path d="M332.96 376.251H110.63a8.017 8.017 0 0 0 0 16.034h222.33a8.017 8.017 0 0 0 0-16.034z" fill="#585f68"></path><path d="M247.449 444.66H110.63a8.017 8.017 0 0 0 0 16.034h136.818a8.017 8.017 0 0 0 .001-16.034z" fill="#66686b"></path><path d="M110.63 426.489h51.304a8.017 8.017 0 0 0 0-16.034H110.63a8.017 8.017 0 0 0 0 16.034z" fill="#606367"></path><path d="M332.96 410.455H196.142a8.017 8.017 0 0 0 0 16.034H332.96a8.017 8.017 0 0 0 0-16.034z" fill="#626466"></path><path d="M427.023 0H153.386c-18.566 0-33.67 15.105-33.67 33.67v.534h-.534c-18.566 0-33.67 15.105-33.67 33.67v.534h-.534c-18.566 0-33.67 15.105-33.67 33.67V478.33c0 18.566 15.105 33.67 33.67 33.67h273.637c18.566 0 33.67-15.105 33.67-33.67v-.534h.534c18.566 0 33.67-15.105 33.67-33.67v-.534h.534c18.566 0 33.67-15.105 33.67-33.67V33.67c0-18.565-15.104-33.67-33.67-33.67zm-50.772 478.33c0 9.725-7.912 17.637-17.637 17.637H84.977c-9.725 0-17.637-7.912-17.637-17.637V102.079c0-9.725 7.912-17.637 17.637-17.637h273.637c9.725 0 17.637 7.912 17.637 17.637V478.33zm34.204-34.205c0 9.725-7.912 17.637-17.637 17.637h-.534V102.079c0-18.566-15.105-33.67-33.67-33.67H101.545v-.534c0-9.725 7.912-17.637 17.637-17.637h273.637c9.725 0 17.637 7.912 17.637 17.637v376.25h-.001zm34.205-187.591V409.92c0 9.725-7.912 17.637-17.637 17.637h-.534V67.875c0-18.566-15.105-33.67-33.67-33.67h-257.07v-.535c0-9.725 7.912-17.637 17.637-17.637h273.637c9.725 0 17.637 7.912 17.637 17.637v222.864z" fill="#474d54"></path></g></svg>