<svg aria-hidden="true" class="icon" height="40" width="40" viewBox="0 0 513 513" xmlns="http://www.w3.org/2000/svg" fill-rule="evenodd" clip-rule="evenodd" stroke-linejoin="round" stroke-miterlimit="1.414"><path d="M458.773 499.245L411.84 290.178h-21.333l48 213.333c1.067 3.2 2.133 5.333 4.267 6.4 2.134 1.067 3.2 1.067 5.333 1.067h2.133c6.399 0 9.599-6.4 8.533-11.733zm-182.4-210.133L229.44 499.245c-1.067 5.333 2.133 10.667 7.467 11.733h2.133c2.133 0 4.267 0 5.333-1.067 2.133-1.067 4.267-4.267 4.267-6.4l48-215.467h-20.267v1.068zm59.733 1.066l-4.267 190.933c0 5.333 4.267 10.667 9.6 10.667 5.333 0 9.6-4.267 10.667-9.6l4.267-192h-20.267z" fill="#a8b989" fill-rule="nonzero"/><path d="M231.573 29.912l237.866 6.4-6.4 268.8-237.866-7.467 6.4-267.733z" fill="#e8eae9" fill-rule="nonzero"/><path d="M483.306 29.912c0 3.2-1.067 6.4-4.267 8.533-2.133 3.2-5.333 4.267-8.533 4.267l-238.933-7.467c-3.2 0-6.4-1.067-8.533-4.267-2.133-2.133-3.2-5.333-3.2-9.6 0-7.467 6.4-12.8 12.8-12.8l237.867 7.467c7.466 1.067 12.799 7.467 12.799 13.867zm-7.467 282.666c0 3.2-1.067 6.4-4.267 8.533-2.133 2.133-5.333 3.2-8.533 3.2l-238.933-6.4c-3.2 0-6.4-1.067-8.533-4.267-2.133-2.133-3.2-5.333-3.2-9.6 0-7.467 6.4-12.8 12.8-12.8l237.867 7.467c7.466 1.067 12.799 7.467 12.799 13.867z" fill="#f3705a" fill-rule="nonzero"/><g fill="#ffd15c" fill-rule="nonzero"><path d="M160.106 44.845c-1.067 4.267-4.267 7.467-6.4 7.467-2.133-1.067-3.2-4.267-2.133-8.533 1.067-4.266 4.267-7.467 6.4-7.467 3.2 0 4.266 4.266 2.133 8.533zm-51.2 0c1.067 4.267 4.267 7.467 6.4 7.467 3.2-1.067 3.2-5.333 2.133-9.6-1.067-4.267-4.267-7.467-6.4-7.467-3.2 1.067-3.2 5.333-2.133 9.6z"/><path d="M106.773 80.045l11.733-10.667s-3.2-12.8-3.2-16c0-3.2-7.467-22.4-4.267-32 3.2-9.6 2.133-17.067 18.133-18.133 16-1.066 19.2 5.333 24.533 10.667 5.333 6.4 4.267 25.6 4.267 28.8 0 3.2-3.2 20.267-7.467 27.733v5.333l11.733 20.267v20.267l-11.733 1.067-51.2-10.667 7.468-26.667z"/></g><path d="M162.239 96.045l-12.8-19.2v-5.333s-17.067 14.933-30.933-2.133c0 0 9.6 24.533 44.8 30.933l-1.067-4.267z" fill="#f7b64c" fill-rule="nonzero"/><path d="M241.173 156.845s10.667-4.267 11.733-5.333c2.133-1.067 3.2-3.2 6.4-4.267 3.2-1.067 7.467-4.267 9.6-4.267s5.333-1.067 6.4-1.067c1.067 0 9.6 3.2 9.6 3.2s0 4.267-3.2 4.267c-1.067 0-9.6-2.133-10.667-2.133-1.067 0 3.2 1.067 3.2 1.067s8.533 1.067 9.6 1.067h1.067c1.067-1.067 3.2 0 3.2 2.133 0 1.067 0 1.067-1.067 2.133-1.067 0-2.133 1.067-2.133 1.067h-2.133c-1.066 0 0 2.133 0 3.2 0 1.067-1.067 1.067-1.067 1.067h-2.133s0 2.133-1.067 3.2c-1.067 1.067-1.067 0-1.067 0s1.067 3.2-4.267 5.333c-4.267 2.133-16 2.133-18.133 2.133-2.133-1.067-11.733 5.333-11.733 5.333l-2.133-18.133z" fill="#ffd15c" fill-rule="nonzero"/><path d="M122.773 510.978c2.133 0 3.2-1.067 4.267-2.133 1.067-1.067 1.067-5.333 0-8.533-2.133-5.333-2.133-3.2-2.133-3.2l-28.8 1.067s-1.067 4.267 0 7.467c1.067 3.2 4.267 4.267 7.467 4.267 5.332-.001 14.932 1.065 19.199 1.065z" fill="#344a5e" fill-rule="nonzero"/><path d="M97.173 480.045s-1.067 7.467-2.133 12.8c-1.067 5.333 0 10.667 1.067 12.8 2.133 2.133 10.667 1.067 16 1.067s8.533 1.067 11.733 0c3.2 0 2.133-9.6 0-14.933s-5.333-9.6-5.333-14.933v-5.333l-21.334 8.532z" fill="#415a6b" fill-rule="nonzero"/><path d="M193.173 503.512l3.2 2.133s1.067 1.067 0 3.2c0 0-2.133 0-5.333 2.133-4.267 1.067-9.6 1.067-16 1.067-6.4-1.067-8.533-4.267-10.667-6.4-2.134-2.133-5.333-3.2-5.333-3.2v2.133h-12.8s-2.133-6.4 2.133-10.667l4.267-4.267c1.066.001 40.533 13.868 40.533 13.868z" fill="#344a5e" fill-rule="nonzero"/><path d="M172.906 475.778s5.333 4.267 7.467 8.533c2.134 4.266 2.133 9.6 6.4 11.733 4.267 2.133 9.6 6.4 9.6 8.533 0 0-5.333 0-10.667 2.133-5.333 2.133-13.867 2.133-17.067-1.067-3.2-2.133-5.333-6.4-10.667-7.467-5.333-2.133-10.667 0-11.733-2.133-1.067-3.2 0-14.933 3.2-19.2 4.267-3.198 23.467-1.065 23.467-1.065z" fill="#415a6b" fill-rule="nonzero"/><path d="M177.173 110.978l8.533-7.467s3.2 12.8 3.2 22.4c0 9.6-2.133 13.867 0 17.067 2.133 3.2 9.6 11.733 9.6 17.067 0 5.333 1.067 6.4 4.267 5.333 3.2-1.067 14.933-3.2 18.133-4.267 2.133-1.067 24.533-7.467 24.533-7.467s-1.067 22.4 10.667 25.6c0 0-34.133 11.733-40.533 12.8-6.4 1.067-19.2 5.333-22.4 5.333-3.2 0-9.6-1.067-12.8-5.333-3.2-4.266-7.467-11.733-7.467-14.933 1.067-3.199 4.267-66.133 4.267-66.133z" fill="#4a6884" fill-rule="nonzero"/><path d="M176.106 221.912s-26.667 16-55.467 12.8c-28.8-3.2-32-3.2-32-4.267 0-1.067 14.933-100.267 20.267-139.733h5.333c3.2 8.533 11.733 12.8 20.267 12.8 9.6 0 17.067-5.333 20.267-13.867h2.133l12.8 85.333 6.4 46.934z" fill="#8ad7f8" fill-rule="nonzero"/><path d="M83.306 229.378c37.333 8.533 70.4 8.533 92.8-7.467 0 0 11.733 34.133 11.733 39.467 0 5.334-2.133 4.267-2.133 12.8 0 8.533 0 66.133-1.067 76.8-1.067 10.667-3.2 24.533-2.133 28.8 1.067 4.267 4.267 18.133 4.267 30.933s-6.4 53.333-7.467 57.6c-1.067 4.267 1.067 11.733 1.067 11.733s-10.667-3.2-16 2.133c-5.333 4.267-13.867 5.333-17.067 0 0 0 0-23.467 2.133-34.133 2.133-10.667 0-45.867 0-54.4 0-8.533 0-16-1.067-26.667-1.067-10.667-4.267-35.2-5.333-38.4-1.067-3.2-6.4-21.333-6.4-21.333s-1.067 12.8-4.267 24.533-8.533 29.867-9.6 33.067c-1.067 4.267-4.267 30.933-4.267 40.533 0 9.6 3.2 23.467 4.267 32 1.067 7.467 1.067 34.133 1.067 38.4v6.4s-3.2-4.267-10.667-4.267-13.867 6.4-13.867 6.4-8.533-9.6-8.533-14.933-4.267-11.733-5.333-22.4c-1.067-10.667-1.067-50.133 0-64 1.067-13.867-2.133-46.933-4.267-67.2-1.066-19.199-4.266-66.132 2.134-86.399z" fill="#48657e" fill-rule="nonzero"/><path d="M149.439 76.845s6.4 11.733 6.4 23.467c1.067 11.733 4.267 58.667 6.4 73.6 2.133 16 8.533 54.4 8.533 65.067 1.067 10.667-1.067 19.2 6.4 22.4 7.467 3.2 12.8 0 12.8 0s-7.467-16-8.533-25.6c0-9.6-6.4-42.667-6.4-42.667s4.267-42.667 7.467-52.267c2.133-10.667 3.2-37.333 3.2-37.333s-25.6-14.933-29.867-20.267c-4.266-5.333-6.4-6.4-6.4-6.4z" fill="#55778e" fill-rule="nonzero"/><path d="M75.773 193.045c-4.267 1.067-7.467 7.467-8.533 13.867-1.067 6.4-2.133 13.867-2.133 13.867s-17.067-18.133-22.4-23.467c-5.333-5.333-10.667-16-12.8-21.333-1.067-4.267 3.2-17.067 6.4-22.4 3.2-5.333 13.867-28.8 19.2-40.533 5.333-11.733 10.667-21.333 10.667-21.333s5.333 13.867 6.4 25.6c1.067 6.4 0 17.067 0 24.533 0 0-2.133 4.267-3.2 7.467-1.067 4.267-11.733 18.133-11.733 18.133s0 1.067 1.067 4.267 3.2 5.333 6.4 7.467c1.067 1.067 2.133 3.2 4.267 4.267 4.264 5.331 6.398 9.598 6.398 9.598z" fill="#5b80a1" fill-rule="nonzero"/><path d="M322.239 104.578l-62.933 60.8c-1.067 1.067-1.067 3.2 0 4.267 1.067 1.067 3.2 1.067 4.267 0l60.8-61.867c2.133-2.133-1.067-5.333-2.134-3.2z" fill="#344a5e" fill-rule="nonzero"/><path d="M266.773 167.512h1.067c3.2-2.133 6.4-4.267 8.533-7.467 2.133-2.133 3.2-5.333 4.267-8.533-2.133 0-4.267 0-6.4-1.067h-2.133c-1.067 0-1.067 0-1.067 1.067v2.133c0 1.066 1.067 1.067 1.067 2.133h-2.133c-1.067 0-2.133 1.067-2.133 1.067v3.2h-4.267c-1.067 1.067-1.067 2.133-1.067 3.2 1.066 2.133 2.132 3.2 4.266 4.267z" fill="#ffd15c" fill-rule="nonzero"/><g fill-rule="nonzero"><path d="M113.173 42.712s1.067-10.667 0-16 6.4-14.933 11.733-11.733c5.333 3.2 13.867 3.2 17.067-1.067 3.2-4.267 12.8 3.2 12.8 10.667v17.067h1.067c1.067-2.133 4.267-11.733 3.2-17.067 0-7.467-7.467-25.6-26.667-24.533-19.2 1.067-24.533 17.067-25.6 26.667-1.067 5.332 3.2 11.732 6.4 15.999z" fill="#415a6b"/><path d="M117.439 69.378s-4.267 13.867-3.2 25.6c1.067 11.733 1.067 67.2 1.067 73.6 0 6.4-7.467 60.8-10.667 69.333-3.2 7.467-10.667 25.6-22.4 25.6-11.733 0-23.467-7.467-23.467-7.467s13.867-85.333 11.733-103.467c0 0 3.2-22.4 1.067-34.133-2.133-11.733-6.4-25.6-6.4-25.6s24.533-9.6 33.067-10.667c8.534-1.067 11.734-9.599 19.2-12.799z" fill="#597d95"/></g></svg>