<svg style="margin-top:3px" aria-hidden="true" class="icon" height="40" width="40" viewBox="0 0 505 505" xmlns="http://www.w3.org/2000/svg" fill-rule="evenodd" clip-rule="evenodd" stroke-linejoin="round" stroke-miterlimit="1.414"><ellipse cx="252.5" cy="377" rx="74.2" ry="55.8" fill="#324a5e" transform="matrix(1.44167 0 0 1.29728 -112.154 -60.272)"/><path d="M394.593 52.722c-10.668 30.096-32.293 63.566-75.255 83.155l66.46 61.621s109.856-44.497 64.588-145.295c-11.534-25.427-46.855-24.778-55.793.519zm-285.451 0c10.669 30.096 32.294 63.566 75.256 83.155l-66.461 61.621S8.08 153.001 53.35 52.203c11.533-25.427 46.854-24.778 55.792.519z" fill="#324a5e" fill-rule="nonzero"/><path d="M451.25 221.757c0-22.313-8.65-40.994-31.284-46.702C400.071 93.197 332.457 48.57 251.868 48.57c-80.59 0-148.204 44.627-168.099 126.485-22.634 5.578-31.284 24.389-31.284 46.702 0 21.405 7.352 39.567 28.545 45.924 16.002 94.96 86.356 173.576 170.838 173.576s154.835-78.615 170.838-173.576c21.192-6.357 28.545-24.519 28.545-45.924z" fill="#ebedd2" fill-rule="nonzero"/><path d="M386.231 331.118c7.785 30.486 10.525 62.658 7.785 94.701h-.144c-36.186 26.335-85.78 42.81-142.004 42.81-56.225 0-105.819-16.475-142.005-42.81h-.144c-2.74-31.913-.144-64.215 7.785-94.701 21.48-83.415 79.148-133.62 134.364-133.62 55.216 0 112.882 50.205 134.363 133.62z" fill="#d1d28c" fill-rule="nonzero"/><path d="M309.967 263.53c8.217 9.08 12.11 18.55-3.316 29.837-15.426 11.286-44.26 20.238-52.477 11.157-8.217-9.081 7.209-32.692 22.635-43.978 15.425-11.416 24.94-6.097 33.158 2.984z" fill="#324a5e" fill-rule="nonzero"/><path d="M193.768 263.53c-8.217 9.08-12.11 18.55 3.316 29.837 15.426 11.286 44.26 20.238 52.477 11.157 8.218-9.081-7.208-32.692-22.634-43.978-15.426-11.416-24.941-6.097-33.159 2.984z" fill="#324a5e" fill-rule="nonzero"/><path fill="#324a5e" d="M243.65 297h16.58v190.7h-16.58z"/><path d="M368.066 222.925c2.307 17.124 17.156 30.356 33.015 29.707 15.858-.648 26.815-15.178 24.508-32.302-2.307-17.124-17.156-30.356-33.014-29.708-16.003.779-26.96 15.179-24.509 32.303z" fill="#fff" fill-rule="nonzero"/><path d="M372.824 227.595c1.586 11.157 12.83 19.589 25.373 19.07 12.399-.519 21.337-9.99 19.751-21.146-1.586-11.156-12.83-19.589-25.373-19.07-12.399.649-21.337 9.99-19.751 21.146z" fill="#f9b54c" fill-rule="nonzero"/><path d="M383.925 227.076c.72 5.578 6.487 9.99 12.83 9.73 6.344-.26 10.813-5.06 10.092-10.768-.72-5.578-6.487-9.989-12.83-9.73-6.344.39-10.813 5.19-10.092 10.768z" fill="#2b3b4e" fill-rule="nonzero"/><path d="M386.52 214.103c-1.73 2.595-.145 5.32 3.604 6.097 3.748.779 8.073-.648 9.659-3.113 1.73-2.595.144-5.319-3.604-6.097-3.604-.908-7.93.519-9.66 3.113zm-250.85 8.822c-2.308 17.124-17.157 30.356-33.015 29.707-15.859-.778-26.815-15.178-24.509-32.302 2.307-17.124 17.156-30.356 33.015-29.708 16.002.779 26.959 15.179 24.508 32.303z" fill="#fff" fill-rule="nonzero"/><path d="M130.912 227.595c-1.586 11.157-12.831 19.589-25.374 19.07-12.398-.519-21.337-9.99-19.75-21.146 1.585-11.156 12.83-19.589 25.373-19.07 12.398.649 21.336 9.99 19.75 21.146z" fill="#f9b54c" fill-rule="nonzero"/><path d="M119.81 227.076c-.72 5.578-6.487 9.99-12.83 9.73-6.344-.26-10.813-5.06-10.092-10.768.721-5.578 6.488-9.989 12.831-9.73 6.343.39 10.813 5.19 10.092 10.768z" fill="#2b3b4e" fill-rule="nonzero"/><path d="M117.216 214.103c1.73 2.595.144 5.32-3.604 6.097-3.749.779-8.074-.648-9.66-3.113-1.73-2.595-.144-5.319 3.605-6.097 3.604-.908 7.929.519 9.659 3.113z" fill="#fff" fill-rule="nonzero"/></svg>