<svg style="margin-top:2px" class="icon" height="40" width="40" viewBox="0 0 512 512" xmlns="http://www.w3.org/2000/svg" fill-rule="evenodd" clip-rule="evenodd" stroke-linejoin="round" stroke-miterlimit="1.414"><path d="M25.972 479.815c74.301-.42 298.329-.6 346.425-1.262v-331.55H25.972v332.812z" fill="#d9eafc" fill-rule="nonzero"/><path d="M47.185 147.003H25.972V397.11c6.568 7.06 13.666 13.76 21.213 20.093v-270.2z" fill="#c3ddf4" fill-rule="nonzero"/><path fill="#02af8e" d="M25.972 59.744h346.42v88.142H25.972z"/><path fill="#0f9390" d="M25.972 59.744h21.213v88.142H25.972z"/><path d="M362.18 27.92H36.19c-5.62 0-10.218 3.813-10.218 8.473V60.63h346.425V36.393c0-4.66-4.599-8.472-10.218-8.472z" fill="#1a2b63" fill-rule="nonzero"/><path d="M331.805 290.143c0 1.742-1.72 3.167-3.819 3.167H175.21c-2.101 0-3.82-1.425-3.82-3.167v-84.867c0-1.741 1.719-3.167 3.82-3.167h152.777c2.101 0 3.819 1.425 3.819 3.167v84.867z" fill="#52bbef" fill-rule="nonzero"/><path d="M192.603 290.143v-84.867c0-1.741 1.718-3.167 3.819-3.167h-21.213c-2.101 0-3.82 1.425-3.82 3.167v84.867c0 1.742 1.719 3.167 3.82 3.167h21.213c-2.101-.001-3.82-1.426-3.82-3.167zm133.861 29.811H179.797c-4.428 0-8.018-2.977-8.018-6.648s3.59-6.648 8.018-6.648h146.668c4.428 0 8.018 2.977 8.018 6.648s-3.591 6.648-8.02 6.648zm0 22.722H179.797c-4.428 0-8.018-2.977-8.018-6.648 0-3.672 3.59-6.648 8.018-6.648h146.668c4.428 0 8.018 2.976 8.018 6.648-.001 3.671-3.591 6.648-8.02 6.648zm0 22.721H179.797c-4.428 0-8.018-2.976-8.018-6.648 0-3.671 3.59-6.648 8.018-6.648h146.668c4.428 0 8.018 2.977 8.018 6.648-.001 3.673-3.591 6.648-8.02 6.648zm0 22.723H179.797c-4.428 0-8.018-2.977-8.018-6.648 0-3.672 3.59-6.648 8.018-6.648h146.668c4.428 0 8.018 2.976 8.018 6.648 0 3.671-3.591 6.648-8.02 6.648zm-73.04 22.722h-73.627c-4.428 0-8.018-2.977-8.018-6.648 0-3.672 3.59-6.648 8.018-6.648h73.627c4.428 0 8.018 2.976 8.018 6.648 0 3.671-3.59 6.648-8.018 6.648zm0-219.825h-73.627c-4.428 0-8.018-2.976-8.018-6.648 0-3.671 3.59-6.648 8.018-6.648h73.627c4.428 0 8.018 2.977 8.018 6.648 0 3.672-3.59 6.648-8.018 6.648z" fill="#1e99d6" fill-rule="nonzero"/><path d="M64.24 364.627c0-2.438 2.406-4.432 5.346-4.432h71.053c2.94 0 5.346 1.994 5.346 4.432v41.488c0 2.438-2.406 4.432-5.346 4.432H69.586c-2.94 0-5.346-1.994-5.346-4.432v-41.488zm0-60.309c0-2.438 2.406-4.432 5.346-4.432h71.053c2.94 0 5.346 1.994 5.346 4.432v41.488c0 2.438-2.406 4.432-5.346 4.432H69.586c-2.94 0-5.346-1.994-5.346-4.432v-41.488z" fill="#eef6ff" fill-rule="nonzero"/><path d="M64.24 244.009c0-2.438 2.406-4.432 5.346-4.432h71.053c2.94 0 5.346 1.994 5.346 4.432v41.488c0 2.438-2.406 4.432-5.346 4.432H69.586c-2.94 0-5.346-1.994-5.346-4.432V244.01zm0-60.309c0-2.438 2.406-4.432 5.346-4.432h71.053c2.94 0 5.346 1.994 5.346 4.432v41.488c0 2.438-2.406 4.432-5.346 4.432H69.586c-2.94 0-5.346-1.994-5.346-4.432V183.7z" fill="#ffdd8d" fill-rule="nonzero"/><path d="M85.453 406.115v-41.488c0-2.438 2.406-4.432 5.346-4.432H69.586c-2.94 0-5.346 1.994-5.346 4.432v41.488c0 2.438 2.406 4.432 5.346 4.432h21.213c-2.94 0-5.346-1.994-5.346-4.432zm0-60.309v-41.488c0-2.438 2.406-4.432 5.346-4.432H69.586c-2.94 0-5.346 1.994-5.346 4.432v41.488c0 2.438 2.406 4.432 5.346 4.432h21.213c-2.94 0-5.346-1.994-5.346-4.432z" fill="#c3ddf4" fill-rule="nonzero"/><path d="M85.453 285.497V244.01c0-2.438 2.406-4.432 5.346-4.432H69.586c-2.94 0-5.346 1.994-5.346 4.432v41.488c0 2.438 2.406 4.432 5.346 4.432h21.213c-2.94 0-5.346-1.994-5.346-4.432zm0-60.309V183.7c0-2.438 2.406-4.432 5.346-4.432H69.586c-2.94 0-5.346 1.994-5.346 4.432v41.488c0 2.438 2.406 4.432 5.346 4.432h21.213c-2.94 0-5.346-1.994-5.346-4.432z" fill="#ff9f60" fill-rule="nonzero"/><g fill-rule="nonzero"><path d="M290.095 121.502H108.273c-4.428 0-8.018-2.976-8.018-6.648 0-3.671 3.59-6.648 8.018-6.648h181.822c4.428 0 8.018 2.977 8.018 6.648 0 3.672-3.59 6.648-8.018 6.648zm-45.733-25.024h-90.356c-4.428 0-8.018-2.976-8.018-6.648 0-3.671 3.59-6.647 8.018-6.647h90.356c4.428 0 8.019 2.976 8.019 6.647 0 3.672-3.59 6.648-8.019 6.648z" fill="#fff"/><path d="M44.506 51.1a6.94 6.94 0 01-4.859-2.004 6.936 6.936 0 01-2.004-4.86 6.93 6.93 0 012.004-4.85 6.907 6.907 0 014.86-2.013 6.89 6.89 0 014.849 2.013 6.901 6.901 0 012.014 4.85 6.91 6.91 0 01-2.014 4.86 6.92 6.92 0 01-4.85 2.005z" fill="#fe3745"/><path d="M67.012 51.1a6.876 6.876 0 01-6.864-6.863 6.9 6.9 0 012.013-4.85 6.904 6.904 0 014.851-2.013c1.812 0 3.578.732 4.86 2.013a6.933 6.933 0 012.004 4.85 6.917 6.917 0 01-2.004 4.85 6.913 6.913 0 01-4.86 2.014z" fill="#ffd00d"/><path d="M89.53 51.1a6.904 6.904 0 01-4.85-2.004 6.91 6.91 0 01-2.014-4.86 6.87 6.87 0 016.863-6.863 6.89 6.89 0 014.85 2.013 6.904 6.904 0 012.014 4.85 6.912 6.912 0 01-2.013 4.86 6.937 6.937 0 01-4.85 2.005z" fill="#37c47a"/></g><path d="M419.964 422.51c0 11.655 11.102 21.192 24.672 21.192h2.468c13.57 0 24.672-9.538 24.672-21.192v-13.773h-51.812v13.773z" fill="#f87eab" fill-rule="nonzero"/><path d="M469.082 81.93l-20.517-36.295c-1.482-2.622-3.907-2.622-5.388 0l-20.518 36.294c-1.481 2.62-2.695 7.15-2.695 10.064v9.983h51.812v-9.983c0-2.914-1.211-7.443-2.694-10.064z" fill="#ffe2b8" fill-rule="nonzero"/><path fill="#ffaf10" d="M419.967 100.922h51.811v308.884h-51.811z"/><path fill="#ff9518" d="M419.967 100.922h23.72v308.884h-23.72z"/><path d="M443.177 45.635l-11.483 20.31h28.352l-11.481-20.31c-1.482-2.623-3.906-2.623-5.388 0z" fill="#293d7c" fill-rule="nonzero"/></svg>