<svg aria-hidden="true" class="icon" height="40" width="40" viewBox="0 0 512 512" xmlns="http://www.w3.org/2000/svg" fill-rule="evenodd" clip-rule="evenodd" stroke-linejoin="round" stroke-miterlimit="1.414"><circle cx="324.06" cy="163.74" r="14.723" fill="#6edcf9"/><circle cx="64.858" cy="330.19" r="12.409" fill="#8dd83d"/><path d="M283.371 35.882l-31.642-4.597-14.15-28.672a4.689 4.689 0 00-8.406 0l-14.15 28.672-31.643 4.597c-3.834.557-5.374 5.287-2.597 7.994l22.896 22.319-5.406 31.515c-.654 3.819 3.369 6.748 6.8 4.94l28.302-14.878c30.83 16.207 28.892 15.418 30.482 15.418a4.69 4.69 0 004.621-5.479l-5.406-31.515 22.895-22.319c2.776-2.703 1.244-7.436-2.596-7.995z" fill="#ffa92c" fill-rule="nonzero"/><path d="M230.989 74.463l-22.896-22.319c-2.774-2.704-1.241-7.436 2.597-7.994l31.643-4.597 6.738-13.653-11.493-23.287a4.689 4.689 0 00-8.406 0l-14.15 28.672-31.643 4.597c-3.834.557-5.374 5.287-2.597 7.994l22.896 22.319-5.406 31.515c-.654 3.819 3.369 6.748 6.8 4.94l23.17-12.18 2.747-16.007z" fill="#ff8828" fill-rule="nonzero"/><path d="M462.783 186.955l-19.044-18.895 4.769-26.399c.577-3.2-2.774-5.684-5.669-4.196l-23.854 12.272-23.633-12.693c-2.864-1.536-6.263.882-5.742 4.095l4.301 26.479-19.376 18.554c-2.348 2.25-1.095 6.232 2.121 6.726l26.513 4.093 11.66 24.16a3.9 3.9 0 001.2 1.451 3.937 3.937 0 005.853-1.389l12.084-23.949 26.581-3.624c3.22-.435 4.545-4.393 2.236-6.685z" fill="#ffa92c" fill-rule="nonzero"/><path d="M407.823 186.428l-4.301-26.479c-.52-3.209 2.873-5.633 5.742-4.095l23.633 12.693 11.855-6.099 3.755-20.785c.577-3.2-2.774-5.684-5.669-4.196l-23.854 12.272-23.633-12.693c-2.864-1.536-6.263.882-5.742 4.095l4.301 26.479-19.376 18.554c-2.348 2.25-1.095 6.232 2.121 6.726l21.021 3.246 10.147-9.718z" fill="#ff8828" fill-rule="nonzero"/><path d="M190.979 471.648s-15.56-129.494-60.323-202.221c-6.042-9.162-15.583-13.818-27.955-7.26l-.011.006c-13.295 7.054-6.003 21.193-6.003 21.193l-.001.001c20.527 25.498 66.145 89.88 94.293 188.281z" fill="#e8c018" fill-rule="nonzero"/><path d="M439.159 378.272l.002-.001c1.567-.954 3.08-1.861 4.541-2.723 5.574-4.007 13.392-12.324 5.672-24.241-9.052-13.973-24.74-4.34-27.217-2.691C340.899 407.026 295.899 512 295.899 512c51.119-70.782 109.268-113.025 143.26-133.728z" fill="#f2d422" fill-rule="nonzero"/><path d="M75.167 385.301c-2.792-2.014-17.195-11.517-24.774.702-4.678 7.544-2.106 14.247 5.599 18.878l.008.005C82.829 421.053 129.898 454.809 171.203 512c0-.001-34.175-79.723-96.036-126.699z" fill="#e8c018" fill-rule="nonzero"/><path d="M149.305 196.146c.617-1.841.146-1.695-11.912-13.658 3.052-16.894 3.476-16.873 1.928-18.02-1.559-1.154-1.559-.665-16.671 7.109-15.117-8.118-14.973-8.521-16.543-7.402-1.579 1.131-1.113 1.282 1.609 18.051l-11.538 11.05c-1.399 1.338-.654 3.71 1.263 4.006l15.789 2.438c7.457 15.453 7.098 15.693 9.031 15.712 1.942.015 1.654-.379 9.309-15.55l15.829-2.157a2.347 2.347 0 001.906-1.579z" fill="#ea473b" fill-rule="nonzero"/><path d="M128.948 195.338c-16.958-2.618-17.087-2.209-17.666-4.048-.582-1.852-.121-1.691 12.152-13.445l-1.041-6.408c-14.812-7.954-14.716-8.383-16.285-7.264-1.579 1.131-1.113 1.282 1.609 18.051-12.392 11.868-12.73 11.606-12.152 13.445.583 1.851.872 1.455 17.666 4.048 7.229 14.981 6.902 14.693 7.657 15.254a2.346 2.346 0 003.485-.827l6.977-13.827-2.402-4.979z" fill="#d63322" fill-rule="nonzero"/><path d="M253.727 142.301l-.012-.006c-18.085-9.507-21.615-10.021-40.684.003l-.004.002c-16.405 8.624-16.121 20.788-15.721 24.028 9.469 58.576 27.319 177.628 36.068 292.235 8.721-114.223 26.481-232.861 35.975-291.643 1.072-6.696 2.261-15.217-15.622-24.619z" fill="#f2d422" fill-rule="nonzero"/><path d="M217.507 166.328c-.401-3.24-.684-15.404 15.721-24.028l.004-.002c4.043-2.125 7.383-3.772 10.316-4.964-10.231-4.258-15.656-2.848-30.517 4.964l-.004.002c-16.405 8.624-16.121 20.788-15.721 24.028 9.469 58.576 27.319 177.628 36.068 292.235 2.68-35.107 6.215-70.629 10.101-104.703-8.799-77.164-19.4-146.9-25.968-187.532z" fill="#e8c018" fill-rule="nonzero"/><path d="M386.256 253.408c4.198-5.61 3.106-10.191 2.358-12.042l-4.745-9.833c-2.244-4.646-6.093-5.941-7.794-6.295l-.854-.132h-.001l-8.879-1.371c-8.39-1.295-12.98 5.917-13.462 6.717-53.051 93.027-80.99 244.856-80.99 244.856 36.366-108.877 85.054-183.389 114.357-221.886l.01-.014z" fill="#f2d422" fill-rule="nonzero"/></svg>