<svg aria-hidden="true" class="icon" height="40" width="40" viewBox="0 0 512 512" xmlns="http://www.w3.org/2000/svg" fill-rule="evenodd" clip-rule="evenodd" stroke-linejoin="round" stroke-miterlimit="1.414"><path d="M275.944 265.374L256 500.235 54.483 396.14V150.945L256 228.398l201.516-77.453-181.572 114.429z" fill="#ff6b06" fill-rule="nonzero"/><path d="M457.516 396.139L256 500.235V255.041l201.516-104.096v245.194z" fill="#ffbc36" fill-rule="nonzero"/><path d="M54.483 150.945L256 255.04l201.516-104.096L256 46.848 54.483 150.945z" fill="#64e1dc" fill-rule="nonzero"/><path d="M256 255.041l201.516-104.096L256 46.848v208.193z" fill="#00c8c8" fill-rule="nonzero"/><path d="M358.532 194.514c16.351 22.094 26.02 49.432 26.02 79.028 0 71.501-52.004 125.394-122.758 128.428-1.922.082-3.853 4.552-5.795 4.552-73.442 0-132.98-59.537-132.98-132.98 0-29.197 9.41-56.197 25.363-78.132" fill="#de78f0" fill-rule="nonzero"/><path d="M388.98 273.542c0 73.442-59.538 132.98-132.98 132.98v-265.96c73.442 0 132.98 59.537 132.98 132.98z" fill="#ffe733" fill-rule="nonzero"/><path d="M146.298 198.373L256 255.041l109.702-56.668c-23.967-34.91-64.157-57.811-109.702-57.811s-85.735 22.901-109.702 57.811z" fill="#96ebe6" fill-rule="nonzero"/><path d="M256 255.041l109.702-56.668c-23.967-34.91-64.157-57.811-109.702-57.811v114.48z" fill="#64e1dc" fill-rule="nonzero"/></svg>