<svg aria-hidden="true" class="icon" height="40" width="40" viewBox="0 0 484 488" xmlns="http://www.w3.org/2000/svg" fill-rule="evenodd" clip-rule="evenodd" stroke-linejoin="round" stroke-miterlimit="1.414"><path fill="none" d="M0 0h483.285v487.298H0z"/><path fill="#bcb58e" d="M176.92 395.609h85.623v36.832h-85.624z"/><path d="M302.582 450.786a4.55 4.55 0 01-4.538 4.537h-156.63a4.55 4.55 0 01-4.538-4.537v-14.71a4.55 4.55 0 014.538-4.538h156.63a4.55 4.55 0 014.538 4.538v14.71z" fill="#d9c67c" fill-rule="nonzero"/><path d="M154.883 450.786v-14.71a4.55 4.55 0 014.537-4.538h-18.006a4.55 4.55 0 00-4.538 4.538v14.71a4.55 4.55 0 004.538 4.537h18.006a4.55 4.55 0 01-4.537-4.537z" fill="#bfa66d" fill-rule="nonzero"/><path d="M347.91 343.325H38.46v44.12c0 4.992 4.084 9.076 9.075 9.076h300.374v-53.196h.001z" fill="#d9dcbd" fill-rule="nonzero"/><path d="M56.468 387.446v-44.12H38.46v44.12c0 4.991 4.084 9.075 9.075 9.075h18.007c-4.99 0-9.074-4.084-9.074-9.075z" fill="#84816d" fill-rule="nonzero"/><path d="M392.283 138.564h-36.279v99.15c-4.7.018-8.52 3.859-8.52 8.58v80.508H81.536V138.564H47.175c-4.793 0-8.715 3.92-8.715 8.714v196.955h309.45v-97.94c0-4.731 3.849-8.58 8.58-8.58h44.506v-90.436c0-4.793-3.92-8.713-8.713-8.713z" fill="#c1bfa4" fill-rule="nonzero"/><path d="M81.537 155.992h-21.11a4.55 4.55 0 00-4.537 4.538v161.734a4.55 4.55 0 004.538 4.537h21.11l-.001-170.81z" fill="#293d7c" fill-rule="nonzero"/><path d="M379.03 155.992h-23.025v81.744c.162-.009.322-.024.486-.024h27.077V160.53a4.55 4.55 0 00-4.538-4.538z" fill="#dae5b6" fill-rule="nonzero"/><path d="M73.897 322.264V160.53a4.55 4.55 0 014.538-4.537H60.428a4.55 4.55 0 00-4.538 4.537v161.734a4.55 4.55 0 004.538 4.538h18.007a4.55 4.55 0 01-4.538-4.538z" fill="#c5dbb0" fill-rule="nonzero"/><circle cx="209.68" cy="361.01" r="12.153" fill="#838469" transform="translate(29.44 43.04) scale(.90751)"/><path d="M181.173 102.494c0-2.22 1.818-4.04 4.04-4.04h104.19V47.82c0-2.63-2.15-4.78-4.778-4.78H85.86a4.792 4.792 0 00-4.778 4.78v278.983h100.09V102.494z" fill="#c3ddf4" fill-rule="nonzero"/><path d="M103.868 43.04H85.86a4.792 4.792 0 00-4.778 4.779v278.983H99.09V47.819c0-2.63 2.15-4.78 4.777-4.78z" fill="#63abdf" fill-rule="nonzero"/><path d="M347.91 246.294c0-4.721 3.832-8.563 8.549-8.58V101.586c0-2.22-1.819-4.04-4.04-4.04H184.306a4.053 4.053 0 00-4.04 4.04v225.216h167.643v-80.508h.001z" fill="#fff" fill-rule="nonzero"/><path d="M202.314 97.547h-18.008a4.053 4.053 0 00-4.04 4.04v225.215h18.006V101.586c0-2.221 1.82-4.04 4.042-4.04z" fill="#d9eafc" fill-rule="nonzero"/><path d="M218.943 188.64a6.805 6.805 0 01-5.12-2.323l-10.89-12.44a6.806 6.806 0 1110.242-8.966l5.768 6.59 9.172-10.478a6.806 6.806 0 1110.242 8.967l-14.293 16.327a6.806 6.806 0 01-5.12 2.323z" fill="#0f9390" fill-rule="nonzero"/><path d="M328.67 171.535h-72.897a6.806 6.806 0 110-13.613h72.898a6.806 6.806 0 110 13.613zm0 18.66h-72.897a6.806 6.806 0 110-13.612h72.898a6.806 6.806 0 110 13.612z" fill="#52bbef" fill-rule="nonzero"/><path d="M218.943 244.62a6.808 6.808 0 01-5.12-2.322l-10.89-12.438a6.807 6.807 0 0110.242-8.967l5.768 6.589 9.172-10.477a6.807 6.807 0 0110.242 8.967l-14.293 16.326a6.805 6.805 0 01-5.12 2.322z" fill="#0f9390" fill-rule="nonzero"/><path d="M328.67 227.515h-72.897a6.806 6.806 0 110-13.613h72.898a6.806 6.806 0 110 13.613zm0 18.661h-72.897a6.806 6.806 0 110-13.613h72.898a6.806 6.806 0 110 13.613z" fill="#52bbef" fill-rule="nonzero"/><path d="M218.943 300.601a6.809 6.809 0 01-5.12-2.323l-10.89-12.44a6.806 6.806 0 1110.242-8.966l5.768 6.589 9.172-10.476a6.806 6.806 0 1110.242 8.967l-14.293 16.326a6.806 6.806 0 01-5.12 2.323z" fill="#0f9390" fill-rule="nonzero"/><path d="M328.67 283.496h-72.897a6.806 6.806 0 110-13.613h72.898a6.806 6.806 0 110 13.613zm-26.795 18.66h-46.103a6.806 6.806 0 110-13.613h46.103a6.806 6.806 0 110 13.613z" fill="#52bbef" fill-rule="nonzero"/><path d="M160.614 113.698h-53.109a6.806 6.806 0 110-13.613h53.11a6.806 6.806 0 11-.001 13.613zm0 18.915h-53.109a6.806 6.806 0 110-13.612h53.11a6.806 6.806 0 11-.001 13.612zm0 18.916h-53.109a6.806 6.806 0 110-13.613h53.11a6.806 6.806 0 11-.001 13.613zm0 35.839h-53.109a6.806 6.806 0 110-13.612h53.11a6.806 6.806 0 11-.001 13.612zm0 18.917h-53.109a6.806 6.806 0 110-13.613h53.11a6.806 6.806 0 11-.001 13.613zm0 18.915h-53.109a6.806 6.806 0 110-13.612h53.11a6.806 6.806 0 11-.001 13.613zm0 35.84h-53.109a6.806 6.806 0 110-13.612h53.11a6.806 6.806 0 11-.001 13.612zm0 18.915h-53.109a6.806 6.806 0 110-13.613h53.11a6.806 6.806 0 11-.001 13.613zm0 18.915h-53.109a6.806 6.806 0 110-13.613h53.11a6.806 6.806 0 11-.001 13.613zm144.435-167.35h-73.375a6.806 6.806 0 110-13.612h73.375a6.806 6.806 0 110 13.613z" fill="#445ea0" fill-rule="nonzero"/><path d="M460.388 445.834c0 5.22-4.27 9.49-9.489 9.49h-94.408c-5.219 0-9.489-4.27-9.489-9.49v-199.54c0-5.22 4.27-9.49 9.49-9.49h94.407c5.22 0 9.49 4.27 9.49 9.49v199.54z" fill="#aec1ed" fill-rule="nonzero"/><path d="M365.01 445.834v-199.54c0-5.22 4.27-9.49 9.488-9.49h-18.007c-5.219 0-9.489 4.27-9.489 9.49v199.54c0 5.22 4.27 9.49 9.49 9.49h18.006c-5.219 0-9.489-4.27-9.489-9.49z" fill="#85a0dd" fill-rule="nonzero"/><path d="M384.717 417.979v10.696a4.55 4.55 0 004.538 4.538h28.88a4.55 4.55 0 004.538-4.538v-10.696h-37.956z" fill="#445ea0" fill-rule="nonzero"/><path fill="#91e0e8" d="M347.005 267.55H460.39v151.337H347.005z"/><path fill="#5dc1d8" d="M347.005 267.55h18.007v151.337h-18.007z"/><path d="M419.826 258.782h-32.262a6.806 6.806 0 110-13.613h32.262a6.806 6.806 0 110 13.613z" fill="#445ea0" fill-rule="nonzero"/><path d="M445.996 317.655a4.55 4.55 0 01-4.538 4.538h-75.376a4.55 4.55 0 01-4.538-4.538v-31.724a4.55 4.55 0 014.538-4.538h75.376a4.55 4.55 0 014.538 4.538v31.724zm-21.957 26.984h-55.53a6.806 6.806 0 110-13.613h55.53a6.806 6.806 0 110 13.613zm0 20.069h-55.53a6.806 6.806 0 110-13.612h55.53a6.806 6.806 0 110 13.612zm0 20.069h-55.53a6.806 6.806 0 110-13.613h55.53a6.807 6.807 0 010 13.613z" fill="#eef6ff" fill-rule="nonzero"/><path d="M379.552 317.655v-31.724a4.55 4.55 0 014.538-4.538h-18.007a4.55 4.55 0 00-4.538 4.538v31.724a4.55 4.55 0 004.538 4.538h18.007a4.55 4.55 0 01-4.538-4.538zm.158 20.177a6.806 6.806 0 016.807-6.806H368.51a6.806 6.806 0 100 13.613h18.007a6.807 6.807 0 01-6.807-6.807zm0 20.07a6.806 6.806 0 016.807-6.806H368.51a6.806 6.806 0 100 13.612h18.007a6.806 6.806 0 01-6.807-6.806zm0 20.068a6.807 6.807 0 016.807-6.806H368.51a6.807 6.807 0 000 13.613h18.007a6.806 6.806 0 01-6.807-6.806z" fill="#d9eafc" fill-rule="nonzero"/><path d="M273.615 80.248a4.55 4.55 0 01-4.538 4.537h-164.26a4.55 4.55 0 01-4.537-4.537V67.543a4.55 4.55 0 014.537-4.538h164.26a4.55 4.55 0 014.538 4.538v12.705z" fill="#fff" fill-rule="nonzero"/></svg>