<svg class="illustration" aria-labelledby="account" xmlns="http://www.w3.org/2000/svg" viewBox="0 0 64 64"><title id="account">Accounts</title><defs><filter id="drop-shadow-1" filterUnits="userSpaceOnUse"><feOffset dy="1"/><feGaussianBlur result="blur" stdDeviation="1.5"/><feFlood flood-color="#000" flood-opacity=".4"/><feComposite in2="blur" operator="in"/><feComposite in="SourceGraphic"/></filter><filter id="drop-shadow-2" filterUnits="userSpaceOnUse"><feOffset dy="1"/><feGaussianBlur result="blur-2" stdDeviation="1.5"/><feFlood flood-color="#000" flood-opacity=".4"/><feComposite in2="blur-2" operator="in"/><feComposite in="SourceGraphic"/></filter><filter id="drop-shadow-3" filterUnits="userSpaceOnUse"><feOffset dy="1.5"/><feGaussianBlur result="blur-3" stdDeviation="2.5"/><feFlood flood-color="#000" flood-opacity=".3"/><feComposite in2="blur-3" operator="in"/><feComposite in="SourceGraphic"/></filter><clipPath id="clippath"><path id="overlay" d="M0 0h64v64H0z" style="fill:none"/></clipPath><style>.cls-1{fill:#e0e0e0}.cls-7{fill:#757575}.cls-11{fill:#00a0df}</style></defs><g id="Business"><g id="accounting"><g id="assets" style="clip-path:url(#clippath);fill:none"><g id="page"><path d="M43.22 34.39V3.72c0-1.13-.91-2.04-2.04-2.04H9.12c-1.13 0-2.04.91-2.04 2.04v30.67h36.14Z" style="fill:#fff;filter:url(#drop-shadow-1)"/><path d="M42.36 33.86h.86V3.61c0-.96-.68-1.72-1.57-1.94.42.37.7.9.7 1.51v30.68Z" style="fill:#eee"/><rect width="17.1" height="3.06" x="21.58" y="23.82" class="cls-7" rx="1.5" ry="1.5"/><path d="M11.88 4.15h4.6v12.68h-4.6zM19.28 8.69h4.6v8.14h-4.6zM26.68 7.11h4.6v9.72h-4.6zM34.08 10.49h4.6v6.34h-4.6z" class="cls-11"/><rect width="26.89" height="3.06" x="11.79" y="18.76" class="cls-7" rx="1.5" ry="1.5"/></g><path d="M32.7 29.11H21.32c-.69 0-1.33-.39-1.63-1.02l-1.32-2.72a1.82 1.82 0 0 0-1.63-1.02H5.92c-1 0-1.81.81-1.81 1.8V54.9c0 .99.81 1.8 1.81 1.8H32.7V29.1Z" style="fill:#ffe600;filter:url(#drop-shadow-2)"/><g id="calculator"><path d="M34.27 24.23h23.04c.83 0 1.5.67 1.5 1.5v31.23c0 .84-.69 1.53-1.53 1.53H34.26c-.86 0-1.56-.7-1.56-1.56V25.81c0-.87.7-1.57 1.57-1.57Z" style="fill:#4a4f55;filter:url(#drop-shadow-3)"/><path d="M57.41 24.23h-.85c.81 0 1.47.66 1.47 1.47v31.32c0 .81-.66 1.47-1.47 1.47h.85c.81 0 1.47-.66 1.47-1.47V25.7c0-.81-.66-1.47-1.47-1.47Z" style="fill:#212121"/><rect width="20.8" height="8.25" x="35.47" y="26.99" rx=".5" ry=".5" style="fill:#ff9015"/><rect width="5.78" height="4.76" x="35.44" y="37.46" class="cls-1" rx=".61" ry=".61"/><rect width="5.78" height="4.76" x="42.93" y="37.46" class="cls-1" rx=".61" ry=".61"/><rect width="5.78" height="4.76" x="50.5" y="37.46" class="cls-1" rx=".61" ry=".61"/><path d="M47.53 51.29h-10.9c-.65 0-1.18.53-1.18 1.19v2.39c0 .65.53 1.19 1.18 1.19h10.9c.65 0 1.18-.53 1.18-1.19v-2.39c0-.65-.53-1.19-1.18-1.19Z" style="fill:#9e9e9e"/><rect width="5.78" height="4.76" x="50.5" y="51.18" class="cls-1" rx=".61" ry=".61"/><rect width="5.78" height="4.76" x="35.44" y="44.32" class="cls-1" rx=".61" ry=".61"/><rect width="5.78" height="4.76" x="42.93" y="44.32" class="cls-1" rx=".61" ry=".61"/><rect width="5.78" height="4.76" x="50.5" y="44.32" class="cls-1" rx=".61" ry=".61"/></g></g></g></g></svg>