<svg width="340" height="114" viewBox="0 0 340 114" xmlns="http://www.w3.org/2000/svg" xmlns:xlink="http://www.w3.org/1999/xlink"><title>Caanz member</title><defs><path id="a" d="M0 0h322.728v71.456H0z"/></defs><g fill="none" fill-rule="evenodd"><path fill="#4A4E4D" d="M198.374 113.94h.975V.614h-.975zM226.81 76.657h3.96c3.36 0 3.38 4.96 0 4.96h-3.96v-4.96Zm3.96 7.38c6.9-.06 6.88-9.901 0-9.901-2.18 0-4.42.021-6.601.021v14h2.641v-4.12h3.96Zm21.499 3.94-4.24-4.78c2.66-.54 3.54-2.48 3.54-4.4 0-2.42-1.74-4.621-5.04-4.64-2.22 0-4.439-.021-6.659-.021v14.021h2.639v-4.68h2.68l4.06 4.68h3.02v-.18Zm-5.74-11.36c1.66 0 2.4 1.12 2.4 2.24s-.72 2.24-2.4 2.24h-4.02v-4.48h4.02Zm16.02-2.74c-4.059 0-7.26 2.96-7.26 7.381 0 3.679 2.281 7.219 7.201 7.219s7.14-3.62 7.18-7.24c.039-3.64-2.341-7.32-7.121-7.36Zm-4.66 7.421c-.08-2.781 1.681-5.021 4.66-5.021 3.221.06 4.561 2.66 4.521 5-.04 2.3-1.281 4.78-4.58 4.78-3.3 0-4.54-2.46-4.601-4.759Zm27.819-5.401a7.39 7.39 0 0 0-5.2-2.14c-4.939 0-7.399 3.64-7.399 7.58 0 3.68 2.139 7.14 7.399 7.14 2.461 0 4.2-.939 5.581-2.519v-5.901h-6.001v2.36h3.58v2.48c-1.099.88-2.059 1.12-3.16 1.12-3.479 0-4.819-2.38-4.819-4.68 0-2.88 1.819-5.161 4.819-5.161 1.221 0 2.62.5 3.561 1.401l1.639-1.68Zm17.261 12.08-4.24-4.78c2.66-.54 3.541-2.48 3.541-4.4 0-2.42-1.74-4.621-5.041-4.64-2.22 0-4.44-.021-6.66-.021v14.021h2.64v-4.68h2.68l4.061 4.68h3.019v-.18Zm-5.74-11.36c1.66 0 2.4 1.12 2.4 2.24s-.719 2.24-2.4 2.24h-4.02v-4.48h4.02Zm20.639 11.54h2.88l-6.28-14h-2.88l-6.28 14h2.86l1.2-2.64h7.321l1.179 2.64Zm-2.24-5.1h-5.2l2.601-5.96 2.599 5.96Zm20.799 5.12h2.641V74.176h-3.021l-4.378 6.021-4.381-6.021h-3.04v14.001h2.641v-10.18l4.46 6.1h.519l4.559-6.08v10.16ZM226.77 58.097h4.04c1.08 0 2.62.66 2.62 1.92 0 1.321-1.54 1.68-2.62 1.68h-4.04v-3.6Zm0-5.54h4.04c1.68 0 2.2 1.079 2.2 1.72 0 .8-.54 1.5-2.2 1.5h-4.04v-3.22Zm4.04-2.4h-6.641v14h6.641c2.9 0 5.24-1 5.24-4.12 0-.88-.599-2.62-2.24-3.12 1.3-.58 1.82-1.621 1.82-2.7 0-2.82-2.06-4.06-4.82-4.06Zm20.059 11.4h-7.86v-3.16h7.58v-2.46h-7.58v-3.22h7.86v-2.56h-10.48v14h10.48v-2.6Zm6.741-11.4h-2.141v14h2.641v-9.32l7.44 9.32h2.138v-14h-2.639v9.42l-7.439-9.42Zm25.659 11.4h-7.86v-3.16h7.58v-2.46h-7.58v-3.22h7.86v-2.56h-10.481v14h10.481v-2.6Zm7.24 2.6v-5.18h7.019v-2.44h-7.019v-3.82h7.419v-2.541h-10.06v13.981h2.641Zm11.679 0h2.62v-14h-2.62v14Zm10.841 0h2.639v-11.6h4.441v-2.4h-11.521v2.4h4.441v11.6Zm21.298-11.7c-1.06-2.16-3.32-2.781-5.5-2.781-2.58.021-5.42 1.201-5.42 4.081 0 3.14 2.64 3.9 5.501 4.24 1.859.2 3.24.74 3.24 2.06 0 1.52-1.561 2.1-3.221 2.1-1.7 0-3.32-.68-3.94-2.22l-2.2 1.14c1.04 2.56 3.24 3.44 6.1 3.44 3.12 0 5.881-1.34 5.881-4.46 0-3.34-2.721-4.1-5.641-4.46-1.679-.2-3.12-.54-3.12-1.76 0-1.041.941-1.86 2.901-1.86 1.519 0 2.839.76 3.319 1.56l2.1-1.08Z"/><g transform="translate(.06 26.136)"><mask id="b" fill="#fff"><use xlink:href="#a"/></mask><path d="M236.29 14.041h2.64V.04h-3.02l-4.38 6.021L227.149.04h-3.04v14.001h2.641V3.861l4.46 6.1h.519l4.561-6.08v10.16Zm18.219-2.62h-7.859v-3.16h7.579v-2.46h-7.579V2.58h7.859V.02H244.03v14.001h10.479v-2.6Zm16.781 2.62h2.64V.04h-3.021l-4.38 6.021-4.38-6.021h-3.04v14.001h2.64V3.861l4.46 6.1h.52l4.561-6.08v10.16Zm10.339-6.08h4.04c1.08 0 2.62.66 2.62 1.92 0 1.32-1.54 1.68-2.62 1.68h-4.04v-3.6Zm0-5.54h4.04c1.68 0 2.2 1.08 2.2 1.72 0 .8-.54 1.5-2.2 1.5h-4.04v-3.22Zm4.04-2.401h-6.641v14.001h6.641c2.899 0 5.24-1 5.24-4.12 0-.88-.601-2.62-2.24-3.12 1.3-.58 1.82-1.62 1.82-2.701 0-2.819-2.06-4.06-4.82-4.06Zm20.06 11.401h-7.86v-3.16h7.58v-2.46h-7.58V2.58h7.86V.02h-10.48v14.001h10.48v-2.6Zm16.999 2.42-4.24-4.78c2.66-.54 3.54-2.48 3.54-4.4 0-2.42-1.74-4.621-5.04-4.641-2.22 0-4.44-.02-6.66-.02v14.021h2.64v-4.68h2.68l4.06 4.68h3.02v-.18Zm-5.74-11.36c1.66 0 2.401 1.119 2.401 2.24 0 1.12-.721 2.24-2.401 2.24h-4.02v-4.48h4.02ZM6.872 70.345c-.778.766-1.779 1.111-2.9 1.111-2.878 0-4.021-1.855-4.032-3.914-.011-1.95 1.261-3.998 4.032-3.998 1.034 0 1.994.399 2.769 1.164l-1.056 1.045c-.452-.441-1.11-.626-1.713-.626-1.714 0-2.383 1.328-2.372 2.427.012 1.099.604 2.35 2.372 2.35.603 0 1.402-.271 1.853-.723l1.047 1.164" fill="#4A4E4D" mask="url(#b)"/></g><path fill="#4A4E4D" d="M13.902 97.409v-2.985h-3.373v2.985H8.846v-7.545h1.683v3.018h3.373v-3.018h1.659v7.545h-1.659M23.499 96.103h-3.868l-.549 1.295h-1.813l3.386-7.545h1.832l3.384 7.545h-1.823l-.549-1.295Zm-1.928-4.547-1.306 3.061h2.601l-1.295-3.061ZM34.275 97.398h-1.864l-1.932-2.479h-1.218v2.479h-1.678v-7.545h3.576c1.824 0 2.792 1.217 2.792 2.544-.011.98-.301 1.853-1.746 2.37l2.07 2.502v.129Zm-5.014-6.101v2.198h1.921c.776 0 1.11-.581 1.11-1.055-.012-.517-.346-1.143-1.133-1.143h-1.898ZM37.837 91.351h-2.295v-1.498h6.263v1.498H39.51v6.047h-1.673v-6.047M49.486 97.398h-5.744v-7.545h5.594v1.54h-3.944v1.456h3.717v1.476h-3.717v1.52h4.094v1.553M58.418 97.398h-1.864l-1.932-2.479h-1.216v2.479h-1.68v-7.545h3.576c1.823 0 2.792 1.217 2.792 2.544-.011.98-.3 1.853-1.745 2.37l2.069 2.502v.129Zm-5.012-6.101v2.198h1.919c.776 0 1.111-.581 1.111-1.055-.012-.517-.347-1.143-1.134-1.143h-1.896ZM66.197 97.398h-5.746v-7.545h5.594v1.54h-3.946v1.456h3.721v1.476h-3.721v1.52h4.098v1.553M71.529 89.853c2.597 0 3.75 1.744 3.75 3.719 0 1.973-1.11 3.826-3.75 3.826h-3.093v-7.545h3.093Zm-1.436 5.993h1.436c1.639 0 2.091-1.209 2.091-2.297s-.517-2.177-2.091-2.177h-1.436v4.474ZM85.933 96.103h-3.868l-.55 1.295h-1.812l3.386-7.545h1.832l3.384 7.545h-1.823l-.549-1.295Zm-1.93-4.547-1.304 3.061h2.599l-1.295-3.061ZM96.245 96.481c-.777.766-1.777 1.111-2.899 1.111-2.878 0-4.021-1.855-4.032-3.914-.01-1.95 1.262-3.998 4.032-3.998 1.034 0 1.995.399 2.769 1.164l-1.055 1.045c-.453-.441-1.111-.626-1.714-.626-1.713 0-2.381 1.328-2.371 2.427.012 1.099.605 2.35 2.371 2.35.603 0 1.402-.271 1.855-.723l1.044 1.164M104.455 96.481c-.776.766-1.777 1.111-2.899 1.111-2.878 0-4.021-1.855-4.032-3.914-.011-1.95 1.262-3.998 4.032-3.998 1.034 0 1.994.399 2.769 1.164l-1.056 1.045c-.452-.441-1.11-.626-1.713-.626-1.714 0-2.381 1.328-2.372 2.427.013 1.099.604 2.35 2.372 2.35.603 0 1.402-.271 1.854-.723l1.045 1.164M109.807 97.581c-2.417 0-4.076-1.499-4.076-3.955 0-2.458 1.659-3.957 4.076-3.957 2.413 0 4.075 1.499 4.075 3.957 0 2.456-1.662 3.955-4.075 3.955m0-6.403c-1.436 0-2.424 1.079-2.424 2.448 0 1.411.988 2.435 2.424 2.435 1.465 0 2.425-1.035 2.425-2.435 0-1.38-.96-2.448-2.425-2.448M122.813 89.864v4.214c0 2.241-1.249 3.438-3.235 3.503-1.971.064-3.642-1.067-3.642-3.503v-4.214h1.671v4.214c0 1.347.755 2.047 1.984 1.994 1.143-.076 1.55-.863 1.55-1.994v-4.214h1.672M130.547 94.757l-.107-2.371v-2.533h1.692v7.545h-1.445l-3.751-4.829.066 2.478v2.351h-1.701v-7.545h1.442l3.804 4.904M136.364 91.351h-2.295v-1.498h6.262v1.498h-2.295v6.047h-1.672v-6.047M146.946 96.103h-3.869l-.548 1.295h-1.814l3.386-7.545h1.833l3.383 7.545h-1.823l-.548-1.295Zm-1.929-4.547-1.306 3.061h2.601l-1.295-3.061ZM156.277 94.757l-.11-2.371v-2.533h1.693v7.545h-1.445l-3.751-4.829.067 2.478v2.351h-1.704v-7.545h1.445l3.805 4.904M162.092 91.351h-2.294v-1.498h6.261v1.498h-2.295v6.047h-1.672v-6.047M172.458 91.674c-.42-.441-1.155-.636-1.747-.636-.743 0-1.345.313-1.345.83 0 .69.656.819 1.626.905 1.488.129 2.899.701 2.899 2.447 0 1.682-1.551 2.414-3.18 2.425-1.304.011-2.662-.495-3.297-1.553l1.002-1.045c.581.746 1.541 1.068 2.307 1.068.894 0 1.509-.357 1.509-.895.011-.636-.496-.926-1.521-1.012-1.595-.153-3.017-.551-2.996-2.329.012-1.497 1.436-2.297 2.987-2.297 1.165 0 2.036.26 2.812 1.165l-1.056.927M30.695 108.321h-2.881l-.502 1.117h-.903l2.387-5.32h.926l2.386 5.32h-.906l-.507-1.117Zm-1.438-3.308-1.126 2.534h2.253l-1.127-2.534ZM37.576 104.125v3.109c0 1.565-1.034 2.349-2.318 2.305-1.187-.032-2.199-.792-2.199-2.305v-3.109h.844v3.109c0 .965.563 1.49 1.355 1.521.851.044 1.473-.51 1.473-1.521v-3.109h.845M42.521 105.296c-.252-.366-.76-.586-1.315-.592-.716 0-1.232.296-1.232.805 0 .517.594.662 1.293.761 1.094.151 2.134.455 2.134 1.648-.006 1.195-1.093 1.641-2.204 1.641-1.017 0-1.801-.309-2.287-1.207l.639-.426c.379.647 1.04.873 1.657.873.637 0 1.344-.212 1.344-.881 0-.578-.616-.775-1.361-.874-1.055-.145-2.059-.412-2.059-1.552-.008-1.102 1.094-1.527 2.053-1.527.767 0 1.536.182 1.983.898l-.645.433M46.064 104.886h-1.747v-.768h4.349v.768h-1.743v4.552h-.859v-4.552M54.553 109.439h-.998l-1.618-1.84H50.81v1.84h-.849v-5.328c.828 0 1.649.006 2.476.006 1.232 0 1.878.844 1.878 1.741 0 .761-.395 1.505-1.444 1.658l1.589 1.771.093.152Zm-3.743-4.545v1.929h1.619c.708 0 1.021-.446 1.021-.949 0-.48-.313-.98-1.013-.98H50.81ZM59.623 108.321h-2.881l-.5 1.117h-.905l2.386-5.32h.928l2.385 5.32h-.902l-.511-1.117Zm-1.436-3.308-1.124 2.534h2.25l-1.126-2.534ZM63.123 104.117v4.531h2.806v.791h-3.656v-5.322h.85M67.231 109.438h.844v-5.321h-.844zM73.596 108.321h-2.881l-.503 1.117h-.902l2.386-5.32h.927l2.386 5.32h-.905l-.508-1.117Zm-1.437-3.308-1.126 2.534h2.25l-1.124-2.534ZM79.233 106.443v-1.17h.783v1.17h1.178v.73h-1.178v1.185h-.783v-1.185h-1.172v-.73h1.172M88.759 107.904v-3.786h.853v5.321h-.646l-3.019-3.755v3.755h-.859v-5.321h.654l3.017 3.786M95.374 109.439h-3.927v-5.322h3.906v.83h-3.058v1.435h2.937v.791h-2.937v1.429h3.079v.837M102.425 109.446h-.752l-.707-1.878-.586-1.784-.586 1.792-.7 1.87h-.742l-1.932-5.328h.951l1.354 4.097 1.374-4.097h.548l1.405 4.097 1.324-4.097h.948l-1.899 5.328M107.561 104.117h3.885v.389l-2.926 4.119h2.926v.814h-4.127v-.48l2.874-4.058h-2.632v-.784M116.846 109.439h-3.931v-5.322h3.906v.83h-3.055v1.435h2.936v.791h-2.936v1.429h3.08v.837M122.124 108.321h-2.879l-.504 1.117h-.903l2.387-5.32h.927l2.385 5.32h-.903l-.51-1.117Zm-1.437-3.308-1.126 2.534h2.252l-1.126-2.534ZM125.622 104.117v4.531h2.805v.791h-3.654v-5.322h.849M133.415 108.321h-2.88l-.5 1.117h-.906l2.387-5.32h.927l2.385 5.32h-.902l-.511-1.117Zm-1.434-3.308-1.126 2.534h2.251l-1.125-2.534ZM139.738 107.904v-3.786h.849v5.321h-.645l-3.017-3.755v3.755h-.858v-5.321h.653l3.018 3.786M144.436 104.117c1.818 0 2.644 1.3 2.669 2.614.029 1.346-.805 2.708-2.669 2.708h-2.013v-5.322h2.013Zm-1.169 4.5h1.169c1.3 0 1.849-.957 1.825-1.892-.022-.897-.568-1.795-1.825-1.795h-1.169v3.687ZM178.194 89.745l.858 1.197.868-1.197h.582v2.762h-.598l.026-1.816-.825 1.158h-.13l-.808-1.187.027 1.845h-.609v-2.762h.609Zm-3.412.569v-.56h2.421v.56h-.911v2.193h-.599v-2.193h-.911Z"/><path d="M70.444 49.195a21.879 21.879 0 0 1-5.045-13.993c0-12.113 9.853-21.966 21.962-21.966 6.094 0 11.615 2.497 15.598 6.516l5.802-5.769c-5.468-5.51-13.039-8.93-21.4-8.93-16.626 0-30.148 13.524-30.148 30.149 0 8.406 3.462 16.014 9.028 21.487l4.201-7.49.002-.004M97.82 54.486a21.806 21.806 0 0 1-10.459 2.681c-3.79 0-7.358-.965-10.474-2.663l-.006-.001-.001.002-3.968 7.151a29.969 29.969 0 0 0 14.449 3.695 29.914 29.914 0 0 0 14.431-3.703l-.001-.001-3.971-7.161" fill="#1A9ACA"/><path d="m76.881 54.503 10.477-18.882 10.459 18.861.003.004.006-.004a21.928 21.928 0 0 0 3.917-2.699s1.484-1.297 2.526-2.58l-.004-.006L87.358 19.03 70.444 49.195a22.113 22.113 0 0 0 6.437 5.308M66.241 56.689l-.004.007-10.511 18.755h9.534l7.649-13.791.003-.004a30.318 30.318 0 0 1-6.671-4.967M118.983 75.451 108.478 56.71c-1.371 1.378-3.157 2.695-3.157 2.695a30.13 30.13 0 0 1-3.521 2.24l-.008.003 7.658 13.803h9.533" fill="#C3313C"/><path d="M105.321 59.405s1.786-1.317 3.157-2.695l-.002-.003-4.207-7.504c-1.042 1.283-2.526 2.58-2.526 2.58a21.928 21.928 0 0 1-3.917 2.699l-.006.004 3.971 7.161.001.001.008-.003a30.13 30.13 0 0 0 3.521-2.24M76.881 54.503a22.113 22.113 0 0 1-6.437-5.308l-.002.004-4.201 7.49a30.318 30.318 0 0 0 6.671 4.967l3.968-7.151.001-.002" fill="#243961"/></g></svg>