<svg class="illustration" aria-labelledby="hr" xmlns="http://www.w3.org/2000/svg" viewBox="0 0 64 64"><title id="hr">Human Resources</title><defs><filter id="drop-shadow-1" filterUnits="userSpaceOnUse"><feOffset dy=".5"/><feGaussianBlur result="blur" stdDeviation="1"/><feFlood flood-color="#000" flood-opacity=".45"/><feComposite in2="blur" operator="in"/><feComposite in="SourceGraphic"/></filter><filter id="drop-shadow-2" filterUnits="userSpaceOnUse"><feOffset dy=".5"/><feGaussianBlur result="blur-2" stdDeviation="1"/><feFlood flood-color="#000" flood-opacity=".45"/><feComposite in2="blur-2" operator="in"/><feComposite in="SourceGraphic"/></filter><filter id="drop-shadow-3" filterUnits="userSpaceOnUse"><feOffset dy=".5"/><feGaussianBlur result="blur-3" stdDeviation="1"/><feFlood flood-color="#000" flood-opacity=".45"/><feComposite in2="blur-3" operator="in"/><feComposite in="SourceGraphic"/></filter><clipPath id="clippath"><path id="overlay" d="M0 0h64v64H0z" style="fill:none"/></clipPath><style>.cls-10{fill:#212121}.cls-15{fill:#4a4f54}.cls-17{fill:#66c4e8}</style></defs><g id="Communication"><g id="human_resources" data-name="human resources"><g id="assets" style="clip-path:url(#clippath);fill:none"><g id="footer"><path d="M27.45 44.93h9.77v9.77h-9.77z" style="fill:#bdbdbd;filter:url(#drop-shadow-1)"/><rect id="footer-2" width="33.55" height="2" x="15.56" y="54.7" data-name="footer" rx=".99" ry=".99" style="filter:url(#drop-shadow-2);fill:#e0e0e0"/><path d="M27.45 44.93h9.77v2.08h-9.77z" style="fill:#9e9e9e"/><path d="M27.45 47.02h9.77v7.68h-9.77z" style="fill:#bdbdbd"/></g><path id="shadow" d="M3.96 8.18v34.07c0 1.48 1.2 2.68 2.68 2.68h49.45c2.09 0 3.79-1.7 3.79-3.79l.02-32.96c0-1.48-1.2-2.68-2.68-2.68H6.64a2.68 2.68 0 0 0-2.68 2.68Z" style="filter:url(#drop-shadow-3);fill:#e0e0e0"/><g id="monitor"><path d="M57.9 39.01v1.87c0 2.24-1.75 4.05-3.9 4.05h2.1c2.15 0 3.9-1.81 3.9-4.05v-1.87h-2.1Z" style="fill:#9e9d9e"/><path d="M4.05 39.01v1.87c0 2.24 1.75 4.05 3.9 4.05h47.06c2.15 0 3.9-1.81 3.9-4.05v-1.87H4.05Z" style="fill:#e0e0e0"/><path d="M57.34 5.5H54c2.15 0 3.9 1.81 3.9 4.05V39H60V8.62c0-1.83-.9-3.12-2.66-3.12Z" class="cls-15"/></g><g id="screen"><path d="M58.9 39.01v-31a2.5 2.5 0 0 0-2.5-2.5H6.46a2.5 2.5 0 0 0-2.5 2.5v31H58.9Z" class="cls-10"/><path d="M5.94 7.31h50.98v30.58H5.94z" class="cls-17"/><path id="shadow-2" d="M5.94 37.9h51.1V7.31C28.73 14.65 5.94 37.9 5.94 37.9Z" data-name="shadow" style="fill:#129fda;opacity:.5"/><g id="info"><rect width="15.64" height="25.36" x="37.22" y="9.58" rx=".5" ry=".5" style="fill:#eee"/><path d="M40.12 13.27h1.99v1.99h-1.99zM47.96 17.2h1.99v1.99h-1.99zM47.96 28.92h1.99v1.99h-1.99zM47.96 25.04h1.99v1.99h-1.99zM44.09 13.27h5.86v1.99h-5.86zM40.12 17.2h5.86v1.99h-5.86zM40.12 25.04h5.86v1.99h-5.86zM40.12 28.92h5.86v1.99h-5.86zM40.12 21.15h9.84v1.99h-9.84z" class="cls-15"/></g><g id="user"><rect width="25.79" height="25.36" x="8" y="9.92" rx=".5" ry=".5" style="fill:#ff9015"/><path d="M26.6 32.28v-1.3c0-2.97-2.54-5.38-5.68-5.38s-5.68 2.41-5.68 5.38v1.3h11.35Z" class="cls-17"/><path d="M21 25.6h-2.42v3.48c0 .41.44.68.81.49l1.61-.82 1.61.82c.37.19.81-.08.81-.49V25.6H21Z" style="fill:#fff"/><path d="M25.89 19.16c-.32-.1-.52.09-.67.41-.02-.25-.04-.5-.08-.74-.14-.8-.7-2.18-1.56-2.88a4.49 4.49 0 0 0-5.53 0c-.86.69-1.42 2.07-1.56 2.88-.04.24-.07.5-.08.77-.15-.34-.36-.55-.69-.44-1.2.39.25 3.49.8 3.4.42 2.65 2.31 4.11 4.3 4.11 1.99 0 3.87-1.45 4.3-4.1.56.02 1.97-3.03.78-3.41Z" style="fill:#fed1a5"/><path d="M25.22 19.57c0-1.74-.97-3.34-2.38-4.08.1-.24.16-.51.16-.79 0-1.17-.94-2.11-2.11-2.11-.04 0-.07.02-.11.02-.04 0-.07-.02-.11-.02-1.17 0-2.11.94-2.11 2.11 0 .28.06.55.16.79-1.41.74-2.38 2.34-2.38 4.08 0 .33-.05.57.13.81.18.24.5.34.81.34 1.7 0 3.12-1.18 3.5-2.76.39 1.58 1.8 2.76 3.5 2.76.31 0 .63-.11.81-.34.18-.23.13-.48.13-.81Z" class="cls-10"/></g></g></g></g></g></svg>