<svg role="img" aria-labelledby="logo" class="ipl-logo" xmlns="http://www.w3.org/2000/svg" width="60" height="67" x="0" y="0" viewBox="0 0 60 67" style="enable-background:new 0 0 60 67" xml:space="preserve"><title id="logo">iPayroll Limited</title><defs><linearGradient id="a" x1="13.57" x2="60" y1="-.12" y2="-.12" gradientTransform="translate(0 25.43)" gradientUnits="userSpaceOnUse"><stop offset="0" stop-color="#109ed9"/><stop offset="1" stop-color="#66c3e7"/></linearGradient><linearGradient id="b" x1=".06" x2="17.33" y1="14.16" y2="14.16" gradientTransform="translate(0 25.43)" gradientUnits="userSpaceOnUse"><stop offset="0" stop-color="#f26d21"/><stop offset="1" stop-color="#f68e20"/></linearGradient></defs><g data-name="Layer 1"><path d="M55.97 26.01 13.57 1.5s1.62 1.02 2.69 2.92c.61 1.09 1.09 2.41 1.07 4.55v14.61s11.38 6.46 14.89 8.62c.02.01.05.03.07.04.84.5.92 1.7.15 2.31-2.07 1.63-3.58 6.32-1.26 10.43 2.17 3.83 7.72 5.44 11.88 3.01 0 0 9.5-5.47 12.65-7.29 1.89-1.09 4.28-3.53 4.28-7.41 0-3.67-2.33-6.24-4.03-7.28Z" style="fill:url(#a)"/><path d="M.93 15.75c-.79-1.67-.9-3.58-.9-3.58v46.12c0 2.38.77 4.46 2.47 6.16S6.23 67 8.65 67s4.45-.85 6.15-2.55 2.54-3.74 2.54-6.16V26.98L4.41 19.47c-1.26-.74-2.54-1.77-3.48-3.72Z" style="fill:url(#b)"/><path d="M17.33 26.98v-3.4L4.18 16.12C2.32 15.04.91 13.27.31 11.02c-.1-.3-.28-1.57-.28-1.57v2.63c.04.68.12 1.37.34 2.1.64 2.34 1.94 4.08 4.01 5.27l12.95 7.53Z" style="fill:#6e7ba0"/><path d="M8.68 0C6.47 0 4.84.77 3.79 1.5-.6 4.53.03 9.45.03 9.45s.23 4.58 4.28 6.73l13.03 7.4V8.54s.26-4.27-3.76-7.04C12.52.77 10.91 0 8.68 0Z" style="fill:#202945"/></g></svg>