<svg class="illustration" aria-labelledby="kiosk" xmlns="http://www.w3.org/2000/svg" viewBox="0 0 64 64"><title id="kiosk">Employee Kiosk</title><defs><filter id="drop-shadow-1" filterUnits="userSpaceOnUse"><feOffset dy=".5"/><feGaussianBlur result="blur" stdDeviation="1"/><feFlood flood-color="#000" flood-opacity=".45"/><feComposite in2="blur" operator="in"/><feComposite in="SourceGraphic"/></filter><filter id="drop-shadow-2" filterUnits="userSpaceOnUse"><feOffset dy="1.5"/><feGaussianBlur result="blur-2" stdDeviation="2"/><feFlood flood-color="#000" flood-opacity=".35"/><feComposite in2="blur-2" operator="in"/><feComposite in="SourceGraphic"/></filter><clipPath id="clippath"><path id="overlay" d="M0 0h64v64H0z" style="fill:none"/></clipPath><style>.cls-1{fill:#fff}.cls-9{fill:#4a4f55}</style></defs><g id="iPayroll"><g id="employment_kiosk" data-name="employment kiosk"><g id="assets" style="clip-path:url(#clippath);fill:none"><g id="phone"><g id="phone-2" data-name="phone"><rect id="screen" width="32.59" height="58.57" x="16.28" y="2.59" rx="4" ry="4" style="fill:#66c4e8;filter:url(#drop-shadow-1);stroke:#212121;stroke-miterlimit:10"/><path id="shadow" d="M16.54 47.99v9.5c0 1.9 1.54 3.43 3.43 3.43h25.22c1.9 0 3.43-1.54 3.43-3.43V9.92C19.83 26.75 16.54 47.99 16.54 47.99Z" style="fill:#129fda;opacity:.5"/></g><rect id="line" width="14.16" height="1.38" x="26.55" y="58.55" rx=".69" ry=".69" style="fill:#007eb0"/><rect id="pill" width="8.84" height="1.83" x="29.11" y="4.64" rx=".92" ry=".92" style="fill:#212121"/></g><rect id="text" width="21.1" height="2.77" x="20.58" y="42.77" class="cls-9" rx="1.38" ry="1.38"/><rect id="text-2" width="17.58" height="2.77" x="20.58" y="48.77" class="cls-9" data-name="text" rx="1.38" ry="1.38"/><g id="PAY"><rect width="40.76" height="20.97" x="12.2" y="12.34" rx="1.5" ry="1.5" style="fill:#f36e21;filter:url(#drop-shadow-2)"/><path d="M16.21 15.87h6.1c3.25 0 4.77 1.46 4.77 4.03 0 3.21-2.31 3.96-5.25 3.96h-1.61v5.9h-4.01v-13.9Zm5.36 5.85c1.48 0 1.75-.6 1.75-1.87 0-1.05-.16-1.82-1.77-1.82h-1.32v3.69h1.35ZM30.51 15.87h4.57l3.38 13.9h-3.7l-.61-2.93h-2.67l-.63 2.93h-3.79l3.43-13.9ZM33.78 25l-.96-5.42-.96 5.42h1.93Z" class="cls-1"/><path id="_Compound_Path_" d="m41.71 24.09-3.45-8.22h3.79l1.73 4.39 1.55-4.39h3.63l-3.38 8.22v5.68h-3.86v-5.68Z" class="cls-1" data-name="&amp;lt;Compound Path&amp;gt;"/></g></g></g></g></svg>