<svg class="illustration" aria-labelledby="partners" xmlns="http://www.w3.org/2000/svg" viewBox="0 0 64 64"><title id="partners">Our Partners</title><defs><filter id="drop-shadow-1" filterUnits="userSpaceOnUse"><feOffset dy="1"/><feGaussianBlur result="blur" stdDeviation="1.5"/><feFlood flood-color="#000" flood-opacity=".4"/><feComposite in2="blur" operator="in"/><feComposite in="SourceGraphic"/></filter><filter id="drop-shadow-2" filterUnits="userSpaceOnUse"><feOffset dy=".5"/><feGaussianBlur result="blur-2" stdDeviation="1"/><feFlood flood-color="#000" flood-opacity=".45"/><feComposite in2="blur-2" operator="in"/><feComposite in="SourceGraphic"/></filter><filter id="drop-shadow-3" filterUnits="userSpaceOnUse"><feOffset dy=".5"/><feGaussianBlur result="blur-3" stdDeviation="1"/><feFlood flood-color="#000" flood-opacity=".45"/><feComposite in2="blur-3" operator="in"/><feComposite in="SourceGraphic"/></filter><filter id="drop-shadow-4" filterUnits="userSpaceOnUse"><feOffset dy=".25"/><feGaussianBlur result="blur-4" stdDeviation=".5"/><feFlood flood-color="#000" flood-opacity=".45"/><feComposite in2="blur-4" operator="in"/><feComposite in="SourceGraphic"/></filter><filter id="drop-shadow-5" filterUnits="userSpaceOnUse"><feOffset/><feGaussianBlur result="blur-5" stdDeviation="1"/><feFlood flood-color="#000" flood-opacity=".45"/><feComposite in2="blur-5" operator="in"/><feComposite in="SourceGraphic"/></filter><filter id="drop-shadow-6" filterUnits="userSpaceOnUse"><feOffset dy=".5"/><feGaussianBlur result="blur-6" stdDeviation="1"/><feFlood flood-color="#000" flood-opacity=".45"/><feComposite in2="blur-6" operator="in"/><feComposite in="SourceGraphic"/></filter><filter id="drop-shadow-7" filterUnits="userSpaceOnUse"><feOffset dy=".25"/><feGaussianBlur result="blur-7" stdDeviation=".5"/><feFlood flood-color="#000" flood-opacity=".45"/><feComposite in2="blur-7" operator="in"/><feComposite in="SourceGraphic"/></filter><filter id="drop-shadow-8" filterUnits="userSpaceOnUse"><feOffset dy=".5"/><feGaussianBlur result="blur-8" stdDeviation="1"/><feFlood flood-color="#000" flood-opacity=".45"/><feComposite in2="blur-8" operator="in"/><feComposite in="SourceGraphic"/></filter><filter id="drop-shadow-9" filterUnits="userSpaceOnUse"><feOffset dy=".5"/><feGaussianBlur result="blur-9" stdDeviation="1"/><feFlood flood-color="#000" flood-opacity=".45"/><feComposite in2="blur-9" operator="in"/><feComposite in="SourceGraphic"/></filter><filter id="drop-shadow-10" filterUnits="userSpaceOnUse"><feOffset dy=".5"/><feGaussianBlur result="blur-10" stdDeviation="1"/><feFlood flood-color="#000" flood-opacity=".45"/><feComposite in2="blur-10" operator="in"/><feComposite in="SourceGraphic"/></filter><filter id="drop-shadow-11" filterUnits="userSpaceOnUse"><feOffset dy=".5"/><feGaussianBlur result="blur-11" stdDeviation="1"/><feFlood flood-color="#000" flood-opacity=".45"/><feComposite in2="blur-11" operator="in"/><feComposite in="SourceGraphic"/></filter><filter id="drop-shadow-12" filterUnits="userSpaceOnUse"><feOffset dy=".5"/><feGaussianBlur result="blur-12" stdDeviation="1"/><feFlood flood-color="#000" flood-opacity=".45"/><feComposite in2="blur-12" operator="in"/><feComposite in="SourceGraphic"/></filter><filter id="drop-shadow-13" filterUnits="userSpaceOnUse"><feOffset dy=".5"/><feGaussianBlur result="blur-13" stdDeviation="1"/><feFlood flood-color="#000" flood-opacity=".45"/><feComposite in2="blur-13" operator="in"/><feComposite in="SourceGraphic"/></filter><clipPath id="clippath"><path id="overlay" d="M0 0h64v64H0z" style="fill:none"/></clipPath><style>.cls-13{fill:#424242}</style></defs><g id="iPayroll"><g id="Our_Partners" data-name="Our Partners"><g id="assets" style="clip-path:url(#clippath);fill:none"><path d="M61.88 29.82 51.76 8.14l-9.41 4.39s-.16.09-.24 0c-.09-.1-.02-.2.04-.4a4.67 4.67 0 0 0-.23-3.45C40.84 6.36 38.19 5.31 36 6.33s-3.08 3.73-2 6.04a4.73 4.73 0 0 0 2.5 2.39c.2.08.32.1.34.23.02.12-.16.18-.16.18l-9.41 4.39 4.35 9.33-4.35-9.32-12.24 5.71L5 29.96a2.447 2.447 0 0 0-1.18 3.25l10.06 21.56 9.41-4.39s.18-.06.16-.18c-.02-.13-.14-.14-.34-.23a4.73 4.73 0 0 1-2.5-2.39c-1.08-2.32-.18-5.02 2-6.04s4.84.03 5.92 2.35c.53 1.14.57 2.37.23 3.45-.07.21-.13.3-.04.4.08.09.24 0 .24 0l9.4-4.38h.02l-4.21-9.03 4.27 9.15 12.24-5.71 10.03-4.68a2.447 2.447 0 0 0 1.18-3.25Z" style="fill:#ff9015;filter:url(#drop-shadow-1)"/><path d="M34.35 26.15a4.73 4.73 0 0 0-2.39 2.5c-.08.2-.1.32-.23.34-.05 0-.08-.02-.11-.05l-4.35-9.32-12.24 5.71L5 30.01a2.447 2.447 0 0 0-1.18 3.25l10.06 21.56 9.41-4.39s.18-.06.16-.18c-.02-.13-.14-.14-.34-.23a4.73 4.73 0 0 1-2.5-2.39c-1.08-2.32-.18-5.02 2-6.04s4.84.03 5.92 2.35c.53 1.14.57 2.37.23 3.45-.07.21-.13.3-.04.4.08.09.24 0 .24 0l9.4-4.38h.02l-4.21-9.03c0-.04 0-.08.03-.11.1-.09.2-.02.4.04 1.08.35 2.31.31 3.45-.23 2.32-1.08 3.37-3.73 2.35-5.92s-3.73-3.08-6.04-2Z" style="fill:#66c4e8"/><g id="right-hand"><path d="M52.17 53.84s-.03-1.3-.03-1.73c0-1.02.21-2.02.61-2.96.17-.39 2.03-2.75 3.2-4.63 2.06-3.3 2.75-3.65 2.73-5.57 0-1.09-.69-2.56-1.36-4.17-.2-.47-8.19 6.77-8.19 6.77-1.17.57-13.92 3.3-13.92 3.3s.43 1.02.58 1.36c.78 1.76 2.53 2.97 2.53 2.97.35 1.13.39 4.72.39 4.72l13.46-.08Z" style="filter:url(#drop-shadow-2);fill:#dbb189"/><path d="M52.17 53.84s-.03-1.3-.03-1.73c0-1.02.21-2.02.61-2.96.17-.39 2.03-2.75 3.2-4.63 2.06-3.3 2.75-3.65 2.73-5.57 0-1.09-.23-1.3-.86-2.91-.96-2.46-1.99-5.6-2.23-7.1-.37-2.28-2.9-1.57-3.77.99-1.19 3.49.94 4.9.56 6.78-.07.32-.44.49-.44.49-1.17.57-16.73 7.66-16.73 7.66s.43 1.02.58 1.36c.78 1.76 2.53 2.97 2.53 2.97.35 1.13.39 4.72.39 4.72l13.46-.08Z" style="fill:#dbb189"/><path d="M54.8 29.21c.24 1.49.72 4.61 1.68 7.07.63 1.61.85 1.82.86 2.9.02 1.91-.67 2.26-2.72 5.54-1.17 1.86-3.03 4.21-3.19 4.6-.4.94-.61 1.93-.61 2.95 0 .16-.05.8-.12 1.56h1.43s-.03-1.3-.03-1.74c0-1.02.21-2.02.61-2.96.17-.39 2.03-2.75 3.2-4.63 2.06-3.3 2.75-3.65 2.73-5.57 0-1.09-.23-1.29-.86-2.91-.96-2.46-1.99-5.6-2.23-7.1-.23-1.41-1.28-1.67-2.26-1.07.72.01 1.34.42 1.49 1.35Z" style="fill:#cc8e49;opacity:.5"/><g id="wrist"><path d="M37.24 53.83h16.1v6.18H37.41c-.15 0-.27-.12-.27-.27v-5.81c0-.06.05-.1.1-.1Z" style="filter:url(#drop-shadow-3);fill:#616161"/><path d="M39.78 60.01h-2.39c-.14 0-.25-.11-.25-.25v-5.68c0-.14.11-.25.25-.25h2.39v6.18Z" class="cls-13"/><circle cx="41.11" cy="56.92" r=".69" style="fill:#fff;filter:url(#drop-shadow-4)" transform="rotate(-64.99 41.11 56.917)"/></g></g><g id="right-hand-2" data-name="right-hand"><path id="shadow" d="M12.02 10.09s.03 1.28.03 1.71c0 1.01-.21 1.99-.61 2.92-.16.39-2 2.71-3.16 4.56-2.03 3.25-2.71 3.6-2.69 5.49 0 1.08.79 2.7 1.41 4.3 0 0 4.37-2.46 4.76-4.32.07-.32 3.44-3.37 3.44-3.37 6.33-6.02 13.44-2.41 13.44-2.41s-.33-1.03-.48-1.37c-.77-1.74-2.49-2.93-2.49-2.93-.34-1.11-.38-4.66-.38-4.66l-13.27.07Z" style="fill:#cd7d36;filter:url(#drop-shadow-5)"/><path d="M12.02 10.09s.03 1.28.03 1.71c0 1.01-.21 1.99-.61 2.92-.16.39-2 2.71-3.16 4.56-2.03 3.25-2.71 3.6-2.69 5.49 0 1.08.22 1.28.85 2.87.95 2.43 1.96 5.52 2.2 7 .36 2.25 2.86 1.55 3.72-.97 1.17-3.44-.97-4.7-.58-6.56.07-.32.44-.48.44-.48 1.16-.56 16.44-7.66 16.44-7.66s-.33-1.03-.48-1.37c-.77-1.74-2.49-2.93-2.49-2.93-.34-1.11-.38-4.66-.38-4.66l-13.27.07Z" style="fill:#cd7d36"/><path d="M9.43 34.38c-.24-1.47-.71-4.55-1.66-6.97-.63-1.59-.84-1.79-.85-2.86-.02-1.89.66-2.23 2.68-5.46 1.15-1.84 2.98-4.15 3.15-4.54.39-.92.6-1.9.6-2.91 0-.15.05-.79.12-1.54h-1.41s.03 1.29.03 1.72c0 1.01-.21 1.99-.61 2.92-.16.39-2 2.71-3.16 4.56-2.03 3.25-2.71 3.6-2.69 5.49 0 1.08.22 1.28.85 2.87.95 2.43 1.96 5.52 2.2 7 .22 1.39 1.26 1.65 2.22 1.05-.71 0-1.32-.41-1.47-1.33Z" style="opacity:.5;fill:#b25c20"/><g id="wrist-2" data-name="wrist"><path d="M11.16 4.01h15.4c.15 0 .28.13.28.28v5.53c0 .15-.13.28-.28.28H10.9s-.03-.01-.03-.03V4.3c0-.16.13-.29.29-.29Z" style="fill:#616161;filter:url(#drop-shadow-6)" transform="rotate(-180 18.86 7.05)"/><path d="M24.24 4.01h2.36c.14 0 .25.11.25.25v5.59c0 .14-.11.25-.25.25h-2.36V4.01Z" class="cls-13"/><circle cx="22.93" cy="7.05" r=".68" style="filter:url(#drop-shadow-7);fill:#fff" transform="rotate(-64.99 22.927 7.056)"/></g></g><rect width="1.64" height="4.92" x="51.09" y="1.59" rx=".82" ry=".82" style="filter:url(#drop-shadow-8);fill:#212121"/><rect width="1.64" height="4.92" x="56.57" y="3.38" rx=".82" ry=".82" style="filter:url(#drop-shadow-9);fill:#212121" transform="rotate(35.5 57.389 5.842)"/><rect width="1.64" height="4.92" x="45.77" y="3.48" rx=".82" ry=".82" style="filter:url(#drop-shadow-10);fill:#212121" transform="rotate(144.5 46.584 5.943)"/><rect width="1.64" height="4.92" x="14.34" y="56.56" rx=".82" ry=".82" style="filter:url(#drop-shadow-11);fill:#212121"/><rect width="1.64" height="4.92" x="19.83" y="54.77" rx=".82" ry=".82" style="filter:url(#drop-shadow-12);fill:#212121" transform="rotate(-35.5 20.648 57.238)"/><rect width="1.64" height="4.92" x="9.02" y="54.67" rx=".82" ry=".82" style="fill:#212121;filter:url(#drop-shadow-13)" transform="rotate(-144.5 9.842 57.127)"/></g></g></g></svg>