<svg class="illustration" aria-labelledby="report" xmlns="http://www.w3.org/2000/svg" viewBox="0 0 64 64"><title id="report">Report</title><defs><filter id="drop-shadow-1" filterUnits="userSpaceOnUse"><feOffset dy="1"/><feGaussianBlur result="blur" stdDeviation="1.5"/><feFlood flood-color="#000" flood-opacity=".4"/><feComposite in2="blur" operator="in"/><feComposite in="SourceGraphic"/></filter><filter id="drop-shadow-2" filterUnits="userSpaceOnUse"><feOffset dy="1"/><feGaussianBlur result="blur-2" stdDeviation="1.5"/><feFlood flood-color="#000" flood-opacity=".4"/><feComposite in2="blur-2" operator="in"/><feComposite in="SourceGraphic"/></filter><clipPath id="clippath"><path id="overlay" d="M0 0h64v64H0z" style="fill:none"/></clipPath><style>.cls-7{fill:#eee}.cls-8{fill:#4a4f54}.cls-9{fill:#00a0df}.cls-10{fill:#ff9015}</style></defs><g id="Business"><g id="report"><g id="assets" style="clip-path:url(#clippath);fill:none"><g id="pages"><path id="page" d="M54.98 9.83c0-1.01-.84-1.83-1.88-1.83H19.06c-1.04 0-1.88.82-1.88 1.83l.06 48.22c0 1.05.86 1.91 1.91 1.91h33.91c1.06 0 1.91-.86 1.91-1.91V9.83Z" style="filter:url(#drop-shadow-1);fill:#fff"/><path id="border" d="M53.07 8h-.9c1.04 0 1.88.82 1.88 1.83v48.46c0 .92-.93 1.67-1.88 1.67h.9c.94 0 1.88-.75 1.88-1.67V9.83c0-1.01-.84-1.83-1.88-1.83Z" class="cls-7"/><path id="page-2" d="M48.79 5.74c0-1.01-.84-1.83-1.88-1.83H12.88c-1.04 0-1.88.82-1.88 1.83l.06 48.22c0 1.05.86 1.91 1.91 1.91h33.91c1.06 0 1.91-.86 1.91-1.91V5.74Z" data-name="page" style="fill:#fff;filter:url(#drop-shadow-2)"/><path id="border-2" d="M46.89 3.91h-.9c1.04 0 1.88.82 1.88 1.83V54.2c0 .92-.93 1.67-1.88 1.67h.9c.94 0 1.88-.75 1.88-1.67V5.74c0-1.01-.84-1.83-1.88-1.83Z" class="cls-7" data-name="border"/></g><g id="content"><path d="M21.11 14.11a7.28 7.28 0 1 0 .002 14.562 7.28 7.28 0 0 0-.002-14.562Zm0 9.33c-1.13 0-2.05-.92-2.05-2.05s.92-2.05 2.05-2.05 2.05.92 2.05 2.05-.92 2.05-2.05 2.05Z" class="cls-10"/><path d="M22.59 22.81c-.37.39-.9.64-1.48.64-1.14 0-2.06-.92-2.06-2.06s.92-2.05 2.05-2.06v-5.22a7.28 7.28 0 0 0 0 14.56c2.12 0 4.01-.92 5.34-2.36l-3.86-3.5Z" style="fill:#ff6d0e"/><rect width="13.26" height="1.87" x="32.73" y="25.72" class="cls-8" rx=".93" ry=".93"/><rect width="9.29" height="1.87" x="32.73" y="29.71" class="cls-8" rx=".93" ry=".93"/><rect width="13.26" height="1.87" x="32.73" y="21.68" class="cls-8" rx=".93" ry=".93"/><rect width="9.29" height="2.8" x="32.73" y="11.32" class="cls-10" rx="1.4" ry="1.4"/><path d="M44.98 33.12c-.58 0-1.04.47-1.04 1.04v15.13h-28.8a1.04 1.04 0 1 0 0 2.08h30.89V34.16c0-.58-.47-1.04-1.04-1.04Z" style="fill:#4a4f55"/><path d="M42.36 36.55a.905.905 0 0 0-1.29 0l-3.94 4.03-5.1-2.04a.995.995 0 0 0-.38-.08c-.07 0-.13.02-.19.04-.05.01-.1.01-.14.03-.12.05-.23.13-.33.23l-.21.21-4.94 5.05-5.1-2.04a.864.864 0 0 0-.55-.02c-.18.03-.36.1-.5.25l-4.33 4.43c-.36.36-.36.96 0 1.32.36.36.93.36 1.29 0l3.94-4.03 5.1 2.04c.12.05.25.08.38.08.07 0 .13-.02.19-.04.05-.01.1-.01.14-.03.12-.05.23-.13.33-.23l.21-.21 4.94-5.05 5.1 2.04c.18.07.37.07.55.02.18-.03.36-.1.5-.25l4.33-4.43c.36-.36.36-.96 0-1.32Z" class="cls-9"/><rect width="9.29" height="2.8" x="32.73" y="15.49" class="cls-10" rx="1.4" ry="1.4"/><path d="M9.31 6.98h6.82c.58 0 1.05.47 1.05 1.05v2.14c0 .58-.47 1.05-1.05 1.05H9.31c-.55 0-1-.45-1-1V7.98c0-.55.45-1 1-1Z" style="fill:#66c4e8"/><path d="M16.13 6.98h-.26c.58 0 1.05.47 1.05 1.05v2.14c0 .58-.47 1.05-1.05 1.05h.26c.58 0 1.05-.47 1.05-1.05V8.03c0-.58-.47-1.05-1.05-1.05Z" class="cls-9"/></g></g></g></g></svg>