<svg class="illustration" aria-labelledby="user" xmlns="http://www.w3.org/2000/svg" viewBox="0 0 64 64"><title id="user">User ID</title><defs><filter id="drop-shadow-1" filterUnits="userSpaceOnUse"><feOffset dy=".5"/><feGaussianBlur result="blur" stdDeviation="1"/><feFlood flood-color="#000" flood-opacity=".4"/><feComposite in2="blur" operator="in"/><feComposite in="SourceGraphic"/></filter><filter id="drop-shadow-2" filterUnits="userSpaceOnUse"><feOffset dy=".05"/><feGaussianBlur result="blur-2" stdDeviation=".5"/><feFlood flood-color="#000" flood-opacity=".45"/><feComposite in2="blur-2" operator="in"/><feComposite in="SourceGraphic"/></filter><filter id="drop-shadow-3" filterUnits="userSpaceOnUse"><feOffset dy=".05"/><feGaussianBlur result="blur-3" stdDeviation=".5"/><feFlood flood-color="#000" flood-opacity=".45"/><feComposite in2="blur-3" operator="in"/><feComposite in="SourceGraphic"/></filter><clipPath id="clippath"><path id="overlay" d="M0 0h64v64H0z" style="fill:none"/></clipPath><style>.cls-1{fill:#fbdbad}.cls-6{fill:#da5600}.cls-12{fill:#4a4f54}.cls-14{fill:#ff9015}</style></defs><g id="User"><g id="user_id" data-name="user id"><g id="assets" style="clip-path:url(#clippath);fill:none"><g id="id"><path id="card" d="M55.64 18.53H7.97c-2.29 0-4.14 1.79-4.14 3.99v33.53c0 2.2 1.85 3.99 4.14 3.99h47.67c2.29 0 4.14-1.79 4.14-3.99V22.53c0-2.2-1.85-3.99-4.14-3.99Zm-17.45 6.05H27.2c-1.05 0-1.9-.82-1.9-1.83s.85-1.83 1.9-1.83h10.99c1.05 0 1.9.82 1.9 1.83s-.85 1.83-1.9 1.83Z" style="fill:#fff;filter:url(#drop-shadow-1)"/><path id="shadow" d="M55.79 18.53h-.93c2.25 0 4.08 1.79 4.08 3.99v33.53c0 2.2-1.83 3.99-4.08 3.99h.93c2.21 0 3.99-1.79 3.99-3.99V22.53c0-2.2-1.79-3.99-3.99-3.99Z" style="fill:#e0e0e0"/><rect width="20.3" height="6.88" x="31.83" y="29.17" rx="1.5" ry="1.5" style="fill:#00a0df"/><rect width="20.3" height="2.53" x="31.83" y="42.94" class="cls-12" rx="1.27" ry="1.27"/><rect width="20.3" height="2.53" x="31.83" y="47.62" class="cls-12" rx="1.27" ry="1.27"/><rect width="20.3" height="2.53" x="31.83" y="52.29" class="cls-12" rx="1.27" ry="1.27"/><g id="shadow-2" data-name="shadow"><path d="M28 20.93c.55 1.56 2.01 2.68 3.76 2.68s3.21-1.12 3.76-2.68H28Z" style="filter:url(#drop-shadow-2);fill:#bdbdbd"/><path d="M35.76 18.53V8.04c0-2.21-1.79-4-4-4s-4 1.79-4 4v10.49h8ZM31.71 6.1c1.07 0 1.94.87 1.94 1.94s-.87 1.94-1.94 1.94-1.94-.87-1.94-1.94.87-1.94 1.94-1.94Z" style="fill:#bdbdbd;filter:url(#drop-shadow-3)"/></g><path id="tag" d="M31.78 4.05c-2.21 0-4 1.79-4 4v11.57c0 2.21 1.79 4 4 4s4-1.79 4-4V8.05c0-2.21-1.79-4-4-4Zm-.05 5.94c-1.07 0-1.94-.87-1.94-1.94s.87-1.94 1.94-1.94 1.94.87 1.94 1.94-.87 1.94-1.94 1.94Z" style="fill:#bdbdbd"/></g><g id="user"><g id="body"><path d="M25.63 54.43c-.21-2.35-1.82-4.36-4.12-5.44v3.29l-1.06.45v1.44s-2.26 1.59-2.82 2.08h8v-1.82Z" class="cls-14"/><path d="m14.82 52.73-1.06-.45v-3.29c-2.3 1.08-3.91 3.09-4.12 5.44v1.82h7.99c-.55-.5-2.82-2.08-2.82-2.08v-1.44Z" class="cls-14"/><path d="M15.76 48.32c-.59.12-1.34.34-1.99.67v3.31l1.06.44v1.43s2.26 1.58 2.82 2.08l-1.88-7.93Z" class="cls-6"/><path d="M17.64 49.05c-.79 0-1.48-.3-1.86-.73h-.02l1.87 7.9 1.9-7.9h-.03c-.39.44-1.07.73-1.86.73Z" style="fill:#f8f9fd"/><path d="M25.64 56.25v-1.82c-.22-2.35-1.83-4.36-4.13-5.44-.65-.34-1.4-.55-1.99-.67l-1.88 7.93c.55-.49 2.82-2.08 2.82-2.08v-1.43l1.06-.44v-2.55c1.81 1.37 2.98 3.5 2.98 5.89 0 .21-.02.41-.03.61h1.17Z" class="cls-6"/></g><g id="user-2" data-name="user"><path d="M17.64 46.21h-1.88v2.15s.01.02.02.02c.38.44 1.07.73 1.86.73s1.47-.3 1.86-.73c0 0 .01-.02.02-.02v-2.15h-1.88Z" class="cls-1"/><path d="M17.49 46.71c-.62 0-1.19-.12-1.73-.29v.02s.05.75 1.48 1.03c.76.15 1.17 0 1.68-.21v1.55c.19-.11.39-.22.6-.48v-2c-.63.24-1.31.37-2.03.37Z" style="fill:#dfcba3"/><path d="M26.22 38.07c0-.33-.04-.64-.13-.92-.08-.28-.2-.54-.34-.76-.29-.43-.69-.7-1.13-.7-.13 0-.25.03-.37.07.07-.01.13-.03.2-.03h.02c-.22.03-.42.13-.61.28-.41-2.95-2.82-5.21-6.04-5.21h-.18c.11 0 .22.03.33.04-.17-.01-.32-.05-.49-.05-3.04 0-5.33 2.26-5.72 5.2-.23-.2-.5-.33-.8-.33-.88 0-1.59 1.06-1.59 2.38s.71 2.38 1.59 2.38c.28 0 .54-.12.77-.31l.03 1.24c.33 3.01 2.62 5.35 5.72 5.35.17 0 .32-.04.48-.05-.11 0-.21.04-.32.04h.18c3.55 0 6.13-2.73 6.13-6.1v-.4h.01-.01s.01 0 .02.01c.03.02.07.03.1.05.17.1.35.17.55.17.88 0 1.59-1.06 1.59-2.38Zm-2.95-1.17Zm-.43-2.35c.08.22.13.45.19.68-.06-.23-.11-.46-.19-.68Zm-.26-.54c-.08-.16-.15-.33-.24-.48.09.15.16.32.24.48Zm-.65-1.03c-.09-.11-.16-.24-.26-.34.1.11.17.23.26.34Zm-2.82-1.92c-.11-.03-.21-.08-.31-.1.11.03.21.07.31.1Zm2 1.07c-.09-.08-.17-.16-.27-.23.1.07.18.16.27.23Zm-.95-.64c-.1-.05-.18-.12-.28-.16.1.05.19.11.28.16Zm-1.37 15.07c.11-.02.2-.07.31-.1-.1.03-.2.07-.31.1Zm1.09-.37c.09-.04.18-.11.27-.15-.09.05-.17.11-.27.15Zm.96-.57c.09-.07.17-.16.26-.23-.09.07-.17.16-.26.23Zm.83-.74c.09-.1.17-.22.25-.33-.09.11-.16.23-.25.33Zm1.37-2.59c-.06.23-.11.46-.19.67.08-.21.13-.45.19-.67Zm-.46 1.23c-.08.16-.14.32-.23.47.09-.15.15-.31.23-.47Zm.59-1.69Z" class="cls-1"/></g><path d="M25.3 34.77c-.13-.39-.16-.48-.31-.96-.2-.63-.18-.95-.2-1.82-.05-1.54-1.46-2.94-2.61-3.05-.31-.03-.36.06-.68 0-.41-.09-.26-.53-.72-.83-.12-.07-.26-.14-.41-.2-.04-.02-.09-.03-.14-.04-.12-.04-.24-.08-.38-.11-.08-.02-.18-.03-.27-.05-.11-.02-.22-.04-.34-.06-.12-.02-.25-.03-.38-.04-.1 0-.19-.01-.29-.02h-.73c-.19 0-.38.02-.58.04-.07 0-.13.01-.2.02-.22.02-.44.05-.66.09-.05 0-.1.02-.15.03-.24.04-.48.09-.73.15h-.02c-.25.06-.5.12-.75.2-3.29 1.03-4.46 3.1-4.62 5.95-.08 1.33.04 2.04.14 2.28.23.56.78 1.57 1.36 1.51.32-.03.42-.36.83-.91.16-.21 1.13-1.48 2.34-1.89.86-.29.84.19 2.41 0 .88-.11 1.74-.21 2.49-.83.47-.39 1.07.31 1.51.85.6.73 1.46 1.18 1.54 2.11.01.19.06.34.11.46 0 .01.01.02.02.03.04.07.08.14.14.18.02.02.06.02.08.03.06.02.11.05.19.05s.19-.03.3-.06c.04-.01.06 0 .11-.02 1.01-.34 1.77-1.65 1.7-2.68 0-.15-.04-.29-.08-.42Z" style="fill:#563117"/></g></g></g></g></svg>