<svg class="product-illustration" aria-hidden="true" aria-labelledby="careers" xmlns="http://www.w3.org/2000/svg" viewBox="0 0 31.96 32"><title id="careers">Careers</title><g id="iPayroll"><g id="careers"><path d="M1.92 5.93h28.13v20H1.92z" fill="var(--browser)"/><path d="M3.44 1.93h25.11c.83 0 1.5.67 1.5 1.5v2.5H1.92V3.45c0-.84.68-1.52 1.52-1.52Z" fill="var(--header)"/><rect width="11" height="1.75" x="17.08" y="3.06" fill="var(--search)" rx=".87" ry=".87"/><circle cx="8.1" cy="4.06" r="1" fill="var(--minimize)"/><circle cx="11.4" cy="4.06" r="1" fill="var(--maximize)"/><circle cx="4.92" cy="4.06" r="1" fill="var(--close)"/></g><rect width="21.3" height="9.15" x="5.33" y="21.36" fill="var(--sign)" rx="4.58" ry="4.58"/><path d="M11.15 27.44c-.04-.13-.09-.27-.14-.42l-.15-.42H9.34c-.05.14-.1.28-.15.43-.05.14-.1.28-.14.42h-.91c.15-.42.28-.8.42-1.16.13-.35.26-.69.38-1 .13-.31.25-.61.37-.89s.25-.56.38-.83h.83c.13.27.25.54.38.83.12.28.25.58.37.89.13.31.25.65.39 1 .13.36.27.74.42 1.16h-.94Zm-1.05-3c-.02.06-.05.13-.09.23-.04.1-.08.21-.13.34-.05.13-.1.27-.16.42-.06.15-.12.31-.18.48h1.11c-.06-.17-.12-.33-.17-.48-.06-.15-.11-.29-.16-.42s-.09-.24-.13-.34c-.04-.1-.07-.17-.09-.23ZM15.27 25.97c0 .23-.03.43-.08.62-.06.19-.14.35-.25.48s-.24.24-.4.31a1.582 1.582 0 0 1-.88.08c-.1-.02-.2-.05-.29-.1v1.11h-.84v-3.88c.07-.02.16-.04.26-.06s.2-.04.31-.05.21-.03.33-.04c.11 0 .22-.01.32-.01.24 0 .46.04.65.11s.35.18.48.31.23.29.3.48c.07.19.1.4.1.64Zm-.85.02c0-.26-.06-.46-.17-.62-.12-.15-.29-.23-.52-.23h-.21c-.07 0-.12.01-.16.02v1.51c.05.03.12.06.2.08s.17.03.25.03c.4 0 .59-.27.59-.8ZM18.65 25.97c0 .23-.03.43-.08.62-.06.19-.14.35-.25.48s-.24.24-.4.31a1.582 1.582 0 0 1-.88.08c-.1-.02-.2-.05-.29-.1v1.11h-.84v-3.88c.07-.02.16-.04.26-.06s.2-.04.31-.05.21-.03.33-.04c.11 0 .22-.01.32-.01.24 0 .46.04.65.11s.35.18.48.31.23.29.3.48c.07.19.1.4.1.64Zm-.85.02c0-.26-.06-.46-.17-.62-.12-.15-.29-.23-.52-.23h-.21c-.07 0-.12.01-.16.02v1.51c.05.03.12.06.2.08s.17.03.25.03c.4 0 .59-.27.59-.8ZM20.48 27.5c-.24 0-.44-.03-.59-.08s-.27-.12-.36-.2-.15-.19-.18-.32c-.03-.12-.05-.27-.05-.42v-3.25l.84-.13v3.21c0 .08 0 .14.02.2.01.06.03.11.06.15.03.04.08.07.14.1.06.03.14.04.24.05l-.12.69ZM23.63 24.49c-.17.57-.34 1.1-.53 1.6s-.38.98-.6 1.45c-.08.17-.16.31-.24.43-.08.12-.16.21-.26.29-.09.08-.2.13-.32.17-.12.04-.26.05-.41.05-.13 0-.25-.01-.36-.04-.11-.02-.2-.05-.27-.08l.15-.67c.09.03.16.05.23.06.07.01.14.02.21.02.15 0 .26-.04.34-.12.08-.08.15-.19.21-.33-.19-.37-.38-.79-.57-1.26-.19-.46-.37-.99-.54-1.57h.89c.04.15.08.3.13.47s.1.34.16.52.11.34.17.51c.06.16.11.31.17.45.05-.13.1-.28.15-.45.05-.17.1-.33.15-.51l.15-.52c.05-.17.09-.33.13-.47h.86Z" fill="var(--apply)"/><g id="suitcase"><path d="M7.17 11.01c.04-.86.7-1.61 1.57-1.61s1.62.74 1.67 1.61h.61v-.03a2.279 2.279 0 1 0-4.56 0v.03h.71Z" fill="var(--briefcase-handle)"/><path d="M4.42 10.86h8.96c.28 0 .5.22.5.5v2.69H3.92v-2.69c0-.28.22-.5.5-.5Z" fill="var(--briefcase-top)"/><path d="M3.92 14.05h9.96v4.08c0 .28-.22.5-.5.5H4.42c-.28 0-.5-.22-.5-.5v-4.08Z" fill="var(--briefcase-bottom)"/><rect width="3.22" height="1.36" x="7.13" y="13.46" fill="var(--briefcase-handle)" rx=".35" ry=".35"/></g><g id="text"><path d="M16.08 15.42h2.96v1.25h-2.96zM20.3 15.42h7.73v1.25H20.3zM16.08 11.42h12v1.25h-12zM16.08 13.42h5.57v1.25h-5.57zM22.77 13.42h5.31v1.25h-5.31zM16.08 9.23h2.79v1.25h-2.79zM16.08 17.54h7v1.25h-7z" fill="var(--content)"/></g></g><path id="background" d="M0 0h31.96v32H0z" fill="none"/></svg>