<svg class="product-illustration" aria-hidden="true" aria-labelledby="ee" xmlns="http://www.w3.org/2000/svg" viewBox="0 0 32 32"><title id="ee">Easy Employer</title><path d="M31.76,16.02c0-5.32-3.8-9.22-9.33-9.22s-9.43,3.9-9.43,9.22,3.9,9.22,9.43,9.22c4.37,0,7.7-2.41,8.84-6.02h-5.5c-.67,.96-1.81,1.27-3.33,1.27-2.78,0-4.11-1.9-4.11-4.5s1.27-4.44,4.11-4.44c1.84,0,3.26,.78,3.87,2.59h-7c-.51,.52-.48,2.69-.15,3.36h12.6v-1.48Z" fill="#2AA0B1"/><path d="M12.91,19.32c-.69,.87-1.78,1.18-3.24,1.18-3.15,0-4.16-2.36-4.11-4.66,.04-2.17,1.11-4.28,4.11-4.28,1.35,0,2.45,.42,3.2,1.33,.52-1.66,1.45-3.09,2.69-4.22-1.57-1.18-3.57-1.87-5.89-1.87C4.13,6.81,.23,10.71,.23,16.03s3.9,9.22,9.43,9.22c2.32,0,4.34-.69,5.89-1.87-1.21-1.09-2.12-2.47-2.65-4.07h0Z" fill="#21879D"/><path d="M6.51,14.15c-.51,.52-.48,2.69-.15,3.36h6.13c-.06-.48-.1-.99-.1-1.49,0-.64,.06-1.27,.16-1.88H6.51Z" fill="#21879D"/><rect fill="none" width="32" height="32"/></svg>