<svg class="product-illustration" aria-hidden="true" aria-labelledby="kiosk" xmlns="http://www.w3.org/2000/svg" viewBox="0 0 360 360"><title id="kiosk">Employee Kiosk</title><defs><filter id="drop-shadow-1" filterUnits="userSpaceOnUse"><feOffset/><feGaussianBlur result="blur" stdDeviation="4"/><feFlood flood-color="#000" flood-opacity=".3"/><feComposite in2="blur" operator="in"/><feComposite in="SourceGraphic"/></filter><filter id="drop-shadow-2" filterUnits="userSpaceOnUse"><feOffset/><feGaussianBlur result="blur-2" stdDeviation="2"/><feFlood flood-color="#000" flood-opacity=".3"/><feComposite in2="blur-2" operator="in"/><feComposite in="SourceGraphic"/></filter><filter id="drop-shadow-3" filterUnits="userSpaceOnUse"><feOffset/><feGaussianBlur result="blur-3" stdDeviation="2"/><feFlood flood-color="#000" flood-opacity=".3"/><feComposite in2="blur-3" operator="in"/><feComposite in="SourceGraphic"/></filter><filter id="drop-shadow-4" filterUnits="userSpaceOnUse"><feOffset/><feGaussianBlur result="blur-4" stdDeviation="2"/><feFlood flood-color="#000" flood-opacity=".3"/><feComposite in2="blur-4" operator="in"/><feComposite in="SourceGraphic"/></filter><filter id="drop-shadow-5" filterUnits="userSpaceOnUse"><feOffset/><feGaussianBlur result="blur-5" stdDeviation="2"/><feFlood flood-color="#000" flood-opacity=".3"/><feComposite in2="blur-5" operator="in"/><feComposite in="SourceGraphic"/></filter><filter id="drop-shadow-6" filterUnits="userSpaceOnUse"><feOffset/><feGaussianBlur result="blur-6" stdDeviation="2"/><feFlood flood-color="#000" flood-opacity=".3"/><feComposite in2="blur-6" operator="in"/><feComposite in="SourceGraphic"/></filter><filter id="drop-shadow-7" filterUnits="userSpaceOnUse"><feOffset/><feGaussianBlur result="blur-7" stdDeviation="6"/><feFlood flood-color="#000" flood-opacity=".28"/><feComposite in2="blur-7" operator="in"/><feComposite in="SourceGraphic"/></filter><filter id="drop-shadow-8" filterUnits="userSpaceOnUse"><feOffset/><feGaussianBlur result="blur-8" stdDeviation="2"/><feFlood flood-color="#000" flood-opacity=".28"/><feComposite in2="blur-8" operator="in"/><feComposite in="SourceGraphic"/></filter><filter id="drop-shadow-9" filterUnits="userSpaceOnUse"><feOffset/><feGaussianBlur result="blur-9" stdDeviation="2"/><feFlood flood-color="#000" flood-opacity=".28"/><feComposite in2="blur-9" operator="in"/><feComposite in="SourceGraphic"/></filter><filter id="drop-shadow-10" filterUnits="userSpaceOnUse"><feOffset/><feGaussianBlur result="blur-10" stdDeviation="6"/><feFlood flood-color="#000" flood-opacity=".28"/><feComposite in2="blur-10" operator="in"/><feComposite in="SourceGraphic"/></filter><clipPath id="clippath"><path d="M181.49 34.03h7.62v4.9h-7.62z" class="cls-14"/></clipPath><style>.cls-4,.cls-8{fill:#fff}.cls-11{stroke-width:.5px}.cls-11,.cls-13,.cls-14{fill:none}.cls-15{letter-spacing:0}.cls-18{letter-spacing:-.02em}.cls-19,.cls-22,.cls-26,.cls-8{isolation:isolate}.cls-8{font-family:Ubuntu-Medium,Ubuntu;font-weight:500}.cls-26{font-size:12px}.cls-11{stroke:#bec1c3}.cls-22{font-family:OpenSans-Semibold,&quot;Open Sans&quot;;font-weight:600}.cls-38{fill:#424242}.cls-41{fill:#484d52}.cls-8{font-size:7.89px}.cls-13{stroke:#ff9015;stroke-width:6px}.cls-22{font-size:7px;fill:#212121}.cls-26{fill:#212121;font-weight:700;font-family:Ubuntu-Bold,Ubuntu}.cls-48{fill:#202945}</style></defs><path id="background" d="M0 0h360v360H0z" class="cls-14"/><g id="kiosk"><rect width="164.79" height="267.61" x="171.24" y="68.73" rx="12" ry="12" style="fill:#00a7dc;filter:url(#drop-shadow-1)"/><g id="add"><path id="background-4" d="M335.66 299.94v22.48c0 8.47-6.89 15.33-15.36 15.29l-133.8-.58c-8.43-.02-15.26-6.86-15.26-15.29v-21.82c.15-.01 40.57-4.9 81.42-4.87 41.66.03 83 4.78 83 4.78Z" style="fill:#fafafa"/><g id="add_icon" data-name="add icon"><path id="Path_88" d="M255.41 305.69c-5.52 0-10 4.48-10 10s4.48 10 10 10 10-4.48 10-10-4.48-10-10-10m0 18.75a8.805 8.805 0 0 1-8.75-8.75 8.805 8.805 0 0 1 8.75-8.75c4.82.03 8.72 3.93 8.75 8.75a8.805 8.805 0 0 1-8.75 8.75" class="cls-41" data-name="Path 88"/><path id="Path_89" d="M259.79 315.06h-3.75v-3.75a.62.62 0 0 0-.65-.6c-.33.01-.59.27-.6.6v3.75h-3.75a.62.62 0 0 0-.6.65c.01.33.27.59.6.6h3.75v3.75c.01.35.3.61.65.6.33-.01.59-.27.6-.6v-3.75h3.75c.35-.01.61-.3.6-.65a.615.615 0 0 0-.6-.6" class="cls-41" data-name="Path 89"/></g></g><g id="latest_pay" data-name="latest pay"><path d="M303.55 108.42H203.5c-4.42 0-8 3.58-8 8v41.83h-.12v92.09c0 4.42 3.58 8 8 8h100.05c4.42 0 8-3.58 8-8v-4.03c.07-.55.12-1.11.12-1.68V116.42c0-4.42-3.58-8-8-8Z" style="fill:#f5f5f5;filter:url(#drop-shadow-2)"/><g id="ring-4"><circle id="ring-5" cx="253.91" cy="176.04" r="41.74" style="fill:#f2f2f2"/><circle id="ring-6" cx="254.57" cy="175.38" r="38.45" style="fill:#dddbda"/><ellipse id="ring-7" cx="254.57" cy="175.06" class="cls-4" rx="33.19" ry="32.87"/><g id="ring-8"><ellipse cx="254.24" cy="175.38" class="cls-14" rx="35.49" ry="35.17"/><ellipse cx="254.24" cy="175.38" class="cls-13" rx="33.52" ry="33.19"/></g><ellipse id="ring-9" cx="254.24" cy="175.38" class="cls-4" rx="35.49" ry="35.17"/><g id="ring-10"><ellipse cx="254.24" cy="175.38" class="cls-14" rx="35.49" ry="35.17"/><ellipse cx="254.24" cy="175.38" class="cls-13" rx="33.52" ry="33.19"/></g></g><g id="pay"><g id="Group_820" data-name="Group 820"><g id="Pay_History" class="cls-19" data-name="Pay History"><text class="cls-26" transform="translate(228.48 179.31)"><tspan x="0" y="0">$1964.75</tspan></text></g></g></g><text id="Latest_Payslip" class="cls-19" data-name="Latest Payslip" style="font-family:Ubuntu-Bold,Ubuntu;font-weight:700;fill:#212121;font-size:10px;isolation:isolate" transform="translate(221.98 126.42)"><tspan x="0" y="0" style="letter-spacing:.01em">L</tspan><tspan x="5.75" y="0">a</tspan><tspan x="11.28" y="0" style="letter-spacing:-.02em">t</tspan><tspan x="15.52" y="0" class="cls-15">est </tspan><tspan x="33.05" y="0" style="letter-spacing:-.02em">P</tspan><tspan x="39.29" y="0" style="letter-spacing:-.01em">a</tspan><tspan x="44.69" y="0" class="cls-15">yslip</tspan></text></g><g id="button"><path id="Path_87-2" d="M229.48 225.71h53.24c4.57 0 8.28 3.98 8.28 8.89s-3.7 8.89-8.28 8.89h-53.24c-4.57 0-8.28-3.98-8.28-8.89s3.7-8.89 8.28-8.89Z" data-name="Path 87-2" style="fill:#4b4f54"/><text id="View_Payslip" class="cls-19" data-name="View Payslip" style="font-family:OpenSans-Semibold,&quot;Open Sans&quot;;font-weight:600;font-size:8px;isolation:isolate;fill:#fff" transform="translate(232.79 237.73)"><tspan x="0" y="0">View Payslip</tspan></text></g><text id="Welcome" class="cls-19" style="font-size:12px;font-family:Ubuntu-Medium,Ubuntu;font-weight:500;isolation:isolate;fill:#fff" transform="translate(212.17 91.87)"><tspan x="0" y="0" style="letter-spacing:-.02em">W</tspan><tspan x="11.03" y="0">el</tspan><tspan x="21.44" y="0" style="letter-spacing:-.01em">c</tspan><tspan x="26.98" y="0" style="letter-spacing:0">ome James</tspan></text><g style="filter:url(#drop-shadow-3)"><circle id="button-4" cx="261.48" cy="276.22" r="3.29" class="cls-4"/></g><g style="filter:url(#drop-shadow-4)"><circle id="button-5" cx="275.28" cy="276.22" r="3.29" class="cls-4"/></g><circle id="button-4-2" cx="247.48" cy="276.22" r="3.29" data-name="button-4" style="filter:url(#drop-shadow-5);fill:#fff"/><g style="filter:url(#drop-shadow-6)"><circle id="button-4-3" cx="233.48" cy="276.22" r="3.29" class="cls-4" data-name="button-4"/></g><g id="image"><g id="payroll"><g style="filter:url(#drop-shadow-7)"><path id="background-12" d="M61.8 24.26h141.12c6.32 0 11.44 4.72 11.44 10.55v246.9c0 5.83-5.12 10.55-11.44 10.55H61.8c-6.32 0-11.44-4.72-11.44-10.55V34.81c0-5.83 5.12-10.55 11.44-10.55Z" style="fill:#eee"/></g><path id="divider" d="M50.35 61.03h164" style="stroke:#e1e1e1;fill:none;stroke-width:.5px"/><g id="phone"><g id="card"><g style="filter:url(#drop-shadow-8)"><path id="background-13" d="M69.61 217.72h124.25c4.02-.06 7.33 3.01 7.4 6.85v45.88c-.06 3.84-3.37 6.91-7.4 6.85H69.61c-4.02.06-7.33-3.01-7.4-6.85v-45.88c.06-3.84 3.37-6.91 7.4-6.85Z" class="cls-4"/></g><g id="row"><path id="divider-2" d="M69.04 256.57h128.09" class="cls-11"/><g id="_-_31.25" class="cls-19" data-name="- 31.25"><text class="cls-22" transform="translate(172.07 251.2)"><tspan x="0" y="0">-$31.25</tspan></text></g><g id="_2.50_Superannuation" class="cls-19" data-name="2.50 Superannuation"><text class="cls-22" transform="translate(68.47 251.2)"><tspan x="0" y="0">2.50 Superannuation</tspan></text></g></g><g id="row-2"><g id="_-_459.00" class="cls-19" data-name="- 459.00"><text class="cls-22" transform="translate(168.92 269.6)"><tspan x="0" y="0">-$459.00</tspan></text></g><g id="PAYG_Withholding" class="cls-19" data-name="PAYG Withholding"><text class="cls-22" transform="translate(68.38 269.6)"><tspan x="0" y="0">PAYG Withholding</tspan></text></g></g><path id="header-6" d="M69.61 217.72h124.25c4.08 0 7.4 3.54 7.4 7.9v12.95H62.21v-12.95c0-4.36 3.31-7.9 7.4-7.9Z" style="fill:#4a4f54"/><g id="Deductions" class="cls-19"><text class="cls-8" transform="translate(69.04 231.11)"><tspan x="0" y="0">Deductions</tspan></text></g></g><g id="card-2"><g style="filter:url(#drop-shadow-9)"><path id="background-14" d="M69.61 139.15h124.25c4.08 0 7.4 3.59 7.4 8.01v53.69c0 4.43-3.31 8.01-7.4 8.01H69.61c-4.08 0-7.4-3.59-7.4-8.01v-53.69c0-4.43 3.31-8.01 7.4-8.01Z" class="cls-4"/></g><g id="_1_250.00" class="cls-19" data-name="1 250.00"><text class="cls-22" transform="translate(165.58 201.16)"><tspan x="0" y="0">$1,250.00</tspan></text></g><g id="Total_Payments" class="cls-19" data-name="Total Payments"><text class="cls-22" transform="translate(68.47 201.16)"><tspan x="0" y="0">Total Payments</tspan></text></g><path id="divider-3" d="M69.04 190.02h128.09" class="cls-11"/><g id="_750.00" class="cls-19" data-name="750"><text class="cls-22" transform="translate(171.77 184.29)"><tspan x="0" y="0">$750.00</tspan></text></g><g id="_3.00_Days_Annual_Leave" class="cls-19" data-name="3.00 Days Annual Leave"><text class="cls-22" transform="translate(69.66 184.29)"><tspan x="0" y="0">3.00 Days Annual Leave</tspan></text></g><path id="divider-4" d="M69.95 174.4h127.18" class="cls-11"/><g id="_250.00" class="cls-19" data-name="250"><text class="cls-22" transform="translate(171.77 168.78)"><tspan x="0" y="0">$250.00</tspan></text></g><g id="_1.00_Days_Ordinary_Time" class="cls-19" data-name="1.00 Days Ordinary Time"><text class="cls-22" transform="translate(69.66 168.78)"><tspan x="0" y="0">1.00 Days Ordinary Time</tspan></text></g><path id="header-7" d="M69.61 139.15h124.25c4.08 0 7.4 3.54 7.4 7.9V160H62.21v-12.95c0-4.36 3.31-7.9 7.4-7.9Z" class="cls-41"/><g id="Payments" class="cls-19"><text class="cls-8" transform="translate(70.47 152.46)"><tspan x="0" y="0" style="letter-spacing:-.02em">P</tspan><tspan x="4.78" y="0" style="letter-spacing:-.01em">a</tspan><tspan x="8.89" y="0">yments</tspan></text></g></g><g id="orange_card" data-name="orange card" style="filter:url(#drop-shadow-10)"><path id="background-15" d="M30.49 70.57h108.98c3.58 0 6.49 3.09 6.49 6.9v46.24c0 3.81-2.9 6.9-6.49 6.9H30.49c-3.58 0-6.49-3.09-6.49-6.9V77.47c0-3.81 2.9-6.9 6.49-6.9Z" style="fill:#f3f2f1"/><path id="background-16" d="M146.15 120.54v4.27c0 4.02-2.9 7.28-6.49 7.28H30.68c-3.58 0-6.49-3.26-6.49-7.28v-4.27h121.96Z" style="fill:#ff9015"/><g id="content"><text id="Take_Home_Pay" class="cls-19" data-name="Take Home Pay" style="font-size:10px;fill:#484d52;font-family:OpenSans-Semibold,&quot;Open Sans&quot;;font-weight:600;isolation:isolate" transform="translate(46.97 85.42)"><tspan x="0" y="0">Take Home Pay</tspan></text><text id="_964.75" class="cls-19" data-name="964.75" style="font-weight:700;font-family:OpenSans-Bold,&quot;Open Sans&quot;;font-size:11.83px;fill:#484d52;isolation:isolate" transform="translate(62.21 100.85)"><tspan x="0" y="0">$964.75</tspan></text><text id="Net_Pay:_1_016.00" class="cls-19" data-name="Net Pay: 1 016.00" style="font-size:6.57px;fill:#484d52;font-family:OpenSans-Semibold,&quot;Open Sans&quot;;font-weight:600;isolation:isolate" transform="translate(55.19 112.68)"><tspan x="0" y="0">Net Pay: $1,016.00</tspan></text></g></g></g></g><g id="download"><path id="Path_85" d="M199.09 51.54c.12.12.12.32 0 .45l-2.47 2.47-.45.45-.45-.45-2.47-2.46c-.13-.12-.13-.32 0-.45s.32-.13.45 0l2.15 2.15v-5.46c0-.18.14-.32.32-.32s.32.14.32.32v5.46l2.15-2.16c.12-.12.32-.12.45 0Z" class="cls-48" data-name="Path 85"/><path id="Path_86" d="M199.99 54.9a.342.342 0 0 0-.29-.37.342.342 0 0 0-.37.29v1.36h-6.34v-1.27c.04-.18-.08-.35-.26-.37s-.35.1-.37.28v1.37c0 .35.28.63.63.63h6.35c.35 0 .63-.28.63-.63v-1.28Z" class="cls-48" data-name="Path 86"/></g><g id="Pay_History-2" class="cls-19" data-name="Pay History-2"><text class="cls-26" transform="translate(72.36 55.15)"><tspan x="0" y="0" class="cls-18">P</tspan><tspan x="7.49" y="0" style="letter-spacing:-.01em">a</tspan><tspan x="13.97" y="0">y His</tspan><tspan x="41.51" y="0" class="cls-18">t</tspan><tspan x="46.6" y="0" style="letter-spacing:0">o</tspan><tspan x="53.88" y="0" style="letter-spacing:.03em">r</tspan><tspan x="59.32" y="0">y</tspan></text></g><path id="left-arrow" d="M63.25 54.68c-.14.14-.37.14-.51 0l-2.81-2.81-.51-.51.51-.51 2.81-2.81c.14-.14.37-.14.51 0s.14.37 0 .51l-2.8 2.81s.28.2 2.8 2.82c.14.14.14.37 0 .51Z" class="cls-48"/><g id="phone_UI" data-name="phone UI"><g id="battery"><path id="Path_75" d="M203.09 38.15h-6.58c-.26 0-.46-.21-.46-.47v-2.17c0-.26.2-.47.46-.47h6.58c.26 0 .46.21.46.47v2.17c0 .26-.2.47-.46.47" class="cls-38" data-name="Path 75"/><rect id="Rectangle_47" width="9.98" height="5.01" x="194.83" y="34.03" data-name="Rectangle 47" rx=".66" ry=".66" style="fill:none;stroke-width:.5px;stroke:#424242;stroke-miterlimit:10"/><path id="Path_76" d="M205.47 35.62v1.96c.54-.11.89-.65.77-1.19a.997.997 0 0 0-.77-.77" class="cls-38" data-name="Path 76"/></g><g id="Group_31" data-name="Group 31" style="clip-path:url(#clippath)"><g id="Group_30" data-name="Group 30"><path id="Path_80" d="M188.69 34.03h-.39c-.23 0-.42.18-.42.41v4.08c0 .23.19.42.42.41h.39c.23 0 .42-.18.42-.41v-4.08c0-.23-.19-.42-.42-.41" class="cls-38" data-name="Path 80"/><path id="Path_81" d="M186.55 35.03h-.39c-.23 0-.42.18-.42.41v3.07c0 .23.19.42.42.41h.39c.23 0 .42-.18.42-.41v-3.07c0-.23-.19-.42-.42-.41" class="cls-38" data-name="Path 81"/><path id="Path_82" d="M184.4 36.12h-.39c-.23 0-.42.18-.42.41v1.98c0 .23.19.42.42.41h.39c.23 0 .42-.18.42-.41v-1.98c0-.23-.19-.42-.42-.41" class="cls-38" data-name="Path 82"/><path id="Path_83" d="M182.31 36.98h-.39c-.23 0-.42.18-.42.41v1.12c0 .23.19.42.42.41h.39c.23 0 .42-.18.42-.41v-1.12c0-.23-.19-.42-.42-.41" class="cls-38" data-name="Path 83"/></g></g><g id="_9:41" class="cls-19" data-name="9:41"><text style="letter-spacing:.03em;font-size:5.92px;fill:#424242;font-family:OpenSans-Semibold,&quot;Open Sans&quot;;font-weight:600;isolation:isolate" transform="translate(59.41 37.07)"><tspan x="0" y="0">9:4</tspan></text><text style="font-size:5.92px;fill:#424242;font-family:OpenSans-Semibold,&quot;Open Sans&quot;;font-weight:600;isolation:isolate" transform="translate(68.31 37.07)"><tspan x="0" y="0">1</tspan></text></g></g><rect width="33.19" height="3.99" x="115.76" y="33.62" class="cls-38" rx="1.99" ry="1.99"/></g></g></svg>