<svg class="product-illustration" aria-hidden="true" aria-labelledby="faq" xmlns="http://www.w3.org/2000/svg" viewBox="0 0 32 32"><title id="faq">Frequently Asked Questions</title><path d="M10.53 8.23h18.22c.69 0 1.25.56 1.25 1.25v14.87c0 .69-.56 1.25-1.25 1.25h-2.39v3.05l-3.05-3.05H10.53c-.69 0-1.25-.56-1.25-1.25V9.48c0-.69.56-1.25 1.25-1.25Z" fill="var(--bubble-one)"/><path d="M21.47 3.35h-2.53c.1.79.17 1.59.17 2.4 0 6.07-2.85 11.47-7.27 14.97h9.63c.69 0 1.25-.56 1.25-1.25V4.6c0-.69-.56-1.25-1.25-1.25Z" fill="var(--bubble-two)"/><path d="M19.1 5.56c0-.75-.06-1.49-.14-2.21H3.25C2.56 3.35 2 3.91 2 4.6v14.87c0 .69.56 1.25 1.25 1.25h2.39v3.05l3.05-3.05h3.4c4.28-3.59 7.02-9.04 7.02-15.16Z" fill="var(--bubble-three)"/><path d="M11.68 9.07c-.3 0-.59.04-.86.11s-.57.2-.9.37l-.53-1.43c.33-.21.72-.37 1.17-.49s.89-.17 1.32-.17c.54 0 .99.07 1.34.22.35.14.63.33.83.55.2.22.34.46.43.72.08.26.12.51.12.75s-.04.46-.11.65c-.07.2-.16.38-.27.55-.11.17-.24.33-.38.48-.14.15-.28.3-.42.43l-.32.32c-.11.11-.21.23-.3.36s-.16.26-.22.4-.09.28-.09.42v.15c0 .07 0 .13.01.18h-1.67c-.02-.08-.03-.18-.03-.29v-.27c0-.24.03-.45.09-.64s.14-.37.23-.53c.1-.17.21-.32.34-.46l.39-.42c.19-.19.37-.39.53-.58.16-.19.24-.41.24-.65 0-.2-.08-.38-.23-.52-.16-.14-.39-.22-.69-.22Zm1.18 6.38c0 .37-.12.66-.36.86s-.51.3-.82.3-.58-.1-.82-.3c-.24-.2-.36-.49-.36-.86s.12-.66.36-.86c.24-.2.51-.3.82-.3s.58.1.82.3.36.49.36.86Z" fill="var(--question)"/><path fill="none" d="M0 0h32v32H0z"/></svg>