<svg class="product-illustration" aria-hidden="true" aria-labelledby="get-started" xmlns="http://www.w3.org/2000/svg" viewBox="0 0 360 360"><title id="get-started">Get Started</title><defs><filter id="drop-shadow-1" filterUnits="userSpaceOnUse"><feOffset dx="3" dy="3"/><feGaussianBlur result="blur" stdDeviation="2"/><feFlood flood-color="#000" flood-opacity=".28"/><feComposite in2="blur" operator="in"/><feComposite in="SourceGraphic"/></filter><filter id="drop-shadow-2" filterUnits="userSpaceOnUse"><feOffset dx="3" dy="3"/><feGaussianBlur result="blur-2" stdDeviation="6"/><feFlood flood-color="#000" flood-opacity=".3"/><feComposite in2="blur-2" operator="in"/><feComposite in="SourceGraphic"/></filter><filter id="drop-shadow-3" filterUnits="userSpaceOnUse"><feOffset dx="3" dy="3"/><feGaussianBlur result="blur-3" stdDeviation="2"/><feFlood flood-color="#000" flood-opacity=".28"/><feComposite in2="blur-3" operator="in"/><feComposite in="SourceGraphic"/></filter><filter id="drop-shadow-4" filterUnits="userSpaceOnUse"><feOffset dx="3" dy="3"/><feGaussianBlur result="blur-4" stdDeviation="2"/><feFlood flood-color="#000" flood-opacity=".28"/><feComposite in2="blur-4" operator="in"/><feComposite in="SourceGraphic"/></filter><clipPath id="clippath"><path d="m47.391 234.908 60.44-185.797 185.797 60.441-60.44 185.796z" class="cls-16"/></clipPath><style>.cls-1{fill:#393e43}.cls-8{fill:#333}.cls-9{fill:#b0afaf}.cls-11{fill:#ffba00;isolation:isolate;opacity:.6}.cls-14{fill:#df2625}.cls-16{fill:none}.cls-18{fill:#c30d1c}</style></defs><path id="background" d="M0 0h360v360H0z" class="cls-16"/><g id="get_started" data-name="get started"><path d="M266.67 150.75c1 .2 1.95.51 2.84.91.05-.56.12-1.12.23-1.69 1.57-7.97 9.3-13.15 17.27-11.58 4.38.86 7.92 3.6 9.96 7.2 2.99-3.03 7.4-4.55 11.9-3.67 5.46 1.08 9.45 5.39 10.38 10.55 1.7-.29 3.48-.28 5.28.07 5.85 1.15 10.18 5.67 11.4 11.14l-84.58-.17c-.01-.87.07-1.76.24-2.65 1.37-6.96 8.13-11.49 15.09-10.12Zm29.19 12.02c-.13-.18-.27-.36-.39-.55-.27.33-.57.65-.86.95.41-.15.84-.29 1.26-.4Z" style="filter:url(#drop-shadow-1);fill:#fff"/><g style="filter:url(#drop-shadow-2)"><path d="M113.02 220.11c-16.72 6.53-39.18 13.88-50.04 24.05-11.13 10.22-14.57 15.04-15.53 27.33-.35 6.23.82 12.48 3.48 18.53 2.74 6.17 6.93 12.08 12.44 17.54 5.65 5.57 12.44 10.68 20.21 15.23 7.91 4.62 16.58 8.74 25.86 12.3-10.02-2.92-19.54-6.45-28.39-10.55-8.95-4.16-17-8.99-23.94-14.38-14.39-11.14-25.03-23.98-26.91-37.98-1.86-14.15 1.68-30.41 12.09-43.2 10.41-12.79 36.65-29 54.84-38.13l15.89 29.26Z" class="cls-11"/><path d="M109.42 213.48c-12.14 4.74-35.98 14.81-44.11 21.62-4.74 3.97-13.39 9.93-19.55 22.31-4.6 9.24-3.41 30.73.24 35.93-7.84-7.25-11.19-25.07-9.92-35.69 1.37-11.52 10.37-26.81 21.15-34.97 9.55-7.22 30.06-18.97 43.27-25.6l8.91 16.41Z" class="cls-11"/><path d="M42.7 251.08c-.86.05-1.51.73-1.46 1.52.05.71.65 1.29 1.42 1.35.86-.05 1.51-.73 1.46-1.52-.05-.71-.65-1.29-1.42-1.35Z" style="opacity:.75;fill:#fff"/><path d="M58.11 226.83c-.93-.01-1.7.75-1.71 1.71s.73 1.75 1.66 1.76 1.7-.75 1.71-1.71-.73-1.75-1.66-1.76Z" style="opacity:.65;fill:#fff"/><g id="Group_2685" data-name="Group 2685" style="clip-path:url(#clippath)"><g id="Group_2681" data-name="Group 2681"><path id="Path_5512" d="M258.83 99.1c9.51 1.84 18.76 4.85 27.54 8.96a9.41 9.41 0 0 1 4.2 3.08l-50.43 25.63c-11.23-22.05-5.39-40.25-5.39-40.25s7.75-.7 24.08 2.58" data-name="Path 5512" style="fill:#df2525"/><path id="Path_5513-2" d="m106.61 159.36.05.1c2.48-2.42 5-4.77 7.54-7.06 1.63-1.48 3.29-2.88 4.94-4.3.82-.7 1.63-1.42 2.45-2.1 2.19-1.83 4.4-3.6 6.62-5.34.22-.18.44-.36.66-.53 2.42-1.88 4.85-3.7 7.3-5.48l.04-.04a54.429 54.429 0 0 0-19.77-3.4c-12.71.24-27.15 9.14-36.27 13.94-8.09 4.24-7.46 11.67 2.06 12.47 7.22.43 14.31 2.19 20.9 5.17l3.48-3.45Z" class="cls-14" data-name="Path 5513-2"/><path id="Path_5514-2" d="M281.6 143.86c4.12-8.77 7.13-18.01 8.98-27.52.49-1.7.48-3.51-.02-5.21l-50.42 25.63c11.22 22.05 29.36 28.06 29.36 28.06s5.13-5.85 12.11-20.96" class="cls-18" data-name="Path 5514-2"/><path id="Path_5515-2" d="M269.63 164.68c.04-.05.07-.11.11-.16l-.25.3s-18.13-6-29.37-28.06l-115.23 58.57 18.24 35.87c59.23-9.98 107.53-38.89 126.49-66.52" data-name="Path 5515-2" style="fill:#d9d9d8"/><path id="Path_5516" d="m234.75 96.53.39-.03h-.2c-33.51-.96-85.33 21.01-128.29 62.98l18.25 35.87 115.23-58.57c-11.23-22.05-5.38-40.24-5.38-40.24" data-name="Path 5516" style="fill:#eaeaea"/><path id="Path_5517-2" d="m124.9 195.33 18.3 35.97-20.7 3.32c-1.76.28-3.49-.61-4.3-2.19l-13.62-26.78 20.32-10.33Z" class="cls-8" data-name="Path 5517-2"/><path id="Path_5518" d="m124.9 195.33-18.3-35.97-14.87 14.77a4.088 4.088 0 0 0-.76 4.76l13.61 26.78 20.32-10.33Z" class="cls-1" data-name="Path 5518"/><path id="Path_5519" d="M159.32 177.86c.75 2.03.95 4.22.57 6.35-1.63 8.3-9.59 17.72-19.74 22.85-5.93 2.98-12.02 5.63-18.24 7.95-8.18 2.9-16.56 5.23-25.07 6.97-4.21.7-8.46 1.12-12.72 1.26-2.8.16-5.46-1.26-6.88-3.69l82.07-41.69Z" class="cls-18" data-name="Path 5519"/><path id="Path_5520" d="M159.32 177.85a12.055 12.055 0 0 0-4.8-4.21c-7.67-3.57-19.98-2.69-30.1 2.48-5.89 3.04-11.62 6.39-17.15 10.04-7.17 4.9-14 10.29-20.42 16.14a97.22 97.22 0 0 0-8.5 9.53 7.465 7.465 0 0 0-1.08 7.72l82.06-41.7Z" class="cls-14" data-name="Path 5520"/><path id="Path_5521-2" d="m143.23 231.34-.06-.1c3.43-.58 6.81-1.23 10.15-1.93 2.15-.45 4.26-.97 6.39-1.45 1.04-.25 2.1-.48 3.13-.74 2.78-.69 5.51-1.43 8.22-2.19.27-.08.54-.16.81-.23 2.96-.84 5.87-1.73 8.73-2.67l.05-.02c-1.82 6.5-4.84 12.6-8.9 17.98-7.68 10.12-23.39 16.53-32.63 21.07-8.19 4.03-13.82-.86-8.86-9.01a58.856 58.856 0 0 0 8.13-19.93l4.84-.78Z" class="cls-18" data-name="Path 5521-2"/><path id="Path_5522" d="M179.11 168.01c6.75 13.62 23.27 19.19 36.89 12.44 13.62-6.75 19.19-23.27 12.44-36.89-.09-.18-.18-.35-.27-.53l-49.06 24.98Z" class="cls-8" data-name="Path 5522"/><path id="Path_5523" d="M179.11 168.02c-6.9-13.55-1.51-30.12 12.04-37.02 13.55-6.9 30.12-1.51 37.02 12.04l-49.06 24.98Z" class="cls-1" data-name="Path 5523"/><path id="Path_5524" d="M213.48 174.85c10.67-5.44 14.92-18.5 9.49-29.17l-38.65 19.68c5.43 10.67 18.49 14.92 29.17 9.49" data-name="Path 5524" style="fill:#66c4e8"/><path id="Path_5525" d="M193.8 136.2c10.68-5.43 23.73-1.19 29.17 9.49l-38.66 19.68c-5.43-10.67-1.19-23.73 9.49-29.17" data-name="Path 5525" style="fill:#00a0df"/><path id="Path_5526" d="M194.5 179.5a.877.877 0 1 1 1.13-.51c-.16.41-.6.64-1.02.53l-.1-.03m5.2.52a.878.878 0 1 1 .76.98c-.03 0-.07 0-.1-.02a.87.87 0 0 1-.65-.96m-10.63-3.41a.868.868 0 1 1 1-1.42c.39.28.49.82.21 1.21a.876.876 0 0 1-1.22.21m16.57 3.66c-.05-.48.29-.91.77-.97.48-.05.91.29.96.77a.868.868 0 0 1-1.07.94.876.876 0 0 1-.65-.75m-21.15-7.76a.872.872 0 0 1 .1-1.23c.36-.31.9-.27 1.22.08.32.37.28.92-.09 1.23a.862.862 0 0 1-1.22-.08m26.97 6.58a.87.87 0 1 1 1.12.51c-.17.06-.35.07-.52.03a.858.858 0 0 1-.6-.54m5.37-2.54c-.27-.4-.17-.94.23-1.21s.94-.17 1.21.23.17.94-.23 1.21-.94.16-1.21-.23m4.61-3.75c-.36-.32-.39-.88-.07-1.24s.88-.39 1.24-.07.39.88.07 1.24a.883.883 0 0 1-1.24.06m3.58-4.74a.873.873 0 0 1-.35-1.18c.23-.42.76-.58 1.18-.35a.873.873 0 0 1-.63 1.61.698.698 0 0 1-.2-.08m1.7-6.52v-.04l.03-.05c.12-.47.59-.75 1.06-.64s.75.59.64 1.06c0 .02-.01.04-.02.06v.05c-.13.47-.6.75-1.07.63a.867.867 0 0 1-.63-1.06m.73-5.77a.87.87 0 1 1 .87.87.876.876 0 0 1-.87-.87m-.68-5.7c-.11-.47.17-.94.64-1.05.47-.11.94.17 1.05.64s-.17.94-.64 1.05a.866.866 0 0 1-1.05-.64" class="cls-9" data-name="Path 5526"/><path id="Path_5527" d="M181.03 166.97c-.22-.43-.05-.95.37-1.18s.95-.05 1.18.37c.22.43.05.95-.37 1.17-.19.1-.41.13-.61.07a.859.859 0 0 1-.56-.44" class="cls-9" data-name="Path 5527"/><path id="Path_5528" d="M178.87 161.21a.873.873 0 1 1 1.05.65c-.14.03-.28.03-.42 0a.871.871 0 0 1-.63-.64" class="cls-9" data-name="Path 5528"/><path id="Path_5529" d="M178.16 155.11c0-.48.4-.87.88-.87s.87.4.87.88-.4.87-.88.87c-.07 0-.14 0-.21-.03a.877.877 0 0 1-.66-.85" class="cls-9" data-name="Path 5529"/><path id="Path_5530" d="M178.93 149.01c.12-.47.59-.75 1.06-.63.47.12.75.59.63 1.06-.12.47-.59.75-1.06.63a.867.867 0 0 1-.63-1.06" class="cls-9" data-name="Path 5530"/><path id="Path_5531" d="M181.5 144.45a.866.866 0 0 1-.37-1.17.874.874 0 1 1 1.55.81c-.19.36-.59.54-.98.44-.07-.02-.14-.04-.2-.07" class="cls-9" data-name="Path 5531"/><path id="Path_5532" d="M184.72 139.46a.87.87 0 1 1 1.17-1.29.87.87 0 1 1-1.17 1.29" class="cls-9" data-name="Path 5532"/><path id="Path_5533" d="M189.04 135.38c-.27-.4-.17-.94.23-1.21s.94-.17 1.21.23a.869.869 0 0 1-.94 1.33.888.888 0 0 1-.5-.35" class="cls-9" data-name="Path 5533"/><path id="Path_5534" d="M224.75 144.24a.874.874 0 1 1 1.18.37c-.43.22-.95.06-1.18-.37" class="cls-9" data-name="Path 5534"/><path id="Path_5535" d="M194.21 132.46a.87.87 0 1 1 .6.54.858.858 0 0 1-.6-.54" class="cls-9" data-name="Path 5535"/><path id="Path_5536" d="M221.51 139.51c-.32-.36-.29-.92.08-1.24s.92-.29 1.24.08c.32.36.29.92-.08 1.24-.22.19-.51.26-.79.19a.842.842 0 0 1-.44-.27" class="cls-9" data-name="Path 5536"/><path id="Path_5537" d="M199.93 130.85c-.06-.48.28-.91.76-.97.48-.06.91.28.97.76.06.48-.28.91-.76.97a.81.81 0 0 1-.31-.01.876.876 0 0 1-.65-.75" class="cls-9" data-name="Path 5537"/><path id="Path_5538" d="M217.24 135.7a.877.877 0 0 1-.21-1.21c.28-.39.82-.48 1.21-.21s.48.82.21 1.21c-.21.29-.58.43-.93.34-.1-.03-.2-.07-.28-.13" class="cls-9" data-name="Path 5538"/><path id="Path_5539" d="M205.86 130.66c.06-.48.5-.82.98-.75.48.06.82.5.75.98a.87.87 0 0 1-1.09.73.878.878 0 0 1-.65-.96" class="cls-9" data-name="Path 5539"/><path id="Path_5540" d="M212.18 133.03a.83.83 0 0 1-.47-1.08.83.83 0 0 1 1.08-.47.833.833 0 0 1-.52 1.58l-.1-.03" class="cls-9" data-name="Path 5540"/></g></g></g><path d="M137.27 41.55c2.28.45 4.41 1.23 6.36 2.28.05-.33.11-.66.17-.99 2.51-12.74 14.87-21.03 27.61-18.51 7.4 1.46 13.29 6.25 16.44 12.5 4.28-2.65 9.53-3.76 14.85-2.71 8.15 1.61 14.22 7.82 16.06 15.39 2.37-.42 4.84-.42 7.34.07 9.43 1.86 15.99 10.08 16.1 19.32l-131.39-.27c-.66-2.96-.73-6.1-.11-9.27 2.42-12.26 14.31-20.23 26.57-17.81Z" style="filter:url(#drop-shadow-3);fill:#fff"/><path d="M40.48 124.21c1.08.21 2.1.55 3.05.98.05-.6.13-1.21.25-1.81 1.69-8.56 9.99-14.13 18.55-12.44 4.71.93 8.51 3.87 10.7 7.74 3.22-3.26 7.95-4.89 12.78-3.94 5.86 1.16 10.15 5.79 11.16 11.34 1.83-.31 3.74-.31 5.67.07 6.29 1.24 10.94 6.09 12.25 11.97L24 137.94c-.01-.94.07-1.9.26-2.85 1.48-7.48 8.74-12.35 16.22-10.87Zm31.37 12.92c-.15-.19-.29-.39-.42-.59-.3.36-.61.69-.93 1.02.44-.16.9-.31 1.36-.43Z" style="fill:#fff;filter:url(#drop-shadow-4)"/></g></svg>