<svg class="product-illustration" aria-hidden="true" aria-labelledby="help" xmlns="http://www.w3.org/2000/svg" viewBox="0 0 32 32"><title id="help">Help Centre</title><g id="help-centre"><path d="M25.41 20.86s-.26 2.37-.42 3.12c-.05.21-.12.48-.26.73-.2.36-.75.8-1.02.94-1.14.63-1.75.69-2.47.79-.61.08-1.92.15-1.92.15l-.02.6s1.02.07 2.23-.16c1.99-.38 2.32-.75 2.8-1.07.46-.32.77-.6.96-.92.2-.35.28-.62.32-.87.37-2.29.41-3.26.41-3.26l-.61-.03Z" fill="var(--microphone)"/><path d="M6.8 12.52c.46-4.98 4.37-8.86 9.12-8.86s8.65 3.89 9.12 8.86h1.58c-.47-5.92-5.08-10.56-10.7-10.56S5.69 6.6 5.22 12.52H6.8Z" fill="var(--headpiece)"/><rect width="3.87" height="2.33" x="15.55" y="25.64" rx="1.17" ry="1.17" fill="var(--mouthpiece)"/><path d="M3.22 14.63c-.69.18-1.2.89-1.2 1.74s.51 1.56 1.2 1.74v-3.47ZM28.78 14.63c.71.18 1.24.89 1.24 1.74s-.53 1.56-1.24 1.74v-3.47Z" fill="var(--cushion-outer)"/><path d="M26.8 12.19h-.62c1.09 0 1.98.88 1.98 1.98v4.82c0 1.09-.88 1.98-1.98 1.98h.62c1.09 0 1.98-.88 1.98-1.98v-4.82c0-1.09-.88-1.98-1.98-1.98Z" fill="var(--cushion-shadow)"/><rect width="4.8" height="8.78" x="23.36" y="12.19" fill="var(--cushion)" rx="1.98" ry="1.98"/><path d="M6.67 12.19h-.62c1.09 0 1.98.88 1.98 1.98v4.82c0 1.09-.88 1.98-1.98 1.98h.62c1.09 0 1.98-.88 1.98-1.98v-4.82c0-1.09-.88-1.98-1.98-1.98Z" fill="var(--cushion-shadow)"/><rect width="4.8" height="8.78" x="3.22" y="12.19" fill="var(--cushion)" rx="1.98" ry="1.98"/><path d="M21.17 10.64h-.81c.69 0 1.25.56 1.25 1.25v5.46c0 .69-.56 1.25-1.25 1.25h.81c.69 0 1.25-.56 1.25-1.25v-5.46c0-.69-.56-1.25-1.25-1.25Z" fill="var(--bubble-shadow)"/><path d="M20.61 10.64h-9.34c-.69 0-1.25.56-1.25 1.25v5.46c0 .69.56 1.25 1.25 1.25h1.29l-.46 2.07c-.03.13.1.25.23.21l3.74-2.27h4.55c.69 0 1.25-.56 1.25-1.25V11.9c0-.69-.56-1.25-1.25-1.25Z" fill="var(--bubble)"/><circle cx="13.47" cy="14.62" r=".7" fill="var(--text)"/><circle cx="15.91" cy="14.62" r=".7" fill="var(--text)"/><circle cx="18.41" cy="14.62" r=".7" fill="var(--text)"/><path id="background" d="M0 0h32v32H0z" fill="none"/></g></svg>