<svg class="product-illustration" role="presentation" aria-labelledby="ipayroll" xmlns="http://www.w3.org/2000/svg" viewBox="0 0 32 32"><defs><linearGradient id="a" x1="34.7" x2="35.33" y1="705.01" y2="705.01" gradientTransform="matrix(30.55 0 0 -31.26 -1050.84 22048.02)" gradientUnits="userSpaceOnUse"><stop offset="0" stop-color="#129fda"/><stop offset="1" stop-color="#66c4e8"/></linearGradient><linearGradient id="b" x1="32.79" x2="33.42" y1="705.43" y2="705.43" gradientTransform="matrix(11.38 0 0 -36.02 -369.6 25430.96)" gradientUnits="userSpaceOnUse"><stop offset="0" stop-color="#f36d21"/><stop offset="1" stop-color="#f78f20"/></linearGradient></defs>
<path d="M26.89 12.87 9.14 2.61c.45.32.84.73 1.12 1.2.31.59.47 1.25.44 1.92v6.13s4.77 2.73 6.25 3.61h.04c.28.16.38.51.23.79-.04.07-.09.13-.15.17-.88.68-1.48 2.65-.52 4.37a3.684 3.684 0 0 0 4.97 1.24l5.29-3.05a3.514 3.514 0 0 0 1.8-3.09 3.62 3.62 0 0 0-1.72-3.05Z" data-name="Path 200" style="fill:url(#a)" fill="#66C4E8"/><path d="M3.84 8.54c-.21-.47-.34-.97-.4-1.48v19.32c-.03.96.34 1.9 1.04 2.57.68.69 1.6 1.08 2.57 1.08.97.02 1.9-.38 2.57-1.08.69-.68 1.07-1.6 1.08-2.57V13.27L5.3 10.1c-.65-.34-1.16-.89-1.45-1.56Z" data-name="Path 201-2" style="fill:url(#b)" fill="#FF9015"/><path d="M7.09 1.97c-.74-.01-1.46.21-2.06.64-1.09.75-1.7 2.01-1.6 3.33.09 1.18.77 2.23 1.8 2.81l5.45 3.09v-6.3c0-1.19-.58-2.3-1.56-2.97-.61-.39-1.31-.6-2.03-.6Z" data-name="Path 203" fill="#202945"/><path d="M10.69 13.81v-1.97L5.14 8.68c-1.59-.85-1.76-2.89-1.76-2.89l.05 1.34c0 .32.05.64.17.93.21.98.81 1.83 1.66 2.36 0 .04 5.43 3.38 5.43 3.38Z" data-name="Path 377" fill="#00A0DF"/><path d="M0 0h32v32H0z" fill="none"/></svg>