<svg class="product-illustration" aria-hidden="true" aria-labelledby="iso" xmlns="http://www.w3.org/2000/svg" viewBox="0 0 32 32.01"><title id="iso">ISO/IEC 27001:2013</title><g id="iso"><g id="www"><path d="M25.9 23.08c-.72 1.08-1.59 2.06-2.59 2.87-.4-.27-.81-.51-1.23-.74.57-.63 1.07-1.35 1.52-2.13h-.67c-.42.68-.9 1.3-1.43 1.84-.69-.32-1.4-.59-2.15-.8.13-.33.25-.68.36-1.04h-.67c-.1.31-.2.6-.3.88-.88-.21-1.8-.32-2.74-.35v-.53h-.65v.52c-1.02.02-2.01.14-2.96.36-.11-.28-.21-.58-.31-.88h-.63c.11.36.23.71.36 1.04-.75.21-1.47.48-2.16.81-.52-.55-.99-1.17-1.4-1.85h-.69c.44.78.95 1.5 1.52 2.14-.42.22-.83.47-1.23.73-1-.81-1.87-1.78-2.59-2.87h-.63c2.3 3.69 6.34 6.15 10.95 6.15s8.65-2.46 10.95-6.15h-.63Zm-6.72 1.46c.69.19 1.35.43 1.99.72-1.01.95-2.18 1.66-3.45 2.04-.09-.04-.19-.06-.28-.09.66-.6 1.25-1.52 1.74-2.67ZM16 24.06c.88.03 1.74.13 2.57.32-.53 1.23-1.18 2.15-1.89 2.62-.22-.04-.45-.05-.68-.06v-2.88Zm-.65 0v2.88c-.29.02-.57.04-.84.1-.74-.46-1.41-1.38-1.95-2.65.9-.21 1.83-.32 2.79-.34Zm-3.37.49c.5 1.17 1.1 2.1 1.77 2.7-.13.05-.25.1-.37.16-1.23-.39-2.39-1.13-3.41-2.13.64-.3 1.31-.54 2-.73Zm.14 3.65c-1.42-.42-2.73-1.09-3.89-1.96.38-.24.76-.47 1.16-.68.96.98 2.08 1.74 3.29 2.21-.19.13-.4.27-.56.42Zm3.46.51c-.97 0-1.9-.12-2.81-.34.69-.54 1.76-1.01 2.89-1.01s2.16.45 2.84.98c-.94.23-1.92.37-2.93.37Zm3.56-.53c-.17-.15-.38-.31-.58-.44 1.18-.47 2.26-1.22 3.2-2.18.4.21.79.44 1.17.69-1.14.85-2.41 1.51-3.8 1.93ZM5.32 8.91c.71-1.04 1.55-1.99 2.52-2.77.39.26.79.5 1.2.72-.55.61-1.04 1.3-1.47 2.05h.66c.41-.65.87-1.24 1.37-1.77.7.33 1.43.61 2.19.82-.12.3-.23.62-.33.95h.61c.09-.28.18-.54.27-.79.96.23 1.97.35 3 .37v.43h.65v-.43a14 14 0 0 0 2.77-.36c.1.25.19.52.27.79h.66c-.1-.33-.21-.65-.33-.95.75-.21 1.48-.49 2.17-.82.51.53.97 1.12 1.37 1.77h.66c-.43-.75-.92-1.44-1.47-2.05.41-.22.81-.46 1.2-.72.97.79 1.82 1.73 2.52 2.77h.64c-2.31-3.64-6.32-6.05-10.9-6.05S6.99 5.27 4.68 8.91h.64Zm6.65-1.37c-.7-.2-1.37-.44-2.02-.74 1.04-.98 2.25-1.71 3.57-2.08.08.03.17.06.26.09-.69.6-1.3 1.55-1.81 2.73Zm3.38.49c-.97-.02-1.92-.13-2.83-.34.54-1.28 1.2-2.22 1.93-2.7.29.06.59.09.9.1v2.94Zm.65 0V5.1c.25-.01.5-.02.73-.07.71.49 1.35 1.42 1.88 2.67-.84.19-1.71.3-2.61.33Zm3.2-.49c-.5-1.16-1.1-2.09-1.77-2.7l.31-.09c1.28.38 2.46 1.09 3.48 2.05-.65.3-1.32.54-2.01.74Zm-.06-3.62c1.38.42 2.66 1.08 3.8 1.93-.37.24-.75.47-1.14.67-.94-.96-2.03-1.71-3.21-2.19.21-.13.39-.27.56-.42Zm-3.56-.53c1.01 0 1.98.14 2.92.37-.7.53-1.71.91-2.84.91s-2.17-.4-2.88-.94c.9-.21 1.83-.33 2.8-.33Zm-3.44.5c.16.15.34.28.54.41-1.22.47-2.34 1.23-3.31 2.22-.39-.2-.77-.42-1.14-.66 1.17-.87 2.48-1.55 3.91-1.96Z" fill="var(--iso)"/></g><g id="text"><path d="M31.82 14.7c-.27-2.62-2.92-4.68-6.15-4.68s-5.88 2.06-6.15 4.68v2.52c.2 2.68 2.87 4.8 6.15 4.8s5.95-2.12 6.16-4.8V14.7Zm-4.2 3.1h-.02c-.09.8-.89 1.43-1.87 1.43s-1.78-.63-1.87-1.43h-.02v-3.3c0-.87.85-1.57 1.89-1.57s1.89.7 1.89 1.57v3.3ZM19.08 17.62c-.41-1.72-2.1-2.43-2.31-2.52-1.75-.79-1.97-.71-4.17-1.2-.4-.09-.87-.39-.79-.84.1-.56 1.17-.47 1.57-.42.41.05 1.97.25 2.95 1.68h2.43v-3.87h-2.43v.71c-.63-.4-2.05-1.03-3.8-1.03-2.27 0-4.33 1.13-4.33 3.7 0 1.49 1.23 2.8 2.99 3.41.92.32 1.22.33 3.12.91.5.15 1.46.42 1.4.84-.07.51-1.4.45-1.85.41-1.81-.17-2.71-1.12-3.08-1.7H8.35v4.15h2.43v-.9s1.62 1.08 3.68 1.08c.77 0 2.08.09 3.2-.78 1.06-.81 1.76-2.16 1.41-3.63ZM7.56 13.08v-2.81H.19v2.81h1.69v5.95H.19v2.82h7.37v-2.82H6.01v-5.95h1.55z" fill="var(--iso)"/></g><path fill="none" d="M0 0h32v32H0z"/></g></svg>