<svg class="product-illustration" aria-hidden="true" aria-labelledby="general-ledger-postings" xmlns="http://www.w3.org/2000/svg" viewBox="0 0 32 31.99"><title id="general-ledger-postings">General Ledger Postings</title><g id="general_ledger_postings"><g id="page"><path d="M21.17 18V2.98c0-.55-.45-1-1-1H4.47c-.55 0-1 .45-1 1V18h17.7Z" fill="var(--page)"/><path d="M21.17 18h.42V3.18c0-.47-.33-.84-.77-.95.21.18.35.44.35.74V18Z" fill="var(--page-shadow)"/><path d="M5.82 3.19h2.25V9.4H5.82z" fill="var(--graph-one)"/><path d="M9.45 5.41h2.25V9.4H9.45z" fill="var(--graph-two)"/><path d="M13.07 4.64h2.25V9.4h-2.25z" fill="var(--graph-three)"/><path d="M16.7 6.29h2.25V9.4H16.7z" fill="var(--graph-four)"/><rect width="11.5" height="1.5" x="5.77" y="10.34" fill="var(--page-line)" rx=".75" ry=".75"/><rect width="6.4" height="1.5" x="5.77" y="12.82" fill="var(--page-line)" rx=".75" ry=".75"/></g><path id="folder" d="m10.74 17.25-.96-1.98H2.75c-.42 0-.75.34-.75.75v13.23c0 .41.34.75.75.75H21.4V17.25H10.74Z" fill="var(--folder)"/><g id="calculator"><path d="M29.25 12.47h-.93c.41 0 .75.34.75.75v16.03c0 .41-.34.75-.75.75h.93c.41 0 .75-.34.75-.75V13.22c0-.41-.34-.75-.75-.75Z" fill="var(--calc-shadow)"/><rect width="13.02" height="17.53" x="16.6" y="12.47" rx=".75" ry=".75" fill="var(--calc)"/><rect width="10.65" height="4.22" x="18.02" y="13.89" fill="var(--calc-screen)" rx=".5" ry=".5"/><rect width="2.96" height="2.43" x="18" y="19.25" fill="var(--calc-button)" rx=".61" ry=".61"/><rect width="2.96" height="2.43" x="21.84" y="19.25" fill="var(--calc-button)" rx=".61" ry=".61"/><rect width="2.96" height="2.43" x="25.71" y="19.25" fill="var(--calc-button)" rx=".61" ry=".61"/><path d="M24.19 26.32h-5.58c-.33 0-.61.27-.61.61v1.22c0 .33.27.61.61.61h5.58c.33 0 .61-.27.61-.61v-1.22c0-.33-.27-.61-.61-.61Z" fill="var(--calc-big-button)"/><rect width="2.96" height="2.43" x="25.71" y="26.26" fill="var(--calc-button)" rx=".61" ry=".61"/><rect width="2.96" height="2.43" x="18" y="22.75" fill="var(--calc-button)" rx=".61" ry=".61"/><rect width="2.96" height="2.43" x="21.84" y="22.75" fill="var(--calc-button)" rx=".61" ry=".61"/><rect width="2.96" height="2.43" x="25.71" y="22.75" fill="var(--calc-button)" rx=".61" ry=".61"/></g><path id="background" d="M0 0h32v31.99H0z" fill="none"/></g></svg>


