<svg class="product-illustration" aria-hidden="true" aria-labelledby="myhr" xmlns="http://www.w3.org/2000/svg" viewBox="0 0 32 32"><title id="myhr">MyHR</title><path d="M21.64 14.98h-2.35v-2.65h-1.71v7.11h1.71v-3.07h2.35v3.07h1.7v-7.11h-1.7v2.65Zm6.9 1.54c.69-.34 1.23-.99 1.23-2.04 0-1.34-.94-2.15-2.52-2.15h-3.08v7.1h1.68v-2.59h1l1.19 2.57h2.03l-1.52-2.9Zm-1.33-1.03h-1.35v-1.63h1.35c.45 0 .83.21.83.76s-.37.87-.83.87Zm-10.69-3.23c-.22-.14-.59-.22-1.01-.22-.12 0-.24 0-.35.02h-.08v.1c0 .37-.08 1.33-.22 2.63-.14 1.35-.57 3.39-1.03 3.46-.13.02-.2-.16-.2-.16-.19-.54-.24-2.38-.13-5.05.02-.44-.13-.64-.54-.72-.12-.03-.24-.04-.36-.04-.21 0-.42.03-.62.09l-.05.02v.06c-.73 4.49-1.39 5.6-1.48 5.75-.03-.56-.2-4.06-.22-6.32 0-.13-.06-.26-.16-.35-.28-.24-.84-.28-1.15-.28h-.13l-.03.05c-.86 1.65-1.45 3.59-1.73 4.59-.03-1.65-.11-5.12-.15-5.25-.01-.04-.13-.35-.91-.35-.2 0-.4.01-.6.04h-.04l-.02.04c-.32.42-1.23 2.45-1.82 5.29-.03-1.19-.09-3.15-.17-3.47v-.03l-.02-.02c-.54-.54-.85-.56-.96-.54-.34.04-1.89.98-2.32 2.65v.02c-.02.16.03.32.13.44.32.47.93.55.96.56h.08l.02-.07c.18-.64.63-1.29.86-1.61.02.21.04.56.06.94.08 1.47.23 3.93.42 5.21.03.09.09.17.17.22.22.13.59.12 1.07-.02l.06-.02v-.06c.39-2.14.9-4.25 1.55-6.32l.13-.39c.1 1.51.4 5.81.43 6.04v.04c.05.07.22.28.75.28h.04c.15 0 .55.02.64-.44.29-1.34 1.31-4.67 1.32-4.7v-.02c.03.83.09 2.41.25 3.91.03.31.3 1.12 1.11 1.12a.97.97 0 0 0 .72-.39c.29-.36.53-.86.88-1.86l.15-.52c.01.41.06.83.14 1.23.14.59.46 1.35 1.14 1.57.1.03.21.05.32.05 1.14 0 1.8-2.01 1.83-2.09v.46c-.03.61-.1 1.22-.21 1.82-.11.47-.4 1.24-1 1.18h-.13l.02.12a1 1 0 0 0 .42.62c.17.1.37.16.56.16.21 0 .42-.06.61-.16.68-.36.91-1.73.95-2 .1-.66.31-2.66.27-6.96 0-.15-.09-.28-.22-.35Z" fill="#FFFFFF"/><path fill="none" d="M0 0h32v32H0z"/></svg>