<svg class="product-illustration" aria-hidden="true" aria-labelledby="payroll" xmlns="http://www.w3.org/2000/svg" viewBox="0 0 360 360"><title id="payroll">Payroll Details</title><defs><filter id="drop-shadow-1" filterUnits="userSpaceOnUse"><feOffset/><feGaussianBlur result="blur" stdDeviation="4"/><feFlood flood-color="#000" flood-opacity=".3"/><feComposite in2="blur" operator="in"/><feComposite in="SourceGraphic"/></filter><filter id="drop-shadow-2" filterUnits="userSpaceOnUse"><feOffset/><feGaussianBlur result="blur-2" stdDeviation="4"/><feFlood flood-color="#000" flood-opacity=".3"/><feComposite in2="blur-2" operator="in"/><feComposite in="SourceGraphic"/></filter><filter id="drop-shadow-3" filterUnits="userSpaceOnUse"><feOffset/><feGaussianBlur result="blur-3" stdDeviation="4"/><feFlood flood-color="#000" flood-opacity=".3"/><feComposite in2="blur-3" operator="in"/><feComposite in="SourceGraphic"/></filter><filter id="drop-shadow-4" filterUnits="userSpaceOnUse"><feOffset/><feGaussianBlur result="blur-4" stdDeviation="4"/><feFlood flood-color="#000" flood-opacity=".3"/><feComposite in2="blur-4" operator="in"/><feComposite in="SourceGraphic"/></filter><filter id="drop-shadow-5" filterUnits="userSpaceOnUse"><feOffset/><feGaussianBlur result="blur-5" stdDeviation="4"/><feFlood flood-color="#000" flood-opacity=".3"/><feComposite in2="blur-5" operator="in"/><feComposite in="SourceGraphic"/></filter><filter id="drop-shadow-6" filterUnits="userSpaceOnUse"><feOffset/><feGaussianBlur result="blur-6" stdDeviation="4"/><feFlood flood-color="#000" flood-opacity=".3"/><feComposite in2="blur-6" operator="in"/><feComposite in="SourceGraphic"/></filter><style>.cls-1,.cls-2,.cls-3,.cls-4,.cls-5,.cls-6{isolation:isolate}.cls-1,.cls-5{font-size:10px}.cls-1,.cls-5,.cls-6{font-family:OpenSans-Semibold,&quot;Open Sans&quot;;font-weight:600}.cls-1,.cls-6{fill:#212121}.cls-4,.cls-5,.cls-8{fill:#fff}.cls-10{stroke:#e0e2e3;fill:none}.cls-2,.cls-4{font-family:OpenSans,&quot;Open Sans&quot;;font-size:12px}.cls-17{fill:#e0e2e3}.cls-22{letter-spacing:-.02em}.cls-24{fill:#f18336}.cls-6{font-size:14px}.cls-26{fill:#4a4f54}.cls-27{fill:#fcfcfc}</style></defs><path id="background" d="M0 0h360v360H0z" style="fill:none"/><g id="payroll_details" data-name="payroll details"><g id="image"><g id="details"><g style="filter:url(#drop-shadow-1)"><path id="background-7" d="M44.04 24.26h187.92c11.07 0 20.04 10.02 20.04 22.38v192.6c0 9.05-6.57 16.39-14.67 16.39H44.04c-11.07 0-20.04-10.02-20.04-22.38V46.64c0-12.36 8.97-22.38 20.04-22.38Z" class="cls-24"/></g><g id="card"><g style="filter:url(#drop-shadow-2)"><rect id="background-8" width="199.57" height="27.99" x="38.45" y="208.13" rx="5" ry="5" style="fill:#d12118"/></g><g id="_1:30pm-11-Feb" class="cls-3" data-name="1:30pm-11-Feb"><text class="cls-4" transform="translate(144.42 227.26)"><tspan x="0" y="0">1:30pm-11-Feb</tspan></text></g><g id="Confirm_By" class="cls-3" data-name="Confirm By"><text class="cls-4" transform="translate(47.42 226.26)"><tspan x="0" y="0">Confirm By</tspan></text></g></g><g id="card-2"><g style="filter:url(#drop-shadow-3)"><rect id="background-9" width="199.57" height="29.8" x="38.45" y="162.94" class="cls-27" rx="5" ry="5"/></g><g id="Payment_Type" class="cls-3" data-name="Payment Type"><text class="cls-2" transform="translate(47.42 183.26)"><tspan x="0" y="0">Payment Type</tspan></text></g><g id="One-off" class="cls-3"><text class="cls-2" transform="translate(184.06 181.91)"><tspan x="0" y="0">One-off</tspan></text></g></g><g id="card-3"><g style="filter:url(#drop-shadow-4)"><rect id="background-10" width="199.57" height="29.8" x="38.45" y="118.62" class="cls-27" rx="5" ry="5"/></g><g id="Pay" class="cls-3"><text class="cls-2" transform="translate(47.42 139.26)"><tspan x="0" y="0">Pay</tspan></text></g><g id="_0006-0007" class="cls-3" data-name="0006-0007"><text class="cls-2" transform="translate(160.67 137.58)"><tspan x="0" y="0">#0006-0007</tspan></text></g></g><g id="card-4" style="filter:url(#drop-shadow-5)"><rect id="background-11" width="199.57" height="29.8" x="38.45" y="75.16" class="cls-27" rx="5" ry="5"/><g id="Status" class="cls-3"><text class="cls-2" transform="translate(47.42 95.26)"><tspan x="0" y="0">Status</tspan></text></g><g id="Open" class="cls-3"><text class="cls-2" transform="translate(196.48 93.26)"><tspan x="0" y="0">Open</tspan></text></g></g><path id="divider" d="M24 62.71h228" style="stroke:#ff6d0e;fill:none"/><text id="Payroll_Details" class="cls-3" data-name="Payroll Details" style="font-family:Ubuntu-Bold,Ubuntu;font-size:18px;font-weight:700;fill:#fff;isolation:isolate" transform="translate(41.42 50.26)"><tspan x="0" y="0" class="cls-22">P</tspan><tspan x="11.23" y="0" style="letter-spacing:-.01em">a</tspan><tspan x="20.95" y="0" style="letter-spacing:0">y</tspan><tspan x="30.8" y="0" style="letter-spacing:0">r</tspan><tspan x="38.21" y="0">oll De</tspan><tspan x="88.61" y="0" class="cls-22">t</tspan><tspan x="96.25" y="0">ails</tspan></text><path id="caret" d="m222.77 42.04 4.87 4.97c.29.29.77.29 1.06 0l4.87-4.97c.25-.27.23-.68-.04-.93a.631.631 0 0 0-.49-.17h-9.74a.652.652 0 0 0-.7.61c-.01.18.05.36.17.49" class="cls-8"/></g><g id="dates" style="filter:url(#drop-shadow-6)"><path id="background-12" d="M183.95 208.13h144c4.42 0 8 4.13 8 9.22V326.9c0 5.09-3.58 9.22-8 9.22h-144c-4.42 0-8-4.13-8-9.22V217.35c0-5.09 3.58-9.22 8-9.22Z" class="cls-8"/><g id="date"><g id="Rectangle_911" data-name="Rectangle 911"><path d="M214.95 302.13h84v17h-84z" class="cls-8"/><path d="M215.45 302.63h83v18h-83z" class="cls-10"/></g><path id="Rectangle_910" d="M195.95 302.13h21v18.97h-21c-2.76 0-5-2.5-5-5.58v-7.81c0-3.08 2.24-5.58 5-5.58Z" class="cls-24" data-name="Rectangle 910"/><path id="Rectangle_912" d="M298.95 302.13h17c2.76 0 5 2.5 5 5.58v7.81c0 3.08-2.24 5.58-5 5.58h-17v-18.97Z" class="cls-17" data-name="Rectangle 912"/><path id="calendar" d="M313.48 306.22h-.67c0-.55-.45-1-1-1s-1 .45-1 1h-2.68c0-.55-.45-1-1-1s-1 .45-1 1h-.67c-.74 0-1.34.6-1.34 1.34v6.69c0 .37.3.67.67.67h9.36c.37 0 .67-.3.67-.67v-6.69c0-.74-.6-1.34-1.34-1.34m-2 .06c0-.18.15-.33.33-.33s.33.15.33.33v.66c0 .18-.15.33-.33.33s-.33-.15-.33-.33v-.66Zm-4.7 0c0-.18.15-.33.33-.33s.33.15.33.33v.66c0 .18-.15.33-.33.33s-.33-.15-.33-.33v-.66Zm7.36 7.96h-9.36v-4.68h9.36v4.68Zm0-5.35h-9.36v-1.33c0-.37.3-.67.67-.67h.66v.06c0 .56.45 1.01 1.01 1.01s1.01-.45 1.01-1.01v-.06h2.67v.06c0 .56.45 1.01 1.01 1.01s1.01-.45 1.01-1.01v-.06h.66c.37 0 .67.3.67.67v1.34Z" class="cls-26"/><g id="_25-Aug-2021" class="cls-3" data-name="25-Aug-2021"><text class="cls-1" transform="translate(221.95 315.13)"><tspan x="0" y="0">25-Aug-2023</tspan></text></g><g id="Wed" class="cls-3"><text class="cls-5" transform="translate(198.95 314.13)"><tspan x="0" y="0">Fri</tspan></text></g></g><g id="Confirm_by_1:30pm" class="cls-3" data-name="Confirm by 1:30pm"><text class="cls-6" transform="translate(190.95 292.13)"><tspan x="0" y="0">Confirm by 1:30pm</tspan></text></g><g id="date-2"><g id="Rectangle_911-2" data-name="Rectangle 911-2"><path d="M214.95 245.13h84v17h-84z" class="cls-8"/><path d="M215.45 245.13h83v18h-83z" class="cls-10"/></g><path id="Rectangle_910-2" d="M195.95 244.64h21v18.97h-21c-2.76 0-5-2.5-5-5.58v-7.81c0-3.08 2.24-5.58 5-5.58Z" data-name="Rectangle 910-2" style="fill:#029edc"/><path id="Rectangle_912-2" d="M298.95 244.62h17c2.76 0 5 2.5 5 5.58v7.81c0 3.08-2.24 5.58-5 5.58h-17v-18.97Z" class="cls-17" data-name="Rectangle 912-2"/><path id="calendar-2" d="M313.48 250.22h-.67c0-.55-.45-1-1-1s-1 .45-1 1h-2.68c0-.55-.45-1-1-1s-1 .45-1 1h-.67c-.74 0-1.34.6-1.34 1.34v6.69c0 .37.3.67.67.67h9.36c.37 0 .67-.3.67-.67v-6.69c0-.74-.6-1.34-1.34-1.34m-2 .06c0-.18.15-.33.33-.33s.33.15.33.33v.66c0 .18-.15.33-.33.33s-.33-.15-.33-.33v-.66Zm-4.7 0c0-.18.15-.33.33-.33s.33.15.33.33v.66c0 .18-.15.33-.33.33s-.33-.15-.33-.33v-.66Zm7.36 7.96h-9.36v-4.68h9.36v4.68Zm0-5.35h-9.36v-1.33c0-.37.3-.67.67-.67h.66v.06c0 .56.45 1.01 1.01 1.01s1.01-.45 1.01-1.01v-.06h2.67v.06c0 .56.45 1.01 1.01 1.01s1.01-.45 1.01-1.01v-.06h.66c.37 0 .67.3.67.67v1.34Z" class="cls-26"/><g id="_25-Aug-2021-2" class="cls-3" data-name="25-Aug-2021-2"><text class="cls-1" transform="translate(221.95 257.13)"><tspan x="0" y="0">25-Aug-2023</tspan></text></g><g id="Wed-2" class="cls-3"><text class="cls-5" transform="translate(198.95 257.13)"><tspan x="0" y="0">Fri</tspan></text></g></g><g id="Date_of_Payment" class="cls-3" data-name="Date of Payment"><text class="cls-6" transform="translate(191.95 235.13)"><tspan x="0" y="0">Date of Payment</tspan></text></g></g></g></g></svg>