<svg class="product-illustration" aria-hidden="true" aria-labelledby="reporting-suite" xmlns="http://www.w3.org/2000/svg" viewBox="0 0 32 32"><title id="reporting-suite">Reporting suite</title><g id="reporting_suite"><g id="pages"><path d="M27.77 3.07c.22.18.37.43.37.72v25.17c0 .54-.47.97-1.06.97H7.18c-.09 0-.17 0-.25-.03.19.15.43.38.69.38h19.91c.58 0 1.06-.58 1.06-1.12V4c0-.46-.35-.82-.81-.93Z" fill="var(--page-shadow)"/><path d="M27.08 2.82h-1.06v24.44c0 .54-.47.97-1.06.97H6.12v.73c0 .54.47.97 1.06.97h19.9c.58 0 1.06-.44 1.06-.97V3.79c0-.54-.47-.97-1.06-.97Z" fill="var(--page)"/><path d="M25.65.29c.22.18.37.44.37.74V27c0 .55-.47 1-1.06 1H5.06c-.09 0-.17 0-.25-.02.19.16.43.33.69.33h19.91c.58 0 1.06-.55 1.06-1.11V1.25c0-.47-.35-.85-.81-.96Z" fill="var(--page-shadow)"/><rect width="22.02" height="27.97" x="4" y=".03" fill="var(--page)"/> rx="1" ry="1"/></g><g id="content"><path d="M3.14 2.94h3.13c.28 0 .5.22.5.5v1.28c0 .28-.22.5-.5.5H3.14a1.14 1.14 0 1 1 0-2.28Z" fill="var(--tab)"/><path d="M6.32 2.94h-.66c.32 0 .58.29.58.66v.96c0 .36-.26.66-.58.66h.66c.24 0 .44-.22.44-.5V3.44c0-.28-.2-.5-.44-.5ZM10.45 6.76v3.44s-.05.01-.08.02c.03 0 .05-.02.08-.02.75 0 1.36.61 1.36 1.36 0 .36-.15.69-.38.93l2.54 2.31c-.43.46 1.28-1.31 1.28-3.24 0-2.65-2.15-4.8-4.8-4.8Z" fill="var(--graph-one)"/><path d="M10.99 12.8Z" fill="var(--tab-shadow)"/><path d="M11.43 12.49c-.25.26-.59.42-.98.42a1.36 1.36 0 0 1-.01-2.72V6.75c-2.65 0-4.79 2.15-4.79 4.79s2.15 4.8 4.8 4.8c1.39 0 2.64-.6 3.51-1.55l-2.54-2.31Z" fill="var(--graph-two)"/><rect width="7.97" height="1" x="16.37" y="12.98" rx=".5" ry=".5" fill="var(--page-line)"/><rect width="4.98" height="1" x="16.37" y="15.12" rx=".5" ry=".5" fill="var(--page-line)"/><rect width="7.97" height="1" x="16.37" y="10.82" rx=".5" ry=".5" fill="var(--page-line)"/><rect width="4.98" height="1.5" x="16.37" y="5.26" rx=".21" ry=".21" fill="var(--page-title)"/><path d="M23.79 16.95a.56.56 0 0 0-.56.56v8.1H6.2a.56.56 0 1 0 0 1.12h18.15v-9.22a.56.56 0 0 0-.56-.56Z" fill="var(--graph-three)"/><path d="M22.19 18.78c-.2-.2-.51-.2-.71 0l-2.16 2.16-2.8-1.09a.522.522 0 0 0-.21-.04c-.04 0-.07.01-.1.02-.03 0-.05 0-.08.02-.07.03-.13.07-.18.12l-.11.11-2.71 2.7-2.79-1.09c-.1-.04-.2-.04-.3-.01-.1.02-.2.05-.28.13l-2.37 2.37c-.2.2-.2.51 0 .71.2.2.51.2.71 0l2.16-2.16 2.8 1.09c.07.03.14.04.21.04.04 0 .07-.01.1-.02.03 0 .05 0 .08-.02.07-.03.13-.07.18-.12l.11-.11 2.71-2.7 2.79 1.09c.1.04.2.04.3.01.1-.02.2-.05.28-.13l2.37-2.37c.2-.2.2-.51 0-.71Z" fill="var(--graph-four)"/><rect width="4.98" height="1.5" x="16.37" y="7.5" rx=".21" ry=".21" fill="var(--page-title)"/></g><path id="background" d="M0 0h32v32H0z" fill="none"/></g></svg>