<svg class="product-illustration" aria-hidden="true" aria-labelledby="security" xmlns="http://www.w3.org/2000/svg" viewBox="0 0 32 32.01"><title id="security">Security</title><g id="security"><g id="laptop"><path d="M31.76 28.64H.23l3.68-2.82 24.02.03 3.83 2.79z" fill="var(--keyboard)"/><path d="M28.34 27H3.66l.84-.8 22.79.01 1.05.79zM19.75 28.26h-7.61l.19-.8 7.06.01.36.79z" fill="var(--keys)"/><path d="M.23 28.64h31.53v1.08c0 .14-.11.25-.25.25H.48c-.14 0-.25-.11-.25-.25v-1.08Z" fill="var(--keyboard-shadow)"/><path d="M5 9.73h22c.55 0 1 .45 1 1v15.1H4v-15.1c0-.55.45-1 1-1Z" fill="var(--monitor)"/><path d="M4.96 10.71h22.07v14.15H4.96z" fill="var(--screen)"/><path d="M25.23 10.71H4.96v14.15H8.4c4.99-5.29 10.64-10.04 16.83-14.15Z" fill="var(--screen-shadow)"/></g><g id="loading"><rect x="8.58" y="20.02" width="15.39" height="2.72" rx="1.36" ry="1.36" fill="var(--display)"/><rect class="cls-9" x="10.48" y="20.82" width="1.12" height="1.12" rx=".1" ry=".1" fill="var(--digit)"/><rect class="cls-9" x="12.72" y="20.82" width="1.12" height="1.12" rx=".1" ry=".1" fill="var(--digit)"/><rect class="cls-9" x="14.96" y="20.82" width="1.12" height="1.12" rx=".1" ry=".1" fill="var(--digit)"/><rect class="cls-9" x="17.19" y="20.82" width="1.12" height="1.12" rx=".1" ry=".1" fill="var(--digit)"/></g><g id="shield"><path d="M21.84 3.11h-.56l-.03 7.95s-.05 2.02-2.02 3.37a30.43 30.43 0 0 1-3.71 2.16c.32.17.52.28.52.28s2.14-1.11 4.03-2.4c1.94-1.32 1.73-3.64 1.73-3.64l.04-7.72Z" fill="var(--shield-two)"/><path d="M21.29 3.11h-1.67c-.65 0-1.29 0-1.89-.26l-1.69-.87-1.69.87c-.59.26-1.24.26-1.89.26H10.3l.04 7.72s-.21 2.32 1.71 3.64c1.87 1.29 3.54 2.16 3.54 2.16s1.82-.87 3.69-2.16c1.92-1.32 1.96-3.31 1.96-3.31l.04-8.06Z" fill="var(--shield-one)"/><g id="padlock"><path d="M13.77 7.74h.68l.02-.81v-.02c0-.9.68-1.69 1.58-1.69s1.68.79 1.68 1.69v.02l-.02.81h.62V6.79a2.279 2.279 0 1 0-4.56 0V7.74Z" fill="var(--padlock-upper)"/><path d="M13.12 7.5h5.85v3.78c0 .6-.48 1.08-1.08 1.08h-3.7c-.6 0-1.08-.48-1.08-1.08V7.5Z" fill="var(--padlock-lower)"/><path d="M16.71 9.4a.66.66 0 1 0-1.04.54l-.13.89c0 .14.11.25.25.25h.51c.14 0 .25-.11.25-.25l-.13-.88c.18-.12.3-.32.3-.55Z" fill="var(--padlock-key)"/></g></g><path fill="none" d="M0 0h32v32H0z"/></g></svg>