<svg class="product-illustration" aria-hidden="true" aria-labelledby="tanda" xmlns="http://www.w3.org/2000/svg" viewBox="0 0 32 32"><title id="tanda">Tanda</title><path d="M5.46,14.41h-1.64s-.2,.06-.22,.27l-.4,4.76s0,.33-.23,.33H1.84s-.23,0-.19-.31l.42-4.74s.04-.31-.23-.31H.23s-.25,.02-.23-.31l.06-.63s0-.27,.31-.27H5.53s.27,.01,.28,.13l-.05,.84s-.03,.22-.3,.23h0Zm5.64,4.96l-1.95-5.95c-.08-.19-.27-.19-.27-.19h-1.2c-.2,.02-.28,.22-.28,.22l-2.99,6.12c-.04,.19,.19,.2,.19,.2h.97c.3,0,.38-.21,.38-.21l.49-1.06c.09-.22,.35-.21,.35-.21h2.13c.23,0,.3,.14,.3,.14l.32,1.04c.07,.29,.33,.29,.33,.29h1.05c.32-.04,.18-.41,.18-.41Zm-2.52-2.12h-1.3s-.22-.04-.15-.26l.85-1.84s.03-.1,.15-.1c0,0,.08-.02,.13,.15l.52,1.72s.1,.31-.21,.33Zm23.39,2.12l-1.95-5.95c-.08-.19-.27-.19-.27-.19h-1.2c-.2,.02-.28,.22-.28,.22l-2.99,6.12c-.04,.19,.19,.2,.19,.2h.97c.3,0,.38-.21,.38-.21l.49-1.06c.09-.22,.35-.21,.35-.21h2.13c.23,0,.3,.14,.3,.14l.32,1.04c.07,.29,.33,.29,.33,.29h1.05c.32-.04,.18-.41,.18-.41Zm-2.52-2.12h-1.3s-.22-.04-.15-.26l.85-1.84s.03-.1,.15-.1c0,0,.08-.02,.13,.15l.52,1.72s.1,.31-.21,.33Zm-17.46,2.29c0,.22,.2,.23,.2,.23h.98c.2,0,.24-.2,.24-.2l.25-3.21-1.3-2.14-.38,5.31h0Zm6.17-6.86h-.92c-.29,0-.29,.29-.29,.29l-.27,4.13c0,.12-.04,.19-.06,.23-.02,.03-.05,.04-.09,.03-.09-.03-.17-.15-.17-.15l-2.23-3.69c-.15-.31-.34-.29-.34-.29h-1.11c-.13,0-.18,.09-.18,.09l3.76,6.22c.06,.12,.18,.19,.25,.22,.03,.01,.09,.02,.09,.02h1.06c.28-.02,.29-.22,.29-.22l.43-6.69c-.01-.19-.23-.2-.23-.2Zm7.07,2.07c-.06-.14-.22-.41-.29-.5-.8-1.06-2.36-1.02-2.36-1.02h-2.84c-.28,0-.28,.24-.28,.24l-.39,5.97c-.03,.36,.24,.34,.24,.34h2.8c2.18,.1,2.96-1.63,2.96-1.63,.78-1.66,.38-2.92,.17-3.4Zm-2.62,3.77s-.32,.05-.43,.05h-1.21s-.31,0-.27-.33l.23-3.61s-.02-.18,.35-.21h1.02s1.28-.01,1.6,1.17c.02,.06,.05,.25,.06,.35,.04,.52,.07,2.21-1.35,2.57h0Z" fill="#3DB1D8"/><rect fill="none" x="0" width="32" height="32"/></svg>