<svg class="product-illustration" aria-hidden="true" aria-labelledby="testimonials" xmlns="http://www.w3.org/2000/svg" viewBox="0 0 32 32"><title id="testimonials">Testimonials</title><g id="testimonials"><path d="m26.67 27.93-1.83 2.09h1.34l1.68-2.09h-1.19zM30.59 6.02h-1.13c.76 0 1.37.61 1.37 1.37v19.17c0 .76-.61 1.37-1.37 1.37h1.13c.76 0 1.37-.61 1.37-1.37V7.39c0-.76-.61-1.37-1.37-1.37Z" fill="var(--bubble)"/><path d="M29.46 6.02H1.37C.61 6.02 0 6.63 0 7.39v19.17c0 .76.61 1.37 1.37 1.37h21.45l2.02 2.09 1.83-2.09h2.79c.76 0 1.37-.61 1.37-1.37V7.39c0-.76-.61-1.37-1.37-1.37Z" fill="var(--bubble-shadow)"/><path d="M2.86 12.66h4.21v1.31H2.86zM7.83 12.66h14.4v1.31H7.83zM2.86 14.79h19.37v1.31H2.86zM5.22 18.31H16.6v1.31H5.22zM17.82 18.31h3.13v1.31h-3.13zM5.22 20.82h17v1.31h-17zM5.22 23.33h20.41v1.31H5.22zM1.93 20.19c0-.06-.01-.13-.02-.19s0-.11 0-.15a2.941 2.941 0 0 1 .42-1.52l.52.16c-.06.19-.11.4-.15.64-.04.24-.06.46-.06.68v.39h-.72ZM3.2 20.19c0-.06-.01-.13-.02-.19s0-.11 0-.15a2.941 2.941 0 0 1 .42-1.52l.52.16c-.06.19-.11.4-.15.64-.04.24-.06.46-.06.68v.39h-.72ZM28.9 24.64c0-.06.01-.13.02-.19s0-.11 0-.15a2.941 2.941 0 0 0-.42-1.52l-.52.16c.06.19.11.4.15.64.04.24.06.46.06.68v.39h.72ZM27.63 24.64c0-.06.01-.13.02-.19s0-.11 0-.15a2.941 2.941 0 0 0-.42-1.52l-.52.16c.06.19.11.4.15.64.04.24.06.46.06.68v.39h.72Z" fill="var(--bubble-text)"/><g><rect x="3.48" y="2.03" width="25.04" height="7.98" rx="2.17" ry="2.17" fill="var(--stars-background)"/><path d="m7.68 4.07.64 1.28 1.42.21-1.03 1 .25 1.42-1.28-.67-1.27.67.24-1.42-1.02-1 1.42-.21.63-1.28zM13.27 4.07l.64 1.28 1.42.21-1.03 1 .25 1.42-1.28-.67-1.27.67.25-1.42-1.03-1 1.42-.21.63-1.28zM18.82 4.07l.64 1.28 1.42.21-1.03 1 .24 1.42-1.27-.67-1.27.67.24-1.42-1.03-1 1.43-.21.63-1.28zM24.31 4.07l.64 1.28 1.42.21-1.03 1 .24 1.42-1.27-.67-1.27.67.24-1.42-1.03-1 1.43-.21.63-1.28z" fill="var(--stars)"/></g><path fill="none" d="M0 0h31.96v32H0z"/></g></svg>