<svg class="product-illustration" aria-hidden="true" aria-labelledby="xero" xmlns="http://www.w3.org/2000/svg" viewBox="0 0 360 360"><title id="xero">Xero Integration</title><defs><filter id="drop-shadow-1" filterUnits="userSpaceOnUse"><feOffset/><feGaussianBlur result="blur" stdDeviation="4"/><feFlood flood-color="#000" flood-opacity=".3"/><feComposite in2="blur" operator="in"/><feComposite in="SourceGraphic"/></filter><filter id="drop-shadow-2" filterUnits="userSpaceOnUse"><feOffset/><feGaussianBlur result="blur-2" stdDeviation="4"/><feFlood flood-color="#000" flood-opacity=".3"/><feComposite in2="blur-2" operator="in"/><feComposite in="SourceGraphic"/></filter><filter id="drop-shadow-3" filterUnits="userSpaceOnUse"><feOffset/><feGaussianBlur result="blur-3" stdDeviation="2"/><feFlood flood-color="#000" flood-opacity=".3"/><feComposite in2="blur-3" operator="in"/><feComposite in="SourceGraphic"/></filter><filter id="drop-shadow-4" filterUnits="userSpaceOnUse"><feOffset/><feGaussianBlur result="blur-4" stdDeviation="4"/><feFlood flood-color="#000" flood-opacity=".3"/><feComposite in2="blur-4" operator="in"/><feComposite in="SourceGraphic"/></filter><filter id="drop-shadow-5" filterUnits="userSpaceOnUse"><feOffset/><feGaussianBlur result="blur-5" stdDeviation="4"/><feFlood flood-color="#000" flood-opacity=".3"/><feComposite in2="blur-5" operator="in"/><feComposite in="SourceGraphic"/></filter><linearGradient id="linear-gradient" x1="374.72" x2="374.79" y1="779.08" y2="779.08" gradientTransform="matrix(32.21 0 0 -32.37 -11795.39 25284)" gradientUnits="userSpaceOnUse"><stop offset="0" stop-color="#0f8ece"/><stop offset="0" stop-color="#0f8ece"/><stop offset="1" stop-color="#4db9e3"/></linearGradient><linearGradient id="linear-gradient-2" x1="366.81" x2="367" y1="779.23" y2="779.23" gradientTransform="matrix(12.06 0 0 -36.8 -4150.01 28730.29)" gradientUnits="userSpaceOnUse"><stop offset="0" stop-color="#ed5723"/><stop offset="1" stop-color="#f37920"/></linearGradient><clipPath id="clippath"><path d="m289.32 50.18-8.14 4.47a5.26 5.26 0 0 0-2.48 2.98c0 .12-.06.18-.06.31s-.07.25-.07.37-.06.31-.06.44v.81c-.02.42.03.84.13 1.24s.13.3.13.3c.41 1.28 1.3 2.34 2.48 2.98l27.01 15.25a5.21 5.21 0 0 1-2.55-4.37v-9.57l-9.43-5.28c-.07 0-.19-.06-.19-.12l-.06-.06a.84.84 0 0 1-.26-.68c-.01-.23.08-.46.26-.62.16-.15.31-.32.44-.5.43-.58.75-1.23.96-1.93a5.43 5.43 0 0 0-.51-4.1 5.266 5.266 0 0 0-3.38-2.49 5.575 5.575 0 0 0-4.21.55" class="cls-23"/></clipPath><clipPath id="clippath-1"><path d="m305.75 43.9-.06 19.33 8.28 4.66c1.62.95 2.69 2.61 2.86 4.48V43.91a5.54 5.54 0 1 0-11.08 0" class="cls-23"/></clipPath><style>.cls-2,.cls-3{fill:#fff}.cls-6{opacity:.96}.cls-3,.cls-6,.cls-7,.cls-9{isolation:isolate}.cls-3{font-family:OpenSans-Semibold,&quot;Open Sans&quot;;font-weight:600}.cls-3,.cls-9{font-size:12px}.cls-14,.cls-9{fill:#212121}.cls-15{fill:#bdbdbd}.cls-9{font-family:OpenSans,&quot;Open Sans&quot;}.cls-20{fill:#11acde}.cls-22{stroke:#e1e1e1}.cls-22,.cls-23{fill:none}.cls-28{fill:#4a4f54}</style></defs><path id="background" d="M0 0h360v360H0z" class="cls-23"/><g id="xero_integration" data-name="xero integration"><g id="image"><g id="Accounts"><g style="filter:url(#drop-shadow-1)"><path id="background-5" d="M34.83 87.62h272.4c4.42 0 8 3.9 8 8.71v231.3c0 4.81-3.58 8.71-8 8.71H34.83c-4.42 0-8-3.9-8-8.71V96.33c0-4.81 3.58-8.71 8-8.71Z" class="cls-28"/></g><g id="table"><g style="filter:url(#drop-shadow-2)"><path id="background-6" d="M43.08 100.16h255.95c2.21 0 4 1.97 4 4.4v213.15c0 2.43-1.79 4.4-4 4.4H43.08c-2.21 0-4-1.97-4-4.4V104.56c0-2.43 1.79-4.4 4-4.4Z" class="cls-2"/></g><g id="row"><path id="divider" d="M53.34 300.95h237.12" class="cls-22"/><g id="None" class="cls-7"><text class="cls-9" transform="translate(231.98 289.74)"><tspan x="0" y="0">None</tspan></text></g><g id="Depreciation" class="cls-7"><text class="cls-9" transform="translate(107.27 289.74)"><tspan x="0" y="0">Depreciation</tspan></text></g><g id="_416" class="cls-7" data-name="416"><text class="cls-9" transform="translate(62.89 289.74)"><tspan x="0" y="0">416</tspan></text></g></g><g id="row-2"><path id="divider-2" d="M53.34 267.37h237.12" class="cls-22"/><g id="None-2" class="cls-7"><text class="cls-9" transform="translate(231.98 256.38)"><tspan x="0" y="0">None</tspan></text></g><g id="Bank_Fees" class="cls-7" data-name="Bank Fees"><text class="cls-9" transform="translate(107.27 256.38)"><tspan x="0" y="0">Bank Fees</tspan></text></g><g id="_404" class="cls-7" data-name="404"><text class="cls-9" transform="translate(62.89 256.38)"><tspan x="0" y="0">404</tspan></text></g></g><g id="row-3"><path id="divider-3" d="M53.34 235.78h237.12" class="cls-22"/><g id="None-3" class="cls-7"><text class="cls-9" transform="translate(231.98 225.01)"><tspan x="0" y="0">None</tspan></text></g><g id="Interest_Income" class="cls-7" data-name="Interest Income"><text class="cls-9" transform="translate(107.27 225.01)"><tspan x="0" y="0">Interest Income</tspan></text></g><g id="_270" class="cls-7" data-name="270"><text class="cls-9" transform="translate(62.89 225.01)"><tspan x="0" y="0">270</tspan></text></g></g><g id="row-4"><path id="divider-4" d="M53.34 204.46h237.12" class="cls-22"/><g id="Output_2" class="cls-7" data-name="Output 2"><text class="cls-9" transform="translate(231.98 192.77)"><tspan x="0" y="0">Output 2</tspan></text></g><g id="Sales" class="cls-7"><text class="cls-9" transform="translate(107.27 192.77)"><tspan x="0" y="0">Sales</tspan></text></g><g id="_200" class="cls-7" data-name="200"><text class="cls-9" transform="translate(62.89 192.77)"><tspan x="0" y="0">200</tspan></text></g></g><g id="header"><g style="filter:url(#drop-shadow-3)"><path id="Rectangle_45-2" d="M53.06 150.41h236.65v22.87H53.06z" data-name="Rectangle 45-2" style="fill:#169fe9"/></g><g id="Tax_Type" class="cls-6" data-name="Tax Type"><text class="cls-3" transform="translate(231.47 165.47)"><tspan x="0" y="0">Tax Type</tspan></text></g><g id="Name" class="cls-6"><text class="cls-3" transform="translate(107.83 165.77)"><tspan x="0" y="0">Name</tspan></text></g><g id="Code" class="cls-6"><text class="cls-3" transform="translate(61.47 165.77)"><tspan x="0" y="0">Code</tspan></text></g></g></g><path id="divider-5" d="M39.28 138.38h263.97" class="cls-22"/><text id="Xero_Accounts" class="cls-7" data-name="Xero Accounts" style="fill:#212121;font-family:Ubuntu-Bold,Ubuntu;font-size:18px;font-weight:700;isolation:isolate" transform="translate(54.92 125.66)"><tspan x="0" y="0" style="letter-spacing:-.03em">X</tspan><tspan x="11.61" y="0" style="letter-spacing:0">e</tspan><tspan x="22.12" y="0" style="letter-spacing:0">r</tspan><tspan x="29.54" y="0">o </tspan><tspan x="44.78" y="0" style="letter-spacing:-.01em">A</tspan><tspan x="57.56" y="0" style="letter-spacing:-.02em">cc</tspan><tspan x="74.66" y="0">ounts</tspan></text></g><ellipse cx="161.9" cy="60.24" rx="34.71" ry="35.06" style="filter:url(#drop-shadow-4);fill:#fff"/><g id="logos" style="opacity:.98"><g id="logos-2"><g id="plug"><g id="female"><path id="cord-2" d="M257.87 57.62h22.7v3.16h-22.7z" class="cls-28"/><path id="Path_745-2" d="M252.55 55.92h3.96c1.15.03 2.05.99 2.02 2.14v2.41c.03 1.13-.86 2.07-1.99 2.1h-3.99v-6.65Z" class="cls-14" data-name="Path 745-2"/><path id="Path_746-2" d="M246.31 50.86h-6.35v16.81h6.59a8.061 8.061 0 0 0 7.82-8.28c.13-4.58-3.48-8.4-8.07-8.53m.94 10.26c-1.03.06-1.91-.74-1.97-1.77s.74-1.91 1.77-1.97c1.03-.06 1.91.74 1.97 1.77v.1c.03 1-.77 1.84-1.77 1.87" class="cls-28" data-name="Path 746-2"/></g><g id="male"><path id="cord-3" d="M186.52 57.69h22.59v3.12h-22.59z" class="cls-28"/><path id="Path_740-2" d="M227.82 48.4c.69.02 1.25.59 1.23 1.29v19.02c.05.68-.46 1.27-1.13 1.32-.68.05-1.27-.46-1.32-1.13V49.69c-.02-.69.53-1.27 1.23-1.29" class="cls-14" data-name="Path 740-2"/><path id="Path_741-2" d="M214.16 55.98h-3.96c-1.14.02-2.04.97-2.02 2.11v2.38c-.02 1.12.87 2.05 1.99 2.08h3.99v-6.56Z" class="cls-14" data-name="Path 741-2"/><path id="Path_742-2" d="M220 67.58h6.59v-16.6h-6.35c-4.55.1-8.16 3.87-8.07 8.43a8.004 8.004 0 0 0 7.82 8.17" class="cls-28" data-name="Path 742-2"/><path id="Path_743-2" d="M229.05 54.07h5.5c.41 0 .73.35.72.75v.04c0 .41-.31.74-.72.75h-5.5v-1.54Z" class="cls-15" data-name="Path 743-2"/><path id="Path_744-2" d="M229.05 62.91h5.5c.41 0 .73.35.72.75v.04c0 .41-.31.74-.72.75h-5.5v-1.54Z" class="cls-15" data-name="Path 744-2"/></g></g><g id="cloudPayroll"><path id="background-7" d="M299.67 23.4c19.79 0 35.84 16.05 35.84 35.84 0 19.79-16.05 35.84-35.84 35.84-19.79 0-35.84-16.05-35.84-35.84 0-19.79 16.05-35.84 35.84-35.84Z" style="filter:url(#drop-shadow-5);fill:#fff"/><g id="cloudPayroll-2" data-name="cloudPayroll"><path id="background-2" d="M273.67 35.25h48v48h-48z" class="cls-23" data-name="background"/><g style="clip-path:url(#clippath)"><g id="blue"><path id="Rectangle_96" d="M278.49 49.43h29.77v29.91h-29.77z" data-name="Rectangle 96" style="fill:url(#linear-gradient)"/></g></g><path id="dark_purple" d="M311.16 80.13c1.11 0 2.2-.32 3.12-.93a5.425 5.425 0 0 0 2.48-4.97 5.328 5.328 0 0 0-2.74-4.22l-8.34-4.6v9.45c0 1.79.91 3.46 2.42 4.41.91.57 1.97.87 3.05.87" data-name="dark purple" style="fill:#131e34"/><path id="purple" d="M316.78 71.98a5.901 5.901 0 0 0-2.88-4.14c-2.08-1.2-8.21-4.62-8.21-4.62v2.18l8.45 4.67a5.34 5.34 0 0 1 2.64 4.46v-2.55Z" style="fill:#55698f"/><g style="clip-path:url(#clippath-1)"><g id="orange"><path id="Rectangle_98" d="M305.69 38.36h11.15v34h-11.15z" data-name="Rectangle 98" style="fill:url(#linear-gradient-2)"/></g></g></g></g><g id="xero"><circle id="background-8" cx="161.9" cy="60.34" r="33.77" class="cls-2"/><path id="circle" d="M161.99 24.63c-19.69 0-35.66 15.96-35.66 35.66s15.96 35.66 35.66 35.66 35.66-15.96 35.66-35.66-15.96-35.66-35.66-35.66m-12.53 43.19c-.43.42-1.12.4-1.54-.03l-6.08-6.07-6.09 6.09c-.2.21-.48.32-.77.32-.6 0-1.09-.48-1.09-1.08 0-.3.12-.58.33-.79l6.08-6.09-6.09-6.08c-.43-.43-.43-1.12 0-1.55s1.12-.43 1.55 0l6.11 6.09 6.08-6.08c.43-.43 1.12-.43 1.55 0 .43.43.43 1.12 0 1.55l-6.09 6.09 6.08 6.09c.42.44.4 1.13-.03 1.55m13.89-6.75h-11.38c0 .05.01.11.01.17.06.31.14.62.25.92A5.868 5.868 0 0 0 157.7 66c.93 0 1.85-.24 2.67-.68.59-.34 1.12-.77 1.58-1.27.13-.16.26-.33.38-.5l.07-.1c.38-.47 1.07-.54 1.54-.15.49.43.54 1.18.12 1.67l-.04.04c-.57.75-1.26 1.4-2.05 1.93-.73.47-1.54.81-2.39 1.02-.94.25-1.92.31-2.88.19a8.07 8.07 0 0 1-6.79-5.98c-.16-.63-.24-1.28-.23-1.93-.04-4.41 3.5-8.01 7.91-8.06a7.966 7.966 0 0 1 7.91 6.48v.02c.04.19.05.38.04.58a2.02 2.02 0 0 1-2.2 1.82m9.17-6.56c-2.37.3-2.62 1.41-2.62 4.17v8.28c0 .6-.49 1.09-1.09 1.09-.6 0-1.09-.49-1.09-1.09V53.5c0-.59.49-1.08 1.08-1.07.51 0 .96.36 1.07.86.8-.62 1.78-.95 2.79-.94h.33c.6 0 1.09.49 1.09 1.09v.03a1.08 1.08 0 0 1-1.11 1.04c-.15 0-.3 0-.46.02m9.04 13.68c-4.42-.05-7.95-3.68-7.9-8.09a7.995 7.995 0 0 1 7.9-7.9c4.42-.05 8.04 3.48 8.09 7.9s-3.48 8.04-7.9 8.09h-.19" class="cls-20"/><path id="e" d="M159.08 54.6a5.773 5.773 0 0 0-7.02 4.17v.09h11.22a5.776 5.776 0 0 0-4.19-4.26" class="cls-20"/><path id="o" d="M181.55 54.44a5.74 5.74 0 0 0 0 11.48 5.74 5.74 0 0 0 0-11.48m0 7.72c-1.09 0-1.98-.89-1.98-1.98s.89-1.98 1.98-1.98 1.98.89 1.98 1.98-.89 1.98-1.98 1.98" class="cls-20"/></g></g></g></g></g></svg>