<svg role="image" aria-labelledby="logo-vertical" class="cloudpayroll-logo" xmlns="http://www.w3.org/2000/svg" x="0" y="0" viewBox="0 0 595.3 841.9" style="enable-background:new 0 0 595.3 841.9" xml:space="preserve"><style>.st0,.st1{fill:#4a4f54}.st1{fill-rule:evenodd;clip-rule:evenodd}</style><title id="logo-vertical">Cloudpayroll</title><path class="st0" d="M85.1 546.3c-8.9 0-15.7-2.5-20.4-7.4-4.7-5-7-12-7-21.1 0-4.5.7-8.6 2.1-12.2 1.4-3.6 3.4-6.6 5.9-9 2.5-2.5 5.4-4.3 8.9-5.6 3.4-1.3 7.1-1.9 11.2-1.9 2.3 0 4.4.2 6.3.5s3.6.7 5 1.2c1.4.4 2.6.9 3.6 1.4.9.5 1.6.8 2.1 1.1l-3.6 10c-1.7-.9-3.7-1.7-5.9-2.3-2.2-.6-4.8-.9-7.6-.9-1.9 0-3.8.3-5.6.9-1.8.6-3.4 1.6-4.8 3s-2.5 3.2-3.4 5.4c-.8 2.2-1.3 4.9-1.3 8.1 0 2.5.3 4.9.8 7.1.6 2.2 1.5 4.1 2.7 5.7 1.2 1.6 2.9 2.8 4.9 3.8 2 .9 4.4 1.4 7.3 1.4 1.8 0 3.4-.1 4.8-.3s2.7-.5 3.8-.8c1.1-.3 2.1-.6 2.9-1s1.6-.7 2.3-1l3.4 9.9c-1.7 1.1-4.2 2-7.4 2.8-3.1.7-6.8 1.2-11 1.2zM127.3 545.9c-3.4-.1-6.2-.4-8.4-1.1-2.1-.7-3.8-1.6-5.1-2.9-1.2-1.2-2.1-2.7-2.5-4.5s-.7-3.8-.7-6v-45.8l11.8-1.9v45.4c0 1.1.1 2 .2 2.8.2.8.5 1.6.9 2.1.4.6 1.1 1.1 1.9 1.4.8.4 2 .6 3.4.7l-1.5 9.8zM174.6 524.3c0 3.3-.5 6.3-1.4 9s-2.3 5-4.1 7c-1.8 1.9-3.9 3.4-6.5 4.5-2.5 1.1-5.3 1.6-8.4 1.6-3.1 0-5.8-.5-8.4-1.6-2.5-1.1-4.7-2.5-6.5-4.5-1.8-1.9-3.2-4.2-4.2-7-1-2.7-1.5-5.7-1.5-9s.5-6.3 1.5-8.9c1-2.7 2.5-5 4.3-6.9s4-3.4 6.5-4.4c2.5-1.1 5.2-1.6 8.2-1.6s5.8.5 8.3 1.6 4.7 2.5 6.5 4.4 3.2 4.2 4.2 6.9c1 2.6 1.5 5.6 1.5 8.9zm-12 0c0-3.6-.7-6.5-2.2-8.6s-3.5-3.1-6.2-3.1-4.8 1-6.3 3.1-2.2 4.9-2.2 8.6c0 3.6.7 6.5 2.2 8.7 1.5 2.1 3.6 3.2 6.3 3.2s4.8-1.1 6.2-3.2c1.4-2.2 2.2-5.1 2.2-8.7zM219.2 543.7c-2 .6-4.6 1.1-7.8 1.6s-6.5.8-10 .8-6.5-.5-8.8-1.4-4.2-2.3-5.6-4c-1.4-1.7-2.3-3.8-2.9-6.1-.6-2.4-.9-5-.9-7.8v-23.2H195v21.8c0 3.8.5 6.5 1.5 8.2s2.9 2.5 5.6 2.5c.8 0 1.7 0 2.7-.1.9-.1 1.8-.2 2.5-.3v-32.1h11.8l.1 40.1zM267 543.8c-1.1.3-2.3.6-3.6.9-1.4.3-2.8.5-4.3.8-1.5.2-3 .4-4.6.5s-3 .2-4.5.2c-3.4 0-6.5-.5-9.2-1.5s-5-2.4-6.8-4.3c-1.8-1.9-3.3-4.1-4.2-6.8-1-2.7-1.5-5.7-1.5-9 0-3.4.4-6.4 1.3-9.1.8-2.7 2.1-5 3.6-6.9 1.6-1.9 3.5-3.4 5.8-4.4s4.9-1.5 7.9-1.5c1.6 0 3.1.2 4.4.5 1.3.3 2.6.8 3.9 1.3v-18.8l11.8-1.9v60zM240.4 524c0 3.6.8 6.6 2.5 8.8 1.6 2.2 4.1 3.3 7.3 3.3 1.1 0 2 0 2.9-.1s1.6-.2 2.2-.3v-21.5c-.7-.5-1.7-.9-2.9-1.2s-2.4-.5-3.6-.5c-5.6.1-8.4 3.9-8.4 11.5zM295.4 489.7c8.2 0 14.5 1.4 18.8 4.3 4.4 2.9 6.6 7.6 6.6 14.1 0 6.6-2.2 11.4-6.6 14.3s-10.8 4.4-19 4.4h-3.9v18.4H279v-54.1c2.7-.5 5.5-.9 8.5-1.1 3-.2 5.6-.3 7.9-.3zm.8 10.5c-.9 0-1.8 0-2.7.1-.9.1-1.6.1-2.3.2v15.8h3.9c4.3 0 7.5-.6 9.7-1.7 2.2-1.2 3.2-3.3 3.2-6.5 0-1.5-.3-2.8-.8-3.8-.6-1-1.3-1.8-2.4-2.4-1-.6-2.3-1-3.8-1.3-1.4-.3-3-.4-4.8-.4zM342.5 502.4c3.5 0 6.4.4 8.7 1.2s4.2 1.9 5.6 3.4 2.4 3.3 3 5.4c.6 2.1.9 4.5.9 7V544c-1.7.4-4 .8-7 1.3s-6.6.8-10.9.8c-2.7 0-5.1-.2-7.3-.7-2.2-.5-4.1-1.3-5.7-2.3-1.6-1.1-2.8-2.5-3.6-4.2-.8-1.7-1.3-3.9-1.3-6.4 0-2.4.5-4.5 1.5-6.2s2.3-3 3.9-4 3.5-1.7 5.6-2.2c2.1-.4 4.3-.7 6.6-.7 1.5 0 2.9.1 4.1.2 1.2.1 2.1.3 2.9.5V519c0-2-.6-3.6-1.8-4.8-1.2-1.2-3.3-1.8-6.3-1.8-2 0-4 .1-5.9.4-2 .3-3.6.7-5.1 1.2l-1.5-9.5c.7-.2 1.5-.4 2.6-.7 1-.2 2.1-.4 3.4-.6 1.2-.2 2.5-.3 3.8-.5 1-.2 2.4-.3 3.8-.3zm.9 34.5c1.2 0 2.3 0 3.3-.1 1.1-.1 1.9-.1 2.5-.2v-8.9c-.5-.1-1.2-.2-2.1-.3s-1.8-.2-2.6-.2c-1.1 0-2.2.1-3.1.2-1 .1-1.8.4-2.6.8-.7.4-1.3.9-1.7 1.5-.4.6-.6 1.4-.6 2.4 0 1.8.6 3.1 1.9 3.8 1.2.7 2.9 1 5 1zM407.3 503.5c-2.4 8-4.9 15.5-7.5 22.6-2.6 7-5.4 13.8-8.5 20.4-1.1 2.4-2.2 4.4-3.3 6.1-1.1 1.7-2.3 3-3.6 4.1-1.3 1.1-2.8 1.9-4.5 2.4s-3.6.8-5.8.8c-1.9 0-3.6-.2-5.1-.5-1.6-.3-2.8-.7-3.8-1.1l2.1-9.4c1.2.4 2.3.7 3.2.9.9.2 2 .2 3 .2 2.1 0 3.7-.6 4.9-1.7 1.1-1.1 2.1-2.7 2.9-4.7-2.7-5.3-5.4-11.2-8.1-17.8s-5.2-13.9-7.6-22.1H378c.5 2.1 1.2 4.3 1.9 6.7.7 2.4 1.5 4.8 2.3 7.3s1.6 4.8 2.4 7.2c.8 2.3 1.6 4.4 2.3 6.3.7-1.9 1.4-4 2.1-6.3s1.5-4.7 2.2-7.2 1.4-4.9 2.1-7.3c.7-2.4 1.3-4.6 1.8-6.7h12.2v-.2zM438.7 514c-1.1-.3-2.3-.5-3.7-.8-1.4-.3-3-.4-4.6-.4-.7 0-1.6.1-2.7.2-1 .1-1.8.3-2.3.4v31.8h-11.8v-39.4c2.1-.7 4.6-1.4 7.5-2.1s6.1-1 9.6-1c.6 0 1.4 0 2.3.1l2.7.3c.9.1 1.8.3 2.7.5.9.2 1.7.4 2.3.7l-2 9.7zM485.1 524.3c0 3.3-.5 6.3-1.4 9s-2.3 5-4.1 7c-1.8 1.9-3.9 3.4-6.5 4.5-2.5 1.1-5.3 1.6-8.4 1.6s-5.8-.5-8.4-1.6c-2.5-1.1-4.7-2.5-6.5-4.5-1.8-1.9-3.2-4.2-4.2-7-1-2.7-1.5-5.7-1.5-9s.5-6.3 1.5-8.9c1-2.7 2.5-5 4.3-6.9s4-3.4 6.5-4.4c2.5-1.1 5.2-1.6 8.2-1.6s5.8.5 8.3 1.6 4.7 2.5 6.5 4.4 3.2 4.2 4.2 6.9c1 2.6 1.5 5.6 1.5 8.9zm-12 0c0-3.6-.7-6.5-2.2-8.6s-3.5-3.1-6.2-3.1-4.8 1-6.3 3.1-2.2 4.9-2.2 8.6c0 3.6.7 6.5 2.2 8.7 1.5 2.1 3.6 3.2 6.3 3.2 2.7 0 4.8-1.1 6.2-3.2 1.5-2.2 2.2-5.1 2.2-8.7zM510.8 545.9c-3.4-.1-6.2-.4-8.4-1.1-2.1-.7-3.8-1.6-5.1-2.9-1.2-1.2-2.1-2.7-2.5-4.5s-.7-3.8-.7-6v-45.8l11.8-1.9v45.4c0 1.1.1 2 .2 2.8.2.8.5 1.6.9 2.1.4.6 1.1 1.1 1.9 1.4.8.4 2 .6 3.4.7l-1.5 9.8zM535.9 545.9c-3.4-.1-6.2-.4-8.4-1.1-2.1-.7-3.8-1.6-5.1-2.9-1.2-1.2-2.1-2.7-2.5-4.5s-.7-3.8-.7-6v-45.8l11.8-1.9v45.4c0 1.1.1 2 .2 2.8.2.8.5 1.6.9 2.1.4.6 1.1 1.1 1.9 1.4.8.4 2 .6 3.4.7l-1.5 9.8z"/><g><path class="st1" d="M545.1 483.7h6.5v1h-2.7v7.1h-1.1v-7.1h-2.7zM559.3 491.8V485l-2.3 6.8h-1.1l-2.3-6.8v6.8h-1.1v-8.1h1.6l2.3 6.8 2.3-6.8h1.6v8.1h-1z"/></g><g><g><g id="Layer0_0_FILL_00000065771895156205129990000003779108225166825103_"><linearGradient id="CPL_1_" gradientUnits="userSpaceOnUse" x1="179.288" y1="481.685" x2="289.277" y2="481.685" gradientTransform="matrix(1 0 0 -1 0 842)"><stop offset=".003" style="stop-color:#00a0df"/><stop offset="1" style="stop-color:#66c4e8"/></linearGradient><path d="m180 346.6.4 1.2c1.6 4.8 4.6 8.6 9.1 11.2l99.8 58.1s-9.5-5.3-9.5-17v-35.9l-34.7-20.1c-.3-.1-.6-.3-.8-.5l-.3-.3c-.7-.7-1-1.5-1-2.5 0-.9.3-1.7.9-2.3 0-.1.1-.1.1-.1l.1-.1c.6-.6 1.1-1.2 1.6-1.8 1.6-2.1 2.7-4.5 3.5-7.2 1.5-5.5.8-10.6-2-15.5s-7-8.1-12.4-9.5c-5.5-1.5-10.6-.8-15.5 2.1l-29.9 17c-4.5 2.6-7.6 6.4-9.2 11.3-.1.4-.2.7-.3 1.1-.1.5-.2 1-.3 1.4-.1.5-.2 1.1-.3 1.6l-.1 3c.1 1.7.4 3.2.8 4.8z" style="fill:url(#CPL_1_)"/><linearGradient id="SVGID_00000033350712407556258020000005289083010608239799_" gradientUnits="userSpaceOnUse" x1="279.41" y1="515.586" x2="320.483" y2="515.586" gradientTransform="matrix(1 0 0 -1 0 842)"><stop offset="0" style="stop-color:#ff6c0e"/><stop offset="1" style="stop-color:#ff9015"/></linearGradient><path style="fill:url(#SVGID_00000033350712407556258020000005289083010608239799_)" d="M320.5 390.6v-108c0-11.3-9.2-20.5-20.5-20.5s-20.4 9.1-20.5 20.4l-.2 73.3 30.5 17.6c10 5.6 10.7 17.2 10.7 17.2z"/><path d="M299.8 420c5.2 0 9.1-1.8 11.6-3.6 10.5-7.1 9.1-18.8 9.1-18.8s-.5-10.9-10.2-15.9l-31-17.7v35.7s-.7 10.2 8.9 16.8c2.5 1.6 6.3 3.5 11.6 3.5z" style="fill:#202945"/><path d="M279.3 355.8v8.2l31.2 17.8c9.6 4.8 10 16.5 10 16.5v-7.1c0-1.6-.2-3.2-.9-5-1.6-5.5-4.4-9.8-9.5-12.5.1-.1-30.8-17.9-30.8-17.9z" style="fill:#6e7ba0"/></g></g></g></svg>