<svg role="image" aria-labelledby="logo" class="cloudpayroll-logo" xmlns="http://www.w3.org/2000/svg" x="0" y="0" viewBox="0 0 595.3 841.9" xml:space="preserve"><title id="logo">Cloudpayroll</title><path d="M85.1 546.3c-8.9 0-15.7-2.5-20.4-7.4-4.7-5-7-12-7-21.1 0-4.5.7-8.6 2.1-12.2 1.4-3.6 3.4-6.6 5.9-9 2.5-2.5 5.4-4.3 8.9-5.6 3.4-1.3 7.1-1.9 11.2-1.9 2.3 0 4.4.2 6.3.5 1.9.3 3.6.7 5 1.2 1.4.4 2.6.9 3.6 1.4.9.5 1.6.8 2.1 1.1l-3.6 10c-1.7-.9-3.7-1.7-5.9-2.3-2.2-.6-4.8-.9-7.6-.9-1.9 0-3.8.3-5.6.9-1.8.6-3.4 1.6-4.8 3s-2.5 3.2-3.4 5.4c-.8 2.2-1.3 4.9-1.3 8.1 0 2.5.3 4.9.8 7.1.6 2.2 1.5 4.1 2.7 5.7 1.2 1.6 2.9 2.8 4.9 3.8 2 .9 4.4 1.4 7.3 1.4 1.8 0 3.4-.1 4.8-.3 1.4-.2 2.7-.5 3.8-.8 1.1-.3 2.1-.6 2.9-1 .8-.4 1.6-.7 2.3-1l3.4 9.9c-1.7 1.1-4.2 2-7.4 2.8-3.1.7-6.8 1.2-11 1.2zM127.3 545.9c-3.4-.1-6.2-.4-8.4-1.1-2.1-.7-3.8-1.6-5.1-2.9-1.2-1.2-2.1-2.7-2.5-4.5-.4-1.8-.7-3.8-.7-6v-45.8l11.8-1.9v45.4c0 1.1.1 2 .2 2.8.2.8.5 1.6.9 2.1.4.6 1.1 1.1 1.9 1.4.8.4 2 .6 3.4.7l-1.5 9.8zM174.6 524.3c0 3.3-.5 6.3-1.4 9-.9 2.7-2.3 5-4.1 7-1.8 1.9-3.9 3.4-6.5 4.5-2.5 1.1-5.3 1.6-8.4 1.6-3.1 0-5.8-.5-8.4-1.6-2.5-1.1-4.7-2.5-6.5-4.5-1.8-1.9-3.2-4.2-4.2-7-1-2.7-1.5-5.7-1.5-9s.5-6.3 1.5-8.9c1-2.7 2.5-5 4.3-6.9 1.8-1.9 4-3.4 6.5-4.4 2.5-1.1 5.2-1.6 8.2-1.6 3 0 5.8.5 8.3 1.6 2.5 1.1 4.7 2.5 6.5 4.4 1.8 1.9 3.2 4.2 4.2 6.9 1 2.6 1.5 5.6 1.5 8.9zm-12 0c0-3.6-.7-6.5-2.2-8.6-1.5-2.1-3.5-3.1-6.2-3.1s-4.8 1-6.3 3.1-2.2 4.9-2.2 8.6c0 3.6.7 6.5 2.2 8.7 1.5 2.1 3.6 3.2 6.3 3.2 2.7 0 4.8-1.1 6.2-3.2 1.4-2.2 2.2-5.1 2.2-8.7zM219.2 543.7c-2 .6-4.6 1.1-7.8 1.6s-6.5.8-10 .8-6.5-.5-8.8-1.4c-2.3-.9-4.2-2.3-5.6-4-1.4-1.7-2.3-3.8-2.9-6.1-.6-2.4-.9-5-.9-7.8v-23.2H195v21.8c0 3.8.5 6.5 1.5 8.2 1 1.7 2.9 2.5 5.6 2.5.8 0 1.7 0 2.7-.1.9-.1 1.8-.2 2.5-.3v-32.1h11.8v40.1zM267 543.8c-1.1.3-2.3.6-3.6.9-1.4.3-2.8.5-4.3.8-1.5.2-3 .4-4.6.5-1.6.1-3 .2-4.5.2-3.4 0-6.5-.5-9.2-1.5-2.7-1-5-2.4-6.8-4.3-1.8-1.9-3.3-4.1-4.2-6.8-1-2.7-1.5-5.7-1.5-9 0-3.4.4-6.4 1.3-9.1.8-2.7 2.1-5 3.6-6.9 1.6-1.9 3.5-3.4 5.8-4.4 2.3-1 4.9-1.5 7.9-1.5 1.6 0 3.1.2 4.4.5 1.3.3 2.6.8 3.9 1.3v-18.8l11.8-1.9v60zM240.4 524c0 3.6.8 6.6 2.5 8.8 1.6 2.2 4.1 3.3 7.3 3.3 1.1 0 2 0 2.9-.1.9-.1 1.6-.2 2.2-.3v-21.5c-.7-.5-1.7-.9-2.9-1.2-1.2-.3-2.4-.5-3.6-.5-5.6.1-8.4 3.9-8.4 11.5zM295.4 489.7c8.2 0 14.5 1.4 18.8 4.3 4.4 2.9 6.6 7.6 6.6 14.1 0 6.6-2.2 11.4-6.6 14.3-4.4 2.9-10.8 4.4-19 4.4h-3.9v18.4H279v-54.1c2.7-.5 5.5-.9 8.5-1.1 3-.2 5.6-.3 7.9-.3zm.8 10.5c-.9 0-1.8 0-2.7.1-.9.1-1.6.1-2.3.2v15.8h3.9c4.3 0 7.5-.6 9.7-1.7 2.2-1.2 3.2-3.3 3.2-6.5 0-1.5-.3-2.8-.8-3.8-.6-1-1.3-1.8-2.4-2.4-1-.6-2.3-1-3.8-1.3-1.4-.3-3-.4-4.8-.4zM342.5 502.4c3.5 0 6.4.4 8.7 1.2s4.2 1.9 5.6 3.4c1.4 1.5 2.4 3.3 3 5.4.6 2.1.9 4.5.9 7V544c-1.7.4-4 .8-7 1.3s-6.6.8-10.9.8c-2.7 0-5.1-.2-7.3-.7-2.2-.5-4.1-1.3-5.7-2.3-1.6-1.1-2.8-2.5-3.6-4.2-.8-1.7-1.3-3.9-1.3-6.4 0-2.4.5-4.5 1.5-6.2 1-1.7 2.3-3 3.9-4s3.5-1.7 5.6-2.2c2.1-.4 4.3-.7 6.6-.7 1.5 0 2.9.1 4.1.2 1.2.1 2.1.3 2.9.5V519c0-2-.6-3.6-1.8-4.8-1.2-1.2-3.3-1.8-6.3-1.8-2 0-4 .1-5.9.4-2 .3-3.6.7-5.1 1.2l-1.5-9.5c.7-.2 1.5-.4 2.6-.7 1-.2 2.1-.4 3.4-.6 1.2-.2 2.5-.3 3.8-.5 1-.2 2.4-.3 3.8-.3zm.9 34.5c1.2 0 2.3 0 3.3-.1 1.1-.1 1.9-.1 2.5-.2v-8.9c-.5-.1-1.2-.2-2.1-.3-.9-.1-1.8-.2-2.6-.2-1.1 0-2.2.1-3.1.2-1 .1-1.8.4-2.6.8-.7.4-1.3.9-1.7 1.5-.4.6-.6 1.4-.6 2.4 0 1.8.6 3.1 1.9 3.8 1.2.7 2.9 1 5 1zM407.3 503.5c-2.4 8-4.9 15.5-7.5 22.6-2.6 7-5.4 13.8-8.5 20.4-1.1 2.4-2.2 4.4-3.3 6.1-1.1 1.7-2.3 3-3.6 4.1-1.3 1.1-2.8 1.9-4.5 2.4-1.7.5-3.6.8-5.8.8-1.9 0-3.6-.2-5.1-.5-1.6-.3-2.8-.7-3.8-1.1l2.1-9.4c1.2.4 2.3.7 3.2.9.9.2 2 .2 3 .2 2.1 0 3.7-.6 4.9-1.7 1.1-1.1 2.1-2.7 2.9-4.7-2.7-5.3-5.4-11.2-8.1-17.8-2.7-6.6-5.2-13.9-7.6-22.1H378c.5 2.1 1.2 4.3 1.9 6.7.7 2.4 1.5 4.8 2.3 7.3.8 2.5 1.6 4.8 2.4 7.2.8 2.3 1.6 4.4 2.3 6.3.7-1.9 1.4-4 2.1-6.3.7-2.3 1.5-4.7 2.2-7.2.7-2.5 1.4-4.9 2.1-7.3.7-2.4 1.3-4.6 1.8-6.7h12.2zM438.7 514c-1.1-.3-2.3-.5-3.7-.8-1.4-.3-3-.4-4.6-.4-.7 0-1.6.1-2.7.2-1 .1-1.8.3-2.3.4v31.8h-11.8v-39.4c2.1-.7 4.6-1.4 7.5-2.1 2.9-.7 6.1-1 9.6-1 .6 0 1.4 0 2.3.1l2.7.3c.9.1 1.8.3 2.7.5.9.2 1.7.4 2.3.7l-2 9.7zM485.1 524.3c0 3.3-.5 6.3-1.4 9-.9 2.7-2.3 5-4.1 7-1.8 1.9-3.9 3.4-6.5 4.5-2.5 1.1-5.3 1.6-8.4 1.6-3.1 0-5.8-.5-8.4-1.6-2.5-1.1-4.7-2.5-6.5-4.5-1.8-1.9-3.2-4.2-4.2-7-1-2.7-1.5-5.7-1.5-9s.5-6.3 1.5-8.9c1-2.7 2.5-5 4.3-6.9 1.8-1.9 4-3.4 6.5-4.4 2.5-1.1 5.2-1.6 8.2-1.6 3 0 5.8.5 8.3 1.6 2.5 1.1 4.7 2.5 6.5 4.4 1.8 1.9 3.2 4.2 4.2 6.9 1 2.6 1.5 5.6 1.5 8.9zm-12 0c0-3.6-.7-6.5-2.2-8.6-1.5-2.1-3.5-3.1-6.2-3.1s-4.8 1-6.3 3.1-2.2 4.9-2.2 8.6c0 3.6.7 6.5 2.2 8.7 1.5 2.1 3.6 3.2 6.3 3.2 2.7 0 4.8-1.1 6.2-3.2 1.5-2.2 2.2-5.1 2.2-8.7zM510.8 545.9c-3.4-.1-6.2-.4-8.4-1.1-2.1-.7-3.8-1.6-5.1-2.9-1.2-1.2-2.1-2.7-2.5-4.5-.4-1.8-.7-3.8-.7-6v-45.8l11.8-1.9v45.4c0 1.1.1 2 .2 2.8.2.8.5 1.6.9 2.1.4.6 1.1 1.1 1.9 1.4.8.4 2 .6 3.4.7l-1.5 9.8zM535.9 545.9c-3.4-.1-6.2-.4-8.4-1.1-2.1-.7-3.8-1.6-5.1-2.9-1.2-1.2-2.1-2.7-2.5-4.5-.4-1.8-.7-3.8-.7-6v-45.8l11.8-1.9v45.4c0 1.1.1 2 .2 2.8.2.8.5 1.6.9 2.1.4.6 1.1 1.1 1.9 1.4.8.4 2 .6 3.4.7l-1.5 9.8z" fill="currentColor"/><path d="m320.1 396.3-.3-1.5c-1.5-5.5-4.6-9.6-9.5-12.4l-30.6-17.7-34.8-20.1c-.3-.1-.6-.3-.8-.5l-.3-.3c-.7-.7-1-1.5-1-2.5 0-.9.3-1.7.9-2.3 0-.1.1-.1.1-.1l.1-.1c.6-.6 1.1-1.2 1.6-1.8 1.6-2.1 2.7-4.5 3.5-7.2 1.5-5.5.8-10.6-2-15.5s-7-8.1-12.4-9.5c-5.5-1.5-10.6-.8-15.5 2.1L189 324c-4.5 2.6-7.6 6.4-9.2 11.3-.1.4-.2.7-.3 1.1-.1.5-.2 1-.3 1.4-.1.5-.2 1.1-.3 1.6l-.1 3c.1 1.5.3 3.1.7 4.7l.4 1.2c1.6 4.8 4.6 8.6 9.1 11.2l100.5 58c.1.1.2.1.3.2.9.5 1.8.9 2.6 1.3.6.2 1.2.5 1.8.6 3 .9 6 1.1 9.2.5.1 0 .3 0 .4-.1l1.2-.3c.1 0 .2-.1.3-.1 1.2-.3 2.4-.7 3.5-1.2 1-.5 2-1.1 3-1.8 1.7-1.2 3.2-2.6 4.4-4.3.4-.6.8-1.1 1.2-1.7v-.1c.7-1 1.2-2 1.6-3 .3-.8.6-1.6.9-2.7.4-1.6.6-3.2.6-4.9v-.2c0-1-.2-2.2-.4-3.4z" fill="currentColor"/><path d="M319.7 386.8c.5 1.7.7 3.3.8 5V283.7c0-5.6-2-10.5-6-14.5s-8.8-6-14.5-6c-5.6 0-10.5 2-14.5 6s-6 8.8-6 14.5v73.1l30.6 17.7c5 2.7 8.2 6.8 9.6 12.3z" fill="currentColor"/><path class="st1" d="M545.1 483.7h6.5v1h-2.7v7.1h-1.1v-7.1h-2.7v-1zM559.3 491.8V485l-2.3 6.8h-1.1l-2.3-6.8v6.8h-1.1v-8.1h1.6l2.3 6.8 2.3-6.8h1.6v8.1h-1z" fill="currentColor"/></svg>