<svg class="cpl-logo" role="presentation" aria-labelledby="cpl" xmlns="http://www.w3.org/2000/svg" viewBox="0 0 308.2 66.9"><title id="cpl">CloudPayroll Limited</title><defs><linearGradient id="a" x1="0" y1="26.45" x2="47.18" y2="26.45" gradientTransform="matrix(1 0 0 -1 0 67.8)" gradientUnits="userSpaceOnUse"><stop offset="0" stop-color="#00a0df"/><stop offset="1" stop-color="#66c4e8"/></linearGradient><linearGradient id="b" x1="42.71" y1="40.5" x2="60.08" y2="40.5" gradientTransform="matrix(1 0 0 -1 0 67.8)" gradientUnits="userSpaceOnUse"><stop offset="0" stop-color="#ff6c0e"/><stop offset="1" stop-color="#ff9015"/></linearGradient></defs>
<g class="cpl-logo--title"><path d="M99 61c-3.9 0-6.9-1.1-8.9-3.3S87 52.4 87 48.4c0-2 .3-3.8.9-5.3.6-1.6 1.5-2.9 2.6-4s2.4-1.9 3.9-2.4c1.5-.6 3.1-.8 4.9-.8 1 0 1.9.1 2.8.2.8.2 1.6.3 2.2.5s1.1.4 1.6.6c.4.2.7.4.9.5l-1.6 4.4c-.7-.4-1.6-.7-2.6-1s-2.1-.4-3.3-.4c-.8 0-1.6.1-2.4.4-.8.3-1.5.7-2.1 1.3s-1.1 1.4-1.5 2.4-.6 2.2-.6 3.5c0 1.1.1 2.1.4 3.1.2 1 .6 1.8 1.2 2.5.5.7 1.3 1.2 2.1 1.6.9.4 1.9.6 3.2.6.8 0 1.5 0 2.1-.1s1.2-.2 1.7-.3.9-.3 1.3-.4c.4-.2.7-.3 1-.5l1.5 4.3c-.8.5-1.8.9-3.2 1.2-1.6.5-3.2.7-5 .7Zm18.4-.2c-1.5 0-2.7-.2-3.7-.5s-1.7-.7-2.2-1.3c-.5-.5-.9-1.2-1.1-2s-.3-1.6-.3-2.6v-20l5.2-.8v19.9c0 .5 0 .9.1 1.2.1.4.2.7.4.9.2.3.5.5.8.6.4.2.9.3 1.5.3l-.7 4.3Zm20.8-9.5c0 1.4-.2 2.7-.6 3.9-.4 1.2-1 2.2-1.8 3.1-.8.8-1.7 1.5-2.8 2s-2.3.7-3.7.7c-1.3 0-2.6-.2-3.7-.7s-2-1.1-2.8-2c-.8-.8-1.4-1.9-1.8-3.1-.4-1.2-.7-2.5-.7-3.9s.2-2.7.7-3.9 1.1-2.2 1.9-3 1.7-1.5 2.8-1.9c1.1-.5 2.3-.7 3.6-.7s2.5.2 3.6.7 2 1.1 2.8 1.9c.8.8 1.4 1.8 1.8 3 .5 1.2.7 2.5.7 3.9Zm-5.3 0c0-1.6-.3-2.9-1-3.8-.6-.9-1.5-1.4-2.7-1.4s-2.1.5-2.7 1.4-1 2.2-1 3.8.3 2.9 1 3.8c.6.9 1.6 1.4 2.7 1.4 1.2 0 2.1-.5 2.7-1.4.7-.9 1-2.2 1-3.8Zm24.9 8.6c-.9.3-2 .5-3.4.7s-2.8.3-4.4.3-2.8-.2-3.9-.6c-1-.4-1.8-1-2.4-1.8-.6-.8-1-1.6-1.3-2.7-.3-1-.4-2.2-.4-3.4V42.2h5.2v9.5c0 1.7.2 2.9.7 3.6.4.7 1.3 1.1 2.5 1.1.4 0 .8 0 1.2-.1.4 0 .8-.1 1.1-.1v-14h5.2v17.7h-.1Zm20.9 0c-.5.1-1 .3-1.6.4-.6.1-1.2.2-1.9.3s-1.3.2-2 .2c-.7.1-1.3.1-2 .1-1.5 0-2.8-.2-4-.7-1.2-.4-2.2-1.1-3-1.9-.8-.8-1.4-1.8-1.9-3-.4-1.2-.6-2.5-.6-3.9 0-1.5.2-2.8.6-4 .4-1.2.9-2.2 1.6-3 .7-.8 1.5-1.5 2.6-1.9 1-.4 2.2-.7 3.5-.7.7 0 1.4.1 1.9.2.6.1 1.1.3 1.7.6v-8.3l5.2-.8v26.4h-.1ZM167 51.2c0 1.6.4 2.9 1.1 3.9.7 1 1.8 1.5 3.2 1.5.5 0 .9 0 1.3-.1.4 0 .7-.1 1-.1V47c-.3-.2-.7-.4-1.3-.5-.5-.1-1-.2-1.6-.2-2.5-.1-3.7 1.6-3.7 4.9Zm24.1-15c3.6 0 6.3.6 8.3 1.9 1.9 1.3 2.9 3.3 2.9 6.2s-1 5-2.9 6.3-4.7 1.9-8.3 1.9h-1.7v8H184V36.8c1.2-.2 2.4-.4 3.7-.5s2.4-.1 3.4-.1Zm.4 4.6h-1.2c-.4 0-.7 0-1 .1v6.9h1.7c1.9 0 3.3-.3 4.2-.8s1.4-1.5 1.4-2.8c0-.7-.1-1.2-.4-1.7-.2-.4-.6-.8-1-1.1-.5-.3-1-.5-1.6-.6h-2.1Zm20.3.9c1.5 0 2.8.2 3.8.5s1.8.8 2.4 1.5c.6.6 1 1.4 1.3 2.4.3.9.4 2 .4 3.1V60c-.7.2-1.8.4-3.1.6-1.3.2-2.9.3-4.8.3-1.2 0-2.2-.1-3.2-.3s-1.8-.5-2.5-1-1.2-1.1-1.6-1.9c-.4-.8-.6-1.7-.6-2.8s.2-2 .6-2.7c.4-.7 1-1.3 1.7-1.8.7-.4 1.5-.8 2.5-1 .9-.2 1.9-.3 2.9-.3.7 0 1.3 0 1.8.1s.9.1 1.3.2v-.5c0-.9-.3-1.6-.8-2.1s-1.5-.8-2.8-.8c-.9 0-1.7.1-2.6.2-.9.1-1.6.3-2.2.5l-.7-4.2c.3-.1.7-.2 1.1-.3.5-.1.9-.2 1.5-.3.5-.1 1.1-.2 1.7-.2.7.1 1.3 0 1.9 0Zm.4 15.2h1.5c.5 0 .8-.1 1.1-.1v-3.9c-.2 0-.5-.1-.9-.1s-.8-.1-1.1-.1c-.5 0-.9 0-1.4.1-.4.1-.8.2-1.1.3-.3.2-.6.4-.8.7s-.3.6-.3 1c0 .8.3 1.4.8 1.7.5.2 1.2.4 2.2.4Zm28-14.7c-1 3.5-2.1 6.8-3.3 9.9-1.1 3.1-2.4 6.1-3.7 9-.5 1-1 1.9-1.5 2.7-.5.7-1 1.3-1.6 1.8s-1.2.8-2 1c-.7.2-1.6.3-2.6.3-.8 0-1.6-.1-2.2-.2-.7-.2-1.2-.3-1.7-.5l.9-4.1c.5.2 1 .3 1.4.4.4.1.9.1 1.3.1.9 0 1.6-.2 2.1-.7s.9-1.2 1.3-2.1c-1.2-2.3-2.4-4.9-3.5-7.8-1.2-2.9-2.3-6.1-3.3-9.7h5.5c.2.9.5 1.9.8 2.9.3 1.1.6 2.1 1 3.2.3 1.1.7 2.1 1.1 3.1.4 1 .7 1.9 1 2.8.3-.8.6-1.8.9-2.8.3-1 .6-2.1 1-3.1.3-1.1.6-2.1.9-3.2.3-1.1.6-2 .8-2.9h5.4v-.1Zm13.7 4.6c-.5-.1-1-.2-1.6-.4-.6-.1-1.3-.2-2-.2-.3 0-.7 0-1.2.1s-.8.1-1 .2v13.9h-5.2V43.2c.9-.3 2-.6 3.3-.9 1.3-.3 2.7-.4 4.2-.4.3 0 .6 0 1 .1.4 0 .8.1 1.2.1.4.1.8.1 1.2.2.4.1.7.2 1 .3l-.9 4.2Zm20.4 4.5c0 1.4-.2 2.7-.6 3.9s-1 2.2-1.8 3.1c-.8.8-1.7 1.5-2.8 2-1.1.5-2.3.7-3.7.7-1.3 0-2.6-.2-3.7-.7s-2-1.1-2.8-2c-.8-.8-1.4-1.9-1.8-3.1-.4-1.2-.7-2.5-.7-3.9s.2-2.7.7-3.9 1.1-2.2 1.9-3 1.7-1.5 2.8-1.9c1.1-.5 2.3-.7 3.6-.7s2.5.2 3.6.7 2 1.1 2.8 1.9c.8.8 1.4 1.8 1.8 3 .5 1.2.7 2.5.7 3.9Zm-5.3 0c0-1.6-.3-2.9-1-3.8-.6-.9-1.5-1.4-2.7-1.4s-2.1.5-2.7 1.4-1 2.2-1 3.8.3 2.9 1 3.8c.6.9 1.6 1.4 2.7 1.4 1.2 0 2.1-.5 2.7-1.4.7-.9 1-2.2 1-3.8Zm16.6 9.5c-1.5 0-2.7-.2-3.7-.5-.9-.3-1.7-.7-2.2-1.3-.5-.5-.9-1.2-1.1-2s-.3-1.6-.3-2.6v-20l5.2-.8v19.9c0 .5 0 .9.1 1.2.1.4.2.7.4.9.2.3.5.5.8.6.4.2.9.3 1.5.3l-.7 4.3Zm10.9 0c-1.5 0-2.7-.2-3.7-.5-.9-.3-1.7-.7-2.2-1.3-.5-.5-.9-1.2-1.1-2s-.3-1.6-.3-2.6v-20l5.2-.8v19.9c0 .5 0 .9.1 1.2.1.4.2.7.4.9.2.3.5.5.8.6.4.2.9.3 1.5.3l-.7 4.3Z" style="fill:#4b4f55"/><path d="M301.5 33.4h2.9v.4h-1.2V37h-.5v-3.2h-1.2v-.4Zm6.3 3.6v-3l-1 3h-.5l-1-3v3h-.5v-3.6h.7l1 3 1-3h.7V37h-.4Z" style="fill-rule:evenodd;fill:#4b4f55"/></g><path d="m.3 35.6.2.5c.7 2.1 2 3.6 3.9 4.7l42.78 24.7c-.6-.4-1.28-.95-1.88-1.45-1.3-1.3-2.37-3.45-2.49-5.44V43l-14.8-8.5c-.1 0-.2-.1-.3-.2-.1 0-.1-.1-.1-.1-.3-.3-.4-.6-.4-1s.1-.7.4-1l.1-.1.1-.1c.2-.2.5-.5.7-.8.7-.9 1.2-1.9 1.5-3.1.6-2.3.3-4.5-.9-6.6-1.2-2.1-3-3.4-5.3-4s-4.5-.3-6.6.9l-12.8 7.3c-1.9 1.1-3.2 2.7-3.9 4.8 0 .2-.1.3-.1.5-.1.2-.1.4-.1.6-.1.2-.1.5-.1.7l-.2 1.3c0 .6.1 1.3.3 2Z" style="fill:url(#a)"/><path class="cpl-logo--blue-500" d="M42.8 39.6V43l13 7.5c2.01 1.19 3.4 3 4 5.3.1.2.1.4.1.6.1.5.2 1 .2 1.6v-3.5c0-.7-.1-1.4-.3-2.1-.6-2.3-2-4.1-4-5.3l-13-7.5Z" style="fill:#6e7ba0"/><path d="M59.8 52.5c.2.7.3 1.4.3 2.1V8.7c0-2.4-.8-4.4-2.5-6.1C55.8.8 53.8 0 51.4 0s-4.4.8-6.1 2.5c-1.7 1.7-2.5 3.7-2.5 6.1v31l13 7.5c2 1.3 3.3 3.1 4 5.4Z" style="fill:url(#b)"/><path d="M55.88 50.56 42.8 43v15.11c.08 4.72 3.92 8.52 8.65 8.52s8.65-3.87 8.65-8.65c0-3.16-1.7-5.91-4.22-7.42Z" style="fill:#202945"/></svg>