<svg xmlns="http://www.w3.org/2000/svg" xmlns:xlink="http://www.w3.org/1999/xlink" width="659.106" height="459.893" viewBox="0 0 659.106 459.893"><defs><style>.a{fill:#fff;}.b{clip-path:url(#a);}.c{clip-path:url(#b);}.d{opacity:0.75;}.e{fill:#ef5413;}.f{fill:#0090d3;}</style><clipPath id="a"><rect class="a" width="659.106" height="459.893" transform="translate(0 -20.65)"/></clipPath><clipPath id="b"><rect class="a" width="575" height="482.893" transform="translate(43.007 -20.65)"/></clipPath></defs><g class="b" transform="translate(0 20.65)"><g class="c"><g class="d" transform="translate(49.867 -14.651)"><g transform="translate(0 0.001)"><path class="a" d="M353.65,534c-28.41-5.859-56-18.127-82.016-36.464s-49.121-41.811-68.7-69.778a340.572,340.572,0,0,1-60.253-202.936c1.146-34.122,7.7-66.409,19.491-95.965S190.389,73.955,211,53.541C232.342,32.4,257.256,17.5,285.049,9.248,342.746-7.882,428.807-.829,504.3,27.219c40.3,14.973,76.206,35.491,103.831,59.336,31.218,26.946,52.179,57.892,62.3,91.979s9.444,71.458-2.011,111.074c-10.137,35.057-29.027,71.844-54.627,106.386C565.837,460.7,497.57,513.574,439.874,530.7a172.088,172.088,0,0,1-49.157,7.143A183.3,183.3,0,0,1,353.65,534M285.2,9.759c-27.709,8.227-52.548,23.085-73.828,44.161-20.557,20.361-36.946,45.639-48.708,75.132s-18.311,61.725-19.454,95.785a333.08,333.08,0,0,0,13.938,106.1l-.255.076.255-.076a333.062,333.062,0,0,0,46.22,96.513c19.545,27.917,42.616,51.351,68.572,69.649s53.479,30.534,81.816,36.377c29.334,6.048,58.256,4.944,85.965-3.282,57.593-17.1,125.751-69.9,173.643-134.517,25.563-34.49,44.424-71.219,54.544-106.216,11.426-39.517,12.1-76.787,2.012-110.775s-31-64.849-62.137-91.727c-27.578-23.8-63.426-44.288-103.669-59.239C456.065,9.867,403.749.531,357.2.531c-26.487,0-51.114,3.026-72,9.228" transform="translate(-120.295 -0.001)"/><path class="e" d="M139.807,514.578c-37.253-21.526-69.24-47.788-92.5-75.946-26.3-31.833-41.8-65.9-46.08-101.248s2.656-72.129,20.6-109.315c15.877-32.892,40.679-66.024,71.724-95.812C151.7,76.46,227.921,35.731,287.724,28.5c28.828-3.488,57.656.282,85.686,11.205,27.063,10.546,52.244,27.281,74.844,49.74s41.468,49.492,56.1,80.371a333.861,333.861,0,0,1,29.48,103.137l-.529.064.529-.064A333.86,333.86,0,0,1,529.8,380.141c-6.849,33.478-18.732,64.241-35.318,91.432s-37.056,49.459-60.823,66.155c-24.617,17.292-51.715,27.829-80.542,31.317a202.828,202.828,0,0,1-24.306,1.392c-56.907,0-128.247-20.749-189.007-55.858M287.852,29.554C228.264,36.763,152.286,77.378,94.291,133.026c-30.955,29.7-55.679,62.727-71.5,95.507-17.859,37-24.758,73.579-20.506,108.723s19.675,69.024,45.843,100.7c23.182,28.061,55.07,54.238,92.215,75.7,60.609,35.022,131.734,55.718,188.452,55.716a202.067,202.067,0,0,0,24.2-1.387c28.651-3.466,55.586-13.94,80.057-31.13,23.646-16.611,44.01-38.762,60.526-65.837s28.36-57.733,35.184-91.09A339.773,339.773,0,0,0,503.394,170.27C488.812,139.5,470.008,112.562,447.5,90.2s-47.555-39.011-74.48-49.5a176.769,176.769,0,0,0-64.5-12.391,172.061,172.061,0,0,0-20.674,1.25" transform="translate(0 -22.994)"/><path class="f" d="M255.2,610.846C224.4,591.1,194.444,562.454,168.562,528c-48.473-64.517-79.795-145.2-79.795-205.547,0-29.127,7.226-57.379,21.478-83.973,13.755-25.665,33.44-48.71,58.508-68.495,25.051-19.77,54.217-35.291,86.689-46.13a341.377,341.377,0,0,1,212.2,0c32.472,10.84,61.639,26.361,86.689,46.131,25.069,19.785,44.755,42.83,58.509,68.495,14.252,26.593,21.479,54.845,21.479,83.971C634.319,382.8,603,463.486,554.524,528c-25.882,34.448-55.843,63.094-86.643,82.841-34.848,22.341-70.625,33.669-106.338,33.669S290.053,633.187,255.2,610.846m.913-484.964c-32.238,10.761-61.188,26.165-86.043,45.781-24.838,19.6-44.335,42.423-57.95,67.829C98.04,265.772,90.9,293.686,90.9,322.458c0,59.916,31.154,140.1,79.367,204.267,25.731,34.247,55.5,62.715,86.089,82.326,34.5,22.117,69.889,33.332,105.188,33.332s70.689-11.215,105.188-33.332c30.589-19.611,60.358-48.08,86.089-82.327,48.214-64.172,79.368-144.351,79.368-204.266,0-28.771-7.142-56.684-21.226-82.965-13.616-25.405-33.113-48.226-57.951-67.829-24.856-19.617-53.806-35.021-86.043-45.782a339.246,339.246,0,0,0-210.85,0" transform="translate(-74.935 -90.288)"/></g></g></g></g></svg>