<svg class="rocket-launch" xmlns="http://www.w3.org/2000/svg" viewBox="0 0 327.66 372.32"><defs><clipPath id="clippath"><path d="M32.88 32.88h261.9v261.9H32.88z" style="fill:none" transform="rotate(-72.79 163.828 163.83)"/></clipPath><filter id="drop-shadow-1" filterUnits="userSpaceOnUse"><feOffset dx="3" dy="3"/><feGaussianBlur result="blur" stdDeviation="6"/><feFlood flood-color="#000" flood-opacity=".3"/><feComposite in2="blur" operator="in"/><feComposite in="SourceGraphic"/></filter><style>.cls-1{fill:#393e43}.cls-5,.cls-6{isolation:isolate}.cls-5{opacity:.75}.cls-8{fill:#333}.cls-9{fill:#b0afaf}.cls-12{fill:#df2625}.cls-16{fill:#c30d1c}.cls-5,.cls-6{fill:#fff}.cls-6{opacity:.65}</style></defs><g id="Layer_2-2" data-name="Layer 2"><g style="filter:url(#drop-shadow-1)"><path d="M19.98 261.97c-1.01.08-1.76.99-1.69 2.05.07.95.78 1.7 1.69 1.77 1.01-.08 1.76-.99 1.69-2.05-.07-.95-.78-1.7-1.69-1.77Z" class="cls-5"/><path d="M37.68 229.46c-1.1 0-1.98 1.04-1.98 2.31s.89 2.31 1.98 2.31 1.98-1.04 1.98-2.31-.89-2.31-1.98-2.31Z" class="cls-6"/><path d="M303.61 90.28c-1.3-1.62-3.02-2.85-4.98-3.54a138.068 138.068 0 0 0-32.5-10.07c-17.06-3.17-26.14-2.79-27.98-2.66h-.13c-30.67-.45-74.17 15.63-115.42 46.4a63.75 63.75 0 0 0-23.22-3.64c-14.93.5-31.74 11.2-42.38 16.98-9.43 5.11-8.56 13.83 2.63 14.62 8.49.39 16.83 2.33 24.62 5.73l-13.2 13.48a4.807 4.807 0 0 0-.82 5.61l6.18 11.74c-20.55 12.81-46.44 32.23-57.27 47.71-12.02 17.19-15.91 38.85-13.48 57.61 2.43 18.57 15.15 35.42 32.24 49.95 8.24 7.03 17.78 13.29 28.36 18.65 10.46 5.27 21.7 9.79 33.52 13.48-10.97-4.55-21.21-9.87-30.58-15.85-9.2-5.89-17.27-12.56-23.99-19.85-6.57-7.16-11.59-14.93-14.91-23.07-3.22-7.99-4.7-16.26-4.4-24.55.92-16.34 4.88-22.81 17.79-36.59 11.33-12.35 33.76-21.83 52.38-30.17l7.06 13.4a4.827 4.827 0 0 0 5.08 2.5l24.26-4.24-.07-.13c10.78-1.97 21.25-4.48 31.32-7.43-2.72.8-5.46 1.58-8.25 2.32-1.2.32-2.44.6-3.66.92-2.5.6-4.97 1.25-7.49 1.81-3.91.89-7.88 1.7-11.89 2.44l.07.11-5.67.99a69.595 69.595 0 0 1-9.23 23.55c-5.69 9.66 1 15.31 10.56 10.44 10.8-5.48 29.13-13.27 37.99-25.29a63.67 63.67 0 0 0 10.16-21.27c48.72-16.58 86.6-43.3 103.58-68.81.02-.02.03-.05.05-.08 1.09-1.37 6.58-8.61 13.67-24.57 4.69-10.37 8.09-21.28 10.09-32.48.54-2.01.51-4.13-.1-6.12Zm-127.35 132.1c-3.35 1.14-6.75 2.24-10.21 3.28-.31.09-.63.18-.94.28-.36.11-.73.21-1.09.32 4.17-1.23 8.27-2.53 12.3-3.9l-.05.03Z" class="cls-9"/></g><g id="rocket"><path d="M102.34 219.33c-19.53 8.99-45.8 19.17-58.38 32.88-12.91 13.78-16.87 20.25-17.79 36.59-.31 8.29 1.17 16.56 4.4 24.55 3.32 8.14 8.33 15.91 14.91 23.07 6.72 7.29 14.79 13.96 23.99 19.85 9.37 5.98 19.62 11.3 30.58 15.85-11.83-3.69-23.06-8.2-33.52-13.48-10.59-5.36-20.12-11.62-28.36-18.65-17.09-14.53-29.81-31.38-32.24-49.95-2.42-18.76 1.47-40.42 13.48-57.61 12.02-17.17 42.57-39.2 63.8-51.67l19.15 38.57Z" style="opacity:.75;fill:#ffe600;isolation:isolate"/><path d="M98 210.59c-14.18 6.52-42.03 20.34-51.46 29.54-5.5 5.37-15.56 13.44-22.59 29.99-5.24 12.36-3.5 40.87.88 47.71-9.33-9.48-13.56-33.09-12.24-47.22 1.42-15.33 11.74-35.81 24.27-46.85 11.09-9.77 35.01-25.76 50.41-34.81l10.74 21.63Z" style="isolation:isolate;fill:#ffcd00;opacity:.6"/><path d="M20.24 261.77c-1.01.08-1.76.99-1.69 2.05.07.95.78 1.7 1.69 1.77 1.01-.08 1.76-.99 1.69-2.05-.07-.95-.78-1.7-1.69-1.77Z" class="cls-5"/><path d="M37.94 229.27c-1.1 0-1.98 1.04-1.98 2.31s.89 2.31 1.98 2.31 1.98-1.04 1.98-2.31-.89-2.31-1.98-2.31Z" class="cls-6"/><g id="Group_2685" data-name="Group 2685" style="clip-path:url(#clippath)"><g id="Group_2681" data-name="Group 2681"><path id="Path_5512" d="M266.38 76.48c11.21 2 22.12 5.39 32.5 10.07a11.1 11.1 0 0 1 4.99 3.55l-58.82 30.95c-13.55-25.72-7-47.2-7-47.2s9.1-.94 28.33 2.63" data-name="Path 5512" style="fill:#df2525"/><path id="Path_5513-2" d="m88.56 149.78.06.11c2.88-2.88 5.79-5.69 8.74-8.41 1.9-1.76 3.81-3.43 5.73-5.13.95-.84 1.89-1.69 2.84-2.51 2.55-2.19 5.11-4.3 7.69-6.38.26-.21.51-.43.76-.63 2.81-2.25 5.65-4.43 8.49-6.56l.05-.05a63.84 63.84 0 0 0-23.28-3.66c-14.93.5-31.74 11.2-42.38 16.98-9.43 5.11-8.56 13.83 2.63 14.62 8.5.39 16.84 2.34 24.63 5.73l4.02-4.12Z" class="cls-12" data-name="Path 5513-2"/><path id="Path_5514-2" d="M293.88 128.69c4.69-10.37 8.09-21.28 10.09-32.48.54-2.01.51-4.13-.1-6.12l-58.81 30.95c13.55 25.72 34.95 32.48 34.95 32.48s5.93-6.95 13.88-24.82" class="cls-16" data-name="Path 5514-2"/><path id="Path_5515-2" d="M280.16 153.34c.04-.06.08-.13.12-.19l-.29.35s-21.4-6.74-34.96-32.48l-134.4 70.71 22.03 41.84c69.42-12.7 125.69-47.46 147.5-80.23" data-name="Path 5515-2" style="fill:#d9d9d8"/><path id="Path_5516" d="M238.05 73.85s.15-.02.46-.04h-.23c-39.38-.57-99.9 26.09-149.67 76.11l22.03 41.84 134.4-70.71c-13.55-25.72-6.99-47.19-6.99-47.19" data-name="Path 5516" style="fill:#eaeaea"/><path id="Path_5517-2" d="m110.64 191.74 22.1 41.96-24.26 4.24c-2.06.35-4.11-.66-5.08-2.5l-16.45-31.23 23.71-12.46Z" class="cls-8" data-name="Path 5517-2"/><path id="Path_5518" d="m110.63 191.74-22.1-41.96-17.22 17.59a4.807 4.807 0 0 0-.82 5.61l16.43 31.23 23.7-12.47Z" class="cls-1" data-name="Path 5518"/><path id="Path_5519" d="M150.78 170.64c.92 2.37 1.18 4.95.77 7.46-1.77 9.77-10.97 20.98-22.81 27.17-6.92 3.6-14.03 6.81-21.29 9.63a218.46 218.46 0 0 1-29.33 8.6c-4.93.89-9.92 1.45-14.92 1.69a8.757 8.757 0 0 1-8.13-4.22l95.73-50.33Z" class="cls-16" data-name="Path 5519"/><path id="Path_5520" d="M150.78 170.63c-1.43-2.11-3.4-3.79-5.71-4.87-9.07-4.06-23.52-2.83-35.32 3.41-6.88 3.67-13.54 7.71-19.99 12.08a220.583 220.583 0 0 0-23.73 19.29c-3.52 3.57-6.81 7.35-9.83 11.34a8.76 8.76 0 0 0-1.14 9.09l95.72-50.34Z" class="cls-12" data-name="Path 5520"/><path id="Path_5521-2" d="m132.77 233.74-.07-.11c4.01-.74 7.98-1.55 11.89-2.44 2.52-.56 4.99-1.21 7.49-1.81 1.22-.31 2.46-.59 3.66-.92 3.25-.86 6.45-1.77 9.62-2.72.31-.1.63-.19.94-.28 3.46-1.04 6.87-2.14 10.21-3.28l.06-.03a63.245 63.245 0 0 1-10.16 21.28c-8.86 12.02-27.2 19.81-37.99 25.29-9.56 4.86-16.25-.78-10.56-10.44 4.49-7.22 7.62-15.2 9.23-23.55l5.67-.99Z" class="cls-16" data-name="Path 5521-2"/><path id="Path_5522" d="M173.87 158.76c8.15 15.89 27.65 22.16 43.54 14 15.89-8.15 22.16-27.65 14-43.54-.1-.21-.22-.41-.32-.62l-57.22 30.15Z" class="cls-8" data-name="Path 5522"/><path id="Path_5523" d="M173.87 158.76c-8.33-15.8-2.27-35.36 13.53-43.69s35.36-2.27 43.69 13.53l-57.23 30.15Z" class="cls-1" data-name="Path 5523"/><path id="Path_5524" d="M214.36 166.22c12.45-6.56 17.22-21.97 10.66-34.43l-45.08 23.76c6.56 12.45 21.97 17.22 34.43 10.66" data-name="Path 5524" style="fill:#66c4e8"/><path id="Path_5525" d="M190.61 121.13c12.45-6.56 27.87-1.78 34.43 10.66l-45.09 23.75c-6.56-12.45-1.78-27.87 10.66-34.43" data-name="Path 5525" style="fill:#00a0df"/><path id="Path_5526" d="M192.14 171.99c-.53-.19-.81-.78-.62-1.32.19-.53.78-.81 1.32-.62.53.19.81.78.62 1.32-.18.49-.69.76-1.19.65l-.11-.04m6.12.52c.07-.56.57-.97 1.13-.91s.97.57.91 1.13-.57.97-1.13.91c-.04 0-.09 0-.12-.02-.51-.12-.84-.6-.78-1.12m-12.55-3.82c-.47-.31-.59-.95-.27-1.42.31-.47.95-.59 1.42-.27.47.31.59.95.27 1.42a1.05 1.05 0 0 1-1.43.28m19.53 4.02c-.07-.56.32-1.08.89-1.15.56-.07 1.07.33 1.14.9a1.024 1.024 0 0 1-1.25 1.12c-.41-.1-.72-.45-.78-.87m-24.98-8.76c-.37-.43-.33-1.08.1-1.45.42-.36 1.05-.33 1.43.08.38.42.34 1.08-.09 1.45a1.024 1.024 0 0 1-1.44-.08m31.79 7.29c-.21-.52.05-1.13.58-1.33.52-.21 1.13.05 1.33.58.21.52-.05 1.13-.58 1.33-.19.08-.41.1-.61.05-.32-.08-.59-.31-.72-.62m6.27-3.08c-.32-.47-.22-1.11.25-1.43.47-.32 1.11-.22 1.43.25.32.47.22 1.11-.25 1.43-.47.31-1.1.21-1.42-.25m5.35-4.48c-.43-.37-.48-1.02-.1-1.45s1.02-.48 1.45-.1.48 1.02.1 1.45c-.25.29-.64.41-1.01.32a.985.985 0 0 1-.44-.23m4.12-5.63c-.5-.26-.7-.88-.43-1.37.26-.5.88-.7 1.37-.43s.7.88.43 1.37c-.22.42-.69.63-1.14.52a.789.789 0 0 1-.23-.09m1.89-7.7.02-.05.02-.06c.12-.55.68-.9 1.23-.76s.9.68.76 1.23c0 .02 0 .05-.02.07v.06c-.14.55-.7.89-1.25.75s-.89-.69-.75-1.24m.77-6.8c0-.56.45-1.03 1.01-1.04.56 0 1.03.45 1.04 1.01 0 .56-.45 1.03-1.01 1.04-.09 0-.17 0-.26-.03-.46-.11-.77-.51-.78-.98m-.9-6.68c-.14-.54.18-1.11.73-1.25.54-.14 1.11.18 1.25.73s-.18 1.11-.73 1.25c-.54.14-1.11-.18-1.25-.73" class="cls-9" data-name="Path 5526"/><path id="Path_5527" d="M176.11 157.49c-.27-.5-.08-1.12.42-1.38s1.12-.08 1.38.42.08 1.12-.42 1.38c-.22.12-.48.15-.72.1-.29-.07-.53-.25-.67-.51" class="cls-9" data-name="Path 5527"/><path id="Path_5528" d="M173.48 150.76c-.13-.54.19-1.11.74-1.24.54-.13 1.11.19 1.24.74.13.54-.19 1.11-.74 1.24-.16.04-.32.04-.49 0-.37-.09-.66-.37-.75-.74" class="cls-9" data-name="Path 5528"/><path id="Path_5529" d="M172.54 143.6c0-.56.45-1.03 1.02-1.03s1.03.45 1.03 1.02-.45 1.03-1.02 1.03c-.09 0-.16 0-.25-.03-.46-.11-.78-.51-.78-.99" class="cls-9" data-name="Path 5529"/><path id="Path_5530" d="M173.35 136.43c.13-.55.69-.89 1.23-.76.55.13.89.69.76 1.23-.13.55-.69.89-1.23.76-.55-.13-.89-.69-.76-1.23" class="cls-9" data-name="Path 5530"/><path id="Path_5531" d="M176.28 131.02a1.01 1.01 0 0 1-.45-1.37c.26-.51.88-.71 1.37-.45.51.26.71.88.45 1.37-.21.42-.69.64-1.15.53-.08-.02-.16-.05-.23-.08" class="cls-9" data-name="Path 5531"/><path id="Path_5532" d="M179.98 125.11c-.42-.37-.47-1.02-.1-1.44s1.02-.47 1.44-.1c.42.37.47 1.02.1 1.44-.25.29-.64.41-1 .31a.985.985 0 0 1-.44-.23" class="cls-9" data-name="Path 5532"/><path id="Path_5533" d="M185 120.26c-.32-.47-.22-1.11.25-1.43.47-.32 1.11-.22 1.43.25.32.46.22 1.1-.25 1.43-.24.17-.54.23-.83.15-.24-.06-.46-.21-.6-.41" class="cls-9" data-name="Path 5533"/><path id="Path_5534" d="M227.09 130.07c-.27-.5-.09-1.13.41-1.39.5-.27 1.13-.09 1.39.41.27.5.09 1.13-.41 1.39-.5.27-1.12.09-1.39-.42" class="cls-9" data-name="Path 5534"/><path id="Path_5535" d="M191.03 116.73c-.2-.52.06-1.12.58-1.33.52-.2 1.12.06 1.33.58.2.52-.06 1.12-.58 1.33a.98.98 0 0 1-.61.04c-.32-.08-.59-.31-.72-.62" class="cls-9" data-name="Path 5535"/><path id="Path_5536" d="M223.21 124.57c-.38-.42-.35-1.08.07-1.46s1.08-.35 1.46.07.35 1.08-.07 1.46c-.25.23-.6.31-.93.24-.2-.05-.38-.16-.52-.31" class="cls-9" data-name="Path 5536"/><path id="Path_5537" d="M197.71 114.75c-.08-.56.31-1.08.88-1.15s1.08.31 1.15.88-.31 1.08-.88 1.15c-.12.02-.25.02-.37 0-.42-.1-.72-.44-.78-.87" class="cls-9" data-name="Path 5537"/><path id="Path_5538" d="M218.13 120.15c-.47-.31-.58-.95-.27-1.41.31-.47.95-.58 1.41-.27s.58.95.27 1.41a1.015 1.015 0 0 1-1.41.26" class="cls-9" data-name="Path 5538"/><path id="Path_5539" d="M204.68 114.43c.07-.56.57-.96 1.13-.9s.96.57.9 1.13c-.07.56-.57.96-1.13.9-.04 0-.09-.02-.13-.03-.51-.12-.84-.6-.78-1.12" class="cls-9" data-name="Path 5539"/><path id="Path_5540" d="M212.14 117.1a.98.98 0 0 1-.57-1.27.98.98 0 0 1 1.27-.57c.51.19.76.75.57 1.27-.17.47-.67.72-1.15.61l-.11-.04" class="cls-9" data-name="Path 5540"/></g></g></g></g></svg>