<svg class="a11y-filled__icon" role="presentation" aria-labelledby="a11y" xmlns="http://www.w3.org/2000/svg" viewBox="0 0 24.04 24.04"><title id="a11y">Accessibility</title><path class="outlined" d="m14.31 6.991-3.584.451a5.751 5.751 0 0 1-.723.045h-.029a5.751 5.751 0 0 1-.723-.045l-3.584-.451a.625.625 0 1 0-.159 1.24l2.615.327a.652.652 0 0 1 .53.536s.03 1.153 0 1.536a9.5 9.5 0 0 1-.421 1.747c-.127.453-.581 2.094-.833 3a.632.632 0 0 0 1.218.338c.193-.7.617-2.485.822-3.224a.572.572 0 0 1 1.1 0c.205.739.629 2.528.822 3.224a.632.632 0 0 0 1.218-.338c-.252-.908-.706-2.55-.833-3a9.5 9.5 0 0 1-.421-1.747c-.029-.383 0-1.536 0-1.536a.652.652 0 0 1 .53-.536l2.615-.327a.625.625 0 1 0-.159-1.24M9.989 3.753a1.284 1.284 0 0 1 1.249 1.255 1.25 1.25 0 0 1-2.5 0 1.284 1.284 0 0 1 1.25-1.255" fill="none"/><path class="filled" d="M9.999 0a10 10 0 1 0 10 10 10 10 0 0 0-10-10m-.007 3.754a1.284 1.284 0 0 1 1.25 1.256 1.25 1.25 0 0 1-2.5 0 1.284 1.284 0 0 1 1.25-1.256m4.482 4.486-2.615.327a.653.653 0 0 0-.53.537s-.03 1.155 0 1.537a9.479 9.479 0 0 0 .421 1.749c.127.453.582 2.1.833 3.006a.632.632 0 0 1-1.218.338c-.193-.7-.618-2.488-.823-3.227a.572.572 0 0 0-1.1 0c-.206.74-.63 2.531-.823 3.227a.632.632 0 0 1-1.218-.338c.251-.91.706-2.552.833-3.006a9.481 9.481 0 0 0 .421-1.749c.03-.383 0-1.537 0-1.537a.653.653 0 0 0-.53-.537L5.509 8.24a.626.626 0 0 1 .16-1.242l3.584.456a5.735 5.735 0 0 0 .723.045h.03a5.735 5.735 0 0 0 .723-.045l3.585-.452a.626.626 0 1 1 .159 1.242" fill="currentColor"/><path d="M9.6-.375A9.975 9.975 0 1 1-.375 9.6 9.986 9.986 0 0 1 9.6-.375Zm0 19.2A9.225 9.225 0 1 0 .375 9.6 9.235 9.235 0 0 0 9.6 18.825Z" transform="translate(.4 .4)" fill="currentColor"/><path fill="none" d="M0 0h20v19.999H0z"/></svg>