<svg class="add-document__icon" role="presentation" aria-labelledby="add-document" xmlns="http://www.w3.org/2000/svg" viewBox="0 0 32 32.18"><title id="add-document">Add Document</title><path d="M25.18 22.18h-3v-3a1 1 0 0 0-2 0v3h-3a1 1 0 0 0 0 2h3v3a1 1 0 0 0 2 0v-3h3a1 1 0 0 0 0-2Z"/><path d="M22 14.22V6l-6-6H4.18A2.19 2.19 0 0 0 2 2.18V26a2 2 0 0 0 2 2h9.59a9 9 0 0 0 16.57-4.22A9.16 9.16 0 0 0 22 14.22ZM16 2.83 19.16 6H16ZM12.64 26H4.18V2H14v6h6v6.24a8.85 8.85 0 0 0-7.82 8.94 9.06 9.06 0 0 0 .46 2.82Zm15.61-1.41a7.2 7.2 0 1 1-8.48-8.47 7.18 7.18 0 0 1 8.48 8.47Z" fill="currentColor"/><path fill="none" d="M0 0h32v32H0z"/></svg>