<svg class="icon" role="presentation" aria-labelledby="disabled" xmlns="http://www.w3.org/2000/svg" width="32" height="32"><title id="disabled">Add Disabled</title><path fill="none" d="M0 0h32v32H0z"/><path fill="#4a4f54" d="M29.241 27.481 4.05 2.289a.989.989 0 0 0-1.4 0l-.017.018a.987.987 0 0 0 0 1.4l1.521 1.514A16.22 16.22 0 0 0 0 15.952a16.011 16.011 0 0 0 15.977 16.036 16.363 16.363 0 0 0 10.775-4.168l1.075 1.08a.987.987 0 0 0 1.4 0l.017-.017a.987.987 0 0 0 0-1.4m-13.267 2.505A14.108 14.108 0 0 1 2 15.952a14.33 14.33 0 0 1 3.6-9.287l8.48 8.481H8.757a.875.875 0 0 0 0 1.75h6.33v6.286a.875.875 0 0 0 1.75 0V17.9l8.473 8.474a14.479 14.479 0 0 1-9.333 3.61M7.963 3.638a1.016 1.016 0 0 0 1.222.152A14 14 0 0 1 15.953 2a14.1 14.1 0 0 1 14 14 13.988 13.988 0 0 1-1.788 6.768 1.006 1.006 0 1 0 1.747 1A15.957 15.957 0 0 0 8.186 2.042a1.011 1.011 0 0 0-.223 1.596Z"/><path fill="#4a4f54" d="M15.953 7.943a.875.875 0 0 0-.875.875v1.59a.248.248 0 0 0 .073.176l1.285 1.282a.23.23 0 0 0 .158.066.235.235 0 0 0 .234-.235V8.818a.875.875 0 0 0-.875-.875M23.971 16.021a.875.875 0 0 1-.875.875h-1.59a.248.248 0 0 1-.176-.073l-1.282-1.285a.23.23 0 0 1-.066-.158.235.235 0 0 1 .235-.234H23.1a.875.875 0 0 1 .875.875"/></svg>