<svg class="admin__icon" role="presentation" aria-labelledby="admin" xmlns="http://www.w3.org/2000/svg" viewBox="0 0 32 31.97"><title id="admin">Admin</title><path d="M23.59 17.07h-4.68c-4.05 0-8.42 3.38-8.42 7.54v3.54a1.82 1.82 0 0 0 1.8 1.85H30.2a1.81 1.81 0 0 0 1.8-1.85v-3.54c0-4.16-4.36-7.54-8.41-7.54Zm-10.9 10.77v-3.53c0-3.13 3.24-5.09 6.29-5.09h4.53c3 0 6.3 2 6.3 5.09l.05 3.53Z" fill="currentColor"/><path d="M21.29 4.18a4.36 4.36 0 0 1 4.27 4.25 4.27 4.27 0 0 1-8.54 0 4.36 4.36 0 0 1 4.27-4.25m0-2.21a6.49 6.49 0 1 0 6.49 6.49A6.49 6.49 0 0 0 21.25 2Z" fill="currentColor"/><path d="M12 15.84v-1.73h-1a5 5 0 0 0-.88-2l.76-.76-1.25-1.23-.77.78a5 5 0 0 0-2-.78V9H5.14v1.15a5.13 5.13 0 0 0-1.95.85l-.82-.83-1.22 1.17.82.83a5.08 5.08 0 0 0-.82 1.94H0v1.73h1.14a5 5 0 0 0 .78 2l-.77.77 1.22 1.22.75-.76a5 5 0 0 0 2 .88v1h1.74V20a5 5 0 0 0 2.07-.84l.7.71 1.22-1.22-.7-.71a4.93 4.93 0 0 0 .85-2.1ZM6.06 18a3 3 0 1 1 3-3 3 3 0 0 1-3 3Z" fill="currentColor"/><path d="M.03 0H32v31.97H.03z" fill="none"/></svg>