<svg class="banking__icon" role="presentation" aria-labelledby="banking" xmlns="http://www.w3.org/2000/svg" viewBox="0 0 32 32"><title id="banking">Banking</title><path d="M18.79,18.57a3.48,3.48,0,0,0-.81-.49,11.81,11.81,0,0,0-1.14-.42l-.58-.19a2.45,2.45,0,0,1-.46-.21,1,1,0,0,1-.31-.25.56.56,0,0,1-.11-.35.54.54,0,0,1,.3-.51,2.12,2.12,0,0,1,1-.17,3.93,3.93,0,0,1,1,.13,7.08,7.08,0,0,1,.78.28L19,15.07a5.93,5.93,0,0,0-1-.36,5.67,5.67,0,0,0-.64-.11v-.18a1,1,0,0,0-2,0v.27l-.1,0a2.89,2.89,0,0,0-1,.44,2,2,0,0,0-.62.71,1.93,1.93,0,0,0-.22.93,1.82,1.82,0,0,0,.2.88,2.14,2.14,0,0,0,.54.62,3,3,0,0,0,.74.42c.27.11.55.21.83.3a5.68,5.68,0,0,1,1.33.52.7.7,0,0,1,.39.61.78.78,0,0,1-.06.31.5.5,0,0,1-.22.24,1.18,1.18,0,0,1-.42.17,3.05,3.05,0,0,1-.66.05,5.23,5.23,0,0,1-1.35-.14,5.48,5.48,0,0,1-.93-.33l-.54,1.34a2.93,2.93,0,0,0,.42.18,4.29,4.29,0,0,0,.6.19c.23.05.49.1.79.14l.25,0v.38a1,1,0,0,0,2,0v-.45a3.23,3.23,0,0,0,1.23-.47,1.86,1.86,0,0,0,.83-1.62,2.49,2.49,0,0,0-.16-.92A1.93,1.93,0,0,0,18.79,18.57Z" fill="currentColor"/><path d="M32,27.5a.5.5,0,0,0-.5-.5H30V24.5a.5.5,0,0,0-.5-.5H28V13h1.5a.5.5,0,0,0,.5-.5V10h1.48a.5.5,0,0,0,.5-.5v-4a.5.5,0,0,0-.5-.5H28.57L16,0,3.46,5H.51a.5.5,0,0,0-.5.5v4a.5.5,0,0,0,.5.5H2V12.5a.5.5,0,0,0,.5.5H4V24H2.53a.5.5,0,0,0-.5.5V27H.5a.5.5,0,0,0-.5.5l0,4a.5.5,0,0,0,.5.5h31a.5.5,0,0,0,.5-.5ZM28,11H22V10h6ZM11.53,24H10V13h1.5a.5.5,0,0,0,.5-.5V10h8V12.5a.5.5,0,0,0,.5.5H22V24h-1.5a.5.5,0,0,0-.5.5V27H12V24.5A.5.5,0,0,0,11.53,24ZM22,26h6v1H22Zm2-2V13h2V24ZM16,2.1,23,5H9.05ZM2,7H30V8H2Zm8,3v1H4V10ZM8,13V24H6V13ZM4,26l6,0v1H4Zm26,4H2V29H30Z" fill="currentColor"/><path d="M0 0h32v32H0z" width="32" height="32" fill="none"/></svg>