<svg class="calendar__icon" role="presentation" aria-labelledby="calendar" xmlns="http://www.w3.org/2000/svg" viewBox="0 0 32 32"><title id="calendar">Calendar</title><path d="M28 4.4h-2v.2c0-1.7-1.3-3-3-3s-3 1.3-3 3v-.2h-8v.2c0-1.7-1.3-3-3-3s-3 1.3-3 3v-.2H4c-2.2 0-4 1.8-4 4v20c0 1.1.9 2 2 2h28c1.1 0 2-.9 2-2v-20c0-2.2-1.8-4-4-4zm-5-.8c.6 0 1 .4 1 1v2c0 .6-.4 1-1 1s-1-.4-1-1v-2c0-.6.5-1 1-1zm-14 0c.6 0 1 .4 1 1v2c0 .6-.4 1-1 1s-1-.4-1-1v-2c0-.6.5-1 1-1zm-7 8.8v-4c0-1.1.9-2 2-2h2v.2c0 1.7 1.3 3 3 3s3-1.3 3-3v-.2h8v.2c0 1.7 1.3 3 3 3s3-1.3 3-3v-.2h2c1.1 0 2 .9 2 2v4H2zm28 2v14H2v-14h28z" fill="currentColor"/><path d="M0 0h32v32H0V0z" fill="none"/></svg>

