<svg class="contacts__icon" role="presentation" aria-labelledby="contacts" xmlns="http://www.w3.org/2000/svg" viewBox="0 0 32 32"><title id="contacts">Contacts</title><path d="M14.1 8.28a2.53 2.53 0 0 1 2.48 2.46 2.48 2.48 0 0 1-4.95 0 2.53 2.53 0 0 1 2.47-2.46m0-1.75a4.23 4.23 0 1 0 4.23 4.23 4.23 4.23 0 0 0-4.25-4.23Z" fill="currentColor"/><path d="M15.6 16.74h-3c-2.64 0-5.49 2.51-5.49 5.22v2.31a1.19 1.19 0 0 0 1.18 1.2h11.63a1.18 1.18 0 0 0 1.17-1.2V22c0-2.75-2.84-5.26-5.49-5.26Zm3.74 7H8.81v-2c0-1.85 2-3.22 3.86-3.22h2.82c1.9 0 3.85 1.37 3.85 3.22Z" fill="currentColor"/><path d="M27.13 2H4.87a2 2 0 0 0-2 2v24a2 2 0 0 0 2 2h22.27a2 2 0 0 0 2-2V4a2 2 0 0 0-2.01-2ZM25 4h1.84v6.73H25Zm1.84 8.73v7H25v-7ZM23 28H5.13V4H23Zm2 0v-6.26h1.84V28Z" fill="currentColor"/><path fill="none" d="M0 0h32v32H0z"/></svg>