<svg class="donate__icon" role="presentation" aria-labelledby="donate" xmlns="http://www.w3.org/2000/svg" viewBox="0 0 32 32"><title id="donate">Donate</title><path d="M31.9 5.25c0-.41-.34-.75-.75-.75l-5.25.02v.33c-2.55-.56-6.17-1.45-8.88-2.5-.53-.21-2.09-.5-3.44-.28-1.52.25-4.2 2.04-4.95 2.57-1.56 1.11-4.5 3.07-5.62 4.63-.83 1.16-.76 2.56-.69 4.19.01.35.03.72.04 1.11.03 1.73.07 2.95.1 3.7A8.048 8.048 0 0 0 0 24.07a7.974 7.974 0 0 0 8.01 7.94A7.974 7.974 0 0 0 15.95 24c0-.96-.18-1.87-.5-2.72.26-.22.53-.47.8-.72.84-.77 1.79-1.64 3.04-2.35.97-.55 1.04-.6 2.32-.73 1.67-.17 3.14-.25 4.33-.29v.58l5.25-.02c.41 0 .75-.34.75-.75l-.05-11.74ZM7.72 30c-3.49-.06-5.78-2.76-5.72-6.25.06-3.49 2.45-5.81 5.94-5.75.45 0 .76.04 1.18.14 0 0-.22.88.1 1.83-.13-.04-.25-.1-.39-.13v-.7H7.08v.7c-.23.05-.46.11-.67.2-.46.19-.82.46-1.07.81-.25.34-.37.74-.37 1.18 0 .84.46 1.52 1.38 2.02.2.11.45.21.72.32v2.22c-.44-.21-.68-.58-.68-1.15H4.71c0 .52.13.99.4 1.38s.66.71 1.18.94c.25.11.51.19.78.25v.47h1.75v-.45c.52-.09.97-.26 1.33-.53.53-.4.8-.95.8-1.66 0-.63-.22-1.16-.65-1.59-.34-.33-.83-.61-1.47-.86v-2.06s.07.03.1.06c.23.21.35.5.35.87h1.68c0-.12-.03-.22-.05-.33.52.33 1.1.54 1.71.55h.29c.36-.02.5-.05.82-.19.15.56.28 1.11.27 1.72-.06 3.49-2.79 6.06-6.28 6Zm2.49-13.74c-.24-.07-.48-.14-.72-.19l.03-2.85c1.48-.47 2.37-1.37 2.88-2.14l1.78 1.56c-1.22 1.02-3.01 2.38-3.98 3.61Zm-1.39 8.8.11.07c.22.17.33.41.33.73 0 .29-.11.52-.33.68-.03.02-.08.03-.11.05v-1.53ZM7.07 21.3v1.41s-.03-.01-.03-.02c-.27-.18-.4-.4-.4-.66 0-.28.11-.51.34-.68.03-.02.07-.03.09-.04Zm14.38-5.69c-1.51.12-1.86.22-3.13.91-1.46.79-2.57 1.76-3.46 2.54-.84.74-1.57 1.38-2.1 1.41-.5.03-1.05-.24-1.37-.69-.17-.24-.41-.72-.15-1.32.42-.98 3.24-3.51 5.12-5l.94-.75-5.77-5.05-.41 1.56c-.02.07-.5 1.8-2.74 2.23l-.78.15-.07 4.3c-1.11.04-2.16.31-3.11.76V14.3c0-.4 0-.79-.01-1.16-.03-1.36-.05-2.35.39-2.94.72-.97 4.79-3.84 6.21-4.76.95-.61 2.32-1.3 3.19-1.43.96-.14 2.14.12 2.38.22 2.99 1.24 6.74 2.28 9.35 2.9l.06 8.27c-1.23.02-2.77.07-4.53.21Zm6.52.15-.05-9.22h2l.02 9.22h-1.96Z" fill="currentColor"/><path d="M0 0h32v32H0z" fill="none"/></svg>