<svg class="download-document__icon" role="presentation" aria-labelledby="download-document" xmlns="http://www.w3.org/2000/svg" viewBox="0 0 32 32"><title id="download-document">Download Document</title><path d="M4 2v28c0 1.1.9 2 2 2h19.98c1.1 0 2-.9 2-2L28 6l-6-6H6C4.9 0 4 .9 4 2Zm22 28H6V2h14v6h6v22Zm-.84-24H22V2.83L25.16 6Z"/><rect x="9.98" y="24.02" width="12" height="2" rx="1" ry="1"/><path d="M21.69 14.95a.984.984 0 0 0-1.4 0l-3.3 3.28V8.97c0-.55-.44-.99-.99-.99s-.99.44-.99.99v9.26l-3.35-3.42a.984.984 0 0 0-1.4 0 .984.984 0 0 0 0 1.4l5.73 5.8h.02l5.67-5.65a.984.984 0 0 0 0-1.4Z"/><path d="M0 0h32v32H0z" fill="none"/></svg>