<svg class="download__icon" role="presentation" aria-labelledby="download" xmlns="http://www.w3.org/2000/svg" viewBox="0 0 32 32"><title id="download">Download</title><path d="M25.19 13.39a1 1 0 0 1 0 1.42l-7.78 7.78L16 24l-1.41-1.41-7.78-7.77a1 1 0 0 1 0-1.42 1 1 0 0 1 1.42 0L15 20.17V3a1 1 0 0 1 1-1 1 1 0 0 1 1 1v17.17l6.78-6.78a1 1 0 0 1 1.42 0Z" fill="currentColor"/><path d="M28 24a1 1 0 1 0-2 0v4H6v-4a1 1 0 1 0-2 0v4a2 2 0 0 0 2 2h20a2 2 0 0 0 2-2Z" fill="currentColor"/><path d="M0 0h32v32H0z" fill="none"/></svg>