<svg class="edit__icon" role="presentation" aria-labelledby="edit" xmlns="http://www.w3.org/2000/svg" viewBox="0 0 32 32"><title id="edit">Edit</title><path d="M31.42 6.24a2 2 0 0 0 0-2.83L28.58.58a2 2 0 0 0-2.83 0L9.31 17.05l-1.6 7.27L15 22.71ZM27.17 2 30 4.83l-2.83 2.83-2.83-2.83ZM10.31 21.72l.85-3.72L22.93 6.25l2.83 2.82L14 20.86Z" fill="currentColor"/><path d="M28 14v14H4V6h12V4H4a2 2 0 0 0-2 2v22a2 2 0 0 0 2 2h24a2 2 0 0 0 2-2V14Z" fill="currentColor"/><path d="M0 0h32v32H0z" fill="none"/></svg>