<svg class="edit-disabled__icon" role="presentation" aria-labelledby="edit" xmlns="http://www.w3.org/2000/svg" viewBox="0 0 32 32"><title id="edit">Edit Disabled</title><path d="m11.74 14.6-.68.68-.74.74-4.96 4.97-1.6 7.27 7.27-1.62 5.72-5.73.65-.65-5.66-5.66Zm-1.7 10.2-3.68.85.85-3.68 4.54-4.54 2.83 2.83-4.53 4.54ZM20.24 17.41l7.22-7.23c.78-.78.78-2.05 0-2.83l-2.83-2.83c-.78-.78-2.05-.78-2.83 0l-7.22 7.23-7.21-7.21a.996.996 0 1 0-1.41 1.41l19.8 19.8a.996.996 0 1 0 1.41-1.41l-6.93-6.93Zm2.98-11.47 2.83 2.83-2.83 2.83-2.83-2.83 2.83-2.83ZM16 13.17l3.16-3.16 2.83 2.83L18.83 16 16 13.17Z" fill="currentColor"/><path fill="none" d="M0 0h32v32H0z"/></svg>