<svg class="failure__icon" role="presentation" aria-labelledby="failure" xmlns="http://www.w3.org/2000/svg" viewBox="0 0 32 32"><title id="failure">Failure</title><path d="M16,0A16,16,0,1,0,32,16,16,16,0,0,0,16,0Zm0,30A14.09,14.09,0,0,1,2,16,14.09,14.09,0,0,1,16,2,14.09,14.09,0,0,1,30,16,14.09,14.09,0,0,1,16,30Z" fill="currentColor"/><path d="M20.24,10.34,16,14.59l-4.24-4.25a1,1,0,0,0-1.42,1.42L14.59,16l-4.25,4.24a1,1,0,0,0,1.42,1.42L16,17.41l4.24,4.25a1,1,0,0,0,1.42-1.42L17.41,16l4.25-4.24a1,1,0,0,0-1.42-1.42Z" fill="currentColor"/></svg>