<svg class="home__icon" role="presentation" aria-labelledby="home" xmlns="http://www.w3.org/2000/svg" viewBox="0 0 32 32"><title id="home">Home</title><path d="M31.15 17.24 17.42 3.51 16.01 2.1 14.6 3.51.87 17.24a.996.996 0 1 0 1.41 1.41l1.7-1.7v10.99c0 1.1.9 2 2 2H14v-2h-.02v-8h4v10h8c1.1 0 2-.9 2-2V16.89l1.76 1.76a.996.996 0 1 0 1.41-1.41Zm-5.17-2.29v13h-6v-9c0-.55-.45-1-1-1h-6c-.55 0-1 .45-1 1v9h-6V14.96L16.01 4.93l9.98 9.98v.04Z" fill="currentColor"/><path d="M0 0h32v32H0z" fill="none"/></svg>