<svg class="incomplete__icon" role="presentation" aria-labelledby="incomplete" xmlns="http://www.w3.org/2000/svg" viewBox="0 0 32.09 32.09"><title id="incomplete">Incomplete</title><path d="m20.56 11.25-6.79 6.79-2.26-2.26c-.42-.42-1.09-.42-1.51 0-.42.42-.42 1.09 0 1.51l3.77 3.77 8.29-8.3c.42-.42.42-1.09 0-1.51-.42-.42-1.09-.42-1.51 0Z" fill="currentColor"/><path d="M25.79 4.68c-.37.4-.37 1.02.02 1.4 3.31 3.26 5.04 8.13 3.81 13.26s-5.56 9.36-10.85 10.4c-4.54.9-8.84-.5-11.95-3.23-.4-.35-1-.32-1.37.06-.42.42-.39 1.11.06 1.5 3.3 2.88 7.78 4.42 12.62 3.8 7.13-.91 12.87-6.67 13.76-13.8.66-5.25-1.24-10.07-4.61-13.41-.42-.41-1.09-.42-1.48.02Z" fill="currentColor"/><circle cx="1.31" cy="12.76" r="1" fill="currentColor"/><circle cx="8.1" cy="3.24" r="1" fill="currentColor"/><circle cx="2.73" cy="9.04" r="1" fill="currentColor"/><circle cx="5.01" cy="5.79" r="1" fill="currentColor"/><circle cx="11.75" cy="1.63" r="1" fill="currentColor"/><circle cx="15.71" cy="1" r="1" fill="currentColor"/><circle cx="1.04" cy="16.76" r="1" fill="currentColor"/><circle cx="19.68" cy="1.46" r="1" fill="currentColor"/><circle cx="23.38" cy="2.95" r="1" fill="currentColor"/><circle cx="3.49" cy="24.3" r="1" fill="currentColor"/><circle cx="1.76" cy="20.76" r="1" fill="currentColor"/><path d="M0 .09h32v32H0z" fill="none"/></svg>