<svg class="integration__icon" role="presentation" aria-labelledby="integration" xmlns="http://www.w3.org/2000/svg" viewBox="0 0 32 32"><title id="integration">Integration</title><path d="M27 15.02v12H5.04V5h11.94V3H5.04c-1.1 0-2 .9-2 2v22.02c0 1.1.9 2 2 2H27c1.1 0 2-.9 2-2v-12h-2Z" fill="currentColor"/><path d="M21 3v8h8V3h-8Zm6 6h-4V5h4v4Z" fill="currentColor"/><path class="h" d="M16.97 15V9h-8v14h14.02v-8h-6.02Zm-2-3.98V15h-3.99v-3.98h3.99Zm-4 9.98.02-4h3.98v4h-4Zm10.02 0h-4v-4h4v4Z" fill="currentColor"/><path d="M0 0h32v32H0z" fill="none"/></svg>