<svg class="invoice__icon" role="presentation" aria-labelledby="invoice" xmlns="http://www.w3.org/2000/svg" viewBox="0 0 32 32.06"><title id="invoice">Invoice</title><rect x="8" y="18" width="16" height="2" rx="1" ry="1" fill="currentColor"/><rect x="8" y="22" width="16" height="2" rx="1" ry="1" fill="currentColor"/><path d="M18.88 10.03a3.4 3.4 0 0 0-.96-.58c-.38-.17-.84-.33-1.36-.51-.25-.08-.48-.15-.69-.22-.21-.07-.39-.15-.55-.24-.16-.09-.28-.19-.37-.3a.63.63 0 0 1-.13-.41c0-.27.12-.48.35-.61.24-.13.62-.2 1.16-.2.48 0 .89.05 1.23.15.34.1.65.21.93.34l.65-1.57a7.28 7.28 0 0 0-1.21-.42c-.23-.06-.48-.1-.75-.13v-.22c0-.59-.54-1.07-1.2-1.07s-1.2.48-1.2 1.07v.32s-.08.01-.12.02c-.45.12-.84.3-1.15.53-.32.23-.56.51-.74.84-.17.33-.26.7-.26 1.11s.08.76.25 1.04c.16.29.37.53.63.73.26.2.55.37.88.5.33.13.65.25.98.35.75.22 1.28.43 1.59.62.31.19.46.43.46.72 0 .14-.02.26-.07.37-.05.11-.14.21-.26.29-.12.08-.29.14-.5.19a3.5 3.5 0 0 1-.79.07c-.63 0-1.17-.06-1.61-.17-.44-.12-.81-.25-1.1-.39l-.63 1.59c.13.07.3.14.5.22.2.08.43.15.71.22.27.07.59.13.94.17.09.01.2 0 .29.02v.45c0 .59.54 1.07 1.2 1.07s1.2-.48 1.2-1.07v-.53c.59-.11 1.09-.29 1.46-.55.65-.46.98-1.1.98-1.93 0-.43-.06-.79-.19-1.09-.12-.3-.32-.56-.57-.78Z" fill="currentColor"/><path d="M28.03 28V2c0-1.1-.9-2-2-2h-20c-1.1 0-2 .9-2 2v26l2.67 2.73 1.33 1.33 1.33-1.33 1.33-1.33 1.33 1.33 1.33 1.33 1.33-1.33 1.33-1.33 1.33 1.33 1.33 1.33L20 30.73l1.33-1.33 1.33 1.33 1.33 1.33 1.33-1.33 2.66-2.72Zm-4 1.39-2.67-2.67-2.67 2.67-2.67-2.67-2.67 2.67-2.67-2.67-2.67 2.67-2-2.05V2h20.02v25.39l-2 2Z" fill="currentColor"/><path fill="none" d="M0 0h32v32H0z"/></svg>