<svg class="linkedin__icon" role="presentation" aria-labelledby="linkedin" xmlns="http://www.w3.org/2000/svg" viewBox="0 0 32 32"><title id="linkedin">LinkedIn</title><path d="M27.9 2.1H4.1C2.93 2.1 2 3.04 2 4.09v23.97c0 1.05.93 1.99 2.1 1.99h23.8c1.17 0 2.1-.94 2.1-1.99V4.09c0-1.05-.93-1.99-2.1-1.99ZM10.28 25.96H6.2V12.63h4.08v13.33ZM8.3 10.76c-1.28 0-2.45-1.05-2.45-2.46S6.9 5.84 8.3 5.84c1.28 0 2.45 1.05 2.45 2.46s-1.17 2.46-2.45 2.46Zm17.62 15.08h-4.08v-6.55c0-1.52 0-3.62-2.22-3.62s-2.45 1.75-2.45 3.39v6.67h-4.08v-13.1h3.85v1.75h.12c.58-1.05 1.98-2.22 3.97-2.22 4.2 0 5.02 2.81 5.02 6.43v7.25h-.12Z" fill="currentColor"/><path fill="none" d="M0 0h32v32H0z"/></svg>