<svg class="cpl__icon" role="presentation" aria-labelledby="cpl" xmlns="http://www.w3.org/2000/svg" width="48" height="48"><title id="cpl">CloudPayroll Limited</title><path class="b" d="M44.628 38.186V7.387a6 6 0 1 0-12 0l-.062 20.914 8.962 5.04a6.31 6.31 0 0 1 3.1 4.846" fill="currentColor"/><path class="b" d="m41.597 35.518-9.022-4.978-10.2-5.712c-.07 0-.206-.067-.206-.134l-.07-.067a.907.907 0 0 1-.276-.739.854.854 0 0 1 .276-.672 3.3 3.3 0 0 0 .48-.538 6.6 6.6 0 0 0 1.034-2.086 5.88 5.88 0 0 0-.552-4.438 5.675 5.675 0 0 0-3.653-2.69 6 6 0 0 0-4.56.6l-8.81 4.841a5.718 5.718 0 0 0-2.688 3.23c0 .134-.07.2-.07.336s-.07.269-.07.4-.07.336-.07.48v.884a4.7 4.7 0 0 0 .137 1.344v-.01l.137.336a5.663 5.663 0 0 0 2.691 3.23l29.316 16.537-.038-.053a6.174 6.174 0 0 0 3.113.859 6.038 6.038 0 0 0 3.377-1.008 5.893 5.893 0 0 0 2.688-5.381 5.782 5.782 0 0 0-2.964-4.572" fill="currentColor"/><path fill="none" d="M0 0h48v48H0z"/></svg>