<svg class="maintenance__icon" role="presentation" aria-labelledby="maintenance" xmlns="http://www.w3.org/2000/svg" viewBox="0 0 32 32"><title id="maintenance">Maintenance</title><path d="M32 27.43a4.05 4.05 0 0 0-1.32-3.1L14.8 9.81a2.27 2.27 0 0 1-.67-1.87 6.92 6.92 0 0 0-2.57-5.67 6.62 6.62 0 0 0-8.62-.75 6.81 6.81 0 0 0-1.08 1 .56.56 0 0 0 .14.82l4.43 2.52a1.88 1.88 0 0 1-.19.94 2.43 2.43 0 0 1-.75 1L1 5.26a.52.52 0 0 0-.76.34 7.91 7.91 0 0 0-.24 2 7.21 7.21 0 0 0 2.33 5.19 6.78 6.78 0 0 0 6 1.73c.25 0 1.44-.37 1.88.11l14.44 15.86a3.65 3.65 0 0 0 3 1.52A4.6 4.6 0 0 0 32 27.43Zm-4.28 2.46a1.72 1.72 0 0 1-1.52-.64l-13.45-14.8-1.54-1.69a2.57 2.57 0 0 0-2.52-.66 4.85 4.85 0 0 1-5-.81 5.45 5.45 0 0 1-1.27-3.13l2.81 1.56a1 1 0 0 0 1 0A3.93 3.93 0 0 0 8 7.88a5.38 5.38 0 0 0 .79-2.26 1.1 1.1 0 0 0-.54-1.07l-3.4-1.9a5.49 5.49 0 0 1 5.42 1.09 4.82 4.82 0 0 1 1.57 4.73 2 2 0 0 0 .7 2l.63.58L28 24.53l1.48 1.35a2.62 2.62 0 0 1 .52 1.61 2.48 2.48 0 0 1-2.27 2.4Z" fill="currentColor"/><path d="m29 0-7.82 4a1 1 0 0 0-.54 1l.16 2.39-4.17 4.16 1.48 1.36 4.79-4.86-.21-2.62 5.46-2.71 1.09 1.11-2.53 5.71L24 9.15l-4.82 4.64 1.48 1.35 4-3.88 2.45.31a1 1 0 0 0 1-.56l3.83-8ZM15.69 20.65l-1.35-1.48a2.82 2.82 0 0 0-.71 1.71L6.05 29.3a2.31 2.31 0 0 1-3.32-3.21l8.2-7.83a2.78 2.78 0 0 0 1.79-.87l-1.31-1.45a1.6 1.6 0 0 1-1.51.5l-8.6 8.25a4.31 4.31 0 1 0 6.18 6l8-8.84a1.45 1.45 0 0 1 .21-1.2Z" fill="currentColor"/></svg>