<svg class="printer__icon" role="presentation" aria-labelledby="printer" xmlns="http://www.w3.org/2000/svg" viewBox="0 0 32 32"><title id="printer">Printer</title><rect class="cls-1" x="26" y="16" width="2" height="2" rx=".99" fill="currentColor"/><path d="M32 25v-8a5 5 0 0 0-5-5h-1V6l-6-6H7a1 1 0 0 0-1 1v11H5a5 5 0 0 0-5 5v8a1 1 0 0 0 1 1h3v6h24v-6h3a1 1 0 0 0 1-1ZM20 2.83 23.17 6H20ZM8 12V2h10v6h6v4Zm18 12v6H6v-6Zm4-7v7h-2v-2H4v2H2v-7a3 3 0 0 1 3-3h22a3 3 0 0 1 3 3Z" fill="currentColor"/><rect x="8" y="26" width="16" height="2" rx="1" fill="currentColor"/></svg>