<svg class="receipt__icon" role="presentation" aria-labelledby="receipt" xmlns="http://www.w3.org/2000/svg" viewBox="0 0 32 32.09"><title id="receipt">Receipt</title><path d="M29.3 25.31c-.98 0-3.37-.02-3.37-.02L25.87 0 23.1 2.67 20.36 0l-2.73 2.67L14.89 0l-2.73 2.67L9.4.02 6.65 2.67 3.89.03v27.08a4.966 4.966 0 0 0 4.97 4.95s16.19.05 16.55.03c2.52-.03 4.58-2.46 4.58-5.06 0-.47-.08-.92-.2-1.35a.516.516 0 0 0-.5-.37ZM9.48 29.99A3.04 3.04 0 0 1 5.89 27V4.6l.76.74 2.73-2.67.02.02.02-.02 2.73 2.67 2.73-2.67 2.73 2.67 2.71-2.64.02-.02 2.73 2.67.77-.75.06 20.7H12.3c-.35.01-.62.35-.5.68.17.48.23 1.01.13 1.57-.21 1.23-1.22 2.24-2.44 2.45Zm15.58.05v-.02l-12.23.04c.58-.78.94-1.72.98-2.76h14.26c-.16 1.53-1.44 2.74-3.01 2.74Z" fill="currentColor"/><rect x="7.91" y="21.28" width="14" height="2" rx="1" ry="1" fill="currentColor"/><path d="M17.79 13.34a3.4 3.4 0 0 0-.96-.58c-.38-.17-.84-.33-1.36-.51-.25-.08-.48-.15-.69-.22-.21-.07-.39-.15-.55-.24-.16-.09-.28-.19-.37-.3a.63.63 0 0 1-.13-.41c0-.27.12-.48.35-.61.24-.13.62-.2 1.16-.2.48 0 .89.05 1.23.15.34.1.65.21.93.34l.65-1.57a7.28 7.28 0 0 0-1.21-.42c-.23-.06-.48-.1-.75-.13v-.22c0-.59-.54-1.07-1.2-1.07s-1.2.48-1.2 1.07v.32s-.08.01-.12.02c-.45.12-.84.3-1.15.53-.32.23-.56.51-.74.84-.17.33-.26.7-.26 1.11s.08.76.25 1.04c.16.29.37.53.63.73.26.2.55.37.88.5.33.13.65.25.98.35.75.22 1.28.43 1.59.62.31.19.46.43.46.72 0 .14-.02.26-.07.37-.05.11-.14.21-.26.29-.12.08-.29.14-.5.19a3.5 3.5 0 0 1-.79.07c-.63 0-1.17-.06-1.61-.17-.44-.12-.81-.25-1.1-.39l-.63 1.59c.13.07.3.14.5.22.2.08.43.15.71.22.27.07.59.13.94.17.09.01.2 0 .29.02v.45c0 .59.54 1.07 1.2 1.07s1.2-.48 1.2-1.07v-.53c.59-.11 1.09-.29 1.46-.55.65-.46.98-1.1.98-1.93 0-.43-.06-.79-.19-1.09-.12-.3-.32-.56-.57-.78Z" fill="currentColor"/><path fill="none" d="M0 .03h32v32H0z"/></svg>