<svg class="report__icon" role="presentation" aria-labelledby="report" xmlns="http://www.w3.org/2000/svg" viewBox="0 0 32 32.04"><title id="report">Report</title><path d="M27.98 12.01V2c0-1.1-.9-2-2-2h-20c-1.1 0-2 .9-2 2v28.04c0 1.1.9 2 2 2h20c1.1 0 2-.9 2-2V12.01Zm-1.98 18h-.93s-.07.02-.11.02H6.99s-.03-.02-.04-.02H6v-.88s-.02-.07-.02-.11v-26S6 2.94 6 2.91v-.89h20v27.99Z" fill="currentColor"/><rect x="7.99" y="22.01" width="15.99" height="2" rx="1" ry="1" fill="currentColor"/><rect x="8.01" y="26.01" width="15.99" height="2" rx="1" ry="1" fill="currentColor"/><path class="cls-3" d="M17 4.76v3.06h-3.25c-.41 0-.75.34-.75.75v3.42H9.75c-.41 0-.75.34-.75.75v6.52c0 .41.34.75.75.75h12.47c.41 0 .75-.34.75-.75V4.76c0-.41-.34-.75-.75-.75h-4.47c-.41 0-.75.34-.75.75Zm-4.01 13.03H11v-3.78h1.99v3.78Zm4 0H15v-7.78h1.99v7.78Zm4 0H19V6.01h1.99v11.78Z" fill="currentColor"/><path fill="none" d="M0 .01h32v32H0z"/></svg>