<svg class="schedule__icon" role="presentation" aria-labelledby="schedule" xmlns="http://www.w3.org/2000/svg" viewBox="0 0 31.98 31.37"><title id="schedule">Schedule</title><path d="M28 16.45V6.2a3.76 3.76 0 0 0-3.75-3.75h-1.53A2.49 2.49 0 0 0 20.09 0a2.61 2.61 0 0 0-2.62 2.61h-6.95A2.62 2.62 0 0 0 7.89 0a2.48 2.48 0 0 0-2.62 2.45H3.5A3.5 3.5 0 0 0 0 6v17.63a1.75 1.75 0 0 0 1.75 1.75h14.5A8 8 0 1 0 28 16.45ZM19.15 2.53a.94.94 0 0 1 .93-.94 1 1 0 0 1 1 .94v2.16a1 1 0 0 1-.95.94.94.94 0 0 1-.94-.94ZM7.9 1.59a.93.93 0 0 1 .93.94v2.16a.94.94 0 0 1-1.83 0V2.53a.94.94 0 0 1 .9-.94ZM2 6.2a1.75 1.75 0 0 1 1.75-1.74h1.52v.11a2.62 2.62 0 0 0 2.62 2.66 2.62 2.62 0 0 0 2.63-2.62h7a2.62 2.62 0 0 0 2.62 2.62 2.64 2.64 0 0 0 2.63-2.66v-.11h1.51A1.74 1.74 0 0 1 26 6.2v3.18H2Zm0 17.13v-11.9h24v4.2a8.24 8.24 0 0 0-2-.26 8 8 0 0 0-8 8H2Zm23.46 5.86a6 6 0 1 1 4.4-4.48 6 6 0 0 1-4.4 4.48Z" fill="currentColor"/><path d="m26.88 25.17-2.4-2.4v-2.62a.78.78 0 1 0-1.56 0v3.26l2.85 2.86a.78.78 0 0 0 1.1-1.1Z" fill="currentColor"/><path d="M0 0h32v32H0z" width="32" height="32" fill="none"/></svg>