<svg class="schedule__icon" role="presentation" aria-labelledby="schedule" xmlns="http://www.w3.org/2000/svg" viewBox="0 0 32 32"><title id="schedule">Schedule</title><path d="m15.98 29.19-3.53-3.53c-.39-.39-1.03-.39-1.42 0-.39.39-.39 1.03 0 1.42l3.53 3.53 1.41 1.41 1.41-1.41 3.54-3.54c.38-.38.39-1 0-1.39l-.02-.02a.984.984 0 0 0-1.4-.01c-1.79 1.79-3.54 3.55-3.54 3.55Z" fill="currentColor"/><path d="M8.98 6.95v8.07c0 3.87 3.13 7 7 7s7-3.13 7-7V7.1A7.08 7.08 0 0 0 15.9.02c-3.82 0-6.92 3.1-6.92 6.93Zm7 13.33a5.25 5.25 0 0 1-5.25-5.25V7.02a5.25 5.25 0 1 1 10.5 0v8c0 2.9-2.35 5.25-5.25 5.25Z" fill="currentColor"/><rect x="14.98" y="5.02" width="2" height="4" rx="1" ry="1" fill="currentColor"/><path d="M0 0h32v32H0z" fill="none"/></svg>