<svg class="success__icon" role="presentation" aria-labelledby="success" xmlns="http://www.w3.org/2000/svg" viewBox="0 0 32 32"><title id="success">Success</title><path d="M16 0a16 16 0 1 0 16 16A16 16 0 0 0 16 0Zm0 30A14.09 14.09 0 0 1 2 16 14.09 14.09 0 0 1 16 2a14.09 14.09 0 0 1 14 14 14.09 14.09 0 0 1-14 14Z" fill="currentColor"/><path d="M20.52 11.25 13.74 18l-2.27-2.26a1.05 1.05 0 0 0-1.5 0 1.06 1.06 0 0 0 0 1.51l3.77 3.77L22 12.76a1.06 1.06 0 0 0 0-1.51 1.08 1.08 0 0 0-1.48 0Z" fill="currentColor"/></svg>