<svg class="task__icon" role="presentation" aria-labelledby="task" xmlns="http://www.w3.org/2000/svg" viewBox="0 0 32 32"><title id="task">Task</title><path d="M26.07,3H22V1.5a.5.5,0,0,0-.5-.5h-11a.5.5,0,0,0-.5.5V3H6.07a2,2,0,0,0-2,2L4,29a2,2,0,0,0,2,2H26a2,2,0,0,0,2-2l.05-24A2,2,0,0,0,26.07,3ZM12,3h8V5H12ZM26,29H6l0-24h4V6.51a.49.49,0,0,0,.49.49h11A.52.52,0,0,0,22,6.48V5h4.05Z" fill="currentColor"/><path d="M20.24,12.66,13.88,19,11.76,16.9a1,1,0,0,0-1.42,0h0a1,1,0,0,0,0,1.41l3.18,3.18a.5.5,0,0,0,.71,0l7.42-7.42a1,1,0,0,0,0-1.41h0A1,1,0,0,0,20.24,12.66Z" fill="currentColor"/><rect width="32" height="32" fill="none"/></svg>