<svg class="timer__icon" role="presentation" aria-labelledby="timer" xmlns="http://www.w3.org/2000/svg" viewBox="0 0 30.25 32"><title id="timer">Timer</title><path d="m20 21.44-4-4v-5.59a1 1 0 0 0-2 0v6.42l4.58 4.58a1 1 0 0 0 1.42 0 1 1 0 0 0 0-1.41Z" fill="currentColor"/><path d="m27.68 5.71.86.86a1 1 0 0 0 1.42 0 1 1 0 0 0 0-1.41L26.81 2a1 1 0 0 0-1.41 0 1 1 0 0 0 0 1.42l.86.86-1.41 1.43A15 15 0 0 0 16 2.05V1a1 1 0 0 0-2 0v1a15 15 0 1 0 12.26 5.12ZM15 30A13.09 13.09 0 0 1 2 17 13.09 13.09 0 0 1 15 4a13.09 13.09 0 0 1 13 13 13.09 13.09 0 0 1-13 13Z" fill="currentColor"/></svg>