<svg class="trash-disabled__icon" role="presentation" aria-labelledby="trash-disabled" xmlns="http://www.w3.org/2000/svg" viewBox="0 0 27.95 30"><title id="trash-disabled">Trash disabled</title><path d="m26.69 26.94-25.01-25a.99.99 0 0 0-1.39 0c-.39.38-.39 1 0 1.39l1.66 1.66V9c0 .55.45 1 1 1h2v16c0 2.21 1.79 4 4 4h12c1.63 0 3.02-.97 3.64-2.37l.7.7c.38.38 1.01.38 1.39 0s.38-1.01 0-1.39ZM3.98 8v-.98l.98.98h-.98Zm17 19.7h-12c-1.1 0-2-.9-2-2V10.02l2.95 2.95v12.02c0 .55.45 1 1 1s1-.45 1-1V14.96l2 2v7.99c0 .55.45 1 1 1s1-.45 1-1v-5.99l2.05 2.05v3.96c0 .55.45 1 1 1s1-.45 1-1v-1.96l2.97 2.97c-.14.97-.97 1.71-1.97 1.71ZM9 6h16.98v2H13c-.55 0-1 .45-1 1.01 0 .55.45.99 1 .99h9.98v9.96c0 .54.43.98.97.99.55 0 1-.44 1-.99V10h2c.55 0 1-.45 1-1V5c0-.55-.45-1-1-1h-6.08V1c0-.55-.45-1-1-1h-9.68c-.64 0-1.15.52-1.15 1.15V4H9c-.55 0-1 .45-1 1s.45 1 1 1Zm1.98-4h8v2h-8V2Z" fill="currentColor"/><path d="M.03 0H32v31.97H.03z" fill="none"/></svg>