<svg class="trash__icon" role="presentation" aria-labelledby="trash" xmlns="http://www.w3.org/2000/svg" viewBox="0 0 32 32"><title id="trash">Trash</title><rect x="10.97" y="13.02" width="2" height="14" rx="1" fill="currentColor"/><rect x="14.98" y="13" width="2" height="14" rx="1" fill="currentColor"/><rect x="19.03" y="13.02" width="2" height="14" rx="1" fill="currentColor"/><path d="M21.92 5V2a1 1 0 0 0-1-1h-9.69a1.16 1.16 0 0 0-1.15 1.15V5H4a1 1 0 0 0-1 1v4a1 1 0 0 0 1 1h2v16a4 4 0 0 0 4 4h12a4 4 0 0 0 4-4V11h2a1 1 0 0 0 1-1V6a1 1 0 0 0-1-1ZM12 3h8v2h-8Zm10 25.7H10a2 2 0 0 1-2-2V11h16v15.7a2 2 0 0 1-2 2ZM27 9H5V7h22Z" fill="currentColor"/><path d="M0 0h32v32H0z" fill="none"/></svg>