<svg class="upload__icon" role="presentation" aria-labelledby="upload" xmlns="http://www.w3.org/2000/svg" viewBox="0 0 32 32"><title id="upload">Upload</title><path d="M25.19 12.61a1 1 0 0 0 0-1.42l-7.78-7.78L16 2l-1.42 1.41-7.77 7.77a1 1 0 0 0 0 1.42 1 1 0 0 0 1.42 0L15 5.83V23a1 1 0 0 0 1 1 1 1 0 0 0 1-1V5.83l6.78 6.78a1 1 0 0 0 1.42 0Z" fill="currentColor"/><path d="M28 24a1 1 0 1 0-2 0v4H6v-4a1 1 0 1 0-2 0v4a2 2 0 0 0 2 2h20a2 2 0 0 0 2-2Z" fill="currentColor"/><path d="M0 0h32v32H0z" fill="none"/></svg>