<svg class="sign-in__icon" role="presentation" aria-labelledby="sign-in" xmlns="http://www.w3.org/2000/svg" viewBox="0 0 32 32.02"><title id="sign-in">Sign in</title><path d="M16 .02c-8.84 0-16 7.17-16 16s7.16 16 16 16 16-7.16 16-16-7.16-16-16-16ZM16.06 6c3.09 0 5.6 2.51 5.6 5.6s-2.51 5.6-5.6 5.6-5.6-2.51-5.6-5.6S12.97 6 16.06 6Zm9.29 20.42c-2 1.73-5.22 3.58-9.3 3.58s-7.27-1.82-9.26-3.52v-.8c.03-3.57 3.77-6.46 7.26-6.46h4.04c3.5 0 7.26 2.91 7.26 6.5v.69l.02-.02v.04Z" fill="currentColor"/><path fill="none" d="M0 0h32v32H0z"/></svg>