<svg class="title__icon" role="presentation" aria-labelledby="title" xmlns="http://www.w3.org/2000/svg" viewBox="0 0 32 32"><title id="user">User</title><path d="M16,4.21a4.36,4.36,0,0,1,4.27,4.25A4.36,4.36,0,0,1,16,12.71a4.36,4.36,0,0,1-4.27-4.25A4.36,4.36,0,0,1,16,4.21M16,2a6.49,6.49,0,1,0,6.49,6.49A6.49,6.49,0,0,0,16,2Z" fill="currentColor"/><path d="M18.32,17.1H13.64c-4.05,0-8.42,3.38-8.42,7.54v3.54A1.82,1.82,0,0,0,7,30H24.93a1.82,1.82,0,0,0,1.8-1.84V24.64C26.73,20.48,22.37,17.1,18.32,17.1ZM7.42,27.87V24.34c0-3.13,3.24-5.09,6.29-5.09h4.53c3.05,0,6.3,2,6.3,5.09l.05,3.53Z" fill="currentColor"/><rect width="32" height="32" fill="none"/></svg>