<svg class="sign-in__icon" role="presentation" aria-labelledby="sign-in" xmlns="http://www.w3.org/2000/svg" viewBox="0 0 32.02 32"><title id="sign-in">Sign in</title><path d="M16.09 8a3.67 3.67 0 0 1 3.58 3.56 3.67 3.67 0 0 1-3.58 3.57 3.66 3.66 0 0 1-3.58-3.57A3.66 3.66 0 0 1 16.09 8m0-2a5.6 5.6 0 1 0 5.59 5.6A5.6 5.6 0 0 0 16.06 6Z" fill="currentColor"/><path d="M16 0a16 16 0 1 0 16 16A16 16 0 0 0 16 0ZM8.78 27.93V26c0-2.7 2.66-4.78 5.29-4.78H18c2.64 0 5.34 2.1 5.34 4.81v1.88a13.7 13.7 0 0 1-14.56.05Zm16.55-1.55v-.69c0-3.59-3.76-6.5-7.26-6.5H14c-3.5 0-7.26 2.91-7.26 6.5v.75A14 14 0 0 1 2 16 14.1 14.1 0 0 1 16 2a14.09 14.09 0 0 1 14 14 13.93 13.93 0 0 1-4.67 10.38Z" fill="currentColor"/><path fill="none" d="M0 0h32v32H0z"/></svg>