<svg class="users__icon" role="presentation" aria-labelledby="users" xmlns="http://www.w3.org/2000/svg" viewBox="0 0 32 32"><title id="users">Users</title><path d="M10.84 4.21a4.36 4.36 0 0 1 4.27 4.25 4.36 4.36 0 0 1-4.27 4.25 4.36 4.36 0 0 1-4.27-4.25 4.36 4.36 0 0 1 4.27-4.25M10.8 2a6.49 6.49 0 1 0 6.49 6.49A6.49 6.49 0 0 0 10.8 2Z" fill="currentColor"/><path d="M25.57 17.05h-3.13a6.86 6.86 0 0 0-4.35 1.67 8.93 8.93 0 0 0-4.95-1.62H8.46C4.41 17.1 0 20.48 0 24.64v3.54A1.82 1.82 0 0 0 1.84 30h17.91a1.82 1.82 0 0 0 1.8-1.84v-1.1H30a2 2 0 0 0 2-2v-2.17c0-3.23-3.29-5.84-6.43-5.84Zm-6.16 10.82H2.18l.06-3.53c0-3.13 3.24-5.09 6.29-5.09h4.53c2.78 0 6.31 1.69 6.31 5.37 0 .61.04 3.25.04 3.25ZM30 25.06h-8.45v-.42a6.82 6.82 0 0 0-1.92-4.58 4.2 4.2 0 0 1 2.7-1h3.34a4.38 4.38 0 0 1 4.33 4.4ZM24 5.06a5 5 0 1 0 5 5 5 5 0 0 0-5-5Zm0 8a3 3 0 1 1 3-3A3 3 0 0 1 24 13Z" fill="currentColor"/><path fill="none" d="M0 0h32v32H0z"/></svg>