<svg aria-hidden="true" aria-labelledBy="mastodon" xmlns="http://www.w3.org/2000/svg" viewBox="0 0 1010.32 1083.2" width="1010.32" height="1083.2"><path d="M1010.28 355.63c0-234.98-153.94-303.85-153.94-303.85C778.72 16.12 645.42 1.14 506.97 0h-3.41C365.08 1.14 231.89 16.12 154.27 51.78c0 0-153.95 68.87-153.95 303.85 0 53.82-1.06 118.15.65 186.38 5.58 229.79 42.12 456.27 254.57 512.51 97.96 25.92 182.06 31.35 249.8 27.63 122.83-6.81 191.78-43.83 191.78-43.83l-4.05-89.14s-87.78 27.68-186.36 24.31c-97.66-3.35-200.77-10.53-216.56-130.46-1.46-10.53-2.19-21.79-2.19-33.61 0 0 95.89 23.44 217.39 28.99 74.29 3.41 143.97-4.35 214.74-12.79 135.72-16.2 253.88-99.83 268.73-176.24 23.4-120.37 21.47-293.74 21.47-293.74zM828.7 658.38H715.97V382.23c0-58.22-24.48-87.76-73.48-87.76-54.17 0-81.31 35.04-81.31 104.35v151.16H449.12V398.82c0-69.32-27.15-104.35-81.31-104.35-48.99 0-73.49 29.54-73.49 87.76v276.15H181.61V373.87c0-58.15 14.81-104.37 44.55-138.55 30.66-34.18 70.82-51.72 120.68-51.72 57.68 0 101.36 22.18 130.23 66.52l28.07 47.07 28.09-47.07c28.87-44.35 72.55-66.52 130.23-66.52 49.85 0 90.02 17.53 120.68 51.72 29.74 34.18 44.55 80.4 44.55 138.55v284.51z" fill="#fff"/></svg>