<svg xmlns="http://www.w3.org/2000/svg" viewBox="0 0 200 200" width="200" height="200"><path d="M177.6 15.6h-156c-5.9 0-10.6 5.4-10.6 12v157h177.3v-157c-.1-6.6-4.8-12-10.7-12zm-1.4 157H23v-116h153.3v116zm0-128H23V30.3c0-1.7 1.3-3 3-3l147.2.3c1.7 0 3 1.4 3 3v14z" fill="currentColor"/><path d="M128.3 106h29.9c3.3 0 6-2.7 6-6s-2.7-6-6-6h-29.9c-3.3 0-6 2.7-6 6s2.7 6 6 6zm-71 51.6h30.2c12.3 0 22.3-9 22.3-20s-10-20-22.3-20H57.3c-12.3 0-22.3 9-22.3 20s10 20 22.3 20zm-2.8-28l35.8-.1c4.1 0 7.5 4.3 7.5 8s-3.4 8.2-7.5 8.2l-35.8.1c-4.1 0-7.5-4.5-7.5-8.2s3.4-8 7.5-8zm2.8-24h30.2c12.3 0 22.3-9 22.3-20s-10-20-22.3-20H57.3c-12.3 0-22.3 9-22.3 20s10 20 22.3 20zm-2.8-28l35.8-.1c4.1 0 7.5 4.3 7.5 8s-3.4 8.2-7.5 8.2l-35.8.1c-4.1 0-7.5-4.5-7.5-8.2s3.4-8 7.5-8zm73.8 0h29.9c3.3 0 6-2.7 6-6s-2.7-6-6-6h-29.9c-3.3 0-6 2.7-6 6s2.7 6 6 6zm0 80.2h29.9c3.3 0 6-2.7 6-6s-2.7-6-6-6h-29.9c-3.3 0-6 2.7-6 6s2.7 6 6 6zm0-28.2h29.9c3.3 0 6-2.7 6-6s-2.7-6-6-6h-29.9c-3.3 0-6 2.7-6 6s2.7 6 6 6z" fill="currentColor"/></svg>