<svg viewBox="0 0 512 512" xmlns="http://www.w3.org/2000/svg" fill-rule="evenodd" clip-rule="evenodd" stroke-linejoin="round" stroke-miterlimit="2" width="512" height="512"><path d="M256 0C114.637 0 0 114.637 0 256s114.637 256 256 256 256-114.637 256-256S397.363 0 256 0zm151.653 368.055c-27.246 37.271-57.085 40.709-97.572 31.894-30.412-6.623-89.688-41.259-126.971-81.353-36.575-39.333-80.936-82.226-77.245-149.162 1.917-34.76 18.396-54.794 33.542-64.573 10.57-6.824 21.536-4.998 25.983-1.039 19.384 17.259 36.996 34.995 52.975 52.324 8.001 8.678 6.549 21.354 2.331 27.034-7.33 9.873-17.108 18.726-28.2 30.119 9.663 19.736 25.084 40.251 38.148 54.485 24.491 26.681 49.125 40.049 66.858 49.917 4.752-3.97 11.78-11.351 26.852-25.859 6.288-6.052 15.96-6.247 25.19-3.167 13.249 9.822 37.399 33.325 56.187 55.145 8.096 9.403 4.974 20.06 1.922 24.235z" fill="#fff" fill-rule="nonzero"/></svg>