<svg version="1.1" id="website" xmlns="http://www.w3.org/2000/svg" x="0" y="0" viewBox="0 0 512 512" xml:space="preserve" width="512" height="512"><style>.rst0{fill-rule:evenodd;clip-rule:evenodd;fill:#fff}</style><path class="rst0" d="M279.4 281l-11.6-60.6H246L234.2 281l-7.5-60.8h-27.4l17.6 91h28.9l10.5-44.2 9.9 44.3h29.2l17.5-90.9h-27.4zm-115.8 0L152 220.4h-21.8L118.4 281l-7.3-60.8H83.5l17.6 91H130l10.5-44.2 10.1 44.3h29l17.5-90.9h-27.4zm231.6 0l-11.7-60.6h-21.9L349.8 281l-7.3-60.6h-27.4l17.6 90.8h28.7l10.7-44.2 9.9 44.3h29.2l17.3-90.9h-27.4z"/><path class="rst0" d="M256 .9C114.6.9 0 115.3 0 256.4S114.6 512 256 512s256-114.4 256-255.6S397.4.9 256 .9zM70.9 342.7V170.2H441v172.4H70.9z"/></svg>