<svg xmlns="http://www.w3.org/2000/svg" viewBox="0 0 512 512" width="512" height="512"><path d="M256 0C114.62 0 0 114.62 0 256s114.62 256 256 256 256-114.62 256-256S397.38 0 256 0zm126.27 215.65c.12 2.62.18 5.26.18 7.91 0 80.87-61.55 174.11-174.1 174.11-34.55 0-66.73-10.13-93.79-27.49 4.78.57 9.66.86 14.59.86 28.68 0 55.06-9.78 76-26.19-26.78-.5-49.38-18.19-57.16-42.49 3.73.71 7.56 1.09 11.51 1.09 5.57 0 10.99-.74 16.12-2.15-27.99-5.62-49.09-30.35-49.09-60v-.78a60.66 60.66 0 0027.71 7.66c-16.41-10.97-27.22-29.71-27.22-50.93 0-11.21 3.02-21.73 8.29-30.77 30.18 37.03 75.27 61.39 126.13 63.94a61.067 61.067 0 01-1.59-13.95c0-33.79 27.4-61.19 61.19-61.19 17.61 0 33.51 7.43 44.68 19.32a122.61 122.61 0 0038.86-14.84c-4.58 14.3-14.27 26.28-26.91 33.85 12.38-1.47 24.18-4.76 35.15-9.62-8.2 12.27-18.57 23.05-30.54 31.67z" fill="#fff"/></svg>