<svg class="product-illustration" aria-hidden="true" aria-labelledby="become-partner" xmlns="http://www.w3.org/2000/svg" viewBox="0 0 32 32"><title id="become-partner">Become a Partner</title><g id="become_a_partner"><path d="M.03 11.42v13.76c0 1.26 1.02 2.28 2.28 2.28h27.43c1.26 0 2.28-1.02 2.28-2.28V11.42H.03Z" fill="var(--card)"/><path d="M9.27 23.43c-.34-.73-.68-1.48-1.02-2.26-.34-.78-.65-1.55-.95-2.32s-.58-1.5-.83-2.19c-.25-.7-.47-1.32-.65-1.87h2.14a118.937 118.937 0 0 0 1.15 3.34c.21.57.4 1.12.59 1.65.19.53.37.98.54 1.36.16-.38.34-.83.53-1.36.19-.53.39-1.07.6-1.65.21-.57.41-1.15.6-1.72.2-.58.38-1.12.54-1.62h2.07c-.19.55-.42 1.17-.67 1.87s-.53 1.43-.83 2.19c-.3.76-.62 1.54-.95 2.32s-.67 1.53-1.01 2.26H9.26ZM15.69 14.79h1.95v8.64h-1.95v-8.64ZM22.23 14.69c1.29 0 2.28.23 2.97.68.69.45 1.03 1.19 1.03 2.23s-.35 1.79-1.05 2.25c-.7.46-1.7.69-2.99.69h-.61v2.89h-1.95v-8.52c.42-.08.87-.14 1.35-.17s.89-.05 1.25-.05Zm.12 1.66c-.14 0-.28 0-.42.01-.14 0-.26.02-.36.02v2.49h.61c.67 0 1.18-.09 1.52-.27s.51-.52.51-1.02c0-.24-.04-.44-.13-.6-.09-.16-.21-.28-.37-.38a1.86 1.86 0 0 0-.59-.2c-.23-.04-.49-.06-.77-.06Z" fill="var(--card-title)"/><path d="M0 9.63h31.99v1.8H0z" fill="var(--card-title)"/><path d="M32 9.63V6.89c0-1.26-1.02-2.28-2.28-2.28H2.28C1.02 4.61 0 5.63 0 6.89v2.74h32Z" fill="var(--header)"/><path fill="none" d="M.07 0h31.96v32H.07z"/></g></svg>