<svg class="product-illustration" role="presentation" aria-labelledby="cloudpayroll" xmlns="http://www.w3.org/2000/svg" viewBox="0 0 32 32"><title id="cloudpayroll">Cloudpayroll</title><defs><linearGradient id="linear-gradient" x1="244.22" y1="705.19" x2="244.26" y2="705.19" gradientTransform="matrix(32.21 0 0 -32.37 -7865.62 22847.2)" gradientUnits="userSpaceOnUse"><stop offset="0" stop-color="#148fcf"/><stop offset="0" stop-color="#148fcf"/><stop offset="1" stop-color="#4eb9e3"/></linearGradient><linearGradient id="linear-gradient-2" x1="228.61" y1="705.37" x2="228.73" y2="705.37" gradientTransform="matrix(12.06 0 0 -36.8 -2756.9 25970.14)" gradientUnits="userSpaceOnUse"><stop offset="0" stop-color="#ed5623"/><stop offset="1" stop-color="#f47920"/></linearGradient><clipPath id="clippath"><path class="cls-1" d="m10.44 9.96-5.43 2.98c-.78.43-1.38 1.14-1.65 1.99 0 .08-.04.12-.04.21s-.04.17-.04.25-.04.21-.04.3v.54c-.01.28.02.56.09.83s.08.2.08.2c.28.85.87 1.56 1.65 1.99l18.01 10.16a3.456 3.456 0 0 1-1.7-2.91v-6.38l-6.28-3.52s-.13-.04-.13-.08l-.04-.04a.567.567 0 0 1-.17-.46c0-.16.06-.31.17-.41.11-.1.21-.21.3-.33.29-.39.5-.82.64-1.29.25-.92.13-1.9-.34-2.73a3.52 3.52 0 0 0-2.25-1.66c-.95-.25-1.96-.12-2.81.37"/></clipPath><clipPath id="clippath-1"><path class="cls-1" d="m21.39 5.77-.04 12.88 5.52 3.1c1.08.63 1.79 1.74 1.91 2.99V5.77c0-2.04-1.65-3.7-3.7-3.7s-3.7 1.65-3.7 3.7"/></clipPath><style>.cls-1{fill:none}</style></defs><g id="Branding"><g id="cloudPayroll"><path id="background" class="cls-1" d="M0 0h32v32H0z"/><g style="clip-path:url(#clippath)"><g id="blue"><path id="Rectangle_96" style="fill:url(#linear-gradient)" d="M3.21 9.46h19.84V29.4H3.21z"/></g></g><path id="dark_purple" d="M24.99 29.92c.74 0 1.46-.21 2.08-.62a3.637 3.637 0 0 0 1.66-3.31c-.1-1.18-.79-2.24-1.83-2.82l-5.56-3.07v6.3c0 1.19.6 2.3 1.61 2.94.61.38 1.31.58 2.03.58" style="fill:#131f34"/><path id="purple" d="M28.74 24.49c-.19-1.16-.9-2.17-1.92-2.76-1.38-.8-5.47-3.08-5.47-3.08v1.45l5.63 3.11c1.06.62 1.72 1.74 1.76 2.97v-1.7Z" style="fill:#556890"/><g style="clip-path:url(#clippath-1)"><g id="orange"><path id="Rectangle_98" style="fill:url(#linear-gradient-2)" d="M21.35 2.08h7.43v22.67h-7.43z"/></g></g></g></g></svg>