<svg class="product-illustration" aria-hidden="true" aria-labelledby="deputy" xmlns="http://www.w3.org/2000/svg" viewBox="0 0 32 32"><title id="deputy">Deputy</title><path d="m16.9 17.68-.02.04c-.21.37-.38.76-.5 1.17l-3.23 11.05h4.75l2.85-9.76c.12-.41.55-.65.97-.53.01 0 .02 0 .03.01.13.04.25.13.34.23l4.68 5.05 2.41-4.21-3.63-3.8a5.31 5.31 0 0 0-8.65.74Zm-3.16-1.8-.02-.04c-.21-.37-.47-.71-.76-1.02L5.05 6.49 2.57 10.5l7.09 7.48a.788.788 0 0 1-.42 1.32l-6.69 1.55 2.42 4.2 5.09-1.25c.84-.15 1.62-.5 2.3-1.02a5.37 5.37 0 0 0 1.4-6.87Zm3.1-1.78h.05c.42 0 .85-.05 1.26-.15l11.14-2.71-2.22-4.16-9.99 2.43c-.42.1-.84-.15-.94-.57V8.9a.715.715 0 0 1 .03-.41l2.01-6.6h-4.84l-1.46 5.06a5.356 5.356 0 0 0 2.53 6.53c.75.4 1.59.61 2.44.62" fill="#F96C63"/><path fill="none" d="M0 0h32v32H0z"/></svg>