<svg class="product-illustration" aria-hidden="true" aria-labelledby="how" xmlns="http://www.w3.org/2000/svg" viewBox="0 0 32 32"><title id="how">How it Works</title><g id="how"><g id="blue"><path d="M20.57 18.62v-2.37l-1.23-.35c-.1-.56-.25-1.11-.44-1.63l.84-.99-1.2-2.04-1.23.32c-.35-.41-.73-.8-1.15-1.14l.23-1.26-2.06-1.17-.9.89c-.5-.18-1.01-.32-1.54-.41l-.42-1.21H9.1l-.34 1.21c-.55.1-1.08.24-1.59.43l-.91-.88-2.05 1.19.24 1.25c-.41.35-.8.73-1.14 1.14l-1.21-.31-1.19 2.05.83.97c-.19.52-.34 1.05-.43 1.61l-1.21.34v2.37l1.21.42c.1.57.25 1.11.45 1.64l-.87.91 1.2 2.04 1.26-.25c.35.41.74.8 1.15 1.15l-.3 1.22 2.06 1.17.98-.85c.49.18 1.01.32 1.54.41l.35 1.22h2.37l.43-1.22c.55-.1 1.08-.24 1.59-.43l.99.85 2.05-1.19-.31-1.23c.41-.34.79-.72 1.13-1.13l1.27.25 1.19-2.05-.89-.92c.19-.51.33-1.04.43-1.59l1.23-.43Zm-10.24 2.31a3.461 3.461 0 0 1 0-6.92 3.461 3.461 0 0 1 0 6.92Z" fill="var(--cog)"/><path d="M10.33 11.64a5.83 5.83 0 1 0 0 11.66 5.83 5.83 0 0 0 0-11.66Zm0 9.29a3.461 3.461 0 0 1 0-6.92 3.461 3.461 0 0 1 0 6.92Z" fill="var(--cog-inner)"/></g><g id="orange"><path d="M31.96 21.62V20.3l-.69-.19c-.05-.31-.14-.62-.25-.91l.47-.55-.67-1.14-.69.18c-.2-.23-.41-.45-.64-.64l.13-.71-1.15-.66-.51.49a5.2 5.2 0 0 0-.86-.23l-.24-.68h-1.32l-.19.68c-.31.05-.6.13-.89.24l-.51-.49-1.14.66.13.7c-.23.19-.45.41-.64.64l-.68-.17-.66 1.14.47.54c-.11.29-.19.59-.24.9l-.68.19v1.32l.68.24c.05.32.14.62.25.92l-.49.51.67 1.14.7-.14c.2.23.41.45.64.64l-.17.68 1.15.66.55-.48c.28.1.56.18.86.23l.19.68h1.32l.24-.68c.31-.05.6-.14.89-.24l.55.47 1.14-.66-.17-.69c.23-.19.44-.4.63-.63l.71.14.66-1.14-.5-.51c.11-.29.19-.58.24-.89l.69-.24Zm-5.72 1.29c-1.07 0-1.93-.87-1.93-1.93s.87-1.93 1.93-1.93 1.93.87 1.93 1.93-.87 1.93-1.93 1.93Z" fill="var(--cog-two)"/><path d="M26.24 17.72a3.26 3.26 0 1 0 .001 6.521 3.26 3.26 0 0 0-.001-6.521Zm0 5.19c-1.07 0-1.93-.87-1.93-1.93s.87-1.93 1.93-1.93 1.93.87 1.93 1.93-.87 1.93-1.93 1.93Z" fill="var(--cog-two-inner)"/></g><g id="grey"><path d="M28.67 7.93V6.61l-.69-.19c-.05-.31-.14-.62-.25-.91l.47-.55-.67-1.14-.69.18c-.2-.23-.41-.45-.64-.64l.13-.71-1.15-.66-.51.49a5.2 5.2 0 0 0-.86-.23l-.24-.68h-1.32l-.19.68c-.31.05-.6.13-.89.24L20.66 2l-1.14.66.13.7c-.23.19-.45.41-.64.64l-.68-.17-.66 1.14.47.54c-.11.29-.19.59-.24.9l-.68.19v1.32l.68.24c.05.32.14.62.25.92l-.49.51.67 1.14.7-.14c.2.23.41.45.64.64l-.17.68 1.15.66.55-.48c.28.1.56.18.86.23l.19.68h1.32l.24-.68c.31-.05.6-.14.89-.24l.55.47 1.14-.66-.17-.69c.23-.19.44-.4.63-.63l.71.14.66-1.14-.5-.51c.11-.29.19-.58.24-.89l.69-.24Zm-5.72 1.29c-1.07 0-1.93-.87-1.93-1.93s.87-1.93 1.93-1.93 1.93.87 1.93 1.93-.87 1.93-1.93 1.93Z" fill="var(--cog-three)"/><path d="M22.94 4.03a3.26 3.26 0 1 0 .001 6.521 3.26 3.26 0 0 0-.001-6.521Zm0 5.19c-1.07 0-1.93-.87-1.93-1.93s.87-1.93 1.93-1.93 1.93.87 1.93 1.93-.87 1.93-1.93 1.93Z" fill="var(--cog-three-inner)"/></g><path fill="none" d="M0 0h32v32H0z"/></g></svg>