<svg class="product-illustration" aria-hidden="true" aria-labelledby="hr" xmlns="http://www.w3.org/2000/svg" viewBox="0 0 32 32"><path fill="var(--display-shadow)" d="M13.59 22.38h4.82v1.03h-4.82z"/><path fill="var(--stand)" d="M13.59 23.41h4.82v3.84h-4.82z"/><rect width="16.56" height="1.98" x="7.72" y="27.2" fill="var(--stand-base)" rx=".99" ry=".99"/><path fill="var(--monitor-shadow)" d="M29.12 19.46v.92c0 1.1-.86 2-1.92 2h1.03c1.06 0 1.92-.9 1.92-2v-.92h-1.03Z"/><path fill="var(--monitor)" d="M2.04 19.46v.92c0 1.1.86 2 1.92 2h23.23c1.06 0 1.92-.9 1.92-2v-.92H2.04Z"/><path fill="var(--screen-shadow)" d="M28.23 2.93H27.2c1.06 0 1.92.9 1.92 2v14.53h1.03V4.93c0-1.1-.86-2-1.92-2Z"/><path fill="var(--screen)" d="M29.12 19.46V4.93c0-1.1-.86-2-1.92-2H3.97c-1.06 0-1.92.9-1.92 2v14.53h27.07Z"/><rect width="7.72" height="12.51" x="19.51" y="5.03" fill="var(--content-background)" rx=".5" ry=".5"/><rect width="12.73" height="12.51" x="4.8" y="5.03" fill="var(--user-background)" rx=".5" ry=".5"/><path fill="var(--user-clothes)" d="M13.98 16.06v-.64c0-1.46-1.25-2.65-2.8-2.65s-2.8 1.19-2.8 2.65v.64h5.6Z"/><path fill="var(--user-collar)" d="M11.22 12.76h-1.19v1.72c0 .2.22.34.4.24l.79-.4.79.4c.18.09.4-.04.4-.24v-1.72h-1.19Z"/><path fill="var(--skin)" d="M13.64 9.58c-.16-.05-.26.04-.33.2 0-.12-.02-.25-.04-.36-.07-.4-.34-1.07-.77-1.42-.8-.63-1.93-.63-2.73 0-.43.34-.7 1.02-.77 1.42-.02.12-.03.25-.04.38-.07-.17-.18-.27-.34-.22-.59.19.13 1.72.39 1.68.21 1.31 1.14 2.03 2.12 2.03.98 0 1.91-.71 2.12-2.02.27 0 .97-1.49.38-1.68Z"/><path fill="var(--user-hair)" d="M13.3 9.79c0-.86-.48-1.65-1.18-2.01.05-.12.08-.25.08-.39 0-.57-.47-1.04-1.04-1.04-.02 0-.04.01-.06.01-.02 0-.04-.01-.06-.01-.57 0-1.04.47-1.04 1.04 0 .14.03.27.08.39-.7.37-1.18 1.15-1.18 2.01 0 .16-.02.28.07.4.09.12.25.17.4.17.84 0 1.54-.58 1.73-1.36.19.78.89 1.36 1.73 1.36.15 0 .31-.05.4-.17.09-.11.07-.24.07-.4Z"/><path fill="var(--content-one)" d="M20.94 6.85h.98v.98h-.98zM24.81 8.79h.98v.98h-.98zM24.81 14.57h.98v.98h-.98z" /><path fill="var(--content-two)" d="M24.81 12.65h.98v.98h-.98zM22.9 6.85h2.89v.98H22.9zM20.94 8.79h2.89v.98h-2.89z"/><path fill="var(--content-one)" d="M20.94 12.65h2.89v.98h-2.89z"/><path fill="var(--content-two)" d="M20.94 14.57h2.89v.98h-2.89z"/><path d="M20.94 10.73h4.85v.98h-4.85z" fill="var(--content-one)"/><path d="M0 0h32v31.99H0z" fill="none"/></svg>