<svg class="product-illustration" aria-hidden="true" aria-labelledby="kiosk" xmlns="http://www.w3.org/2000/svg" viewBox="0 0 32 32"><title id="kiosk">Employment Kiosk</title><g id="employment_kiosk"><path d="M25.29 3.04V2.01c0-1.11-.9-2.01-2-2.01H8.75c-1.1 0-2 .9-2 2.01v1.03h18.54ZM6.75 29.2v.81c0 1.1.9 2 2 2h14.54c1.1 0 2-.9 2-2v-.81H6.75Z" fill="var(--phone)"/><g id="phone"><path id="screen" d="M6.75 3.04h18.54V29.2H6.75z" fill="var(--screen)"/><rect x="12.52" y="1" width="5.01" height="1" rx=".5" ry=".5" fill="var(--speaker)"/><rect x="18.55" y="1" width=".97" height="1" rx=".48" ry=".48" fill="var(--camera)"/><path d="M6.75 24.8v4.39h18.54V4C8.65 13.2 6.75 24.8 6.75 24.8Z" fill="var(--screen-shadow)"/><rect x="9.62" y="21.99" width="12" height="1.5" rx=".75" ry=".75" fill="var(--line)"/><rect x="9.62" y="25.24" width="10" height="1.5" rx=".75" ry=".75" fill="var(--line)"/></g><g id="PAY"><rect x="4.71" y="7.87" width="22.69" height="11.36" rx="1.5" ry="1.5" fill="var(--kiosk-title)"/><path d="M25.9 7.87h-.13v11.36h.13c.83 0 1.5-.67 1.5-1.5V9.37c0-.83-.67-1.5-1.5-1.5Z" fill="var(--kiosk-title-shadow)"/><path d="M7.27 9.78h3.3c1.76 0 2.59.79 2.59 2.18 0 1.74-1.25 2.15-2.84 2.15h-.87v3.2H7.28V9.78Zm2.9 3.17c.8 0 .95-.32.95-1.01 0-.57-.08-.98-.96-.98h-.72v2h.73ZM15.02 9.78h2.48l1.83 7.53h-2L17 15.72h-1.44l-.34 1.59h-2.05l1.86-7.53Zm1.77 4.94-.52-2.94-.52 2.94h1.04Z" fill="var(--text)"/><path d="m21.08 14.23-1.87-4.45h2.05l.93 2.38.84-2.38H25l-1.83 4.45v3.08h-2.09v-3.08Z" fill="var(--text)"/></g><path fill="none" d="M0 0h32v31.99H0z"/></g></svg>