<svg class="product-illustration" aria-hidden="true" aria-labelledby="leave" xmlns="http://www.w3.org/2000/svg" viewBox="0 0 32 32"><title id="leave">Leave</title><g id="Leave_Management"><path d="M3.25 30.92h28V32h-28z" fill="var(--base)"/><g id="deck-chair"><path d="M29.56 26.69H11.22l-6.78-6.66-.49-.48a.41.41 0 0 0-.58 0c-.16.15-.16.41 0 .57l.48.47 7.02 6.9h18.69c.22 0 .41-.17.42-.39 0-.22-.17-.41-.39-.42h-.03" fill="var(--deck-chair)"/><path d="M29.54 26.69c0-1.39-1.14-2.52-2.54-2.52l-15.64-.07-4.41-4.34c-.74-.74-1.94-.75-2.69 0l-.08.08 7.03 6.86h18.33Z" fill="var(--deck-chair-top)"/><path d="m9.79 30.92.18-.47 1.15-2.95h-.24l-1.11-1.09L8 30.92h1.79zM29.07 30.92l-1.33-3.42h-1.78l1.33 3.42h1.78z" fill="var(--deck-chair-legs)"/></g><g id="umbrella"><path d="M18.4 30.92 12.52 1.04a.304.304 0 0 0-.35-.24l-.31.06c-.16.03-.27.19-.24.35l5.85 29.71h.93Z" fill="var(--umbrella-pole)"/><path d="m18.01 10.2 7.28-1.44c-1.63-4.61-6.61-7.48-11.99-6.88 1.99 2.52 3.57 5.33 4.71 8.32" fill="var(--umbrella-one)"/><path d="m10.01 11.79-7.28 1.44c-.32-4.87 3.13-9.4 8.33-10.9-.83 3.08-1.19 6.27-1.05 9.46" fill="var(--umbrella-one)"/><path d="M18.01 10.2c-1.14-3-2.73-5.81-4.72-8.33-.37.04-.73.1-1.1.17-.39.07-.76.17-1.14.28-.83 3.08-1.18 6.27-1.05 9.46l8-1.59Z" fill="var(--umbrella-two)"/><path d="m17.09 13.48-4.87.97c-.2.04-.41-.04-.52-.21l-1.69-2.45 8-1.59-.52 2.88c-.04.21-.2.37-.4.41" fill="var(--umbrella-one)"/><path d="m24.51 12.01-4.43.88a.465.465 0 0 1-.48-.22l-1.58-2.47 7.28-1.44-.42 2.86c-.02.2-.17.36-.36.4" fill="var(--umbrella-two)"/><path d="m9.23 15.04-4.43.88a.465.465 0 0 1-.48-.22l-1.58-2.47 7.28-1.44-.42 2.86c-.02.2-.17.36-.36.4" fill="var(--umbrella-two)"/></g><path fill="none" d="M0 0h32v32H0z"/></g></svg>