<svg class="product-illustration" aria-hidden="true" aria-labelledby="news" xmlns="http://www.w3.org/2000/svg" viewBox="0 0 32 32"><title id="news">News</title><g id="paper"><path d="M28.07 4.69h.91v23.29h-.91z" fill="var(--paper-one)"/><path d="M27.16 3.94h.91v25.09h-.91z" fill="var(--paper-two)"/><path d="m22.99 2.9-.84-.9H3.02v27c0 .55.42 1 .93 1h23.21V2.9H23Z" fill="var(--paper-three)"/><path d="M27.16 7.42h-5.03V2l5.03 5.42z" fill="var(--paper-corner)"/></g><g id="borders"><path d="M4.87 26H25.3v2H4.87zM4.87 8.96H25.3v1H4.87z" fill="var(--border)"/></g><g id="pictures"><path d="M4.87 11.98h10.21V18H4.87zM16.94 11.94h8.36v2h-8.36zM16.94 16.01h8.36v2h-8.36zM19.14 20h6.16v4h-6.16z" fill="var(--picture)"/></g><g id="article"><path d="M4.87 22.99h8.42v1.25H4.87zM15.09 22.99h2.78v1.25h-2.78zM4.87 18.99h9.29v1.25H4.87zM4.87 20.99h5.57v1.25H4.87zM12.3 20.99h5.57v1.25H12.3zM15.09 18.99h2.79v1.25h-2.79z" fill="var(--article)"/></g><g id="title"><path d="M7.59 7.99c-.26-.46-.53-.92-.83-1.36s-.61-.87-.95-1.27V8h-.88V3.97h.73c.13.13.27.28.42.47.15.18.31.38.47.59.16.21.32.43.47.66.16.23.3.44.44.65V3.97h.89v4.02H7.6ZM9.25 7.99V3.97h2.68v.76h-1.79v.79h1.59v.74h-1.59v.97h1.92v.76H9.25ZM15.39 4.39c.05.16.1.34.15.54.06.2.11.41.18.62.06.21.13.43.19.64s.13.41.19.59c.05-.2.1-.41.15-.64.05-.23.1-.47.15-.72.05-.25.09-.49.13-.74s.09-.48.12-.71h.93c-.13.67-.29 1.36-.46 2.05-.18.69-.36 1.35-.57 1.97h-.82c-.13-.37-.26-.76-.39-1.17s-.25-.82-.37-1.23c-.12.41-.25.82-.37 1.23-.12.41-.25.8-.38 1.17h-.82c-.2-.62-.39-1.28-.57-1.97-.17-.69-.33-1.38-.46-2.05h.97c.04.23.08.47.13.71.05.25.09.49.14.74.05.25.1.49.15.72.05.23.1.45.16.64.07-.19.14-.39.2-.6.06-.21.13-.43.19-.64.06-.21.12-.42.17-.61s.1-.37.14-.53h.76ZM19.24 7.3c.13 0 .23-.01.31-.03.08-.02.15-.05.2-.09.05-.04.08-.08.1-.13.02-.05.03-.11.03-.17 0-.13-.06-.24-.18-.33-.12-.09-.33-.18-.63-.28-.13-.05-.26-.1-.39-.16s-.25-.14-.35-.23c-.1-.09-.19-.2-.25-.33s-.1-.29-.1-.47.03-.35.1-.5.17-.28.29-.38c.13-.11.28-.18.46-.24s.38-.08.61-.08c.27 0 .5.03.69.09s.36.12.48.19l-.26.71c-.11-.06-.23-.11-.37-.15-.14-.04-.3-.07-.49-.07-.21 0-.37.03-.46.09s-.14.15-.14.28c0 .07.02.14.05.19.03.05.08.1.15.14.06.04.14.08.22.11.08.03.17.07.27.1.21.08.39.15.54.23.15.07.28.16.38.26.1.1.18.22.23.35.05.14.07.3.07.49 0 .38-.13.67-.39.87-.26.21-.65.31-1.17.31-.18 0-.33-.01-.48-.03-.14-.02-.27-.05-.38-.08-.11-.03-.2-.06-.28-.1-.08-.03-.14-.07-.2-.1l.25-.72c.12.07.26.13.44.18.17.05.39.08.64.08Z" fill="var(--title)"/></g><path fill="none" d="M0 0h32v32H0z"/></svg>