<svg class="product-illustration" aria-hidden="true" aria-labelledby="partners" xmlns="http://www.w3.org/2000/svg" viewBox="0 0 32 32"><title id="partners">Our Partners</title><path d="M25.48 17.46s-1.12-.77-1.34-.91c-2.75-1.79-2.93-1.84-2.93-1.84s-1.64.34-3.18-.05c-1.48-.37-2.45-1.71-2.88-1.66-.6.06-1.28 1.02-2.01 1.53-.98.69-2.62.81-3.27.23-.34-.3-.58-.94-.05-1.34 1.44-1.08 3.47-3.26 3.47-3.26s-1.25-.42-2.33-.62c-2.4-.45-1.08-.16-2.57-.4-.41-.06-1.57-.5-1.57-.5l-3.27 7.08c-.03.09.37.96.6 1.23.54.68.93 1.13 1.65 1.68l1.17.74 1.06-1.29c.46-.56 1.28-.64 1.84-.18s.64 1.28.18 1.83l.07-.09c.46-.56 1.28-.64 1.84-.18.48.39.58 1.05.32 1.58.47-.45 1.2-.51 1.72-.08.51.42.6 1.14.26 1.69a1.3 1.3 0 0 1 1.83-.17c.56.46.64 1.28.18 1.84l-.4.49.03.02 1.06.68c.67.43 1.56.24 1.99-.43.35-.55.28-1.25-.12-1.72l.59.38c.64.4 1.52.26 1.98-.39.41-.57.24-1.39-.26-1.85.01-.01.04-.03.05-.04l.02-.02.37.24c.63.41 1.5.33 1.97-.26s.37-1.4-.14-1.89l.02-.02s.01 0 .03-.02l.35.23c.65.42 1.56.33 2.01-.3s.31-1.5-.29-1.96Z" fill="var(--hand-one)"/><path d="m23.41 19.48.46.3c.62.39 1.39.23 1.85-.29-.05-.07-3.48-2.41-3.48-2.41a.664.664 0 0 0-.93.18c-.21.31-.13.72.18.93l1.91 1.29Zm-1.79 2.25c.62.39 1.36.26 1.85-.29-.05-.07-3.21-2.19-3.21-2.19a.664.664 0 0 0-.93.18c-.21.31-.13.72.18.93l2.11 1.37Zm-2.23 2.01c.62.39 1.39.24 1.88-.27-.05-.07-3.03-2.1-3.03-2.1a.664.664 0 0 0-.93.18c-.21.31-.13.72.18.93l1.91 1.26Zm-2.86-.15c-.02.26-.12.51-.29.73l-.4.49.94.61c.58.44 1.43.49 2.07-.27-.03-.05-1.35-.93-2.32-1.56ZM4.37 15.4l-.59 1.03 1.31 1.6s1.84 1.33 1.86 1.35c.14-.17.28-.35.43-.53l.43-.53c-.03-.05-3.44-2.93-3.44-2.93Z" fill="var(--hand-one-shadow)"/><path d="m7.06 19.24 1.16-1.39c.46-.55 1.29-.63 1.84-.17.56.46.63 1.28.17 1.84l-1.16 1.39c-.46.55-1.29.63-1.84.17-.56-.46-.63-1.28-.17-1.84Z" fill="var(--hand-two)"/><path d="M8.51 21.02c-.53-.44-.61-1.23-.16-1.77l1.11-1.34c.13-.16.29-.26.47-.34-.55-.34-1.28-.26-1.7.26l-1.17 1.4c-.47.56-.39 1.39.17 1.85.45.38 1.08.38 1.55.07-.09-.04-.19-.08-.27-.14Z" fill="var(--hand-two-shadow)"/><path d="m9.01 20.99 1.29-1.55c.51-.62 1.38-.75 1.94-.29s.59 1.33.08 1.95l-1.29 1.55c-.51.62-1.38.75-1.94.29s-.59-1.33-.08-1.95Z" fill="var(--hand-two)"/><path d="M10.43 22.82c-.53-.44-.57-1.28-.07-1.88l1.24-1.49c.14-.17.32-.29.51-.38-.56-.33-1.32-.2-1.8.37L9.01 21c-.52.62-.48 1.5.08 1.97.45.38 1.11.34 1.62 0-.09-.04-.19-.07-.27-.14Z" fill="var(--hand-two-shadow)"/><path d="m10.96 22.64 1.32-1.58c.53-.63 1.39-.78 1.94-.33.54.45.56 1.33.03 1.96l-1.32 1.58c-.53.63-1.39.78-1.94.33-.54-.45-.56-1.33-.03-1.96Z" fill="var(--hand-two)"/><path d="M12.34 24.44c-.52-.43-.54-1.28-.03-1.88l1.27-1.52c.15-.18.33-.3.51-.4-.55-.32-1.31-.17-1.8.41l-1.33 1.6c-.53.64-.52 1.52.03 1.97.44.37 1.1.32 1.61-.04-.09-.04-.19-.07-.27-.13Z" fill="var(--hand-two-shadow)"/><path d="m13.47 23.58 1.16-1.39c.46-.55 1.29-.63 1.84-.17.56.46.63 1.28.17 1.84l-1.16 1.39c-.46.55-1.29.63-1.84.17-.56-.46-.63-1.28-.17-1.84Z" fill="var(--hand-two)"/><path d="M14.93 25.37c-.53-.44-.61-1.23-.16-1.77l1.11-1.34c.13-.16.29-.26.47-.34-.55-.34-1.28-.26-1.7.26l-1.17 1.4c-.47.56-.39 1.39.17 1.85.45.38 1.08.38 1.55.07-.09-.04-.19-.08-.27-.14Z" fill="var(--hand-two-shadow)"/><path d="M24.71 8.69s-.72.36-.96.47c-.58.26-1.19.41-1.82.43-.26 0-2.08-.42-3.44-.59-2.39-.29-2.77-.59-3.84-.08-.61.29-.67.47-1.41 1.25-1.13 1.19-2.62 2.59-3.4 3.11-1.18.8-.12 2.04 1.54 1.86 2.27-.25 2.5-1.82 3.66-2.09.2-.05.39.12.39.12.59.41 1.33 1.05 2.08 1.36 1.11.45 2.88.39 3.73.23.07-.01 3.58 2.2 4.26 2.72.07.05.22.2.22.2.54-.49 2.55-1.46 2.55-1.46L24.7 8.68Z" fill="var(--hand-two)"/><path d="M10.19 13.67c.77-.53 2.4-1.61 3.53-2.8.74-.78.8-.96 1.4-1.25 1.07-.51 1.44-.22 3.83.08 1.35.17 3.16.6 3.42.59.63-.02 1.24-.17 1.82-.43.09-.04.46-.18.91-.34l-.38-.8s-.72.36-.96.47c-.58.26-1.19.41-1.82.43-.26 0-2.08-.42-3.44-.59-2.39-.29-2.77-.59-3.84-.08-.61.29-.67.47-1.41 1.25-1.13 1.19-2.62 2.59-3.4 3.11-.73.5-.6 1.16 0 1.55-.18-.41-.12-.86.37-1.19Z" fill="var(--hand-two-shadow)"/><path d="M29.16 13.87h1.39c.14 0 .25.11.25.25v3.33c0 .14-.11.25-.25.25h-1.39v-3.83Z" transform="rotate(65 29.98 15.779)" fill="var(--cuff-one)"/><path d="M23.66 9.32h8.15c.14 0 .25.11.25.25v3.33c0 .14-.11.25-.25.25h-8.15V9.32Z" transform="rotate(-115 27.858 11.234)" fill="var(--cuff-one-shadow)"/><circle cx="29.29" cy="14.29" r=".43" fill="var(--cufflink)"/><path d="M1.25 13.87h1.39c.14 0 .25.11.25.25v3.33c0 .14-.11.25-.25.25H1.25v-3.83Z" transform="rotate(115 2.075 15.788)" fill="var(--cuff-two)"/><path d="M0 9.32h8.15c.14 0 .25.11.25.25v3.33c0 .14-.11.25-.25.25H0V9.32Z" transform="rotate(-65 4.196 11.235)" fill="var(--cuff-two-shadow)"/><circle cx="2.77" cy="14.3" r=".43" fill="var(--cufflink)"/><path fill="none" d="M0 0h31.96v32H0z"/></svg>