<svg class="product-illustration" aria-hidden="true" aria-labelledby="privacy" xmlns="http://www.w3.org/2000/svg" viewBox="0 0 32 32"><title id="privacy">Privacy</title><g id="privacy"><g id="browser"><path d="M1.98 5.24h28.13v20H1.98z" fill="var(--browser)"/><path d="M3.5 1.24h25.11c.83 0 1.5.67 1.5 1.5v2.5H1.98V2.76c0-.84.68-1.52 1.52-1.52Z" fill="var(--header)"/><rect class="cls-11" x="17.14" y="2.36" width="11" height="1.75" rx=".87" ry=".87" fill="var(--search)"/><circle cx="4.98" cy="3.36" r="1" fill="var(--close)"/><circle cx="8.16" cy="3.36" r="1" fill="var(--minimize)"/><circle cx="11.46" cy="3.36" r="1" fill="var(--maximize)"/></g><rect x="6.05" y="12.12" width="19.9" height="8.15" rx="4.04" ry="4.04" fill="var(--slider)"/><circle cx="10.31" cy="16.34" r="2.93" fill="var(--button)"/><g id="text"><path d="M7.04 6.46c.51 0 .91.11 1.18.32s.41.56.41 1.05-.14.84-.42 1.06-.67.33-1.19.33h-.24v1.36h-.77V6.56c.17-.04.35-.07.54-.08.19-.02.35-.02.5-.02Zm.05.78h-.17c-.05 0-.1 0-.14.01v1.17h.24c.27 0 .47-.04.61-.13s.2-.25.2-.48c0-.11-.02-.21-.05-.28s-.08-.13-.15-.18a.433.433 0 0 0-.24-.09c-.09-.02-.19-.03-.31-.03ZM10.21 6.46c.52 0 .91.11 1.19.33.27.22.41.56.41 1.01 0 .29-.06.52-.17.7s-.27.32-.48.42c.07.1.14.22.22.35.08.13.15.27.23.41s.15.29.22.45c.07.15.13.31.19.46h-.87c-.06-.13-.13-.27-.19-.41-.06-.14-.13-.27-.2-.4s-.13-.25-.2-.37-.13-.22-.2-.31h-.38v1.49h-.77V6.56c.17-.04.34-.07.52-.08s.34-.02.48-.02Zm.04.78h-.15c-.04 0-.09 0-.13.01v1.1h.22c.29 0 .5-.04.62-.13s.19-.23.19-.44-.06-.34-.19-.43c-.13-.08-.31-.13-.56-.13ZM12.51 6.5h.77v4.07h-.77V6.5ZM15.11 10.57c-.14-.34-.27-.7-.4-1.06-.13-.37-.26-.73-.38-1.09-.12-.36-.23-.7-.33-1.03s-.19-.62-.26-.88h.85c.06.24.14.49.21.76l.24.81c.08.27.16.53.23.78.08.25.15.46.22.64.06-.18.14-.39.21-.64s.16-.51.24-.78l.24-.81c.08-.27.15-.53.22-.76h.82c-.08.26-.17.55-.27.88-.1.33-.21.67-.33 1.03-.12.36-.25.72-.38 1.09-.13.37-.27.72-.4 1.06h-.74ZM19.64 10.57c-.04-.14-.08-.29-.12-.44-.04-.15-.09-.3-.13-.45h-1.34c-.04.15-.09.3-.13.45-.04.15-.08.29-.12.43H17c.13-.44.25-.84.37-1.22.12-.37.23-.72.34-1.05.11-.33.22-.64.33-.94.11-.3.22-.58.34-.87h.73a40.68 40.68 0 0 1 .66 1.81c.11.33.23.68.34 1.05.12.37.24.78.37 1.22h-.83Zm-.93-3.15c-.02.06-.04.14-.08.24s-.07.22-.11.35c-.04.13-.09.28-.14.44-.05.16-.11.33-.16.5h.98c-.05-.18-.1-.35-.15-.51s-.1-.31-.14-.44c-.04-.13-.08-.25-.12-.35-.03-.1-.06-.18-.08-.24ZM23.06 6.5v.78h-1.04v3.29h-.77V7.28h-1.04V6.5h2.85ZM23.55 10.57V6.5h2.32v.77h-1.55v.8h1.37v.75h-1.37v.98h1.66v.77h-2.44Z" fill="var(--title)"/></g><g id="hand"><path d="m17.41 17.6.01-.01-.01.01zM19.63 20.49l-.99-2.37c-.2-.48-.73-.63-1.2-.51-.04.01-.12.03-.16.05.45-.11.93.12 1.11.56l.99 2.37c.26.56.45 1.63.46 1.74.07.73.21 1.76-.04 2.66-.05.19-.04.39.02.57l.61 1.63.25-.1-.61-1.63a.857.857 0 0 1-.02-.57c.25-.9.11-1.93.04-2.66-.01-.11-.2-1.18-.46-1.74Z" fill="var(--hand-shadow)"/><path d="m11.9 23.03-2.73-6.61a1 1 0 0 1 .55-1.31 1 1 0 0 1 1.31.55l1.22 2.96v-.04c-.2-.5.04-1.06.54-1.26a.993.993 0 0 1 1.3.54l.32.78c-.16-.45.15-.99.6-1.17.46-.19 1.05 0 1.24.47l.38.93a.949.949 0 0 1 1.78-.65l.99 2.37c.26.56.45 1.64.46 1.74.07.73.21 1.76-.04 2.66-.05.19-.04.39.02.57l.61 1.63-5.03 2.08-.7-1.71s-2.47-1.07-3.98-2.69c-.51-.55-1.41-1.5-2.03-2.17-.38-.41-.36-1.05.06-1.43.39-.36 1-.35 1.38.02l1.76 1.72Z" fill="var(--hand)"/><rect x="15.04" y="28" width="6.67" height="2.2" rx=".37" ry=".37" transform="rotate(-22.44 18.354 29.105)" fill="var(--cuff)"/></g><path fill="none" d="M0 0h32v32H0z"/></g></svg>