<svg class="product-illustration" aria-hidden="true" aria-labelledby="stp" xmlns="http://www.w3.org/2000/svg" viewBox="0 0 32 32"><title id="stp">Single Transfer Protocol</title><g id="stp"><g id="page"><rect x="6" width="24" height="30" rx="1" ry="1" fill="var(--stp-page)"/><path d="M28 0h1c.55 0 1 .45 1 1v28c0 .55-.45 1-1 1h-1V0Z" fill="var(--stp-page-shadow)"/></g><g id="lines" fill="var(--lines)"><rect x="10" y="14" width="8" height=".85" rx=".43" ry=".43"/><rect x="10" y="16" width="6.81" height=".85" rx=".43" ry=".43"/><rect x="10" y="18" width="6" height=".85" rx=".43" ry=".43"/></g><g id="percent"><circle cx="22.24" cy="18.37" r="4.41" fill="var(--percent-one)"/><path d="M25.5 15.42a4.611 4.611 0 0 1-3.84 7.16c-.44 0-.85-.08-1.25-.19.56.25 1.17.4 1.82.4a4.41 4.41 0 0 0 4.41-4.41c0-1.14-.45-2.17-1.16-2.96Z" fill="var(--percent-two)"/><rect fill="var(--percent-two)" x="19.47" y="17.94" width="5.71" height=".91" rx=".43" ry=".43" transform="rotate(-56.07 22.333 18.4)"/><circle fill="var(--percent-two)" cx="20.97" cy="16.77" r=".97"/><circle fill="var(--percent-two)" cx="23.51" cy="19.97" r=".97"/></g><g id="title"><rect x="10" y="4" width="16" height="8" rx=".5" ry=".5" fill="var(--title)"/><path d="M24.73 4h.77c.28 0 .5.22.5.5v7c0 .28-.22.5-.5.5h-.77V4Z" fill="var(--title-shadow)"/><path fill="var(--text)" d="M19.62 5.27h1.91c1.02 0 1.5.6 1.5 1.65 0 1.31-.72 1.62-1.64 1.62h-.51v2.42h-1.26V5.27Zm1.68 2.4c.46 0 .55-.25.55-.77 0-.43-.05-.74-.55-.74h-.41v1.51h.42ZM17.01 6.2h-.86v-.93h2.97v.93h-.85v4.76h-1.26V6.2ZM12.76 9.24l1.07-.16c.01.74.18 1.01.5 1.01.26 0 .32-.22.32-.41 0-.47-.24-.75-.63-1.08l-.49-.43c-.44-.37-.77-.79-.77-1.48 0-.96.61-1.49 1.59-1.49 1.22 0 1.39.95 1.41 1.62l-1.08.13c-.01-.51-.05-.83-.37-.83-.23 0-.34.25-.34.44 0 .42.22.65.55.93l.47.41c.49.42.88.92.88 1.71s-.58 1.43-1.49 1.43c-1.07 0-1.59-.54-1.64-1.81Z"/><g id="money"><path d="M0 19.99h20.9v12.02H0z" fill="var(--money)"/><path fill="var(--money-two)" d="M0 19.99v12.02h20.9V19.99H0Zm19.38 9.77c-.44 0-.8.34-.8.76H2.31c0-.42-.36-.76-.8-.76v-7.54c.44 0 .8-.34.8-.76h16.27c0 .42.36.76.8.76v7.54Z"/><path fill="var(--money-two)" d="M4.03 24.62c-.75 0-1.36.61-1.36 1.36s.61 1.36 1.36 1.36 1.36-.61 1.36-1.36-.61-1.36-1.36-1.36ZM16.38 24.62c-.75 0-1.36.61-1.36 1.36s.61 1.36 1.36 1.36 1.36-.61 1.36-1.36-.61-1.36-1.36-1.36ZM10.21 22.39c-1.99 0-3.6 1.61-3.6 3.61s1.61 3.6 3.6 3.6 3.6-1.61 3.6-3.6-1.61-3.61-3.6-3.61Zm1.19 5.33c-.2.13-.42.21-.66.25v.24c-.02.28-.26.5-.54.48-.28.02-.52-.2-.54-.48v-.2h-.13c-.14-.02-.28-.04-.42-.08-.11-.03-.21-.06-.32-.1-.09-.03-.16-.07-.22-.1l.28-.72c.16.07.32.13.5.18.24.06.48.08.72.08.12 0 .24 0 .35-.03.08-.02.15-.04.22-.09.05-.03.09-.08.12-.13.02-.05.03-.11.03-.17 0-.14-.08-.26-.21-.33-.23-.12-.46-.22-.71-.28-.15-.05-.29-.1-.44-.16-.14-.06-.27-.13-.39-.22a.987.987 0 0 1-.28-.33.86.86 0 0 1-.11-.47c0-.17.04-.34.12-.5.08-.15.19-.28.33-.38.16-.11.33-.19.52-.24.02 0 .04 0 .05-.01v-.15c.02-.28.26-.5.54-.48.28-.02.52.2.54.48v.1c.11.01.23.03.34.06.19.05.37.11.54.19l-.29.71a2.99 2.99 0 0 0-.42-.15c-.18-.05-.37-.07-.55-.07-.18-.01-.36.02-.52.09-.1.05-.16.16-.16.27 0 .07.02.13.06.18.05.06.1.1.16.14.08.04.16.08.25.11s.2.07.31.1c.23.08.44.15.61.23.16.06.3.15.43.26.11.1.2.22.26.35.06.16.09.32.08.49.01.35-.15.67-.44.87Z"/></g></g><path fill="none" d="M0 0h32v32H0z"/></g></svg>