<svg class="product-illustration" aria-hidden="true" aria-labelledby="subscribe-hr" xmlns="http://www.w3.org/2000/svg" viewBox="0 0 32 32" style="enable-background:new 0 0 32 32" xml:space="preserve"><title id="subscribe-hr">Subscribe HR</title><path d="M0 14.4c0 1.6.6 3 2.8 3h17l2.4-3-2.4-3h-17c-2.2.1-2.8 1.4-2.8 3z" fill="#4C4C4E"/><path d="M20.8 17.4h8.4c2.2 0 2.8-1.4 2.8-3s-.6-3-2.8-3h-8.4l2.4 3-2.4 3z" fill="#f99d20"/><path d="M3.9 13.7c-.1-.1-.2-.1-.3-.2h-.3c-.1 0-.2 0-.3.1-.1.1-.1.1-.1.2s0 .1.1.2h.2l.3.1c.4.1.7.4.7.8 0 .2-.1.5-.3.6-.2.2-.5.3-.8.2-.1 0-.3 0-.5-.1s-.3-.1-.4-.2l.2-.4c.1.1.2.1.4.2.1 0 .2.1.4.1.3 0 .5-.1.5-.4 0-.2-.1-.3-.3-.3l-.3-.1c-.1 0-.2-.1-.3-.1-.1-.1-.2-.1-.2-.2-.1-.1-.1-.2-.1-.4s.1-.4.3-.6c-.1-.1.2-.2.4-.2s.3 0 .5.1c.1 0 .3.1.4.2l-.2.4zm1-.6v1.7c0 .1 0 .2.1.4 0 .1.2.1.3.1.1 0 .2 0 .3-.1.1 0 .1-.1.1-.2v-2h.5v2c0 .1 0 .2-.1.2-.1.1-.1.2-.3.3-.2.1-.4.2-.6.1-.4 0-.7-.1-.8-.2-.1-.1-.1-.2-.2-.3V13l.7.1zm2.5 0h.4c.1 0 .2.1.3.2.1.1.2.3.2.4 0 .1 0 .3-.1.4l-.2.2s-.1 0-.1.1c.1 0 .3.1.4.2.1.1.1.3.1.4 0 .2-.1.4-.2.5-.1.1-.3.2-.5.2H6.5v-2.6h.9zM7 14.2h.5l.1-.1v-.4l-.1-.1h-.4l-.1.6zm0 1.1h.4s.1 0 .1-.1l.1-.1v-.2c0-.1 0-.1-.1-.2 0-.1-.1-.1-.1-.1H7v.7zm3.1-1.6c-.1-.1-.2-.1-.3-.2h-.3c-.1 0-.2 0-.3.1-.1.1-.1.1-.1.2s0 .1.1.2h.2l.3.1c.4.1.7.4.7.8 0 .2-.1.5-.3.6-.2.2-.5.3-.8.2-.1 0-.3 0-.5-.1s-.3-.1-.4-.2l.2-.4c.1.1.2.1.4.2.1 0 .2.1.4.1.3 0 .5-.1.5-.4 0-.2-.1-.3-.3-.3l-.3-.1c-.1 0-.2-.1-.3-.1-.1-.1-.2-.1-.2-.2-.1-.1-.1-.2-.1-.4s.1-.4.3-.6c0-.1.2-.2.4-.2s.3 0 .5.1c.1 0 .3.1.4.2l-.2.4zm2-.1c-.1-.1-.3-.1-.4-.1-.1 0-.2 0-.3.1-.1.1-.2.1-.2.2-.1.1-.1.3-.1.6s0 .6.1.7c.1.2.3.3.5.2h.2c.1 0 .2-.1.2-.1l.2.3c-.2.2-.5.3-.7.2-.3 0-.6-.1-.9-.4-.2-.3-.3-.6-.3-.9 0-.3 0-.5.2-.8.1-.2.2-.4.4-.5.2-.1.4-.2.6-.2.1 0 .3 0 .4.1.1 0 .2.1.3.1 0 .2-.2.5-.2.5zm1.4-.5c.4 0 .7.3.8.7v.1c0 .2-.1.4-.2.5-.1.1-.2.2-.4.2l.1.1s.1.1.2.3c.1.2.2.3.2.4.1.1.1.2.2.3h-.6l-.2-.4c-.1-.2-.2-.4-.3-.5 0-.1-.1-.1-.1-.1h-.1v1.1h-.5v-2.6l.9-.1zm-.4 1.1h.5c.1 0 .1 0 .2-.1s.1-.1.1-.2c0-.2-.1-.3-.1-.3-.1 0-.2-.1-.3-.1H13l.1.7zm2.1-.5v2h-.5v-1.6l.5-.4zm-.5.2v-.8h.5v.4l-.5.4zm1.7-.8h.4c.1 0 .2.1.3.2.1.1.2.3.2.4 0 .1 0 .3-.1.4-.1.1-.1.1-.2.1 0 0-.1 0-.1.1.1 0 .3.1.4.2.1.1.1.3.1.4 0 .2-.1.4-.2.5-.1.1-.3.2-.5.2h-1.2V13l.9.1zm-.4 1h.5l.1-.1v-.4l-.1-.1H16v.6zm0 1.2h.4s.1 0 .1-.1l.1-.1v-.2c0-.1 0-.1-.1-.2 0-.1-.1-.1-.1-.1H16v.7zm3-2.2v.4h-.9v.6h.7v.4h-.7v.7h1v.5h-1.5v-2.6H19zm6.8 2.6v-1.1h-.5v1.1h-.7v-2.6h.7v1h.5v-1h.7v2.6h-.7zm2.3 0-.2-.7c0-.1-.1-.2-.1-.2-.1 0-.1-.1-.2-.1v1h-.7v-2.6h.9c.4 0 .6.1.8.2.2.1.2.3.2.5s0 .4-.1.5c-.1.1-.2.2-.4.2.1 0 .1.1.1.1 0 .1.1.1.1.2s.1.2.2.4.2.4.2.5h-.8zm-.6-2v.5h.2c.1 0 .2 0 .2-.1.1 0 .1-.1.1-.2s0-.1-.1-.2c-.1 0-.1-.1-.2-.1h-.2v.1z" fill="#ffffff"/><path fill="none" d="M0 0h32v32H0z"/></svg>