<svg class="product-illustration" aria-hidden="true" aria-labelledby="timelog" xmlns="http://www.w3.org/2000/svg" viewBox="0 0 32 32"><title id="timelog">Timelogs</title><g id="timelogs"><g id="board"><path d="M25.69 2.74H17c-.13.43-.52.74-.99.74s-.85-.32-.99-.74H6.27c-.55 0-1 .45-1 1v27.1c0 .55.45 1 1 1h19.42c.55 0 1-.45 1-1V3.74c0-.55-.45-1-1-1Z" fill="var(--clipboard)"/><path d="M24.74 2.74h1c.55 0 1 .45 1 1v27.1c0 .55-.45 1-1 1h-1V2.74Z" fill="var(--clipboard-shadow)"/></g><g id="clip"><path d="M19.88 1.31h-1.64s-.03 0-.03-.02C17.8.52 16.99 0 16.06 0s-1.74.52-2.15 1.29c0 .01-.02.02-.03.02h-1.63c-1.08 0-1.96.88-1.96 1.96V4.9c0 .32.26.58.58.58h10.41c.32 0 .58-.26.58-.58V3.27c0-1.08-.88-1.96-1.96-1.96Zm-3.82 2.17a1.05 1.05 0 1 1 0-2.1 1.05 1.05 0 0 1 0 2.1Z" fill="var(--clip)"/><path d="M10.28 4.31h11.56v.59c0 .32-.26.59-.59.59H10.86c-.32 0-.59-.26-.59-.59v-.59Z" fill="var(--clip-shadow)"/></g><g id="clock"><circle cx="16.02" cy="12.55" r="4.45" fill="var(--clockface)"/><path d="M16.02 7.37a5.181 5.181 0 0 0 0 10.36 5.181 5.181 0 0 0 0-10.36Zm3.54 7.84c-.26-.2-.64-.2-.88.04-.25.24-.26.62-.06.89-.55.4-1.19.68-1.9.79-.03-.34-.31-.62-.67-.62s-.64.28-.67.62c-.71-.1-1.37-.38-1.93-.78a.668.668 0 0 0-.96-.93c-.44-.58-.74-1.26-.85-2.01.36-.02.65-.31.65-.67s-.29-.65-.65-.67c.12-.75.42-1.44.87-2.02a.668.668 0 0 0 .96-.93c.56-.39 1.21-.66 1.92-.77.03.35.31.62.67.62s.63-.27.67-.62c.71.11 1.36.39 1.91.8-.2.27-.19.65.06.89.24.24.62.25.88.04.43.57.72 1.25.83 1.99-.33.05-.58.32-.58.66s.25.61.58.66c-.11.75-.41 1.43-.84 2Z" fill="var(--clock)"/><path d="M18.1 12.06a.52.52 0 0 0-.69-.25l-.84.39v-1.71c0-.29-.23-.52-.52-.52s-.52.23-.52.52v2.53c0 .29.23.52.52.52.11 0 .2-.04.29-.1l1.5-.7a.52.52 0 0 0 .25-.69Z" fill="var(--clockhands)"/></g><g id="data"><rect width="11.24" height="1.34" x="12.8" y="28.27" fill="var(--page-line)" rx=".67" ry=".67"/><rect width="11.24" height="1.34" x="12.8" y="25.67" fill="var(--page-line)" rx=".67" ry=".67"/><path d="M7.64 26.14h2.99v2.99H7.64z" fill="var(--checkbox)"/><path d="m9.65 27.04-.69.73-.35-.33c-.09-.08-.23-.08-.31 0s-.08.23 0 .31l.51.48c.09.08.23.08.31 0l.85-.89c.08-.09.08-.23 0-.31s-.23-.08-.31 0Z" fill="var(--checkbox-outline)"/><path d="M10.44 25.56H7.8c-.42 0-.75.34-.75.75v2.64c0 .42.34.75.75.75h2.64c.42 0 .75-.34.75-.75v-2.64c0-.42-.34-.75-.75-.75Zm.08 3.48H7.71v-2.81h2.81v2.81Z" fill="var(--checkbox-tick)"/><rect width="11.24" height="1.34" x="12.8" y="22.07" fill="var(--page-line)" rx=".67" ry=".67"/><rect width="11.24" height="1.34" x="12.8" y="19.48" fill="var(--page-line)" rx=".67" ry=".67"/><path d="M7.71 20.02h2.83v2.83H7.71z" fill="var(--checkbox)"/><path d="M10.44 19.37H7.8c-.42 0-.75.34-.75.75v2.64c0 .42.34.75.75.75h2.64c.42 0 .75-.34.75-.75v-2.64c0-.42-.34-.75-.75-.75Zm.08 3.48H7.71v-2.81h2.81v2.81Z" fill="var(--checkbox-outline)"/><path d="m9.65 20.84-.69.73-.35-.33c-.09-.08-.23-.08-.31 0s-.08.23 0 .31l.51.48c.09.08.23.08.31 0l.85-.89c.08-.09.08-.23 0-.31s-.23-.08-.31 0Z" fill="var(--checkbox-tick)"/><path id="background" d="M0 0h32v32H0z" fill="none"/></g></g></svg>