<svg class="product-illustration" aria-hidden="true" aria-labelledby="user-roles" xmlns="http://www.w3.org/2000/svg" viewBox="0 0 32 32"><title id="user-roles">User roles</title><g id="user_roles"><g id="id"><path d="M28 9.24h-3.36V30H28a2 2 0 0 0 2-2V11.24a2 2 0 0 0-2-2Z" fill="var(--card)"/><path d="M26.08 9.24H4.02a2 2 0 0 0-2 2V28a2 2 0 0 0 2 2h22.06a2 2 0 0 0 2-2V11.24a2 2 0 0 0-2-2Zm-7.5 3.03h-5.3c-.51 0-.92-.41-.92-.92s.41-.92.92-.92h5.3c.51 0 .92.41.92.92s-.41.92-.92.92Z" fill="var(--card-shadow)"/><rect width="10.15" height="3.44" x="16.02" y="14.56" rx=".75" ry=".75" fill="var(--card-title)"/><rect width="10.15" height="1.27" x="16.02" y="21.45" fill="var(--card-text)" rx=".63" ry=".63"/><rect width="10.15" height="1.27" x="16.02" y="23.79" fill="var(--card-text)" rx=".63" ry=".63"/><rect width="10.15" height="1.27" x="16.02" y="26.12" fill="var(--card-text)" rx=".63" ry=".63"/><path id="tag" d="M16 2c-1.1 0-2 .9-2 2v5.78c0 1.1.9 2 2 2s2-.9 2-2V4c0-1.1-.9-2-2-2Zm-.02 2.97c-.54 0-.97-.43-.97-.97s.43-.97.97-.97.97.43.97.97-.43.97-.97.97Z" fill="var(--lapel)"/></g><g id="user"><g id="body"><path d="M12.92 27.19c-.1-1.17-.91-2.18-2.06-2.72v1.65l-.53.22v.72s-1.13.79-1.41 1.04h4v-.91Z" fill="var(--jacket)"/><path d="m7.52 26.34-.53-.22v-1.65c-1.15.54-1.95 1.55-2.06 2.72v.91h4c-.28-.25-1.41-1.04-1.41-1.04v-.72Z" fill="var(--jacket)"/><path d="M7.99 24.14c-.3.06-.67.17-1 .33v1.66l.53.22v.72s1.13.79 1.41 1.04l-.94-3.97Z" fill="var(--jacket-shadow)"/><path d="M8.93 24.5c-.4 0-.74-.15-.93-.37l.93 3.95.95-3.95h-.01c-.19.22-.54.37-.93.37Z" fill="var(--shirt)"/><path d="M12.93 28.1v-.91c-.11-1.17-.91-2.18-2.06-2.72-.33-.17-.7-.27-1-.34l-.94 3.97c.28-.25 1.41-1.04 1.41-1.04v-.72l.53-.22v-1.27c.91.69 1.49 1.75 1.49 2.95 0 .1 0 .2-.02.3h.59Z" fill="var(--jacket-shadow)"/></g><g id="user"><path d="M8.93 23.08h-.94V24.16c.19.22.53.37.93.37.39 0 .74-.15.93-.37v-1.08h-.94Z" fill="var(--skin)"/><path d="M8.85 23.33c-.31 0-.6-.06-.87-.14s.03.38.74.52c.38.07.59 0 .84-.1v.78c.1-.05.19-.11.3-.24v-1c-.31.12-.65.19-1.02.19Z" fill="var(--skin-shadow)"/><path d="M13.22 19.01c0-.16-.02-.32-.06-.46-.04-.14-.1-.27-.17-.38-.14-.21-.34-.35-.56-.35-.06 0-.12.01-.18.04.03 0 .07-.02.1-.02-.11.02-.21.06-.3.14-.21-1.47-1.41-2.61-3.02-2.61h-.09c.06 0 .11.02.16.02-.08 0-.16-.03-.25-.03-1.52 0-2.66 1.13-2.86 2.6a.614.614 0 0 0-.4-.16c-.44 0-.8.53-.8 1.19s.36 1.19.8 1.19c.14 0 .27-.06.39-.15v.62c.18 1.51 1.32 2.67 2.87 2.67.08 0 .16-.02.24-.02-.05 0-.11.02-.16.02h.09c1.77 0 3.06-1.37 3.06-3.05v-.2h.01c.02.01.03.02.05.03.09.05.18.08.28.08.44 0 .8-.53.8-1.19Zm-1.48-.59c0-.21-.02-.41-.05-.61.04.2.05.4.05.61Zm-.21-1.17c.04.11.07.22.1.34-.03-.11-.05-.23-.1-.34Zm-.13-.27c-.04-.08-.07-.17-.12-.24.05.08.08.16.12.24Zm-.33-.52c-.04-.06-.08-.12-.13-.17.05.05.09.11.13.17Zm-1.41-.96c-.05-.02-.1-.04-.16-.05.05.01.1.04.16.05Zm1 .53s-.09-.08-.13-.12c.05.04.09.08.13.12Zm-.47-.32s-.09-.06-.14-.08c.05.02.09.05.14.08Zm-.69 7.53c.05-.01.1-.03.15-.05-.05.02-.1.04-.15.05Zm.54-.18s.09-.05.13-.08c-.05.02-.09.06-.13.08Zm.48-.28s.09-.08.13-.11c-.04.04-.08.08-.13.11Zm.41-.37c.05-.05.08-.11.13-.17-.04.05-.08.12-.13.17Zm.68-1.3c-.03.11-.05.23-.09.34.04-.11.07-.22.09-.34Zm-.23.61c-.04.08-.07.16-.12.23.05-.07.08-.16.12-.23Zm.29-.84Z" fill="var(--skin)"/></g><path d="M12.76 17.36c-.07-.19-.08-.24-.16-.48-.1-.31-.09-.47-.1-.91-.02-.77-.73-1.47-1.31-1.53-.15-.02-.18.03-.34 0-.2-.05-.13-.26-.36-.41-.06-.04-.13-.07-.21-.1-.02 0-.05-.01-.07-.02-.06-.02-.12-.04-.19-.06-.04 0-.09-.02-.13-.02l-.17-.03c-.06 0-.13-.01-.19-.02h-.51c-.1 0-.19 0-.29.02-.03 0-.07 0-.1.01-.11.01-.22.03-.33.04-.03 0-.05 0-.08.01-.12.02-.24.05-.36.08s-.25.06-.37.1c-1.64.52-2.23 1.55-2.31 2.98-.04.66.02 1.02.07 1.14.11.28.39.78.68.76.16-.01.21-.18.41-.45.08-.11.56-.74 1.17-.95.43-.15.42.1 1.21 0 .44-.05.87-.11 1.24-.42.24-.2.27-.35.41-.34 0 0 .12.5.34.76.3.37.73.59.77 1.05 0 .1.03.17.06.23 0 0 0 .01.01.02.02.04.04.07.07.09.01 0 .03 0 .04.01.03.01.06.03.09.03.04 0 .1-.01.15-.03h.05c.5-.17.89-.83.85-1.34 0-.07-.02-.14-.04-.21Z" fill="var(--hair)"/></g><path id="background" d="M0 0h32v32H0z" fill="none"/></g></svg>