<svg class="product-illustration" aria-hidden="true" aria-labelledby="wpn" xmlns="http://www.w3.org/2000/svg" viewBox="0 0 32 32"><title id="wpn">Withholding Payment Number</title><g id="wpn"><g id="calendar"><path d="m3.93 5.92.62 18.61C4.58 25.34 5.23 26 6 26h21.47c.77 0 1.38-.66 1.35-1.47L28.2 5.92c-.03-.81-.68-1.47-1.45-1.47H5.28c-.77 0-1.38.66-1.35 1.47Z" fill="var(--calendar)"/><path d="M9.42 15.03h-2.8c-.26 0-.47-.22-.48-.49l-.1-2.94c0-.27.19-.49.45-.49h2.8c.26 0 .47.22.48.49l.1 2.94c0 .27-.19.49-.45.49Z" fill="var(--calendar-date)"/><path d="M28.28 8.37H4.01l-.08-2.45c-.03-.81.58-1.47 1.35-1.47h21.47c.77 0 1.42.66 1.45 1.47l.08 2.45Z" fill="var(--calendar-header)"/><path d="M15.01 15.03h-2.8c-.26 0-.47-.22-.48-.49l-.1-2.94c0-.27.19-.49.45-.49h2.8c.26 0 .47.22.48.49l.1 2.94c0 .27-.19.49-.45.49ZM26.21 15.03h-2.8c-.26 0-.47-.22-.48-.49l-.1-2.94c0-.27.19-.49.45-.49h2.8c.26 0 .47.22.48.49l.1 2.94c0 .27-.19.49-.45.49ZM9.62 22.08h-2.8c-.26 0-.47-.22-.48-.49l-.1-2.94c0-.27.19-.49.45-.49h2.8c.26 0 .47.22.48.49l.1 2.94c0 .27-.19.49-.45.49Z" fill="var(--calendar-date)"/><path d="m20.36 11.68-1.79 2-.67-.67c-.13-.12-.32-.11-.42.01-.1.12-.09.31.03.43l1.12 1.11 2.18-2.44c.11-.12.09-.32-.03-.44a.29.29 0 0 0-.42 0" fill="var(--tick)"/><path d="M24.5 6.93c.52 0 .93-.44.91-.99L25.35 4c-.02-.55-.46-.99-.98-.99s-.93.44-.91.99l.06 1.94c.02.55.46.99.98.99ZM18.92 6.96c.52 0 .93-.44.91-.99l-.06-1.94c-.02-.55-.46-.99-.98-.99s-.93.44-.91.99l.06 1.94c.02.55.46.99.98.99ZM13.3 6.93c.52 0 .93-.44.91-.99L14.15 4c-.02-.55-.46-.99-.98-.99s-.93.44-.91.99l.06 1.94c.02.55.46.99.98.99ZM7.7 6.93c.52 0 .93-.44.91-.99L8.55 4c-.02-.55-.46-.99-.98-.99s-.93.44-.91.99l.06 1.94c.02.55.46.99.98.99Z" fill="var(--ringlets)"/><g id="page"><path class="cls-3" d="M3.93 5.91.03 21.99c-.17.76.38 1.5 1.13 1.5h3.35L3.93 5.91Z" fill="var(--calendar-shadow)"/></g></g><g id="money"><path d="M11.08 15.99h20.9v12.02h-20.9z" fill="var(--money)"/><path d="M11.08 15.99v12.02h20.91V15.99H11.08Zm19.38 9.77c-.44 0-.8.34-.8.76H13.39c0-.42-.36-.76-.8-.76v-7.54c.44 0 .8-.34.8-.76h16.28c0 .42.36.76.8.76v7.54Z" fill="var(--money-two)"/><path d="M15.11 20.62c-.75 0-1.36.61-1.36 1.36s.61 1.36 1.36 1.36 1.36-.61 1.36-1.36-.61-1.36-1.36-1.36ZM27.47 20.62c-.75 0-1.36.61-1.36 1.36s.61 1.36 1.36 1.36 1.36-.61 1.36-1.36-.61-1.36-1.36-1.36ZM21.29 18.39c-1.99 0-3.6 1.61-3.6 3.61s1.61 3.6 3.6 3.6 3.6-1.61 3.6-3.6-1.61-3.61-3.6-3.61Zm1.19 5.33c-.2.13-.42.21-.66.25v.24c-.02.28-.26.5-.54.48-.28.02-.52-.2-.54-.48v-.2h-.13c-.14-.02-.28-.04-.42-.08-.11-.03-.21-.06-.32-.1-.09-.03-.16-.07-.22-.1l.28-.72c.16.07.32.13.5.18.24.06.48.08.72.08.12 0 .24 0 .35-.03.08-.02.15-.04.22-.09.05-.03.09-.08.12-.13.02-.05.03-.11.03-.17 0-.14-.08-.26-.21-.33-.23-.12-.46-.22-.71-.28-.15-.05-.29-.1-.44-.16-.14-.06-.27-.13-.39-.22a.987.987 0 0 1-.28-.33.86.86 0 0 1-.11-.47c0-.17.04-.34.12-.5.08-.15.19-.28.33-.38.16-.11.33-.19.52-.24.02 0 .04 0 .05-.01v-.15c.02-.28.26-.5.54-.48.28-.02.52.2.54.48v.1c.11.01.23.03.34.06.19.05.37.11.54.19l-.29.71a2.99 2.99 0 0 0-.42-.15c-.18-.05-.37-.07-.55-.07-.18-.01-.36.02-.52.09-.1.05-.16.16-.16.27 0 .07.02.13.06.18.05.06.1.1.16.14.08.04.16.08.25.11s.2.07.31.1c.23.08.44.15.61.23.16.06.3.15.43.26.11.1.2.22.26.35.06.16.09.32.08.49.01.35-.15.67-.44.87Z" fill="var(--money-two)"/></g><path fill="none" d="M0 0h32v32H0z"/></g></svg>