<svg class="product-illustration" aria-hidden="true" aria-labelledby="xero" xmlns="http://www.w3.org/2000/svg" viewBox="0 0 32 32"><title id="xero">Xero</title><path d="M16.02 32c8.81 0 15.95-7.16 15.95-16S24.83 0 16.02 0 .08 7.16.08 16s7.14 16 15.95 16" fill="#0BACDE"/><path d="m7.71 15.96 2.72-2.74c.18-.2.16-.51-.05-.69a.5.5 0 0 0-.65 0l-2.72 2.73-2.73-2.73a.489.489 0 0 0-.69.69l2.72 2.73-2.72 2.73a.49.49 0 0 0 .66.72l.02-.02L7 16.65l2.72 2.72c.18.2.49.21.69.02.1-.09.15-.22.15-.36 0-.13-.05-.25-.14-.34L7.7 15.95m16.18 0c0 .49.4.89.89.89s.89-.4.89-.89-.4-.89-.89-.89-.88.4-.88.89m-1.68 0a2.57 2.57 0 1 1 5.138-.002 2.57 2.57 0 0 1-5.138.002m-1.01 0c0 1.98 1.6 3.59 3.58 3.59s3.58-1.61 3.58-3.59-1.6-3.59-3.58-3.59-3.58 1.61-3.58 3.59m-.25-3.53h-.15c-.45 0-.89.14-1.25.42a.493.493 0 0 0-.48-.38.48.48 0 0 0-.48.48v6.04c.02.27.25.48.52.46a.48.48 0 0 0 .46-.46v-3.72c0-1.24.11-1.74 1.17-1.87.1-.01.2 0 .21 0 .29-.01.49-.21.49-.48a.49.49 0 0 0-.49-.49m-9.36 2.94v-.04a2.584 2.584 0 0 1 5.02.04h-5.02Zm6.02-.09c-.21-1-.75-1.82-1.58-2.34-1.23-.77-2.8-.73-3.98.11-1.2.86-1.75 2.37-1.4 3.81a3.614 3.614 0 0 0 3.04 2.68c.43.05.85.03 1.29-.09.38-.09.74-.25 1.07-.46.35-.22.63-.52.92-.87 0 0 0-.01.02-.02.19-.24.16-.59-.05-.75-.18-.14-.48-.19-.72.11-.05.07-.11.15-.17.22-.19.21-.42.41-.71.57-.36.19-.77.3-1.2.3-1.42-.02-2.18-1.01-2.45-1.72-.05-.13-.08-.27-.11-.41v-.07h5.08c.7-.02 1.07-.51.97-1.07Z" fill="#FFFFFF"/><path fill="none" d="M0 0h32v32H0z"/></svg>