<svg viewBox="0 0 512 512" xmlns="http://www.w3.org/2000/svg" fill-rule="evenodd" clip-rule="evenodd" stroke-linejoin="round" stroke-miterlimit="2"><path fill="#fff" fill-rule="nonzero" d="M102.707 247.014h73.275v16.804h-73.275zM102.707 211.246h73.275v16.804h-73.275zM102.707 174.246h73.275v16.804h-73.275zM102.707 278.226h73.275v16.81h-73.275zM102.702 340.66h298.382v16.809H102.702zM102.702 310.66h298.382v16.809H102.702zM102.702 371.877h298.382v16.804H102.702zM102.702 403.088h298.382v16.809H102.702zM102.702 434.305h298.382v16.809H102.702zM112.701 468.305h286.383c1.646 0-24.87 16.809-29.001 16.809h-228.38c-2.63 0-29.002-16.81-29.002-16.81zM186.702 503.305h135.632c1.646 0-21.671 5.028-28 5.808-27.565 3.4-55.788 3.954-79.883-.5-4.976-.92-27.75-5.308-27.75-5.308z"/><g><path d="M238.424 215.814c-10.506 0-18.14 9.382-18.14 22.407 0 13.17 7.634 22.689 18.14 22.689 6.258 0 14.134-4.344 19.888-11.206l16.763 20.033c-9.753 11.901-24.64 19.605-38.147 19.605-26.898 0-46.413-21.427-46.413-50.704 0-28.852 20.016-49.861 47.536-49.861 13.382 0 28.023 6.996 37.024 17.927l-16.763 22.272c-5.253-7.987-13.129-13.162-19.888-13.162z" fill="#fff" fill-rule="nonzero"/></g><g><path d="M305.087 189.754l18.14 64.438 18.008-64.438h29.65l-33.527 98.194h-30.012l-33.276-98.194h31.017z" fill="#fff" fill-rule="nonzero"/></g><g><path d="M77.537 439.817l3.186-292.346 270.598-.81 77.39 107.62 3.186 186.728s130.29-117.152 58.678-286.242C421.025-9.454 255.956 1.234 255.956 1.234S97.903-5.746 27.312 143.7C-56.24 320.587 77.537 439.817 77.537 439.817z" fill="#fff"/></g></svg>