<svg viewBox="0 0 512 512" xmlns="http://www.w3.org/2000/svg" fill-rule="evenodd" clip-rule="evenodd" stroke-linejoin="round" stroke-miterlimit="2"><path d="M256 0C114.637 0 0 114.637 0 256s114.637 256 256 256 256-114.637 256-256S397.363 0 256 0zm-74.391 387h-62.347V199.426h62.347V387zm-31.171-213.187h-.407c-20.922 0-34.453-14.403-34.453-32.403 0-18.406 13.945-32.41 35.274-32.41 21.328 0 34.453 14.004 34.859 32.41 0 18-13.531 32.403-35.273 32.403zM406.422 387h-62.34V286.652c0-25.218-9.027-42.418-31.586-42.418-17.223 0-27.48 11.602-31.988 22.801-1.649 4.008-2.051 9.61-2.051 15.215V387h-62.344s.817-169.977 0-187.574h62.344v26.558c8.285-12.781 23.109-30.961 56.188-30.961 41.019 0 71.777 26.809 71.777 84.422V387z" fill="#fff" fill-rule="nonzero"/></svg>