<svg viewBox="0 0 512 512" xmlns="http://www.w3.org/2000/svg" fill-rule="evenodd" clip-rule="evenodd" stroke-linejoin="round" stroke-miterlimit="2"><path d="M256 0C114.637 0 0 114.637 0 256s114.637 256 256 256 256-114.637 256-256S397.363 0 256 0zm116.887 199.602c.113 2.519.168 5.05.168 7.593 0 77.645-59.102 167.18-167.184 167.184h.004-.004c-33.183 0-64.062-9.727-90.066-26.395 4.597.543 9.277.813 14.015.813 27.532 0 52.868-9.391 72.981-25.152-25.723-.477-47.41-17.465-54.895-40.813a58.443 58.443 0 0011.043 1.063c5.364 0 10.559-.723 15.496-2.071-26.886-5.383-47.14-29.144-47.14-57.597 0-.266 0-.504.008-.75a58.353 58.353 0 0026.613 7.347c-15.778-10.527-26.149-28.523-26.149-48.91a58.606 58.606 0 017.957-29.535c28.977 35.555 72.282 58.937 121.118 61.394a58.691 58.691 0 01-1.528-13.398c0-32.437 26.317-58.754 58.766-58.754 16.902 0 32.168 7.145 42.89 18.567a117.872 117.872 0 0037.313-14.262c-4.395 13.715-13.707 25.222-25.84 32.5 11.887-1.422 23.215-4.574 33.742-9.254a119.42 119.42 0 01-29.308 30.43z" fill="#fff" fill-rule="nonzero"/></svg>